<?xml version="1.0" encoding="UTF-8" standalone="no"?>
<!-- Created with Inkscape (http://www.inkscape.org/) -->

<svg
   xmlns:dc="http://purl.org/dc/elements/1.1/"
   xmlns:cc="http://creativecommons.org/ns#"
   xmlns:rdf="http://www.w3.org/1999/02/22-rdf-syntax-ns#"
   xmlns:svg="http://www.w3.org/2000/svg"
   xmlns="http://www.w3.org/2000/svg"
   xmlns:sodipodi="http://sodipodi.sourceforge.net/DTD/sodipodi-0.dtd"
   xmlns:inkscape="http://www.inkscape.org/namespaces/inkscape"
   width="740"
   height="1280"
   version="1.1"
   viewBox="0 0 740 1280"
   xml:space="preserve"
   id="svg18"
   sodipodi:docname="bg5.svg"
   inkscape:version="0.92.5 (2060ec1f9f, 2020-04-08)"><defs
     id="defs22" /><sodipodi:namedview
     pagecolor="#ffffff"
     bordercolor="#666666"
     borderopacity="1"
     objecttolerance="10"
     gridtolerance="10"
     guidetolerance="10"
     inkscape:pageopacity="0"
     inkscape:pageshadow="2"
     inkscape:window-width="1920"
     inkscape:window-height="986"
     id="namedview20"
     showgrid="false"
     inkscape:zoom="0.52149125"
     inkscape:cx="668.53141"
     inkscape:cy="594.62167"
     inkscape:window-x="1909"
     inkscape:window-y="49"
     inkscape:window-maximized="1"
     inkscape:current-layer="svg18"
     inkscape:snap-global="true"
     inkscape:snap-bbox="true"
     inkscape:bbox-nodes="false"
     inkscape:bbox-paths="true"
     inkscape:snap-bbox-midpoints="true"
     inkscape:snap-intersection-paths="true"
     inkscape:snap-nodes="false" /><metadata
     id="metadata2"><rdf:RDF><cc:Work
         rdf:about=""><dc:format>image/svg+xml</dc:format><dc:type
           rdf:resource="http://purl.org/dc/dcmitype/StillImage" /><dc:title /></cc:Work></rdf:RDF></metadata><rect
     style="opacity:1;vector-effect:none;fill:#ffcc00;fill-opacity:1;stroke-width:0.99999988;stroke-linecap:butt;stroke-linejoin:miter;stroke-miterlimit:4;stroke-dasharray:none;stroke-dashoffset:0;stroke-opacity:1;stroke:#000000"
     id="rect11"
     width="1037.4095"
     height="711.42133"
     x="-145.7359"
     y="305.87051" /><path
     sodipodi:nodetypes="sssssssccccs"
     inkscape:connector-curvature="0"
     id="path20"
     d="m 879.30537,841.55023 c -10.41374,0.0818 -20.66012,1.13707 -30.25647,4.30987 C 777.16886,869.62554 693.15033,996.40858 619.03463,977.15507 549.166,959.00477 514.5748,870.24454 439.56334,870.24454 c -67.46359,0 -137.70916,123.94369 -206.29027,103.15849 C 194.66041,961.70055 87.272851,832.3059 53.79969,862.74046 39.130157,876.07831 17.98875,869.21326 2.2271221,881.49682 -56.860659,927.54588 -128.43699,909.10474 -192.71698,887.09813 V 1025.9201 H 923.31383 V 843.8198 c -14.08765,-0.54887 -29.21151,-2.38583 -44.00846,-2.26957 z"
     style="opacity:0.20499998;fill:#000000;stroke:none;stroke-width:0.99999994px;stroke-linecap:butt;stroke-linejoin:miter;stroke-opacity:1" /><path
     style="fill:#00ffff;stroke:#000000;stroke-width:1px;stroke-linecap:butt;stroke-linejoin:miter;stroke-opacity:1"
     d="m 859.39472,923.04473 c -9.68013,0.0418 -19.20468,0.58125 -28.125,2.20312 -66.81633,12.14843 -144.91604,76.95745 -213.81054,67.11543 -64.94661,-9.27808 -97.10098,-54.65058 -166.82813,-54.65058 -62.71101,0 -128.00801,63.3576 -191.75781,52.73261 -35.89253,-5.98208 -135.71499,-72.1261 -166.830078,-56.56855 -13.636114,6.81805 -33.288179,3.30877 -47.939453,9.58789 -54.925244,23.53938 -121.459265,14.11263 -181.210939,2.86328 V 1017.291 H 900.30293 v -93.08611 c -13.09522,-0.28057 -27.15366,-1.21959 -40.90821,-1.16016 z"
     id="path15"
     inkscape:connector-curvature="0"
     sodipodi:nodetypes="sssssssccccs" /></svg>