<?xml version="1.0" encoding="UTF-8" standalone="no"?>
<!-- Created with Inkscape (http://www.inkscape.org/) -->

<svg
   xmlns:dc="http://purl.org/dc/elements/1.1/"
   xmlns:cc="http://creativecommons.org/ns#"
   xmlns:rdf="http://www.w3.org/1999/02/22-rdf-syntax-ns#"
   xmlns:svg="http://www.w3.org/2000/svg"
   xmlns="http://www.w3.org/2000/svg"
   xmlns:sodipodi="http://sodipodi.sourceforge.net/DTD/sodipodi-0.dtd"
   xmlns:inkscape="http://www.inkscape.org/namespaces/inkscape"
   width="740"
   height="1280"
   version="1.1"
   viewBox="0 0 740 1280"
   xml:space="preserve"
   id="svg18"
   sodipodi:docname="level8lose.svg"
   inkscape:version="0.92.5 (2060ec1f9f, 2020-04-08)"><defs
     id="defs22" /><sodipodi:namedview
     pagecolor="#ffffff"
     bordercolor="#666666"
     borderopacity="1"
     objecttolerance="10"
     gridtolerance="10"
     guidetolerance="10"
     inkscape:pageopacity="0"
     inkscape:pageshadow="2"
     inkscape:window-width="1920"
     inkscape:window-height="986"
     id="namedview20"
     showgrid="false"
     inkscape:zoom="0.7375"
     inkscape:cx="121.38176"
     inkscape:cy="774.98508"
     inkscape:window-x="1909"
     inkscape:window-y="49"
     inkscape:window-maximized="1"
     inkscape:current-layer="svg18"
     inkscape:snap-bbox="true"
     inkscape:bbox-nodes="true"
     inkscape:snap-bbox-edge-midpoints="true"
     inkscape:bbox-paths="true"
     inkscape:snap-bbox-midpoints="true"
     inkscape:snap-intersection-paths="true"
     inkscape:object-paths="true"
     inkscape:snap-smooth-nodes="true"
     inkscape:snap-midpoints="true"
     inkscape:snap-object-midpoints="true"
     inkscape:snap-center="true"
     inkscape:snap-text-baseline="true"
     inkscape:snap-page="true"
     inkscape:snap-global="false"
     showguides="false" /><metadata
     id="metadata2"><rdf:RDF><cc:Work
         rdf:about=""><dc:format>image/svg+xml</dc:format><dc:type
           rdf:resource="http://purl.org/dc/dcmitype/StillImage" /><dc:title /></cc:Work></rdf:RDF></metadata><rect
     style="opacity:1;vector-effect:none;fill:#41be41;fill-opacity:1;stroke:#000000;stroke-width:1.99999964;stroke-linecap:butt;stroke-linejoin:miter;stroke-miterlimit:4;stroke-dasharray:none;stroke-dashoffset:0;stroke-opacity:1;paint-order:normal"
     id="rect819"
     width="738"
     height="738"
     x="2.2301025"
     y="269.7699" /><rect
     y="269.7699"
     x="2.2301025"
     height="162.18407"
     width="738"
     id="rect821"
     style="opacity:1;vector-effect:none;fill:#00ffff;fill-opacity:1;stroke:#000000;stroke-width:2;stroke-linecap:butt;stroke-linejoin:miter;stroke-miterlimit:4;stroke-dasharray:none;stroke-dashoffset:0;stroke-opacity:1;paint-order:normal" /><g
     id="g867"
     transform="translate(-7.6293945e-6)"
     style="stroke:#d45500;fill:#ff9955"><rect
       y="450.16946"
       x="292.71185"
       height="96.610168"
       width="6.4406776"
       id="rect831"
       style="opacity:1;vector-effect:none;fill:#ff9955;fill-opacity:1;stroke:#d45500;stroke-width:1.99999988;stroke-linecap:butt;stroke-linejoin:miter;stroke-miterlimit:4;stroke-dasharray:none;stroke-dashoffset:0;stroke-opacity:1;paint-order:normal" /><rect
       style="opacity:1;vector-effect:none;fill:#ff9955;fill-opacity:1;stroke:#d45500;stroke-width:1.99999988;stroke-linecap:butt;stroke-linejoin:miter;stroke-miterlimit:4;stroke-dasharray:none;stroke-dashoffset:0;stroke-opacity:1;paint-order:normal"
       id="rect833"
       width="6.4406776"
       height="96.610168"
       x="440.84744"
       y="450.16946" /><rect
       y="442.71185"
       x="285.59323"
       height="14.237288"
       width="168.81355"
       id="rect823"
       style="opacity:1;vector-effect:none;fill:#ff9955;fill-opacity:1;stroke:#d45500;stroke-width:2;stroke-linecap:butt;stroke-linejoin:miter;stroke-miterlimit:4;stroke-dasharray:none;stroke-dashoffset:0;stroke-opacity:1;paint-order:normal" /><rect
       style="opacity:1;vector-effect:none;fill:#ff9955;fill-opacity:1;stroke:#d45500;stroke-width:2;stroke-linecap:butt;stroke-linejoin:miter;stroke-miterlimit:4;stroke-dasharray:none;stroke-dashoffset:0;stroke-opacity:1;paint-order:normal"
       id="rect825"
       width="168.81355"
       height="14.237288"
       x="285.59323"
       y="463.72879" /><rect
       y="484.74573"
       x="285.59323"
       height="14.237288"
       width="168.81355"
       id="rect827"
       style="opacity:1;vector-effect:none;fill:#ff9955;fill-opacity:1;stroke:#d45500;stroke-width:2;stroke-linecap:butt;stroke-linejoin:miter;stroke-miterlimit:4;stroke-dasharray:none;stroke-dashoffset:0;stroke-opacity:1;paint-order:normal" /><rect
       style="opacity:1;vector-effect:none;fill:#ff9955;fill-opacity:1;stroke:#d45500;stroke-width:1.99999988;stroke-linecap:butt;stroke-linejoin:miter;stroke-miterlimit:4;stroke-dasharray:none;stroke-dashoffset:0;stroke-opacity:1;paint-order:normal"
       id="rect829"
       width="168.81355"
       height="5.2542377"
       x="285.59323"
       y="504.40674" /></g><circle
     r="30.552334"
     cy="406.70139"
     cx="-393.10294"
     id="circle906-4-6"
     style="display:inline;fill:#ffffff;fill-opacity:1;stroke:#000000;stroke-width:3.7560823;stroke-linecap:round;stroke-linejoin:round;stroke-miterlimit:4;stroke-dasharray:none;stroke-dashoffset:0;stroke-opacity:1;paint-order:markers fill stroke"
     transform="scale(-1,1)" /><path
     sodipodi:nodetypes="cccc"
     inkscape:connector-curvature="0"
     id="path13052-2"
     d="m 394.53948,438.88685 -2.90552,63.04078 -49.31054,4.33686 14.53077,55.38885"
     style="fill:none;stroke:#000000;stroke-width:3.7560823;stroke-linecap:round;stroke-linejoin:round;stroke-dasharray:none;stroke-opacity:1;paint-order:markers fill stroke" /><path
     sodipodi:nodetypes="ccc"
     inkscape:connector-curvature="0"
     id="path13054-6"
     d="m 391.63396,501.92763 44.14737,2.47911 -26.06114,46.34782"
     style="fill:none;stroke:#000000;stroke-width:3.7560823;stroke-linecap:round;stroke-linejoin:round;stroke-dasharray:none;stroke-opacity:1;paint-order:markers fill stroke" /><path
     sodipodi:nodetypes="ccccc"
     inkscape:connector-curvature="0"
     id="path13851-0"
     d="m 453.44055,379.63327 -11.48095,54.06124 -47.42012,5.19234 -36.13806,47.89279 -37.32603,-8.81356"
     style="opacity:1;fill:none;fill-opacity:1;stroke:#000000;stroke-width:3.7560823;stroke-linecap:round;stroke-linejoin:round;stroke-miterlimit:4;stroke-dasharray:none;stroke-dashoffset:0;stroke-opacity:1;paint-order:markers fill stroke" /><circle
     r="6.1048117"
     transform="matrix(0.57379542,-0.81899867,-0.81899867,-0.57379542,0,0)"
     cy="-555.44128"
     cx="-116.76083"
     id="circle1043-52-2"
     style="fill:#ffffff;fill-opacity:1;stroke:#000000;stroke-width:0.6260137;stroke-linecap:round;stroke-linejoin:round;stroke-miterlimit:4;stroke-dasharray:none;stroke-dashoffset:0;stroke-opacity:1;paint-order:markers fill stroke" /><circle
     r="1.3650512"
     cy="-404.25177"
     cx="-403.43814"
     id="circle1045-0-1"
     style="fill:#000000;fill-opacity:1;stroke:none;stroke-width:0.6260137;stroke-linecap:round;stroke-linejoin:round;stroke-miterlimit:4;stroke-dasharray:none;stroke-dashoffset:0;stroke-opacity:1;paint-order:markers fill stroke"
     transform="matrix(0.03521667,-0.9993797,-0.9993797,-0.03521667,0,0)" /><circle
     style="fill:#ffffff;fill-opacity:1;stroke:#000000;stroke-width:0.6260137;stroke-linecap:round;stroke-linejoin:round;stroke-miterlimit:4;stroke-dasharray:none;stroke-dashoffset:0;stroke-opacity:1;paint-order:markers fill stroke"
     id="circle1532-8"
     cx="-107.87231"
     cy="-570.30316"
     transform="matrix(0.57379542,-0.81899867,-0.81899867,-0.57379542,0,0)"
     r="6.1048117" /><circle
     style="fill:#000000;fill-opacity:1;stroke:none;stroke-width:0.6260137;stroke-linecap:round;stroke-linejoin:round;stroke-miterlimit:4;stroke-dasharray:none;stroke-dashoffset:0;stroke-opacity:1;paint-order:markers fill stroke"
     id="circle1534-8"
     cx="-404.07709"
     cy="-421.55707"
     r="1.3650512"
     transform="matrix(0.03521667,-0.9993797,-0.9993797,-0.03521667,0,0)" /><g
     id="g1166"
     transform="translate(-3.6383551,51.877261)"><path
       id="path1004"
       d="m 310.60259,382.39542 v 0.48438 c 0,0.71462 0.22114,2.37213 0.42383,3.17773 0.25609,1.01784 1.11406,2.70855 1.78125,3.50977 1.3925,1.67224 3.42696,2.85248 5.91211,3.43945 6.2e-4,1.5e-4 10e-4,-1.4e-4 0.002,0 0.35445,0.0837 0.71965,0.15561 1.0918,0.21485 0.64099,0.10203 1.17107,0.19503 1.18945,0.20898 10e-5,7e-5 0.006,0.002 0.006,0.002 0.0132,0.0132 0.10462,0.52477 0.20508,1.13672 0.10047,0.61196 0.25906,1.39175 0.35156,1.73438 0.0929,0.34264 0.13345,0.60779 0.0899,0.58789 -0.0436,-0.0199 -0.74004,-0.36332 -1.54688,-0.76367 -3.68405,-1.82799 -6.81586,-1.99533 -9.59765,-0.50977 -2.62358,1.40108 -4.52026,4.30092 -5.38282,8.22656 -0.33612,1.52973 -0.3054,5.81496 0.0527,7.46485 0.88753,4.08874 2.81253,7.57272 5.73047,10.36718 1.91852,1.83734 4.42552,3.5193 5.58593,3.74805 0.70555,0.13953 0.85788,0.1388 1.9336,0.004 1.31007,-0.16426 2.622,-0.51332 3.57617,-0.95313 l 0.80078,-0.36914 0.80078,0.36914 c 0.39978,0.18427 0.86544,0.35169 1.35938,0.4961 1.48182,0.43322 3.20446,0.65443 4.07031,0.46875 1.33331,-0.28595 4.1807,-2.22798 6.05859,-4.13282 0.34171,-0.34661 0.66983,-0.70083 0.98047,-1.0625 0,0 0,-0.002 0,-0.002 2.17648,-2.53426 3.59769,-5.45031 4.36133,-8.93359 0.3598,-1.64116 0.3877,-5.92255 0.0488,-7.46485 -0.86374,-3.93132 -2.75792,-6.8266 -5.38086,-8.22461 -2.80516,-1.49514 -5.92202,-1.31798 -9.69336,0.55079 -0.85798,0.42514 -1.57455,0.75271 -1.59375,0.72851 -0.0991,-0.12472 -0.44006,-1.58841 -0.59766,-2.56836 -0.63449,-3.94527 0.50016,-6.68426 3.3418,-8.07617 0.95334,-0.46696 2.31715,-0.8418 3.06445,-0.8418 0.83942,0 1.23804,-1.10572 0.6211,-1.72265 -0.28769,-0.28766 -0.3512,-0.30178 -1.14844,-0.23438 -1.14447,0.0967 -2.73995,0.57786 -3.88086,1.16797 -1.75547,0.90796 -3.24218,2.68029 -3.76367,4.48633 -0.11183,0.38728 -0.23052,0.7821 -0.26172,0.8789 -0.004,0.011 -0.0132,0.002 -0.0195,0.004 -0.0231,0.007 -0.0648,-0.0503 -0.11328,-0.14062 -0.0562,-0.10721 -0.1216,-0.25545 -0.18946,-0.44922 -0.17083,-0.48779 -0.34452,-0.92456 -0.52734,-1.32422 -2.5e-4,-5.5e-4 2.5e-4,-0.001 0,-0.002 -0.54922,-1.20024 -1.19639,-2.07026 -2.19922,-3.02734 -0.21768,-0.20775 -0.43647,-0.39964 -0.66015,-0.57812 -0.22283,-0.17791 -0.44937,-0.34321 -0.6836,-0.49414 -4.7e-4,-3.1e-4 -10e-4,3e-4 -0.002,0 -0.46898,-0.3018 -0.96614,-0.55185 -1.51367,-0.75782 -0.54858,-0.20636 -1.14701,-0.3694 -1.81836,-0.49609 -0.33531,-0.0634 -0.68834,-0.11749 -1.0625,-0.16406 -0.37417,-0.0465 -0.769,-0.0854 -1.1875,-0.11719 z"
       style="fill:none;stroke:#000000;stroke-width:2;stroke-miterlimit:4;stroke-dasharray:none"
       inkscape:connector-curvature="0" /><path
       sodipodi:nodetypes="cccscccccscsssccsccccccscccccccsccccccc"
       inkscape:connector-curvature="0"
       id="path993"
       d="m 316.49742,425.42474 c -1.16041,-0.22875 -3.66736,-1.91101 -5.58588,-3.74835 -2.91794,-2.79446 -4.84396,-6.27816 -5.73149,-10.3669 -0.35814,-1.64989 -0.38782,-5.93563 -0.0517,-7.46536 0.86256,-3.92564 2.75947,-6.82405 5.38305,-8.22513 2.78179,-1.48556 5.91294,-1.31974 9.59699,0.50825 0.80684,0.40035 1.50262,0.74418 1.54618,0.76408 0.0436,0.0199 0.004,-0.24415 -0.0889,-0.58679 -0.0925,-0.34263 -0.25032,-1.12366 -0.35079,-1.73562 -0.10046,-0.61195 -0.19349,-1.12347 -0.20673,-1.13671 -0.0132,-0.0132 -0.55117,-0.10798 -1.1954,-0.21053 -2.98231,-0.47472 -5.41421,-1.7433 -7.00564,-3.65443 -0.66719,-0.80122 -1.52495,-2.49121 -1.78104,-3.50905 -0.20269,-0.8056 -0.42368,-2.46307 -0.42368,-3.17769 v -0.48463 l 0.61614,0.0468 c 3.34803,0.25443 5.18959,0.94719 6.92779,2.60609 1.33711,1.27611 2.04077,2.40048 2.72496,4.35413 0.14693,0.41955 0.29268,0.68361 0.32389,0.58679 0.0312,-0.0968 0.14824,-0.49291 0.26007,-0.88019 0.52149,-1.80604 2.00856,-3.57854 3.76403,-4.4865 1.14091,-0.59011 2.73742,-1.06992 3.88189,-1.16666 0.79724,-0.0674 0.86006,-0.0546 1.14775,0.23306 0.61694,0.61693 0.21793,1.72332 -0.62149,1.72332 -0.7473,0 -2.11098,0.37445 -3.06432,0.84141 -2.84164,1.39191 -3.97499,4.13254 -3.3405,8.07781 0.1576,0.97995 0.49738,2.44241 0.59644,2.56713 0.0192,0.0242 0.73687,-0.30391 1.59485,-0.72905 5.37135,6.19593 7.26143,-1.743 9.69205,-0.55063 2.62294,1.39801 4.51722,4.2934 5.38096,8.22472 0.33887,1.5423 0.3107,5.8242 -0.0491,7.46536 -0.87273,3.98089 -2.60397,7.22189 -5.34037,9.99756 -1.87789,1.90484 -4.72526,3.84741 -6.05857,4.13336 -1.15447,0.24758 -3.83211,-0.22841 -5.43121,-0.96549 l -0.80002,-0.36875 -0.80003,0.36875 c -0.95417,0.43981 -2.26718,0.79011 -3.57725,0.95437 -1.07572,0.13489 -1.22739,0.13453 -1.93294,-0.005 z"
       style="fill:#784421;stroke-width:0.11735811" /><path
       sodipodi:nodetypes="cccsccccccccsccccccc"
       style="fill:#ff0000;stroke-width:0.11735811"
       d="m 316.49742,425.42474 c -1.16041,-0.22875 -3.66736,-1.91101 -5.58588,-3.74835 -2.91794,-2.79446 -4.84396,-6.27816 -5.73149,-10.3669 -0.35814,-1.64989 -0.38782,-5.93563 -0.0517,-7.46536 0.86256,-3.92564 2.75947,-6.82405 5.38305,-8.22513 2.78179,-1.48556 5.91294,-1.31974 9.59699,0.50825 0.80684,0.40035 1.50262,0.74418 1.54618,0.76408 0.66944,0.21521 1.06701,0.42655 2.16447,0.008 0.0192,0.0242 0.73687,-0.30391 1.59485,-0.72905 3.77134,-1.86876 6.88689,-2.04577 9.69205,-0.55063 2.62294,1.39801 4.51722,4.2934 5.38096,8.22472 0.33887,1.5423 0.3107,5.8242 -0.0491,7.46536 -0.87273,3.98089 -2.60397,7.22189 -5.34037,9.99756 -1.87789,1.90484 -4.72526,3.84741 -6.05857,4.13336 -1.15447,0.24758 -3.83211,-0.22841 -5.43121,-0.96549 l -0.80002,-0.36875 -0.80003,0.36875 c -0.95417,0.43981 -2.26718,0.79011 -3.57725,0.95437 -1.07572,0.13489 -1.22739,0.13453 -1.93294,-0.005 z"
       id="path995"
       inkscape:connector-curvature="0" /><path
       id="path997"
       d="m 310.60259,382.39542 v 0.48438 c 0,0.71462 0.22114,2.37213 0.42383,3.17773 0.25609,1.01784 1.11406,2.70855 1.78125,3.50977 1.59143,1.91113 4.02355,3.17958 7.00586,3.6543 0.64099,0.10203 1.17107,0.19503 1.18945,0.20898 l 0.0156,-1.82031 0.15625,-1.58789 v -0.0293 c -0.0495,0.0152 -0.17256,-0.21812 -0.30274,-0.58984 -0.68419,-1.95365 -1.38945,-3.07741 -2.72656,-4.35352 -1.7382,-1.6589 -3.5797,-2.35299 -6.92773,-2.60742 z"
       style="fill:#00ff00;stroke-width:0.11735811"
       inkscape:connector-curvature="0" /></g><path
     style="fill:#ff0000;stroke:#000000;stroke-width:1px;stroke-linecap:butt;stroke-linejoin:miter;stroke-opacity:1"
     d="m 382.37368,430.53242 c 18.94729,-14.93835 17.97496,-3.30542 15.70017,0 -2.75599,-4.80542 -10.87224,-2.97925 -15.70017,0 z"
     id="path1017"
     inkscape:connector-curvature="0"
     sodipodi:nodetypes="ccc" /><g
     id="g1123"
     transform="translate(0,80)"><rect
       y="662.24054"
       x="360.98401"
       height="27.924353"
       width="17.2582"
       id="rect1080"
       style="opacity:1;vector-effect:none;fill:#ff0000;fill-opacity:1;stroke:#000000;stroke-width:2;stroke-linecap:butt;stroke-linejoin:miter;stroke-miterlimit:4;stroke-dasharray:none;stroke-dashoffset:0;stroke-opacity:1;paint-order:normal" /><circle
       r="32.096672"
       cy="712.98047"
       cx="369.6131"
       id="path1072"
       style="opacity:1;vector-effect:none;fill:#ff0000;fill-opacity:1;stroke:#000000;stroke-width:2;stroke-linecap:butt;stroke-linejoin:miter;stroke-miterlimit:4;stroke-dasharray:none;stroke-dashoffset:0;stroke-opacity:1;paint-order:normal" /><rect
       style="opacity:1;vector-effect:none;fill:#ff0000;fill-opacity:1;stroke:#000000;stroke-width:2;stroke-linecap:butt;stroke-linejoin:miter;stroke-miterlimit:4;stroke-dasharray:none;stroke-dashoffset:0;stroke-opacity:1;paint-order:normal"
       id="rect1068"
       width="64.193291"
       height="93.976959"
       x="337.51648"
       y="724.85089" /><circle
       style="opacity:1;vector-effect:none;fill:#ff0000;fill-opacity:1;stroke:#000000;stroke-width:2;stroke-linecap:butt;stroke-linejoin:miter;stroke-miterlimit:4;stroke-dasharray:none;stroke-dashoffset:0;stroke-opacity:1;paint-order:normal"
       id="circle1074"
       cx="369.6131"
       cy="773.99738"
       r="15.825485" /><rect
       y="809.23468"
       x="327.59674"
       height="25.887299"
       width="84.032722"
       id="rect1066"
       style="opacity:1;vector-effect:none;fill:#ff0000;fill-opacity:1;stroke:#000000;stroke-width:2;stroke-linecap:butt;stroke-linejoin:miter;stroke-miterlimit:4;stroke-dasharray:none;stroke-dashoffset:0;stroke-opacity:1;paint-order:normal" /><rect
       style="opacity:1;vector-effect:none;fill:#ff0000;fill-opacity:1;stroke:#000000;stroke-width:2;stroke-linecap:butt;stroke-linejoin:miter;stroke-miterlimit:4;stroke-dasharray:none;stroke-dashoffset:0;stroke-opacity:1;paint-order:normal"
       id="rect1070"
       width="84.032722"
       height="25.887299"
       x="327.59674"
       y="713.98047" /></g><path
     style="opacity:1;vector-effect:none;fill:#00ffff;fill-opacity:1;stroke:#000000;stroke-width:1px;stroke-linecap:butt;stroke-linejoin:miter;stroke-miterlimit:4;stroke-dasharray:none;stroke-dashoffset:0;stroke-opacity:1"
     d="m 360.98401,742.24054 c -18.99844,-32.41907 -40.98919,-53.57155 -58.45746,-66.32361 23.4679,-76.53207 129.93728,-23.72735 144.09458,12.23466 -44.00623,19.983 -58.1235,30.24122 -68.37891,54.08895 z"
     id="path1096"
     inkscape:connector-curvature="0"
     sodipodi:nodetypes="ccccc" /><path
     style="fill:#00ffff;stroke:#000000;stroke-width:1px;stroke-linecap:butt;stroke-linejoin:miter;stroke-opacity:1"
     d="m 269.0007,668.58993 c -9.2318,11.74862 -1.13804,39.60889 17.43528,30.32223 9.79817,-4.89909 13.27905,-21.35626 21.98362,-24.25779 19.28733,-6.42911 16.72301,16.2981 27.29002,19.82044 21.11786,7.03928 15.54918,-8.07961 24.25779,-16.78822 13.69433,-13.69433 25.15148,14.73772 26.53195,15.42796 26.36704,13.18352 20.40002,-4.98204 39.41891,-10.12157 10.82978,-2.92656 40.2752,38.06304 43.61064,4.56957 8.57955,-86.15334 -153.527,-85.32575 -200.52821,-18.97262 z"
     id="path1078"
     inkscape:connector-curvature="0"
     sodipodi:nodetypes="csssscssc" /><path
     style="opacity:1;vector-effect:none;fill:#00ff00;fill-opacity:1;stroke:#000000;stroke-width:1px;stroke-linecap:butt;stroke-linejoin:miter;stroke-miterlimit:4;stroke-dasharray:none;stroke-dashoffset:0;stroke-opacity:1;paint-order:normal"
     d="m 158.80102,572.88689 c -6.01168,0.005 -11.30216,3.96823 -12.9961,9.73632 -0.37408,-0.0338 -0.7494,-0.0521 -1.125,-0.0547 h -0.0215 c -2.54001,-3.55935 -6.64096,-5.67491 -11.01367,-5.68164 -5.86262,0.003 -11.05888,3.77469 -12.87891,9.34765 -0.91138,-0.19195 -1.84011,-0.28947 -2.77148,-0.29101 -6.47519,0.002 -12.04515,4.58249 -13.29688,10.93554 -0.12166,-0.007 -0.24341,-0.0134 -0.36523,-0.0176 -7.487258,-3.1e-4 -13.556955,6.06939 -13.556648,13.55664 0.0011,3.07451 1.047233,6.05734 2.966797,8.45898 -3.51361,2.54521 -5.596689,6.61843 -5.603515,10.95703 7.7e-4,7.48649 6.07015,13.555 13.556646,13.55469 h 2.22265 c 2.19241,4.8444 7.01463,7.95968 12.33204,7.9668 2.38031,-0.006 4.71711,-0.63842 6.77539,-1.83399 2.06,1.19657 4.39895,1.82914 6.78125,1.83399 2.81839,-0.006 5.56489,-0.8899 7.85742,-2.5293 2.51162,2.38036 5.83844,3.71011 9.29883,3.7168 2.38031,-0.006 4.71711,-0.63842 6.77539,-1.83399 2.06,1.19657 4.39895,1.82914 6.78125,1.83399 2.481,-0.005 4.91307,-0.69065 7.03125,-1.98243 2.11648,1.29075 4.54638,1.97642 7.02539,1.98243 5.78483,-0.006 10.92825,-3.68292 12.80664,-9.1543 h 3.80273 c 7.48649,3.1e-4 13.55587,-6.0682 13.55664,-13.55469 -0.007,-4.27223 -2.0266,-8.29142 -5.45117,-10.8457 3.42567,-2.55511 5.44589,-6.576 5.45117,-10.84961 -0.003,-5.48782 -3.31357,-10.43271 -8.38672,-12.52539 -0.27467,-7.27912 -6.25281,-13.0399 -13.53711,-13.04492 -1.8987,0.005 -3.77516,0.409 -5.50781,1.18554 -1.73626,-0.77815 -3.61688,-1.18208 -5.51953,-1.18554 h -0.01 c -1.71222,-5.74089 -6.98969,-9.67716 -12.98047,-9.68164 z"
     id="rect1125"
     inkscape:connector-curvature="0"
     sodipodi:nodetypes="cccccccccccccccccccccccccccccccccc" /><path
     style="fill:none;stroke:#000000;stroke-width:1px;stroke-linecap:butt;stroke-linejoin:miter;stroke-opacity:1"
     d="m 389.15254,399.32203 8.1356,9.66102 7.3305,-7.33051"
     id="path882"
     inkscape:connector-curvature="0"
     sodipodi:nodetypes="ccc" /><circle
     r="39.08297"
     cy="670.83301"
     cx="-617.5954"
     id="circle906-4-1-0-3"
     style="display:inline;fill:#ffffff;fill-opacity:1;stroke:#000000;stroke-width:4.80483198;stroke-linecap:round;stroke-linejoin:round;stroke-miterlimit:4;stroke-dasharray:none;stroke-dashoffset:0;stroke-opacity:1;paint-order:markers fill stroke"
     transform="scale(-1,1)" /><path
     inkscape:connector-curvature="0"
     sodipodi:nodetypes="cccccsc"
     id="path13849-7-5-7"
     d="m 656.92838,670.87109 -77.92608,-2.74389 -0.54877,7.68287 3.29264,10.97555 68.32253,3.2926 c 0,0 4.93897,-5.35052 4.93897,-6.9969 0,-1.6463 1.92071,-12.21023 1.92071,-12.21023 z"
     style="fill:#000000;stroke:#000000;stroke-width:0.80080533px;stroke-linecap:butt;stroke-linejoin:miter;stroke-opacity:1" /><path
     sodipodi:nodetypes="cccc"
     inkscape:connector-curvature="0"
     id="path13052-4-0-9"
     d="m 620.66248,711.54031 5.44926,88.36656 -48.99386,31.94498 -56.61054,48.17341"
     style="fill:none;stroke:#000000;stroke-width:4.80483198;stroke-linecap:round;stroke-linejoin:round;stroke-dasharray:none;stroke-opacity:1;paint-order:markers fill stroke" /><path
     sodipodi:nodetypes="ccc"
     inkscape:connector-curvature="0"
     id="path13054-4-4-0"
     d="m 626.11174,799.90687 -10.08968,60.60501 42.03461,40.14084"
     style="fill:none;stroke:#000000;stroke-width:4.80483198;stroke-linecap:round;stroke-linejoin:round;stroke-dasharray:none;stroke-opacity:1;paint-order:markers fill stroke" /><path
     sodipodi:nodetypes="ccc"
     inkscape:connector-curvature="0"
     id="path13851-1-5-9"
     d="M 619.43308,712.00508 563.99633,745.40203 528.748,701.35976"
     style="opacity:1;fill:none;fill-opacity:1;stroke:#000000;stroke-width:4.80483198;stroke-linecap:round;stroke-linejoin:round;stroke-miterlimit:4;stroke-dasharray:none;stroke-dashoffset:0;stroke-opacity:1;paint-order:markers fill stroke" /><circle
     r="9.4231968"
     transform="matrix(0.57379545,-0.81899865,-0.81899865,-0.57379545,0,0)"
     cy="-876.31476"
     cx="-213.42223"
     id="circle1043-52-8-0-1"
     style="fill:#ffffff;fill-opacity:1;stroke:#000000;stroke-width:0.9662953;stroke-linecap:round;stroke-linejoin:round;stroke-miterlimit:4;stroke-dasharray:none;stroke-dashoffset:0;stroke-opacity:1;paint-order:markers fill stroke" /><circle
     r="1.7461922"
     cy="-614.05719"
     cx="-654.80103"
     id="circle1045-0-9-6-5"
     style="fill:#000000;fill-opacity:1;stroke:none;stroke-width:0.80080533;stroke-linecap:round;stroke-linejoin:round;stroke-miterlimit:4;stroke-dasharray:none;stroke-dashoffset:0;stroke-opacity:1;paint-order:markers fill stroke"
     transform="matrix(0.03521667,-0.9993797,-0.9993797,-0.03521667,0,0)" /><circle
     style="fill:#ffffff;fill-opacity:1;stroke:#000000;stroke-width:0.80080533;stroke-linecap:round;stroke-linejoin:round;stroke-miterlimit:4;stroke-dasharray:none;stroke-dashoffset:0;stroke-opacity:1;paint-order:markers fill stroke"
     id="circle1532-3-9-7"
     cx="-202.6524"
     cy="-894.94305"
     transform="matrix(0.57379545,-0.81899865,-0.81899865,-0.57379545,0,0)"
     r="7.8093586" /><circle
     style="fill:#000000;fill-opacity:1;stroke:none;stroke-width:0.80080533;stroke-linecap:round;stroke-linejoin:round;stroke-miterlimit:4;stroke-dasharray:none;stroke-dashoffset:0;stroke-opacity:1;paint-order:markers fill stroke"
     id="circle1534-7-9-7"
     cx="-655.06866"
     cy="-636.85193"
     r="1.7461922"
     transform="matrix(0.03521667,-0.9993797,-0.9993797,-0.03521667,0,0)" /><circle
     style="opacity:1;vector-effect:none;fill:#ff2a2a;fill-opacity:1;stroke:#000000;stroke-width:1.91078711;stroke-linecap:round;stroke-linejoin:round;stroke-miterlimit:4;stroke-dasharray:none;stroke-dashoffset:0;stroke-opacity:1;paint-order:markers stroke fill"
     id="path915-0-9"
     cx="-604.17145"
     cy="705.27057"
     r="8.1208458"
     transform="scale(-1,1)" /><path
     style="opacity:1;fill:none;fill-opacity:1;stroke:#000000;stroke-width:4.80483198;stroke-linecap:round;stroke-linejoin:round;stroke-miterlimit:4;stroke-dasharray:none;stroke-dashoffset:0;stroke-opacity:1;paint-order:markers fill stroke"
     d="m 546.13616,790.42589 61.4747,1.3745 11.82222,-79.79531"
     id="path883-8-7"
     inkscape:connector-curvature="0"
     sodipodi:nodetypes="ccc" /></svg>