<?xml version="1.0" encoding="UTF-8" standalone="no"?>
<!-- Created with Inkscape (http://www.inkscape.org/) -->

<svg
   xmlns:dc="http://purl.org/dc/elements/1.1/"
   xmlns:cc="http://creativecommons.org/ns#"
   xmlns:rdf="http://www.w3.org/1999/02/22-rdf-syntax-ns#"
   xmlns:svg="http://www.w3.org/2000/svg"
   xmlns="http://www.w3.org/2000/svg"
   xmlns:sodipodi="http://sodipodi.sourceforge.net/DTD/sodipodi-0.dtd"
   xmlns:inkscape="http://www.inkscape.org/namespaces/inkscape"
   width="740"
   height="1280"
   version="1.1"
   viewBox="0 0 740 1280"
   xml:space="preserve"
   id="svg18"
   sodipodi:docname="level9lose.svg"
   inkscape:version="0.92.5 (2060ec1f9f, 2020-04-08)"><defs
     id="defs22" /><sodipodi:namedview
     pagecolor="#ffffff"
     bordercolor="#666666"
     borderopacity="1"
     objecttolerance="10"
     gridtolerance="10"
     guidetolerance="10"
     inkscape:pageopacity="0"
     inkscape:pageshadow="2"
     inkscape:window-width="1920"
     inkscape:window-height="986"
     id="namedview20"
     showgrid="false"
     inkscape:zoom="1.0429825"
     inkscape:cx="193.95907"
     inkscape:cy="497.0766"
     inkscape:window-x="1909"
     inkscape:window-y="49"
     inkscape:window-maximized="1"
     inkscape:current-layer="svg18"
     inkscape:snap-bbox="true"
     inkscape:bbox-paths="true"
     inkscape:bbox-nodes="true"
     inkscape:snap-bbox-edge-midpoints="true"
     inkscape:snap-bbox-midpoints="true"
     inkscape:object-paths="true"
     inkscape:snap-intersection-paths="true"
     inkscape:snap-smooth-nodes="true"
     inkscape:snap-midpoints="true"
     inkscape:snap-object-midpoints="true"
     inkscape:snap-center="true"
     inkscape:snap-text-baseline="true"
     inkscape:snap-page="true"
     inkscape:snap-global="false" /><metadata
     id="metadata2"><rdf:RDF><cc:Work
         rdf:about=""><dc:format>image/svg+xml</dc:format><dc:type
           rdf:resource="http://purl.org/dc/dcmitype/StillImage" /><dc:title /></cc:Work></rdf:RDF></metadata><rect
     style="opacity:1;vector-effect:none;fill:#00ffff;fill-opacity:1;stroke:#000000;stroke-width:0.99999994;stroke-linecap:butt;stroke-linejoin:round;stroke-miterlimit:4;stroke-dasharray:none;stroke-dashoffset:0;stroke-opacity:1;paint-order:markers fill stroke"
     id="rect819"
     width="739"
     height="739"
     x="0.5"
     y="270.5" /><rect
     style="opacity:1;vector-effect:none;fill:#ff6600;fill-opacity:1;stroke:#803300;stroke-width:2;stroke-linecap:round;stroke-linejoin:round;stroke-miterlimit:4;stroke-dasharray:none;stroke-dashoffset:0;stroke-opacity:1;paint-order:markers fill stroke"
     id="rect821"
     width="739.5"
     height="71.716782"
     x="0.5"
     y="436.26581" /><rect
     y="507.98257"
     x="0.5"
     height="71.716782"
     width="739.5"
     id="rect823"
     style="opacity:1;vector-effect:none;fill:#ff6600;fill-opacity:1;stroke:#803300;stroke-width:2;stroke-linecap:round;stroke-linejoin:round;stroke-miterlimit:4;stroke-dasharray:none;stroke-dashoffset:0;stroke-opacity:1;paint-order:markers fill stroke" /><rect
     y="579.69934"
     x="0.5"
     height="71.716782"
     width="739.5"
     id="rect825"
     style="opacity:1;vector-effect:none;fill:#ff6600;fill-opacity:1;stroke:#803300;stroke-width:2;stroke-linecap:round;stroke-linejoin:round;stroke-miterlimit:4;stroke-dasharray:none;stroke-dashoffset:0;stroke-opacity:1;paint-order:markers fill stroke" /><rect
     style="opacity:1;vector-effect:none;fill:#ff6600;fill-opacity:1;stroke:#803300;stroke-width:2;stroke-linecap:round;stroke-linejoin:round;stroke-miterlimit:4;stroke-dasharray:none;stroke-dashoffset:0;stroke-opacity:1;paint-order:markers fill stroke"
     id="rect827"
     width="739.5"
     height="71.716782"
     x="0.5"
     y="651.41614" /><rect
     y="723.13287"
     x="0.5"
     height="71.716782"
     width="739.5"
     id="rect829"
     style="opacity:1;vector-effect:none;fill:#ff6600;fill-opacity:1;stroke:#803300;stroke-width:2;stroke-linecap:round;stroke-linejoin:round;stroke-miterlimit:4;stroke-dasharray:none;stroke-dashoffset:0;stroke-opacity:1;paint-order:markers fill stroke" /><rect
     style="opacity:1;vector-effect:none;fill:#ff6600;fill-opacity:1;stroke:#803300;stroke-width:2;stroke-linecap:round;stroke-linejoin:round;stroke-miterlimit:4;stroke-dasharray:none;stroke-dashoffset:0;stroke-opacity:1;paint-order:markers fill stroke"
     id="rect831"
     width="739.5"
     height="71.716782"
     x="0.5"
     y="794.84967" /><rect
     style="opacity:1;vector-effect:none;fill:#ff6600;fill-opacity:1;stroke:#803300;stroke-width:2;stroke-linecap:round;stroke-linejoin:round;stroke-miterlimit:4;stroke-dasharray:none;stroke-dashoffset:0;stroke-opacity:1;paint-order:markers fill stroke"
     id="rect833"
     width="739.5"
     height="71.716782"
     x="0.5"
     y="866.56647" /><rect
     y="938.2832"
     x="0.5"
     height="71.716782"
     width="739.5"
     id="rect835"
     style="opacity:1;vector-effect:none;fill:#ff6600;fill-opacity:1;stroke:#803300;stroke-width:2;stroke-linecap:round;stroke-linejoin:round;stroke-miterlimit:4;stroke-dasharray:none;stroke-dashoffset:0;stroke-opacity:1;paint-order:markers fill stroke" /><path
     style="opacity:1;vector-effect:none;fill:#d45500;fill-opacity:1;stroke:#552200;stroke-width:2;stroke-linecap:round;stroke-linejoin:round;stroke-miterlimit:4;stroke-dasharray:none;stroke-dashoffset:0;stroke-opacity:1;paint-order:markers fill stroke"
     d="m -34.277144,381.61523 h 86.291016 v 78.04493 H 71.429887 V 381.61523 H 157.7209 v 78.04493 h 19.41601 v -78.04493 h 86.29102 v 78.04493 h 19.41406 v -78.04493 h 86.29102 v 78.04493 h 19.41601 v -78.04493 h 86.29102 v 78.04493 h 19.41601 v -78.04493 h 86.29102 v 78.04493 h 19.41602 v -78.04493 h 86.28906 v 78.04493 h 19.41601 v -78.04493 h 86.29102 V 359.32227 H -34.277144 Z"
     id="rect837"
     inkscape:connector-curvature="0"
     sodipodi:nodetypes="ccccccccccccccccccccccccccccccccc" /><g
     id="g1088"
     transform="translate(0.76328254,-78.353026)"><path
   transform="translate(695.59322,55.59322)"
   sodipodi:type="inkscape:offset"
   inkscape:radius="0"
   inkscape:original="M -412.75781 589.05078 A 57.909454 18.542391 0 0 0 -470.66797 607.59375 A 57.909454 18.542391 0 0 0 -470.56836 608.49219 A 90.126152 90.126152 0 0 0 -486.10547 658.70508 A 90.126152 90.126152 0 0 0 -470.83008 708.63672 A 57.909454 18.542391 0 0 0 -471.20117 710.66211 A 57.909454 18.542391 0 0 0 -413.29102 729.20508 A 57.909454 18.542391 0 0 0 -355.38281 710.66211 A 57.909454 18.542391 0 0 0 -355.48438 709.73828 A 90.126152 90.126152 0 0 0 -339.41211 658.70508 A 90.126152 90.126152 0 0 0 -354.9668 608.34375 A 57.909454 18.542391 0 0 0 -354.84961 607.59375 A 57.909454 18.542391 0 0 0 -412.75781 589.05078 z "
   style="opacity:1;vector-effect:none;fill:#d45500;fill-opacity:1;stroke:#000000;stroke-width:4;stroke-linecap:round;stroke-linejoin:round;stroke-miterlimit:4;stroke-dasharray:none;stroke-dashoffset:0;stroke-opacity:1;paint-order:markers fill stroke"
   id="path921"
   d="m -412.75781,589.05078 a 57.909454,18.542391 0 0 0 -57.91016,18.54297 57.909454,18.542391 0 0 0 0.0996,0.89844 90.126152,90.126152 0 0 0 -15.53711,50.21289 90.126152,90.126152 0 0 0 15.27539,49.93164 57.909454,18.542391 0 0 0 -0.37109,2.02539 57.909454,18.542391 0 0 0 57.91015,18.54297 57.909454,18.542391 0 0 0 57.90821,-18.54297 57.909454,18.542391 0 0 0 -0.10157,-0.92383 90.126152,90.126152 0 0 0 16.07227,-51.0332 90.126152,90.126152 0 0 0 -15.55469,-50.36133 57.909454,18.542391 0 0 0 0.11719,-0.75 57.909454,18.542391 0 0 0 -57.9082,-18.54297 z" /><path
   inkscape:connector-curvature="0"
   style="opacity:1;vector-effect:none;fill:#784421;fill-opacity:1;stroke:none;stroke-width:2;stroke-linecap:round;stroke-linejoin:round;stroke-miterlimit:4;stroke-dasharray:none;stroke-dashoffset:0;stroke-opacity:1;paint-order:markers fill stroke"
   d="m 336.65377,658.48189 -108.16797,0.66406 a 90.126152,90.126152 0 0 0 -18.99805,55.15235 90.126152,90.126152 0 0 0 15.27539,49.93164 57.909454,18.542391 0 0 0 -0.37109,2.02539 57.909454,18.542391 0 0 0 57.91015,18.54297 57.909454,18.542391 0 0 0 57.90821,-18.54297 57.909454,18.542391 0 0 0 -0.10157,-0.92383 90.126152,90.126152 0 0 0 16.07227,-51.0332 90.126152,90.126152 0 0 0 -19.52734,-55.81641 z"
   id="path923" /><ellipse
   style="opacity:1;vector-effect:none;fill:#4d4d4d;fill-opacity:1;stroke:none;stroke-width:1.99999964;stroke-linecap:round;stroke-linejoin:round;stroke-miterlimit:4;stroke-dasharray:none;stroke-dashoffset:0;stroke-opacity:1;paint-order:markers fill stroke"
   id="ellipse925"
   cx="282.83444"
   cy="663.18628"
   rx="57.909454"
   ry="18.542391" /><ellipse
   ry="15.666024"
   rx="48.926319"
   cy="663.18628"
   cx="282.83444"
   id="ellipse927"
   style="opacity:1;vector-effect:none;fill:#b3b3b3;fill-opacity:1;stroke:none;stroke-width:1.99999976;stroke-linecap:round;stroke-linejoin:round;stroke-miterlimit:4;stroke-dasharray:none;stroke-dashoffset:0;stroke-opacity:1;paint-order:markers fill stroke" /><path
   transform="matrix(0.96304879,0.23525264,-0.28988253,0.78155718,216.45165,97.138325)"
   inkscape:transform-center-y="-1.8473433"
   inkscape:transform-center-x="-2.9349771"
   d="m 325.50033,743.06224 -17.89305,2.75577 -3.22845,16.26212 -16.09558,-8.28781 -12.1705,11.25869 -8.15014,-16.16572 -16.46384,1.95483 2.90837,-17.86888 -14.46855,-8.09571 12.85599,-12.74673 -6.94677,-15.05396 17.89306,-2.75577 3.22844,-16.26211 16.09558,8.28781 12.1705,-11.2587 8.15015,16.16573 16.46383,-1.95484 -2.90836,17.86889 14.46854,8.0957 -12.85598,12.74674 z"
   inkscape:randomized="0"
   inkscape:rounded="0"
   inkscape:flatsided="false"
   sodipodi:arg2="0.8652625"
   sodipodi:arg1="0.52359878"
   sodipodi:r2="33.824558"
   sodipodi:r1="45.987404"
   sodipodi:cy="720.06854"
   sodipodi:cx="285.67407"
   sodipodi:sides="10"
   id="path1044"
   style="opacity:1;vector-effect:none;fill:#ffff00;fill-opacity:1;stroke:#000000;stroke-width:2.2074554;stroke-linecap:round;stroke-linejoin:round;stroke-miterlimit:4;stroke-dasharray:none;stroke-dashoffset:0;stroke-opacity:1;paint-order:markers fill stroke"
   sodipodi:type="star" /><text
   xml:space="preserve"
   style="font-style:normal;font-variant:normal;font-weight:normal;font-stretch:normal;font-size:35.78207397px;line-height:1.25;font-family:'Another Typewriter';-inkscape-font-specification:'Another Typewriter, Normal';font-variant-ligatures:normal;font-variant-caps:normal;font-variant-numeric:normal;font-feature-settings:normal;text-align:start;letter-spacing:0px;word-spacing:0px;writing-mode:lr-tb;text-anchor:start;fill:#ff0000;fill-opacity:1;stroke:#000000;stroke-width:1;stroke-linecap:round;stroke-linejoin:round;stroke-miterlimit:4;stroke-dasharray:none;paint-order:markers fill stroke"
   x="255.12846"
   y="740.28644"
   id="text931"><tspan
     sodipodi:role="line"
     id="tspan929"
     x="255.12846"
     y="740.28644"
     style="fill:#ff0000;stroke:#000000;stroke-width:1;stroke-linecap:round;stroke-linejoin:round;stroke-miterlimit:4;stroke-dasharray:none;paint-order:markers fill stroke">tnt</tspan></text>



<ellipse
   style="opacity:1;vector-effect:none;fill:#000000;fill-opacity:1;stroke:none;stroke-width:1.99999964;stroke-linecap:round;stroke-linejoin:round;stroke-miterlimit:4;stroke-dasharray:none;stroke-dashoffset:0;stroke-opacity:1;paint-order:markers fill stroke"
   id="ellipse949"
   cx="304.52936"
   cy="662.50836"
   rx="20.790726"
   ry="6.6571126" /></g><g
     id="g1078"
     transform="translate(-4.8372174,-75.401671)"><path
   d="m -412.75781,589.05078 a 57.909454,18.542391 0 0 0 -57.91016,18.54297 57.909454,18.542391 0 0 0 0.0996,0.89844 90.126152,90.126152 0 0 0 -15.53711,50.21289 90.126152,90.126152 0 0 0 15.27539,49.93164 57.909454,18.542391 0 0 0 -0.37109,2.02539 57.909454,18.542391 0 0 0 57.91015,18.54297 57.909454,18.542391 0 0 0 57.90821,-18.54297 57.909454,18.542391 0 0 0 -0.10157,-0.92383 90.126152,90.126152 0 0 0 16.07227,-51.0332 90.126152,90.126152 0 0 0 -15.55469,-50.36133 57.909454,18.542391 0 0 0 0.11719,-0.75 57.909454,18.542391 0 0 0 -57.9082,-18.54297 z"
   id="path1054"
   style="opacity:1;vector-effect:none;fill:#d45500;fill-opacity:1;stroke:#000000;stroke-width:4;stroke-linecap:round;stroke-linejoin:round;stroke-miterlimit:4;stroke-dasharray:none;stroke-dashoffset:0;stroke-opacity:1;paint-order:markers fill stroke"
   inkscape:original="M -412.75781 589.05078 A 57.909454 18.542391 0 0 0 -470.66797 607.59375 A 57.909454 18.542391 0 0 0 -470.56836 608.49219 A 90.126152 90.126152 0 0 0 -486.10547 658.70508 A 90.126152 90.126152 0 0 0 -470.83008 708.63672 A 57.909454 18.542391 0 0 0 -471.20117 710.66211 A 57.909454 18.542391 0 0 0 -413.29102 729.20508 A 57.909454 18.542391 0 0 0 -355.38281 710.66211 A 57.909454 18.542391 0 0 0 -355.48438 709.73828 A 90.126152 90.126152 0 0 0 -339.41211 658.70508 A 90.126152 90.126152 0 0 0 -354.9668 608.34375 A 57.909454 18.542391 0 0 0 -354.84961 607.59375 A 57.909454 18.542391 0 0 0 -412.75781 589.05078 z "
   inkscape:radius="0"
   sodipodi:type="inkscape:offset"
   transform="translate(810.85694,87.46585)" /><path
   id="path1056"
   d="m 451.91749,690.35452 -108.16797,0.66406 a 90.126152,90.126152 0 0 0 -18.99805,55.15235 90.126152,90.126152 0 0 0 15.27539,49.93164 57.909454,18.542391 0 0 0 -0.37109,2.02539 57.909454,18.542391 0 0 0 57.91015,18.54297 57.909454,18.542391 0 0 0 57.90821,-18.54297 57.909454,18.542391 0 0 0 -0.10157,-0.92383 90.126152,90.126152 0 0 0 16.07227,-51.0332 90.126152,90.126152 0 0 0 -19.52734,-55.81641 z"
   style="opacity:1;vector-effect:none;fill:#784421;fill-opacity:1;stroke:none;stroke-width:2;stroke-linecap:round;stroke-linejoin:round;stroke-miterlimit:4;stroke-dasharray:none;stroke-dashoffset:0;stroke-opacity:1;paint-order:markers fill stroke"
   inkscape:connector-curvature="0" /><ellipse
   ry="18.542391"
   rx="57.909454"
   cy="695.0589"
   cx="398.09814"
   id="ellipse1058"
   style="opacity:1;vector-effect:none;fill:#4d4d4d;fill-opacity:1;stroke:none;stroke-width:1.99999964;stroke-linecap:round;stroke-linejoin:round;stroke-miterlimit:4;stroke-dasharray:none;stroke-dashoffset:0;stroke-opacity:1;paint-order:markers fill stroke" /><ellipse
   style="opacity:1;vector-effect:none;fill:#b3b3b3;fill-opacity:1;stroke:none;stroke-width:1.99999976;stroke-linecap:round;stroke-linejoin:round;stroke-miterlimit:4;stroke-dasharray:none;stroke-dashoffset:0;stroke-opacity:1;paint-order:markers fill stroke"
   id="ellipse1060"
   cx="398.09814"
   cy="695.0589"
   rx="48.926319"
   ry="15.666024" /><path
   sodipodi:type="star"
   style="opacity:1;vector-effect:none;fill:#ffff00;fill-opacity:1;stroke:#000000;stroke-width:2.2074554;stroke-linecap:round;stroke-linejoin:round;stroke-miterlimit:4;stroke-dasharray:none;stroke-dashoffset:0;stroke-opacity:1;paint-order:markers fill stroke"
   id="path1062"
   sodipodi:sides="10"
   sodipodi:cx="285.67407"
   sodipodi:cy="720.06854"
   sodipodi:r1="45.987404"
   sodipodi:r2="33.824558"
   sodipodi:arg1="0.52359878"
   sodipodi:arg2="0.8652625"
   inkscape:flatsided="false"
   inkscape:rounded="0"
   inkscape:randomized="0"
   d="m 325.50033,743.06224 -17.89305,2.75577 -3.22845,16.26212 -16.09558,-8.28781 -12.1705,11.25869 -8.15014,-16.16572 -16.46384,1.95483 2.90837,-17.86888 -14.46855,-8.09571 12.85599,-12.74673 -6.94677,-15.05396 17.89306,-2.75577 3.22844,-16.26211 16.09558,8.28781 12.1705,-11.2587 8.15015,16.16573 16.46383,-1.95484 -2.90836,17.86889 14.46854,8.0957 -12.85598,12.74674 z"
   inkscape:transform-center-x="-2.9349771"
   inkscape:transform-center-y="-1.8473433"
   transform="matrix(0.96304879,0.23525264,-0.28988253,0.78155718,331.71537,129.01095)" /><text
   id="text1066"
   y="772.15906"
   x="370.39218"
   style="font-style:normal;font-variant:normal;font-weight:normal;font-stretch:normal;font-size:35.78207397px;line-height:1.25;font-family:'Another Typewriter';-inkscape-font-specification:'Another Typewriter, Normal';font-variant-ligatures:normal;font-variant-caps:normal;font-variant-numeric:normal;font-feature-settings:normal;text-align:start;letter-spacing:0px;word-spacing:0px;writing-mode:lr-tb;text-anchor:start;fill:#ff0000;fill-opacity:1;stroke:#000000;stroke-width:1;stroke-linecap:round;stroke-linejoin:round;stroke-miterlimit:4;stroke-dasharray:none;paint-order:markers fill stroke"
   xml:space="preserve"><tspan
     style="fill:#ff0000;stroke:#000000;stroke-width:1;stroke-linecap:round;stroke-linejoin:round;stroke-miterlimit:4;stroke-dasharray:none;paint-order:markers fill stroke"
     y="772.15906"
     x="370.39218"
     id="tspan1064"
     sodipodi:role="line">tnt</tspan></text>



<ellipse
   ry="6.6571126"
   rx="20.790726"
   cy="694.38098"
   cx="419.79306"
   id="ellipse1068"
   style="opacity:1;vector-effect:none;fill:#000000;fill-opacity:1;stroke:none;stroke-width:1.99999964;stroke-linecap:round;stroke-linejoin:round;stroke-miterlimit:4;stroke-dasharray:none;stroke-dashoffset:0;stroke-opacity:1;paint-order:markers fill stroke" /></g><g
     id="g1065"
     transform="translate(-33.55761,36.433977)"><path
       d="m 635.25391,757.02539 c -7.34598,-4e-5 -14.64741,3.02241 -19.8418,8.2168 -5.19439,5.19439 -8.21683,12.49582 -8.2168,19.84179 a 1.9835345,1.9835345 0 0 0 0,0.004 c 0.002,1.42743 0.14008,2.85123 0.35938,4.26172 -0.21231,1.36024 -0.34883,2.7327 -0.35938,4.10937 a 1.9835345,1.9835345 0 0 0 0,0.0156 c -3e-5,7.34598 3.02241,14.64741 8.2168,19.8418 5.19439,5.19438 12.49582,8.21683 19.8418,8.21679 7.34597,4e-5 14.6474,-3.02241 19.84179,-8.21679 5.19439,-5.19439 8.21684,-12.49583 8.2168,-19.8418 a 1.9835345,1.9835345 0 0 0 0,-0.004 c -0.002,-1.42743 -0.14007,-2.85123 -0.35938,-4.26172 0.21231,-1.36024 0.34884,-2.7327 0.35938,-4.10937 a 1.9835345,1.9835345 0 0 0 0,-0.0156 c 4e-5,-7.34597 -3.02241,-14.6474 -8.2168,-19.84179 -5.19439,-5.19439 -12.49582,-8.21684 -19.84179,-8.2168 z"
       id="circle1034"
       style="opacity:1;vector-effect:none;fill:#000000;fill-opacity:1;stroke:none;stroke-width:7.12262249;stroke-linecap:round;stroke-linejoin:round;stroke-miterlimit:4;stroke-dasharray:none;stroke-dashoffset:0;stroke-opacity:1;paint-order:markers stroke fill"
       inkscape:original="M 635.25391 759.00781 A 26.07604 26.07604 0 0 0 609.17773 785.08398 A 26.07604 26.07604 0 0 0 609.53711 789.35547 A 26.07604 26.07604 0 0 0 609.17773 793.47461 A 26.07604 26.07604 0 0 0 635.25391 819.55078 A 26.07604 26.07604 0 0 0 661.33008 793.47461 A 26.07604 26.07604 0 0 0 660.9707 789.20312 A 26.07604 26.07604 0 0 0 661.33008 785.08398 A 26.07604 26.07604 0 0 0 635.25391 759.00781 z "
       inkscape:radius="1.9833362"
       sodipodi:type="inkscape:offset" /><circle
       style="opacity:1;vector-effect:none;fill:#800000;fill-opacity:1;stroke:none;stroke-width:7.12262249;stroke-linecap:round;stroke-linejoin:round;stroke-miterlimit:4;stroke-dasharray:none;stroke-dashoffset:0;stroke-opacity:1;paint-order:markers stroke fill"
       id="circle1032"
       cx="635.25421"
       cy="793.47412"
       r="26.07604" /><circle
       r="26.07604"
       cy="785.08472"
       cx="635.25421"
       id="circle1030"
       style="opacity:1;vector-effect:none;fill:#d40000;fill-opacity:1;stroke:none;stroke-width:7.12262249;stroke-linecap:round;stroke-linejoin:round;stroke-miterlimit:4;stroke-dasharray:none;stroke-dashoffset:0;stroke-opacity:1;paint-order:markers stroke fill" /><circle
       style="opacity:1;vector-effect:none;fill:#cccccc;fill-opacity:1;stroke:none;stroke-width:6.66431236;stroke-linecap:round;stroke-linejoin:round;stroke-miterlimit:4;stroke-dasharray:none;stroke-dashoffset:0;stroke-opacity:1;paint-order:markers stroke fill"
       id="circle1028"
       cx="635.25421"
       cy="785.08472"
       r="24.398159" /><circle
       r="20.169491"
       cy="785.08472"
       cx="635.25421"
       id="path1026"
       style="opacity:1;vector-effect:none;fill:#ffffff;fill-opacity:1;stroke:none;stroke-width:5.50925922;stroke-linecap:round;stroke-linejoin:round;stroke-miterlimit:4;stroke-dasharray:none;stroke-dashoffset:0;stroke-opacity:1;paint-order:markers stroke fill" /><path
       inkscape:transform-center-y="0.080913222"
       inkscape:transform-center-x="0.062035722"
       d="m 649.13269,793.09746 -12.84155,-4.14289 -9.04967,10.00862 4.14288,-12.84155 -10.00862,-9.04967 12.84156,4.14289 9.04966,-10.00862 -4.14288,12.84155 z"
       inkscape:randomized="0"
       inkscape:rounded="0"
       inkscape:flatsided="false"
       sodipodi:arg2="1.3089969"
       sodipodi:arg1="0.52359878"
       sodipodi:r2="4.0063715"
       sodipodi:r1="16.025486"
       sodipodi:cy="785.08472"
       sodipodi:cx="635.25421"
       sodipodi:sides="4"
       id="path1057"
       style="opacity:1;vector-effect:none;fill:#ff0000;fill-opacity:1;stroke:none;stroke-width:3.89852858;stroke-linecap:round;stroke-linejoin:round;stroke-miterlimit:4;stroke-dasharray:none;stroke-dashoffset:0;stroke-opacity:1;paint-order:markers stroke fill"
       sodipodi:type="star" /></g><g
     style="display:inline"
     id="g3030"
     transform="matrix(0.88711934,0,0,0.88711934,62.231849,128.29717)"><path
       style="fill:none;fill-opacity:1;stroke:#000000;stroke-width:6;stroke-linecap:round;stroke-linejoin:round;stroke-miterlimit:4;stroke-dasharray:none;stroke-dashoffset:0;stroke-opacity:1;paint-order:markers fill stroke"
       d="m 371.42132,321.39594 19.18782,99.36548 -76.06599,4.79696 19.18782,76.75127"
       id="path5538"
       sodipodi:nodetypes="cccc"
       inkscape:connector-curvature="0" /><path
       style="fill:none;fill-opacity:1;stroke:#000000;stroke-width:6;stroke-linecap:round;stroke-linejoin:round;stroke-miterlimit:4;stroke-dasharray:none;stroke-dashoffset:0;stroke-opacity:1;paint-order:markers fill stroke"
       d="m 390.60914,420.76142 40.43147,-30.15228 35.63452,89.77157"
       id="path5559"
       inkscape:connector-curvature="0" /><path
       style="fill:none;fill-opacity:1;stroke:#000000;stroke-width:6;stroke-linecap:round;stroke-linejoin:round;stroke-miterlimit:4;stroke-dasharray:none;stroke-dashoffset:0;stroke-opacity:1;paint-order:markers fill stroke"
       d="m 491.34518,257.66498 -54.13706,71.95431 c -2.74111,0 -63.12353,-8.23705 -63.12353,-8.23705 l -49.26225,52.09492 -91.82741,-60.98985"
       id="path5561"
       inkscape:connector-curvature="0" /><circle
       style="fill:#ffffff;fill-opacity:1;stroke:#000000;stroke-width:6;stroke-linecap:round;stroke-linejoin:round;stroke-miterlimit:4;stroke-dasharray:none;stroke-dashoffset:0;stroke-opacity:1;paint-order:markers fill stroke"
       id="circle4637"
       cx="373.35397"
       cy="268.8656"
       r="48.804577" /><path
       style="fill:#000000;stroke:#000000;stroke-width:1px;stroke-linecap:butt;stroke-linejoin:miter;stroke-opacity:1"
       d="m 325.38578,276.20237 90.61376,14.29468 3.14967,-6.05707 1.4537,-4.60337 1.21141,-4.60337 0.72685,-6.29936 -95.7017,-15.99066 -2.66511,12.5987 z"
       id="path5536"
       inkscape:connector-curvature="0" /><circle
       style="display:inline;fill:#ffffff;fill-opacity:1;stroke:#000000;stroke-width:1.63505995;stroke-linecap:round;stroke-linejoin:round;stroke-miterlimit:4;stroke-dasharray:none;stroke-dashoffset:0;stroke-opacity:1;paint-order:markers fill stroke"
       id="circle4649"
       cx="-182.88834"
       cy="400.32629"
       r="12.2805"
       transform="rotate(-77.01314)" /><circle
       style="display:inline;fill:#000000;fill-opacity:1;stroke:none;stroke-width:1;stroke-linecap:round;stroke-linejoin:round;stroke-miterlimit:4;stroke-dasharray:none;stroke-dashoffset:0;stroke-opacity:1;paint-order:markers fill stroke"
       id="circle4651"
       cx="60.698212"
       cy="437.242"
       r="2.1805451"
       transform="rotate(-44.016007)" /><circle
       style="display:inline;fill:#ffffff;fill-opacity:1;stroke:#000000;stroke-width:1.27216995;stroke-linecap:round;stroke-linejoin:round;stroke-miterlimit:4;stroke-dasharray:none;stroke-dashoffset:0;stroke-opacity:1;paint-order:markers fill stroke"
       id="circle4675"
       cx="-179.18764"
       cy="429.30994"
       r="9.5549383"
       transform="rotate(-77.01314)" /><circle
       style="display:inline;fill:#000000;fill-opacity:1;stroke:none;stroke-width:1;stroke-linecap:round;stroke-linejoin:round;stroke-miterlimit:4;stroke-dasharray:none;stroke-dashoffset:0;stroke-opacity:1;paint-order:markers fill stroke"
       id="circle4677"
       cx="79.58638"
       cy="459.53516"
       r="2.1805451"
       transform="rotate(-44.016007)" /><circle
       style="fill:#ff5555;fill-opacity:1;stroke:#000000;stroke-width:2.25395989;stroke-linecap:round;stroke-linejoin:round;stroke-miterlimit:4;stroke-dasharray:none;stroke-dashoffset:0;stroke-opacity:1;paint-order:markers fill stroke"
       id="path4756"
       cx="371.17722"
       cy="306.97226"
       r="13.925422" /></g><g
     id="g923"><circle
       transform="scale(-1,1)"
       r="40.683617"
       cy="751.48572"
       cx="-124.26456"
       id="circle5587"
       style="fill:#ffffff;fill-opacity:1;stroke:#000000;stroke-width:5.00161505;stroke-linecap:round;stroke-linejoin:round;stroke-miterlimit:4;stroke-dasharray:none;stroke-dashoffset:0;stroke-opacity:1;paint-order:markers fill stroke" /><g
       transform="matrix(-0.16146785,0.81781494,0.81781494,0.16146785,-381.16867,142.9654)"
       id="g5603"><circle
         transform="rotate(-32.997133)"
         r="7.510766"
         cy="962.85327"
         cx="90.151543"
         id="circle5589"
         style="fill:#ffffff;fill-opacity:1;stroke:#000000;stroke-width:1;stroke-linecap:round;stroke-linejoin:round;stroke-miterlimit:4;stroke-dasharray:none;stroke-dashoffset:0;stroke-opacity:1;paint-order:markers fill stroke" /><circle
         r="2.1805451"
         cy="760.33557"
         cx="596.04669"
         id="circle5591"
         style="fill:#000000;fill-opacity:1;stroke:none;stroke-width:1;stroke-linecap:round;stroke-linejoin:round;stroke-miterlimit:4;stroke-dasharray:none;stroke-dashoffset:0;stroke-opacity:1;paint-order:markers fill stroke" /><circle
         r="2.1805451"
         cy="760.33557"
         cx="596.04669"
         id="circle5593"
         style="fill:#000000;fill-opacity:1;stroke:none;stroke-width:1;stroke-linecap:round;stroke-linejoin:round;stroke-miterlimit:4;stroke-dasharray:none;stroke-dashoffset:0;stroke-opacity:1;paint-order:markers fill stroke" /><circle
         r="2.1805451"
         cy="760.33557"
         cx="596.04669"
         id="circle5595"
         style="fill:#000000;fill-opacity:1;stroke:none;stroke-width:1;stroke-linecap:round;stroke-linejoin:round;stroke-miterlimit:4;stroke-dasharray:none;stroke-dashoffset:0;stroke-opacity:1;paint-order:markers fill stroke" /></g><g
       transform="matrix(-0.16146785,0.81781494,0.81781494,0.16146785,-405.00089,142.96542)"
       id="g5613"><circle
         transform="rotate(-32.997133)"
         r="7.510766"
         cy="962.85327"
         cx="90.151543"
         id="circle5605"
         style="fill:#ffffff;fill-opacity:1;stroke:#000000;stroke-width:1;stroke-linecap:round;stroke-linejoin:round;stroke-miterlimit:4;stroke-dasharray:none;stroke-dashoffset:0;stroke-opacity:1;paint-order:markers fill stroke" /><circle
         r="2.1805451"
         cy="760.33557"
         cx="596.04669"
         id="circle5607"
         style="fill:#000000;fill-opacity:1;stroke:none;stroke-width:1;stroke-linecap:round;stroke-linejoin:round;stroke-miterlimit:4;stroke-dasharray:none;stroke-dashoffset:0;stroke-opacity:1;paint-order:markers fill stroke" /><circle
         r="2.1805451"
         cy="760.33557"
         cx="596.04669"
         id="circle5609"
         style="fill:#000000;fill-opacity:1;stroke:none;stroke-width:1;stroke-linecap:round;stroke-linejoin:round;stroke-miterlimit:4;stroke-dasharray:none;stroke-dashoffset:0;stroke-opacity:1;paint-order:markers fill stroke" /><circle
         r="2.1805451"
         cy="760.33557"
         cx="596.04669"
         id="circle5611"
         style="fill:#000000;fill-opacity:1;stroke:none;stroke-width:1;stroke-linecap:round;stroke-linejoin:round;stroke-miterlimit:4;stroke-dasharray:none;stroke-dashoffset:0;stroke-opacity:1;paint-order:markers fill stroke" /></g><path
       id="path5615"
       d="m 141.08221,741.8779 -6.6649,6.86689"
       style="fill:none;stroke:#000000;stroke-width:0.83360249px;stroke-linecap:butt;stroke-linejoin:miter;stroke-opacity:1"
       inkscape:connector-curvature="0" /><path
       id="path5617"
       d="m 128.76223,748.74479 -7.87679,-6.46296"
       style="fill:none;stroke:#000000;stroke-width:0.83360249px;stroke-linecap:butt;stroke-linejoin:miter;stroke-opacity:1"
       inkscape:connector-curvature="0" /><path
       sodipodi:nodetypes="ccc"
       id="path5619"
       d="m 142.69798,775.80845 c 7.484,-11.12718 -12.61549,-5.09125 -28.27546,-1.81771 z"
       style="fill:none;stroke:#000000;stroke-width:0.83360249px;stroke-linecap:butt;stroke-linejoin:miter;stroke-opacity:1"
       inkscape:connector-curvature="0" /><path
       id="path5621"
       d="M 124.31672,794.81714 111.74924,867.9372 88.899195,930.20354 29.489178,974.76101"
       style="fill:none;fill-opacity:1;stroke:#000000;stroke-width:5.00161505;stroke-linecap:round;stroke-linejoin:round;stroke-miterlimit:4;stroke-dasharray:none;stroke-dashoffset:0;stroke-opacity:1;paint-order:markers fill stroke"
       inkscape:connector-curvature="0" /><path
       id="path5633"
       d="m 111.74924,867.9372 67.40752,46.27129 -38.27378,53.69755"
       style="fill:none;fill-opacity:1;stroke:#000000;stroke-width:5.00161505;stroke-linecap:round;stroke-linejoin:round;stroke-miterlimit:4;stroke-dasharray:none;stroke-dashoffset:0;stroke-opacity:1;paint-order:markers fill stroke"
       inkscape:connector-curvature="0" /><path
       id="path5635"
       d="m 235.13933,786.24838 -58.83883,56.5538 -51.98378,-47.98504 -61.69501,26.27752 -13.71001,61.1238"
       style="fill:none;fill-opacity:1;stroke:#000000;stroke-width:5.00161505;stroke-linecap:round;stroke-linejoin:round;stroke-miterlimit:4;stroke-dasharray:none;stroke-dashoffset:0;stroke-opacity:1;paint-order:markers fill stroke"
       inkscape:connector-curvature="0" /><g
       transform="matrix(0.60852552,0.56972787,0.56972787,-0.60852552,473.79773,1397.0345)"
       style="display:inline"
       id="g1072-3-4"><circle
         r="9.7518816"
         transform="rotate(-32.997134)"
         cy="-227.9151"
         cx="-848.2196"
         id="circle1043-5-6"
         style="fill:#ffffff;fill-opacity:1;stroke:#000000;stroke-width:1;stroke-linecap:round;stroke-linejoin:round;stroke-miterlimit:4;stroke-dasharray:none;stroke-dashoffset:0;stroke-opacity:1;paint-order:markers fill stroke" /><circle
         r="2.1805451"
         cy="277.5069"
         cx="-836.08844"
         id="circle1045-9-2"
         style="fill:#000000;fill-opacity:1;stroke:none;stroke-width:1;stroke-linecap:round;stroke-linejoin:round;stroke-miterlimit:4;stroke-dasharray:none;stroke-dashoffset:0;stroke-opacity:1;paint-order:markers fill stroke" /></g><g
       id="g4845"
       style="display:inline"
       transform="matrix(0.60852552,0.56972787,0.56972787,-0.60852552,496.41809,1397.0345)"><circle
         style="fill:#ffffff;fill-opacity:1;stroke:#000000;stroke-width:1;stroke-linecap:round;stroke-linejoin:round;stroke-miterlimit:4;stroke-dasharray:none;stroke-dashoffset:0;stroke-opacity:1;paint-order:markers fill stroke"
         id="circle4841"
         cx="-848.2196"
         cy="-227.9151"
         transform="rotate(-32.997134)"
         r="9.7518816" /><circle
         style="fill:#000000;fill-opacity:1;stroke:none;stroke-width:1;stroke-linecap:round;stroke-linejoin:round;stroke-miterlimit:4;stroke-dasharray:none;stroke-dashoffset:0;stroke-opacity:1;paint-order:markers fill stroke"
         id="circle4843"
         cx="-836.08844"
         cy="277.5069"
         r="2.1805451" /></g><g
       transform="translate(557.05633,128.47771)"
       id="g1102"><rect
         transform="matrix(-0.9587953,-0.28409783,-0.28409783,0.9587953,0,0)"
         ry="6.0726557"
         y="797.36456"
         x="61.906445"
         height="69.633057"
         width="52.832058"
         id="rect1025"
         style="opacity:1;vector-effect:none;fill:#e3dedb;fill-opacity:1;stroke:#000000;stroke-width:2.38857579;stroke-linecap:butt;stroke-linejoin:miter;stroke-miterlimit:4;stroke-dasharray:none;stroke-dashoffset:0;stroke-opacity:1;paint-order:normal" /><path
         inkscape:connector-curvature="0"
         id="path1027"
         d="m -305.61128,761.495 c 2.42452,34.21714 -23.75979,3.45461 -32.77923,8.35077 -18.47796,10.03065 5.08096,25.80346 15.79717,25.28214"
         style="fill:none;stroke:#000000;stroke-width:2.38857579;stroke-linecap:butt;stroke-linejoin:miter;stroke-miterlimit:4;stroke-dasharray:2.38857575, 2.38857575;stroke-dashoffset:0;stroke-opacity:1" /><circle
         transform="matrix(-0.9587953,-0.28409783,-0.28409783,0.9587953,0,0)"
         r="3.8646109"
         cy="811.50226"
         cx="79.112862"
         id="circle1029"
         style="opacity:1;vector-effect:none;fill:none;fill-opacity:1;stroke:#ff0000;stroke-width:2.38857579;stroke-linecap:butt;stroke-linejoin:miter;stroke-miterlimit:4;stroke-dasharray:none;stroke-dashoffset:0;stroke-opacity:1;paint-order:normal" /><path
         inkscape:connector-curvature="0"
         id="path1031"
         d="m -312.71037,795.0261 -10.76295,5.8426"
         style="opacity:1;vector-effect:none;fill:none;fill-opacity:1;stroke:#ff0000;stroke-width:2.38857579;stroke-linecap:butt;stroke-linejoin:miter;stroke-miterlimit:4;stroke-dasharray:none;stroke-dashoffset:0;stroke-opacity:1" /><path
         style="fill:none;stroke:#ff0000;stroke-width:2.38857579;stroke-linecap:butt;stroke-linejoin:miter;stroke-miterlimit:4;stroke-dasharray:none;stroke-opacity:1"
         d="m -321.01315,792.56593 5.84261,10.76294"
         id="path1033"
         inkscape:connector-curvature="0" /></g><g
       transform="translate(554.17996,-4.7939443)"
       id="g1064"><g
         id="g1059"><ellipse
           style="opacity:1;vector-effect:none;fill:#ffffff;fill-opacity:1;stroke:#ffffff;stroke-width:1.07394457;stroke-linecap:round;stroke-linejoin:round;stroke-miterlimit:4;stroke-dasharray:none;stroke-dashoffset:0;stroke-opacity:1;paint-order:markers stroke fill"
           id="ellipse1035"
           cx="-639.68103"
           cy="534.86603"
           rx="31.338341"
           ry="25.881031"
           transform="rotate(-17.709033)" /></g><path
         inkscape:connector-curvature="0"
         id="path1037"
         d="m -477.46756,748.93472 c -2.38979,-1.72066 -8.19979,-4.92781 -18.31056,-10.10754 -13.15892,-6.74129 -17.57167,-9.6271 -18.35592,-12.00422 -0.81158,-2.46 2.19301,-3.42139 10.74781,-3.43902 3.18211,-0.007 5.82326,-0.21043 7.72314,-0.59616 4.8262,-0.97985 8.93914,-5.25889 11.07811,-11.52549 0.707,-2.07131 1.17601,-4.2465 1.67443,-7.76567 1.22733,-8.66568 1.4518,-10.09056 1.89288,-12.01548 1.35315,-5.90537 3.9179,-10.56878 8.00669,-14.55831 2.71183,-2.64599 6.17579,-5.03726 9.92363,-6.85055 2.40931,-1.16568 7.96369,-2.94333 10.43167,-3.3386 7.92061,-1.26855 14.47485,-0.35424 20.01044,2.79143 3.95926,2.24991 6.48274,4.41704 13.1814,11.32003 4.85993,5.00819 6.35326,6.36756 8.67349,7.89551 4.99011,3.28616 10.47477,4.12456 14.69862,2.24689 1.7464,-0.77635 4.22582,-2.27253 6.82185,-4.11656 3.42098,-2.43002 5.73907,-3.7782 7.41826,-4.31439 3.13548,-1.00121 4.04493,0.92124 2.57803,5.44956 -1.12425,3.47057 -1.95772,5.24282 -8.30066,17.65025 -5.46656,10.69313 -7.09176,14.08061 -8.03169,16.74078 -0.4414,1.24924 -0.63962,1.6179 -0.88346,1.64316 -0.17291,0.0179 -1.59716,0.13446 -3.165,0.25901 -27.46389,2.18175 -53.44929,10.59013 -75.11939,24.30721 -0.84673,0.53597 -1.5795,0.98728 -1.62838,1.00288 -0.0489,0.0156 -0.52831,-0.28802 -1.06539,-0.67472 z m 37.4692,-29.47266 c 1.16445,-0.61708 2.75072,-2.17062 3.43745,-3.36655 1.06411,-1.85314 1.44239,-3.87208 1.12149,-5.98572 -0.0872,-0.57457 -0.14545,-1.07016 -0.12938,-1.10131 0.0161,-0.0311 0.88157,0.13132 1.92333,0.36104 l 1.89412,0.41766 0.50397,0.97022 c 1.56234,3.00772 4.19977,4.54169 5.67077,3.2982 0.52854,-0.44679 0.72003,-1.13584 0.65083,-2.3419 -0.0496,-0.86363 -0.13776,-1.17386 -0.59738,-2.10109 -0.29657,-0.59832 -0.5218,-1.1577 -0.50051,-1.24306 0.0213,-0.0854 0.20713,-0.2593 0.41296,-0.38651 1.09186,-0.67484 2.29358,-2.29743 2.4783,-3.34623 0.19742,-1.1209 -0.50655,-2.01818 -1.72657,-2.20067 -0.7148,-0.10692 -1.01279,-0.0566 -2.43085,0.4107 -1.31705,0.434 -1.74656,0.64197 -2.32055,1.12369 -0.3874,0.32512 -0.80095,0.63244 -0.919,0.68292 -0.11805,0.0505 -1.4367,-0.17059 -2.93034,-0.49129 l -2.7157,-0.58308 0.25953,-1.1496 c 0.30595,-1.35526 0.32537,-3.34822 0.0461,-4.73089 l -0.19947,-0.98759 1.79131,-1.945 c 1.72811,-1.87637 1.80979,-1.94359 2.31467,-1.90494 3.21631,0.24625 5.97194,-0.92654 6.27029,-2.66863 0.0922,-0.53857 0.0558,-0.70984 -0.25344,-1.19 -0.63078,-0.97954 -2.43388,-1.68778 -4.31614,-1.69535 -0.60696,-0.002 -0.61002,-0.005 -0.69554,-0.6526 -0.14298,-1.0821 -0.83573,-2.95336 -1.27967,-3.45664 -0.82755,-0.93816 -1.98156,-1.08317 -2.88647,-0.36271 -0.97461,0.77595 -1.56647,3.11955 -1.33058,5.26866 l 0.14331,1.30569 -1.1346,1.23306 -1.13459,1.23305 -0.94837,-0.92506 c -1.14156,-1.11351 -3.24111,-2.32937 -4.94007,-2.86082 -4.39421,-1.37456 -9.46619,0.004 -12.66896,3.4435 -1.50014,1.611 -2.66929,3.94028 -3.03456,6.04572 -0.11482,0.66185 -0.2174,1.22683 -0.22796,1.25551 -0.0106,0.0287 -0.74934,-0.10732 -1.64173,-0.30222 l -1.62252,-0.35436 -0.6501,-1.1654 c -0.84155,-1.50861 -1.81012,-2.53357 -2.94986,-3.12161 -1.83534,-0.94692 -3.12544,-0.33671 -3.33679,1.57829 -0.0717,0.64984 0.51428,2.78636 0.98286,3.58341 l 0.28132,0.47852 -0.81468,0.64812 c -2.34088,1.8623 -2.92161,4.08301 -1.32115,5.05202 0.77104,0.46683 1.57782,0.46157 3.12407,-0.0204 1.18247,-0.36857 1.56922,-0.56337 2.46026,-1.23926 l 1.05724,-0.80196 2.51268,0.53966 c 1.38197,0.29681 2.57417,0.5898 2.64933,0.65108 0.0752,0.0613 0.31184,0.51321 0.52596,1.00428 0.59277,1.35945 2.06279,3.23902 3.2168,4.113 l 0.39564,0.29964 -1.92026,2.10698 -1.92027,2.10697 -1.12754,-0.0937 c -1.00737,-0.0837 -1.30833,-0.0365 -2.82351,0.44328 -1.47831,0.4681 -1.76157,0.60457 -2.20726,1.06347 -0.28121,0.28955 -0.5678,0.70789 -0.63687,0.92963 -0.15696,0.50396 0.12599,1.42271 0.5767,1.87258 0.71551,0.71418 2.58502,1.28408 4.2908,1.308 0.2536,0.004 0.30857,0.10968 0.42336,0.8173 0.46142,2.84455 1.91023,4.5459 3.45329,4.05525 0.53031,-0.16869 1.40639,-1.19592 1.66241,-1.94938 0.42994,-1.26527 0.54479,-3.55769 0.22796,-4.54991 -0.10151,-0.31792 0.0755,-0.58665 1.22571,-1.86033 l 1.34436,-1.48874 0.66667,1.1951 c 0.97126,1.74114 2.16028,2.90517 3.87517,3.79374 2.6899,1.39377 5.71299,1.37029 8.42224,-0.0654 z m -8.18415,-10.59458 c -0.0735,-0.23017 1.32075,-5.22407 1.43949,-5.15594 0.20803,0.11934 3.98629,3.33179 4.01151,3.41076 0.0112,0.0352 -1.20636,0.45566 -2.70575,0.93444 -1.49939,0.47877 -2.73475,0.84361 -2.74525,0.81074 z m -5.09463,-2.83698 c -2.73348,-0.0642 -4.79311,-2.5068 -4.34407,-5.15174 0.13726,-0.80855 0.73416,-1.9891 1.27875,-2.52915 0.70058,-0.69474 2.17213,-1.2629 3.23888,-1.25053 1.10963,0.0129 2.53269,0.66675 3.25144,1.494 0.63358,0.72921 1.10114,1.9434 1.14465,2.97253 0.0616,1.45588 -0.87558,3.07824 -2.22466,3.85129 -0.92637,0.53082 -1.33357,0.63737 -2.34499,0.6136 z m 10.33891,-3.28447 c -2.80699,-0.0958 -4.80138,-2.46092 -4.37033,-5.18268 0.12405,-0.7833 0.71802,-1.93949 1.29079,-2.51256 0.68624,-0.68661 2.16362,-1.25787 3.22131,-1.2456 1.75316,0.0203 3.55538,1.31536 4.11065,2.95378 0.36871,1.08792 0.34478,2.31361 -0.0641,3.28378 -0.66204,1.57085 -2.50555,2.76072 -4.18831,2.70328 z"
         style="fill:#000000;stroke:#ffffff;stroke-width:5;stroke-miterlimit:4;stroke-dasharray:none;paint-order:markers stroke fill" /></g></g></svg>