<?xml version="1.0" encoding="UTF-8" standalone="no"?>
<!-- Created with Inkscape (http://www.inkscape.org/) -->

<svg
   xmlns:dc="http://purl.org/dc/elements/1.1/"
   xmlns:cc="http://creativecommons.org/ns#"
   xmlns:rdf="http://www.w3.org/1999/02/22-rdf-syntax-ns#"
   xmlns:svg="http://www.w3.org/2000/svg"
   xmlns="http://www.w3.org/2000/svg"
   xmlns:sodipodi="http://sodipodi.sourceforge.net/DTD/sodipodi-0.dtd"
   xmlns:inkscape="http://www.inkscape.org/namespaces/inkscape"
   width="740"
   height="1280"
   version="1.1"
   viewBox="0 0 740 1280"
   xml:space="preserve"
   id="svg18"
   sodipodi:docname="level27lose2.svg"
   inkscape:version="0.92.5 (2060ec1f9f, 2020-04-08)"><defs
     id="defs22" /><sodipodi:namedview
     pagecolor="#ffffff"
     bordercolor="#666666"
     borderopacity="1"
     objecttolerance="10"
     gridtolerance="10"
     guidetolerance="10"
     inkscape:pageopacity="0"
     inkscape:pageshadow="2"
     inkscape:window-width="1920"
     inkscape:window-height="986"
     id="namedview20"
     showgrid="false"
     inkscape:zoom="1.4142136"
     inkscape:cx="260.24318"
     inkscape:cy="881.68527"
     inkscape:window-x="1909"
     inkscape:window-y="49"
     inkscape:window-maximized="1"
     inkscape:current-layer="svg18"
     inkscape:snap-bbox="true"
     inkscape:bbox-paths="true"
     inkscape:snap-bbox-edge-midpoints="true"
     inkscape:bbox-nodes="true"
     inkscape:snap-bbox-midpoints="true"
     inkscape:object-paths="true"
     inkscape:snap-intersection-paths="true"
     inkscape:snap-smooth-nodes="true"
     inkscape:snap-midpoints="true"
     inkscape:snap-object-midpoints="true"
     inkscape:snap-center="true"
     inkscape:snap-text-baseline="true"
     inkscape:snap-page="true"
     inkscape:snap-global="false" /><metadata
     id="metadata2"><rdf:RDF><cc:Work
         rdf:about=""><dc:format>image/svg+xml</dc:format><dc:type
           rdf:resource="http://purl.org/dc/dcmitype/StillImage" /><dc:title /></cc:Work></rdf:RDF></metadata><rect
     style="opacity:1;vector-effect:none;fill:#3ed8d8;fill-opacity:1;stroke:#000000;stroke-width:0.99999994;stroke-linecap:round;stroke-linejoin:miter;stroke-miterlimit:4;stroke-dasharray:none;stroke-dashoffset:0;stroke-opacity:1;paint-order:normal"
     id="rect821"
     width="739"
     height="739"
     x="0.49998033"
     y="270.49994" /><path
     style="opacity:1;vector-effect:none;fill:#8d5a00;fill-opacity:1;stroke:#000000;stroke-width:1px;stroke-linecap:butt;stroke-linejoin:miter;stroke-miterlimit:4;stroke-dasharray:none;stroke-dashoffset:0;stroke-opacity:1"
     d="m 249.95332,536.39993 c 49.91818,16.22623 84.42263,-3.9805 126,2 16.08932,2.31429 30.7837,11.8803 47,13 37.90682,2.61739 75.64215,-21.9404 113,-15 8.21278,1.52578 13.99128,9.6255 22,12 35.25888,10.45389 78.32328,-10.18308 110,8.5 13.57735,8.00798 20.46665,24.74011 26,39.5 8.68028,23.15413 26.85718,55.41477 10,73.5061 -38.71111,41.54522 -113.67096,-18.18299 -170,-11 -20.43838,2.60627 -38.11089,18.78105 -58.70711,19.34314 -17.7033,0.48315 -33.60231,-14.67616 -51.29289,-13.84924 -23.81141,1.11303 -43.16333,24.81195 -67,25 -53.76738,0.42418 -113.80962,-16.15022 -152,-54 -13.10737,-12.99047 -24.33936,-34.33515 -19,-52 7.65802,-25.33595 38.82844,-55.18218 64,-47 z"
     id="path857"
     inkscape:connector-curvature="0"
     sodipodi:nodetypes="saaaaaaaaaaaaas" /><path
     style="fill:#000000;fill-opacity:0.27096775;stroke:none;stroke-width:1px;stroke-linecap:butt;stroke-linejoin:miter;stroke-opacity:1"
     d="m 229.07684,583.72588 c 2.82254,-13.53363 62.15272,-8.05278 93.42359,-8.93842 14.96833,-0.42393 29.919,1.39112 44.88925,1.74069 8.34604,0.19489 16.69658,0.0888 25.04417,0.19874 26.0623,0.34325 52.18001,3.26623 78.18043,1.43898 14.04548,-0.98709 27.63663,-6.22115 41.70939,-6.67663 11.44923,-0.37056 22.77428,2.62834 34.2139,3.22629 32.01872,1.67364 66.06561,-9.99702 96.18209,1.00285 7.64541,2.79244 21.05678,7.71248 18.83317,15.54226 -5.39203,18.98636 -39.00838,9.89042 -58.66043,8.05943 -4.99225,-0.46513 -9.26739,-4.38594 -14.26691,-4.765 -15.39836,-1.16749 -30.22442,7.20383 -45.65201,7.88315 -13.61073,0.59931 -27.16549,-4.64686 -40.73111,-3.38782 -6.96609,0.64654 -13.24327,5.44917 -20.23843,5.55929 -11.12541,0.17514 -21.33323,-7.363 -32.45047,-7.82415 -16.40404,-0.68045 -32.30778,6.23426 -48.67394,7.53973 -14.30339,1.14093 -28.84764,-1.83637 -43.04583,0.23738 -6.44021,0.94064 -12.25547,4.92813 -18.74046,5.48133 -21.40329,1.8258 -43.2235,-1.98202 -64.02219,-7.35316 -16.05681,-4.14658 -49.84638,-0.4944 -45.99421,-18.96494 z"
     id="path873"
     inkscape:connector-curvature="0"
     sodipodi:nodetypes="saaaaaaaaaaaaaaaaaas" /><path
     sodipodi:nodetypes="saaaaaaaaaaaaas"
     inkscape:connector-curvature="0"
     id="path875"
     d="m 140.7254,803.37302 c 49.91818,16.22623 84.42263,-3.9805 126,2 16.08932,2.31429 30.7837,11.8803 47,13 37.90682,2.61739 75.64215,-21.9404 113,-15 8.21278,1.52578 13.99128,9.6255 22,12 35.25888,10.45389 78.32328,-10.18308 110,8.5 13.57735,8.00798 20.46665,24.74011 26,39.5 8.68028,23.15413 26.85718,55.41477 10,73.5061 -38.71111,41.54522 -113.67096,-18.18299 -170,-11 -20.43838,2.60627 -38.11089,18.78105 -58.70711,19.34314 -17.7033,0.48315 -33.60231,-14.67616 -51.29289,-13.84924 -23.81141,1.11303 -43.16333,24.81195 -67,25 -53.76738,0.42418 -113.80962,-16.15022 -152.000002,-54 -13.10737,-12.99047 -24.33936,-34.33515 -19,-52 7.65802,-25.33595 38.828442,-55.18218 64.000002,-47 z"
     style="opacity:1;vector-effect:none;fill:#8d5a00;fill-opacity:1;stroke:#000000;stroke-width:1px;stroke-linecap:butt;stroke-linejoin:miter;stroke-miterlimit:4;stroke-dasharray:none;stroke-dashoffset:0;stroke-opacity:1" /><path
     sodipodi:nodetypes="saaaaaaaaaaaaaaaaaas"
     inkscape:connector-curvature="0"
     id="path877"
     d="m 119.84892,850.69897 c 2.82254,-13.53363 62.15272,-8.05278 93.42359,-8.93842 14.96833,-0.42393 29.919,1.39112 44.88925,1.74069 8.34604,0.19489 16.69658,0.0888 25.04417,0.19874 26.0623,0.34325 52.18001,3.26623 78.18043,1.43898 14.04548,-0.98709 27.63663,-6.22115 41.70939,-6.67663 11.44923,-0.37056 22.77428,2.62834 34.2139,3.22629 32.01872,1.67364 66.06561,-9.99702 96.18209,1.00285 7.64541,2.79244 21.05678,7.71248 18.83317,15.54226 -5.39203,18.98636 -39.00838,9.89042 -58.66043,8.05943 -4.99225,-0.46513 -9.26739,-4.38594 -14.26691,-4.765 -15.39836,-1.16749 -30.22442,7.20383 -45.65201,7.88315 -13.61073,0.59931 -27.16549,-4.64686 -40.73111,-3.38782 -6.96609,0.64654 -13.24327,5.44917 -20.23843,5.55929 -11.12541,0.17514 -21.33323,-7.363 -32.45047,-7.82415 -16.40404,-0.68045 -32.30778,6.23426 -48.67394,7.53973 -14.30339,1.14093 -28.84764,-1.83637 -43.04583,0.23738 -6.44021,0.94064 -12.25547,4.92813 -18.74046,5.48133 -21.40329,1.8258 -43.2235,-1.98202 -64.02219,-7.35316 -16.05681,-4.14658 -49.84638,-0.4944 -45.99421,-18.96494 z"
     style="fill:#000000;fill-opacity:0.27096779;stroke:none;stroke-width:1px;stroke-linecap:butt;stroke-linejoin:miter;stroke-opacity:1" /><g
     id="g999"
     transform="matrix(-1,0,0,1,522.96034,0)"><rect
       rx="5.9520946"
       transform="scale(-1,1)"
       style="opacity:1;vector-effect:none;fill:#c87137;fill-opacity:1;stroke:#000000;stroke-width:2.14502144;stroke-linecap:butt;stroke-linejoin:miter;stroke-miterlimit:4;stroke-dasharray:none;stroke-dashoffset:0;stroke-opacity:1;paint-order:normal"
       id="rect1221"
       width="30.64094"
       height="59.902382"
       x="-298.0235"
       y="600.39813"
       ry="5.9520946" /><circle
       r="40.907715"
       cy="617.50073"
       cx="256.48608"
       id="circle1034"
       style="display:inline;fill:#ffffff;fill-opacity:1;stroke:#000000;stroke-width:5.02916527;stroke-linecap:round;stroke-linejoin:round;stroke-miterlimit:4;stroke-dasharray:none;stroke-dashoffset:0;stroke-opacity:1;paint-order:markers fill stroke" /><path
       sodipodi:nodetypes="cccc"
       inkscape:connector-curvature="0"
       id="path1038"
       d="m 254.5626,660.59511 -12.64733,75.03527 36.43209,58.18522 -12.71086,67.42257"
       style="fill:none;stroke:#000000;stroke-width:5.02916527;stroke-linecap:round;stroke-linejoin:round;stroke-dasharray:none;stroke-opacity:1;paint-order:markers fill stroke" /><path
       sodipodi:nodetypes="ccc"
       inkscape:connector-curvature="0"
       id="path1040"
       d="m 241.91527,735.63038 -1.94178,66.34017 -46.77281,48.05912"
       style="fill:none;stroke:#000000;stroke-width:5.02916527;stroke-linecap:round;stroke-linejoin:round;stroke-dasharray:none;stroke-opacity:1;paint-order:markers fill stroke" /><path
       sodipodi:nodetypes="ccccc"
       inkscape:connector-curvature="0"
       id="path1042"
       d="m 207.63143,769.60002 -0.61881,-71.1174 47.54998,-37.88751 42.87428,55.04203 51.46076,-22.19753"
       style="opacity:1;fill:none;fill-opacity:1;stroke:#000000;stroke-width:5.02916527;stroke-linecap:round;stroke-linejoin:round;stroke-miterlimit:4;stroke-dasharray:none;stroke-dashoffset:0;stroke-opacity:1;paint-order:markers fill stroke" /><circle
       r="8.1739702"
       transform="rotate(-125.01532)"
       cy="-128.7672"
       cx="-672.77405"
       id="circle1044"
       style="fill:#ffffff;fill-opacity:1;stroke:#000000;stroke-width:0.83819419;stroke-linecap:round;stroke-linejoin:round;stroke-miterlimit:4;stroke-dasharray:none;stroke-dashoffset:0;stroke-opacity:1;paint-order:markers fill stroke" /><circle
       transform="rotate(-92.018184)"
       r="1.8277203"
       cy="262.99658"
       cx="-636.49945"
       id="circle1046"
       style="fill:#000000;fill-opacity:1;stroke:none;stroke-width:0.83819419;stroke-linecap:round;stroke-linejoin:round;stroke-miterlimit:4;stroke-dasharray:none;stroke-dashoffset:0;stroke-opacity:1;paint-order:markers fill stroke" /><circle
       style="fill:#ffffff;fill-opacity:1;stroke:#000000;stroke-width:0.83819419;stroke-linecap:round;stroke-linejoin:round;stroke-miterlimit:4;stroke-dasharray:none;stroke-dashoffset:0;stroke-opacity:1;paint-order:markers fill stroke"
       id="circle1052"
       cx="-660.87286"
       cy="-148.66634"
       transform="rotate(-125.01532)"
       r="8.1739702" /><circle
       transform="rotate(-92.018184)"
       style="fill:#000000;fill-opacity:1;stroke:none;stroke-width:0.83819419;stroke-linecap:round;stroke-linejoin:round;stroke-miterlimit:4;stroke-dasharray:none;stroke-dashoffset:0;stroke-opacity:1;paint-order:markers fill stroke"
       id="circle1054"
       cx="-637.35498"
       cy="239.82587"
       r="1.8277203" /><path
       inkscape:connector-curvature="0"
       id="path1181"
       d="m 254.36509,553.58377 a 43.708891,43.708891 0 0 1 43.7082,43.7082 43.708891,43.708891 0 0 1 -0.071,1.97824 h -87.2477 a 43.708891,43.708891 0 0 1 -0.098,-1.97824 43.708891,43.708891 0 0 1 43.7081,-43.7082 z"
       style="opacity:1;vector-effect:none;fill:#c87137;fill-opacity:1;stroke:#000000;stroke-width:2.74343038;stroke-linecap:butt;stroke-linejoin:miter;stroke-miterlimit:4;stroke-dasharray:none;stroke-dashoffset:0;stroke-opacity:1;paint-order:normal" /><rect
       rx="5.9520946"
       transform="scale(-1,1)"
       ry="5.9520946"
       y="604.88995"
       x="-243.2133"
       height="59.902382"
       width="30.64094"
       id="rect1186"
       style="opacity:1;vector-effect:none;fill:#c87137;fill-opacity:1;stroke:#000000;stroke-width:2.14502144;stroke-linecap:butt;stroke-linejoin:miter;stroke-miterlimit:4;stroke-dasharray:none;stroke-dashoffset:0;stroke-opacity:1;paint-order:normal" /><rect
       rx="5.9333339"
       transform="scale(-1,1)"
       ry="5.9333339"
       y="592.14935"
       x="-303.41364"
       height="18.986668"
       width="98.097786"
       id="rect1179"
       style="opacity:1;vector-effect:none;fill:#000000;fill-opacity:1;stroke:none;stroke-width:2.483495;stroke-linecap:butt;stroke-linejoin:miter;stroke-miterlimit:4;stroke-dasharray:none;stroke-dashoffset:0;stroke-opacity:1;paint-order:normal" /><g
       transform="matrix(1.0431181,0.52300542,-0.52300542,1.0431181,213.30463,-386.84698)"
       id="g1228"><rect
         rx="5.0847502"
         style="opacity:1;vector-effect:none;fill:#e3dedb;fill-opacity:1;stroke:#000000;stroke-width:2;stroke-linecap:butt;stroke-linejoin:miter;stroke-miterlimit:4;stroke-dasharray:none;stroke-dashoffset:0;stroke-opacity:1;paint-order:normal"
         id="rect1188"
         width="44.237289"
         height="58.305084"
         x="498.30508"
         y="746.10168"
         ry="5.0847502" /><path
         style="fill:none;stroke:#000000;stroke-width:2;stroke-linecap:butt;stroke-linejoin:miter;stroke-miterlimit:4;stroke-dasharray:2, 2;stroke-dashoffset:0;stroke-opacity:1"
         d="m 510.67492,762.49371 c -10.08604,26.89337 18.25299,8.42541 24.32926,14.50168 12.44833,12.44833 -10.21723,19.50681 -18.69638,16.53911"
         id="path1190"
         inkscape:connector-curvature="0" /><circle
         style="opacity:1;vector-effect:none;fill:none;fill-opacity:1;stroke:#ff0000;stroke-width:2;stroke-linecap:butt;stroke-linejoin:miter;stroke-miterlimit:4;stroke-dasharray:none;stroke-dashoffset:0;stroke-opacity:1;paint-order:normal"
         id="path1192"
         cx="512.71234"
         cy="757.93945"
         r="3.2359123" /><path
         style="opacity:1;vector-effect:none;fill:none;fill-opacity:1;stroke:#ff0000;stroke-width:2;stroke-linecap:butt;stroke-linejoin:miter;stroke-miterlimit:4;stroke-dasharray:none;stroke-dashoffset:0;stroke-opacity:1"
         d="m 508.3978,791.1018 7.25084,7.25084"
         id="path1194"
         inkscape:connector-curvature="0" /><path
         inkscape:connector-curvature="0"
         id="path1196"
         d="m 515.64864,791.1018 -7.25084,7.25084"
         style="fill:none;stroke:#ff0000;stroke-width:2;stroke-linecap:butt;stroke-linejoin:miter;stroke-miterlimit:4;stroke-dasharray:none;stroke-opacity:1" /></g></g><g
     transform="translate(314.25487,-116.74797)"
     id="g867"><path
       inkscape:transform-center-y="-3.5375556"
       inkscape:transform-center-x="-1.4881166"
       d="m 589.90493,1298.5902 -51.00353,-45.7195 -39.49824,46.4745 5.17817,-56.1404 -53.9651,-5.2069 43.0722,-36.4787 -47.75437,-44.6278 54.72863,13.1926 22.54457,-51.0039 34.87779,41.0813 38.45913,-4.1167 -9.94966,43.4273 40.92584,33.8021 -60.18814,13.6074 z"
       inkscape:randomized="0.1"
       inkscape:rounded="0"
       inkscape:flatsided="false"
       sodipodi:arg2="1.4959966"
       sodipodi:arg1="1.0471976"
       sodipodi:r2="47.720406"
       sodipodi:r1="95.440811"
       sodipodi:cy="1212.7349"
       sodipodi:cx="534.02429"
       sodipodi:sides="7"
       id="path986"
       style="opacity:1;vector-effect:none;fill:#ff0000;fill-opacity:1;stroke:none;stroke-width:15.52090263;stroke-linecap:round;stroke-linejoin:round;stroke-miterlimit:4;stroke-dasharray:none;stroke-dashoffset:0;stroke-opacity:1;paint-order:markers stroke fill"
       sodipodi:type="star"
       transform="translate(-259.3587,-587.65759)" /><path
       transform="translate(-148.5428,-336.56979)"
       sodipodi:type="star"
       style="opacity:1;vector-effect:none;fill:#ffd42a;fill-opacity:1;stroke:none;stroke-width:12.30745506;stroke-linecap:round;stroke-linejoin:round;stroke-miterlimit:4;stroke-dasharray:none;stroke-dashoffset:0;stroke-opacity:1;paint-order:markers stroke fill"
       id="path984"
       sodipodi:sides="7"
       sodipodi:cx="423.4599"
       sodipodi:cy="961.65027"
       sodipodi:r1="75.680748"
       sodipodi:r2="37.840374"
       sodipodi:arg1="1.0471976"
       sodipodi:arg2="1.4959966"
       inkscape:flatsided="false"
       inkscape:rounded="0"
       inkscape:randomized="0.1"
       d="m 463.26093,1025.0833 -36.53994,-23.923 -37.67889,31.6862 3.30059,-39.21332 -47.11693,-14.01807 38.37678,-16.12224 -18.81733,-42.24989 44.15965,14.58907 3.89249,-49.44866 18.75347,32.61083 48.1444,-13.08834 -25.63957,49.80957 42.15308,15.55169 -45.50179,11.62543 z"
       inkscape:transform-center-x="3.6859447"
       inkscape:transform-center-y="-2.0474644" /><path
       inkscape:transform-center-y="-0.59770977"
       inkscape:transform-center-x="-2.2092331"
       d="m 304.56113,668.20811 -30.92695,-17.63473 -19.68762,17.84145 -0.19056,-24.79235 -21.96414,-2.99491 22.32662,-21.4021 -23.53618,-22.08045 37.02412,11.11385 3.99901,-27.68392 9.01998,21.81915 29.78855,-5.98785 -11.34739,19.75388 26.53038,18.86941 -26.45584,-0.57993 z"
       inkscape:randomized="0.1"
       inkscape:rounded="0"
       inkscape:flatsided="false"
       sodipodi:arg2="1.4959966"
       sodipodi:arg1="1.0471976"
       sodipodi:r2="24.596718"
       sodipodi:r1="49.193436"
       sodipodi:cy="625.08472"
       sodipodi:cx="275.25424"
       sodipodi:sides="7"
       id="path982"
       style="opacity:1;vector-effect:none;fill:#ffffff;fill-opacity:1;stroke:none;stroke-width:8;stroke-linecap:round;stroke-linejoin:round;stroke-miterlimit:4;stroke-dasharray:none;stroke-dashoffset:0;stroke-opacity:1;paint-order:markers stroke fill"
       sodipodi:type="star" /></g><g
     id="g937"
     transform="matrix(-1,0,0,1,1394.7929,127.27922)"><g
       id="g978"><rect
         rx="5.9520946"
         style="opacity:1;vector-effect:none;fill:#c87137;fill-opacity:1;stroke:#000000;stroke-width:2.14502144;stroke-linecap:butt;stroke-linejoin:miter;stroke-miterlimit:4;stroke-dasharray:none;stroke-dashoffset:0;stroke-opacity:1;paint-order:normal"
         id="rect918"
         width="30.64094"
         height="59.902382"
         x="-895.98969"
         y="-530.57971"
         ry="5.9520946"
         transform="matrix(-0.74563551,-0.66635403,-0.66635403,0.74563551,0,0)" /><path
         inkscape:connector-curvature="0"
         sodipodi:nodetypes="cccc"
         id="path5538"
         d="m 1020.9774,281.30421 17.0219,88.14904 -67.47961,4.25548 17.02189,68.08753"
         style="fill:none;fill-opacity:1;stroke:#000000;stroke-width:5.32271624;stroke-linecap:round;stroke-linejoin:round;stroke-miterlimit:4;stroke-dasharray:none;stroke-dashoffset:0;stroke-opacity:1;paint-order:markers fill stroke" /><path
         inkscape:connector-curvature="0"
         id="path5559"
         d="m 1037.9993,369.45325 35.8675,-26.74867 31.6121,79.6381"
         style="fill:none;fill-opacity:1;stroke:#000000;stroke-width:5.32271624;stroke-linecap:round;stroke-linejoin:round;stroke-miterlimit:4;stroke-dasharray:none;stroke-dashoffset:0;stroke-opacity:1;paint-order:markers fill stroke" /><path
         inkscape:connector-curvature="0"
         id="path5561"
         d="m 1127.3642,224.76724 -48.026,63.83206 c -2.4317,0 -55.9981,-7.30724 -55.9981,-7.30724 l -43.70154,46.21441 -81.46187,-54.10528"
         style="fill:none;fill-opacity:1;stroke:#000000;stroke-width:5.32271624;stroke-linecap:round;stroke-linejoin:round;stroke-miterlimit:4;stroke-dasharray:none;stroke-dashoffset:0;stroke-opacity:1;paint-order:markers fill stroke" /><circle
         r="43.295483"
         cy="234.70354"
         cx="1022.6919"
         id="circle4637"
         style="fill:#ffffff;fill-opacity:1;stroke:#000000;stroke-width:5.32271624;stroke-linecap:round;stroke-linejoin:round;stroke-miterlimit:4;stroke-dasharray:none;stroke-dashoffset:0;stroke-opacity:1;paint-order:markers fill stroke" /><path
         inkscape:connector-curvature="0"
         id="path5536"
         d="m 980.1384,241.21212 80.3852,12.68109 2.7942,-5.37335 1.2896,-4.08373 1.0746,-4.08374 0.6448,-5.58829 -84.89881,-14.18562 -2.36427,11.17655 z"
         style="fill:#000000;stroke:#000000;stroke-width:0.88711935px;stroke-linecap:butt;stroke-linejoin:miter;stroke-opacity:1" /><circle
         transform="rotate(-77.01314)"
         r="10.894269"
         cy="1028.0758"
         cx="-3.1337826"
         id="circle4649"
         style="display:inline;fill:#ffffff;fill-opacity:1;stroke:#000000;stroke-width:1.45049334;stroke-linecap:round;stroke-linejoin:round;stroke-miterlimit:4;stroke-dasharray:none;stroke-dashoffset:0;stroke-opacity:1;paint-order:markers fill stroke" /><circle
         transform="rotate(-44.016007)"
         r="1.9344038"
         cy="862.25482"
         cx="553.58923"
         id="circle4651"
         style="display:inline;fill:#000000;fill-opacity:1;stroke:none;stroke-width:0.88711935;stroke-linecap:round;stroke-linejoin:round;stroke-miterlimit:4;stroke-dasharray:none;stroke-dashoffset:0;stroke-opacity:1;paint-order:markers fill stroke" /><circle
         transform="rotate(-77.01314)"
         r="8.4763708"
         cy="1053.7878"
         cx="0.149179"
         id="circle4675"
         style="display:inline;fill:#ffffff;fill-opacity:1;stroke:#000000;stroke-width:1.1285665;stroke-linecap:round;stroke-linejoin:round;stroke-miterlimit:4;stroke-dasharray:none;stroke-dashoffset:0;stroke-opacity:1;paint-order:markers fill stroke" /><circle
         transform="rotate(-44.016007)"
         r="1.9344038"
         cy="882.03149"
         cx="570.34534"
         id="circle4677"
         style="display:inline;fill:#000000;fill-opacity:1;stroke:none;stroke-width:0.88711935;stroke-linecap:round;stroke-linejoin:round;stroke-miterlimit:4;stroke-dasharray:none;stroke-dashoffset:0;stroke-opacity:1;paint-order:markers fill stroke" /><circle
         r="12.353511"
         cy="268.5087"
         cx="1020.7609"
         id="path4756"
         style="fill:#ff5555;fill-opacity:1;stroke:#000000;stroke-width:1.99953139;stroke-linecap:round;stroke-linejoin:round;stroke-miterlimit:4;stroke-dasharray:none;stroke-dashoffset:0;stroke-opacity:1;paint-order:markers fill stroke" /><rect
         rx="5.9520946"
         ry="5.9520946"
         y="151.35909"
         x="-1083.2942"
         height="59.902382"
         width="30.64094"
         id="rect914"
         style="opacity:1;vector-effect:none;fill:#c87137;fill-opacity:1;stroke:#000000;stroke-width:2.14502144;stroke-linecap:butt;stroke-linejoin:miter;stroke-miterlimit:4;stroke-dasharray:none;stroke-dashoffset:0;stroke-opacity:1;paint-order:normal"
         transform="matrix(-0.99868183,-0.05132843,-0.05132843,0.99868183,0,0)" /><path
         style="opacity:1;vector-effect:none;fill:#c87137;fill-opacity:1;stroke:#000000;stroke-width:2.74343038;stroke-linecap:butt;stroke-linejoin:miter;stroke-miterlimit:4;stroke-dasharray:none;stroke-dashoffset:0;stroke-opacity:1;paint-order:normal"
         d="m 1050.4456,149.89306 a 43.708891,43.708891 0 0 1 26.3359,55.92161 43.708891,43.708891 0 0 1 -0.7363,1.83746 l -82.0989,-29.52856 a 43.708891,43.708891 0 0 1 0.57731,-1.89466 43.708891,43.708891 0 0 1 55.92159,-26.33599 z"
         id="path916"
         inkscape:connector-curvature="0" /><rect
         rx="5.9333339"
         style="opacity:1;vector-effect:none;fill:#000000;fill-opacity:1;stroke:none;stroke-width:2.483495;stroke-linecap:butt;stroke-linejoin:miter;stroke-miterlimit:4;stroke-dasharray:none;stroke-dashoffset:0;stroke-opacity:1;paint-order:normal"
         id="rect920"
         width="98.097786"
         height="18.986668"
         x="-1088.2339"
         y="-175.90527"
         ry="5.9333339"
         transform="matrix(-0.94098614,-0.33844511,-0.33844511,0.94098614,0,0)" /></g></g></svg>