<?xml version="1.0" encoding="UTF-8" standalone="no"?>
<!-- Created with Inkscape (http://www.inkscape.org/) -->

<svg
   xmlns:dc="http://purl.org/dc/elements/1.1/"
   xmlns:cc="http://creativecommons.org/ns#"
   xmlns:rdf="http://www.w3.org/1999/02/22-rdf-syntax-ns#"
   xmlns:svg="http://www.w3.org/2000/svg"
   xmlns="http://www.w3.org/2000/svg"
   xmlns:sodipodi="http://sodipodi.sourceforge.net/DTD/sodipodi-0.dtd"
   xmlns:inkscape="http://www.inkscape.org/namespaces/inkscape"
   width="740"
   height="1280"
   version="1.1"
   viewBox="0 0 740 1280"
   xml:space="preserve"
   id="svg18"
   sodipodi:docname="level9lose2.svg"
   inkscape:version="0.92.5 (2060ec1f9f, 2020-04-08)"><defs
     id="defs22" /><sodipodi:namedview
     pagecolor="#ffffff"
     bordercolor="#666666"
     borderopacity="1"
     objecttolerance="10"
     gridtolerance="10"
     guidetolerance="10"
     inkscape:pageopacity="0"
     inkscape:pageshadow="2"
     inkscape:window-width="1920"
     inkscape:window-height="986"
     id="namedview20"
     showgrid="false"
     inkscape:zoom="1.0429825"
     inkscape:cx="341.49297"
     inkscape:cy="803.87718"
     inkscape:window-x="1909"
     inkscape:window-y="49"
     inkscape:window-maximized="1"
     inkscape:current-layer="svg18"
     inkscape:snap-bbox="true"
     inkscape:bbox-paths="true"
     inkscape:bbox-nodes="true"
     inkscape:snap-bbox-edge-midpoints="true"
     inkscape:snap-bbox-midpoints="true"
     inkscape:object-paths="true"
     inkscape:snap-intersection-paths="true"
     inkscape:snap-smooth-nodes="true"
     inkscape:snap-midpoints="true"
     inkscape:snap-object-midpoints="true"
     inkscape:snap-center="true"
     inkscape:snap-text-baseline="true"
     inkscape:snap-page="true"
     inkscape:snap-global="false" /><metadata
     id="metadata2"><rdf:RDF><cc:Work
         rdf:about=""><dc:format>image/svg+xml</dc:format><dc:type
           rdf:resource="http://purl.org/dc/dcmitype/StillImage" /><dc:title /></cc:Work></rdf:RDF></metadata><rect
     style="opacity:1;vector-effect:none;fill:#00ffff;fill-opacity:1;stroke:#000000;stroke-width:0.99999994;stroke-linecap:butt;stroke-linejoin:round;stroke-miterlimit:4;stroke-dasharray:none;stroke-dashoffset:0;stroke-opacity:1;paint-order:markers fill stroke"
     id="rect819"
     width="739"
     height="739"
     x="0.5"
     y="270.5" /><rect
     style="opacity:1;vector-effect:none;fill:#ff6600;fill-opacity:1;stroke:#803300;stroke-width:2;stroke-linecap:round;stroke-linejoin:round;stroke-miterlimit:4;stroke-dasharray:none;stroke-dashoffset:0;stroke-opacity:1;paint-order:markers fill stroke"
     id="rect821"
     width="739.5"
     height="71.716782"
     x="0.5"
     y="436.26581" /><rect
     y="507.98257"
     x="0.5"
     height="71.716782"
     width="739.5"
     id="rect823"
     style="opacity:1;vector-effect:none;fill:#ff6600;fill-opacity:1;stroke:#803300;stroke-width:2;stroke-linecap:round;stroke-linejoin:round;stroke-miterlimit:4;stroke-dasharray:none;stroke-dashoffset:0;stroke-opacity:1;paint-order:markers fill stroke" /><rect
     y="579.69934"
     x="0.5"
     height="71.716782"
     width="739.5"
     id="rect825"
     style="opacity:1;vector-effect:none;fill:#ff6600;fill-opacity:1;stroke:#803300;stroke-width:2;stroke-linecap:round;stroke-linejoin:round;stroke-miterlimit:4;stroke-dasharray:none;stroke-dashoffset:0;stroke-opacity:1;paint-order:markers fill stroke" /><rect
     style="opacity:1;vector-effect:none;fill:#ff6600;fill-opacity:1;stroke:#803300;stroke-width:2;stroke-linecap:round;stroke-linejoin:round;stroke-miterlimit:4;stroke-dasharray:none;stroke-dashoffset:0;stroke-opacity:1;paint-order:markers fill stroke"
     id="rect827"
     width="739.5"
     height="71.716782"
     x="0.5"
     y="651.41614" /><rect
     y="723.13287"
     x="0.5"
     height="71.716782"
     width="739.5"
     id="rect829"
     style="opacity:1;vector-effect:none;fill:#ff6600;fill-opacity:1;stroke:#803300;stroke-width:2;stroke-linecap:round;stroke-linejoin:round;stroke-miterlimit:4;stroke-dasharray:none;stroke-dashoffset:0;stroke-opacity:1;paint-order:markers fill stroke" /><rect
     style="opacity:1;vector-effect:none;fill:#ff6600;fill-opacity:1;stroke:#803300;stroke-width:2;stroke-linecap:round;stroke-linejoin:round;stroke-miterlimit:4;stroke-dasharray:none;stroke-dashoffset:0;stroke-opacity:1;paint-order:markers fill stroke"
     id="rect831"
     width="739.5"
     height="71.716782"
     x="0.5"
     y="794.84967" /><rect
     style="opacity:1;vector-effect:none;fill:#ff6600;fill-opacity:1;stroke:#803300;stroke-width:2;stroke-linecap:round;stroke-linejoin:round;stroke-miterlimit:4;stroke-dasharray:none;stroke-dashoffset:0;stroke-opacity:1;paint-order:markers fill stroke"
     id="rect833"
     width="739.5"
     height="71.716782"
     x="0.5"
     y="866.56647" /><rect
     y="938.2832"
     x="0.5"
     height="71.716782"
     width="739.5"
     id="rect835"
     style="opacity:1;vector-effect:none;fill:#ff6600;fill-opacity:1;stroke:#803300;stroke-width:2;stroke-linecap:round;stroke-linejoin:round;stroke-miterlimit:4;stroke-dasharray:none;stroke-dashoffset:0;stroke-opacity:1;paint-order:markers fill stroke" /><path
     style="opacity:1;vector-effect:none;fill:#d45500;fill-opacity:1;stroke:#552200;stroke-width:2;stroke-linecap:round;stroke-linejoin:round;stroke-miterlimit:4;stroke-dasharray:none;stroke-dashoffset:0;stroke-opacity:1;paint-order:markers fill stroke"
     d="m -34.277144,381.61523 h 86.291016 v 78.04493 H 71.429887 V 381.61523 H 157.7209 v 78.04493 h 19.41601 v -78.04493 h 86.29102 v 78.04493 h 19.41406 v -78.04493 h 86.29102 v 78.04493 h 19.41601 v -78.04493 h 86.29102 v 78.04493 h 19.41601 v -78.04493 h 86.29102 v 78.04493 h 19.41602 v -78.04493 h 86.28906 v 78.04493 h 19.41601 v -78.04493 h 86.29102 V 359.32227 H -34.277144 Z"
     id="rect837"
     inkscape:connector-curvature="0"
     sodipodi:nodetypes="ccccccccccccccccccccccccccccccccc" /><g
     id="g1065"
     transform="translate(-33.55761,36.433977)"><path
       d="m 635.25391,757.02539 c -7.34598,-4e-5 -14.64741,3.02241 -19.8418,8.2168 -5.19439,5.19439 -8.21683,12.49582 -8.2168,19.84179 a 1.9835345,1.9835345 0 0 0 0,0.004 c 0.002,1.42743 0.14008,2.85123 0.35938,4.26172 -0.21231,1.36024 -0.34883,2.7327 -0.35938,4.10937 a 1.9835345,1.9835345 0 0 0 0,0.0156 c -3e-5,7.34598 3.02241,14.64741 8.2168,19.8418 5.19439,5.19438 12.49582,8.21683 19.8418,8.21679 7.34597,4e-5 14.6474,-3.02241 19.84179,-8.21679 5.19439,-5.19439 8.21684,-12.49583 8.2168,-19.8418 a 1.9835345,1.9835345 0 0 0 0,-0.004 c -0.002,-1.42743 -0.14007,-2.85123 -0.35938,-4.26172 0.21231,-1.36024 0.34884,-2.7327 0.35938,-4.10937 a 1.9835345,1.9835345 0 0 0 0,-0.0156 c 4e-5,-7.34597 -3.02241,-14.6474 -8.2168,-19.84179 -5.19439,-5.19439 -12.49582,-8.21684 -19.84179,-8.2168 z"
       id="circle1034"
       style="opacity:1;vector-effect:none;fill:#000000;fill-opacity:1;stroke:none;stroke-width:7.12262249;stroke-linecap:round;stroke-linejoin:round;stroke-miterlimit:4;stroke-dasharray:none;stroke-dashoffset:0;stroke-opacity:1;paint-order:markers stroke fill"
       inkscape:original="M 635.25391 759.00781 A 26.07604 26.07604 0 0 0 609.17773 785.08398 A 26.07604 26.07604 0 0 0 609.53711 789.35547 A 26.07604 26.07604 0 0 0 609.17773 793.47461 A 26.07604 26.07604 0 0 0 635.25391 819.55078 A 26.07604 26.07604 0 0 0 661.33008 793.47461 A 26.07604 26.07604 0 0 0 660.9707 789.20312 A 26.07604 26.07604 0 0 0 661.33008 785.08398 A 26.07604 26.07604 0 0 0 635.25391 759.00781 z "
       inkscape:radius="1.9833362"
       sodipodi:type="inkscape:offset" /><circle
       style="opacity:1;vector-effect:none;fill:#800000;fill-opacity:1;stroke:none;stroke-width:7.12262249;stroke-linecap:round;stroke-linejoin:round;stroke-miterlimit:4;stroke-dasharray:none;stroke-dashoffset:0;stroke-opacity:1;paint-order:markers stroke fill"
       id="circle1032"
       cx="635.25421"
       cy="793.47412"
       r="26.07604" /><circle
       r="26.07604"
       cy="785.08472"
       cx="635.25421"
       id="circle1030"
       style="opacity:1;vector-effect:none;fill:#d40000;fill-opacity:1;stroke:none;stroke-width:7.12262249;stroke-linecap:round;stroke-linejoin:round;stroke-miterlimit:4;stroke-dasharray:none;stroke-dashoffset:0;stroke-opacity:1;paint-order:markers stroke fill" /><circle
       style="opacity:1;vector-effect:none;fill:#cccccc;fill-opacity:1;stroke:none;stroke-width:6.66431236;stroke-linecap:round;stroke-linejoin:round;stroke-miterlimit:4;stroke-dasharray:none;stroke-dashoffset:0;stroke-opacity:1;paint-order:markers stroke fill"
       id="circle1028"
       cx="635.25421"
       cy="785.08472"
       r="24.398159" /><circle
       r="20.169491"
       cy="785.08472"
       cx="635.25421"
       id="path1026"
       style="opacity:1;vector-effect:none;fill:#ffffff;fill-opacity:1;stroke:none;stroke-width:5.50925922;stroke-linecap:round;stroke-linejoin:round;stroke-miterlimit:4;stroke-dasharray:none;stroke-dashoffset:0;stroke-opacity:1;paint-order:markers stroke fill" /><path
       inkscape:transform-center-y="0.080913222"
       inkscape:transform-center-x="0.062035722"
       d="m 649.13269,793.09746 -12.84155,-4.14289 -9.04967,10.00862 4.14288,-12.84155 -10.00862,-9.04967 12.84156,4.14289 9.04966,-10.00862 -4.14288,12.84155 z"
       inkscape:randomized="0"
       inkscape:rounded="0"
       inkscape:flatsided="false"
       sodipodi:arg2="1.3089969"
       sodipodi:arg1="0.52359878"
       sodipodi:r2="4.0063715"
       sodipodi:r1="16.025486"
       sodipodi:cy="785.08472"
       sodipodi:cx="635.25421"
       sodipodi:sides="4"
       id="path1057"
       style="opacity:1;vector-effect:none;fill:#ff0000;fill-opacity:1;stroke:none;stroke-width:3.89852858;stroke-linecap:round;stroke-linejoin:round;stroke-miterlimit:4;stroke-dasharray:none;stroke-dashoffset:0;stroke-opacity:1;paint-order:markers stroke fill"
       sodipodi:type="star" /></g><circle
     r="40.907715"
     cy="752.09381"
     cx="131.6571"
     id="circle906-4-1"
     style="display:inline;fill:#ffffff;fill-opacity:1;stroke:#000000;stroke-width:5.02916527;stroke-linecap:round;stroke-linejoin:round;stroke-miterlimit:4;stroke-dasharray:none;stroke-dashoffset:0;stroke-opacity:1;paint-order:markers fill stroke" /><path
     sodipodi:nodetypes="cccc"
     inkscape:connector-curvature="0"
     id="path13052-4"
     d="m 128.44681,794.70164 -5.70368,92.49239 51.28135,33.43647 59.2536,50.42257"
     style="fill:none;stroke:#000000;stroke-width:5.02916527;stroke-linecap:round;stroke-linejoin:round;stroke-dasharray:none;stroke-opacity:1;paint-order:markers fill stroke" /><path
     sodipodi:nodetypes="ccc"
     inkscape:connector-curvature="0"
     id="path13054-4"
     d="m 122.74313,887.19403 10.56075,63.43457 -43.99716,42.01496"
     style="fill:none;stroke:#000000;stroke-width:5.02916527;stroke-linecap:round;stroke-linejoin:round;stroke-dasharray:none;stroke-opacity:1;paint-order:markers fill stroke" /><path
     sodipodi:nodetypes="ccc"
     inkscape:connector-curvature="0"
     id="path13851-1"
     d="m 129.73361,795.18818 58.02505,34.95624 36.89404,-46.09858"
     style="opacity:1;fill:none;fill-opacity:1;stroke:#000000;stroke-width:5.02916527;stroke-linecap:round;stroke-linejoin:round;stroke-miterlimit:4;stroke-dasharray:none;stroke-dashoffset:0;stroke-opacity:1;paint-order:markers fill stroke" /><circle
     r="9.8631563"
     transform="rotate(-125.01532)"
     cy="-308.63199"
     cx="-710.75073"
     id="circle1043-52-8"
     style="fill:#ffffff;fill-opacity:1;stroke:#000000;stroke-width:1.01141071;stroke-linecap:round;stroke-linejoin:round;stroke-miterlimit:4;stroke-dasharray:none;stroke-dashoffset:0;stroke-opacity:1;paint-order:markers fill stroke" /><circle
     r="1.8277203"
     cy="132.94955"
     cx="-761.86029"
     id="circle1045-0-9"
     style="fill:#000000;fill-opacity:1;stroke:none;stroke-width:0.83819419;stroke-linecap:round;stroke-linejoin:round;stroke-miterlimit:4;stroke-dasharray:none;stroke-dashoffset:0;stroke-opacity:1;paint-order:markers fill stroke"
     transform="rotate(-92.018184)" /><circle
     style="fill:#ffffff;fill-opacity:1;stroke:#000000;stroke-width:0.83819419;stroke-linecap:round;stroke-linejoin:round;stroke-miterlimit:4;stroke-dasharray:none;stroke-dashoffset:0;stroke-opacity:1;paint-order:markers fill stroke"
     id="circle1532-3-1"
     cx="-699.47815"
     cy="-328.13004"
     transform="rotate(-125.01532)"
     r="8.1739702" /><circle
     style="fill:#000000;fill-opacity:1;stroke:none;stroke-width:0.83819419;stroke-linecap:round;stroke-linejoin:round;stroke-miterlimit:4;stroke-dasharray:none;stroke-dashoffset:0;stroke-opacity:1;paint-order:markers fill stroke"
     id="circle1534-7"
     cx="-762.71576"
     cy="109.77884"
     r="1.8277203"
     transform="rotate(-92.018184)" /><circle
     style="opacity:1;vector-effect:none;fill:#ff2a2a;fill-opacity:1;stroke:#000000;stroke-width:2;stroke-linecap:round;stroke-linejoin:round;stroke-miterlimit:4;stroke-dasharray:none;stroke-dashoffset:0;stroke-opacity:1;paint-order:markers stroke fill"
     id="path915"
     cx="145.70782"
     cy="788.13916"
     r="8.5" /><path
     style="opacity:1;fill:none;fill-opacity:1;stroke:#000000;stroke-width:5.02916527;stroke-linecap:round;stroke-linejoin:round;stroke-miterlimit:4;stroke-dasharray:none;stroke-dashoffset:0;stroke-opacity:1;paint-order:markers fill stroke"
     d="m 206.4527,877.27035 -64.3449,1.43872 -12.37419,-83.52089"
     id="path883"
     inkscape:connector-curvature="0"
     sodipodi:nodetypes="ccc" /><g
     id="g951"
     transform="rotate(-24.177466,82.748697,740.183)"><ellipse
       transform="rotate(-17.709033)"
       ry="25.881031"
       rx="31.338341"
       cy="702.85498"
       cx="-113.58842"
       id="path992-4"
       style="opacity:1;vector-effect:none;fill:#ffffff;fill-opacity:1;stroke:#ffffff;stroke-width:1.07394457;stroke-linecap:round;stroke-linejoin:round;stroke-miterlimit:4;stroke-dasharray:none;stroke-dashoffset:0;stroke-opacity:1;paint-order:markers stroke fill" /><path
       inkscape:connector-curvature="0"
       id="path990-1"
       d="m 74.79482,748.93472 c -2.38979,-1.72066 -8.19979,-4.92781 -18.31056,-10.10754 -13.158917,-6.74129 -17.571675,-9.6271 -18.35592,-12.00422 -0.811583,-2.46 2.193014,-3.42139 10.747811,-3.43902 3.182112,-0.007 5.823259,-0.21043 7.723139,-0.59616 4.8262,-0.97985 8.93914,-5.25889 11.078109,-11.52549 0.706997,-2.07131 1.176013,-4.2465 1.674435,-7.76567 1.227329,-8.66568 1.451799,-10.09056 1.892872,-12.01548 1.353152,-5.90537 3.917907,-10.56878 8.006693,-14.55831 2.711829,-2.64599 6.17579,-5.03726 9.923629,-6.85055 2.409315,-1.16568 7.963695,-2.94333 10.431669,-3.3386 7.920613,-1.26855 14.474853,-0.35424 20.010443,2.79143 3.95926,2.24991 6.48274,4.41704 13.1814,11.32003 4.85993,5.00819 6.35326,6.36756 8.67349,7.89551 4.99011,3.28616 10.47477,4.12456 14.69862,2.24689 1.7464,-0.77635 4.22582,-2.27253 6.82185,-4.11656 3.42098,-2.43002 5.73907,-3.7782 7.41826,-4.31439 3.13548,-1.00121 4.04493,0.92124 2.57803,5.44956 -1.12425,3.47057 -1.95772,5.24282 -8.30066,17.65025 -5.46656,10.69313 -7.09176,14.08061 -8.03169,16.74078 -0.4414,1.24924 -0.63962,1.6179 -0.88346,1.64316 -0.17291,0.0179 -1.59716,0.13446 -3.165,0.25901 -27.46389,2.18175 -53.449288,10.59013 -75.119386,24.30721 -0.846735,0.53597 -1.579509,0.98728 -1.628389,1.00288 -0.04888,0.0156 -0.528303,-0.28802 -1.065385,-0.67472 z m 37.4692,-29.47266 c 1.16445,-0.61708 2.75072,-2.17062 3.43745,-3.36655 1.06411,-1.85314 1.44239,-3.87208 1.12149,-5.98572 -0.0872,-0.57457 -0.14545,-1.07016 -0.12938,-1.10131 0.0161,-0.0311 0.88157,0.13132 1.92333,0.36104 l 1.89412,0.41766 0.50397,0.97022 c 1.56234,3.00772 4.19977,4.54169 5.67077,3.2982 0.52854,-0.44679 0.72003,-1.13584 0.65083,-2.3419 -0.0496,-0.86363 -0.13776,-1.17386 -0.59738,-2.10109 -0.29657,-0.59832 -0.5218,-1.1577 -0.50051,-1.24306 0.0213,-0.0854 0.20713,-0.2593 0.41296,-0.38651 1.09186,-0.67484 2.29358,-2.29743 2.4783,-3.34623 0.19742,-1.1209 -0.50655,-2.01818 -1.72657,-2.20067 -0.7148,-0.10692 -1.01279,-0.0566 -2.43085,0.4107 -1.31705,0.434 -1.74656,0.64197 -2.32055,1.12369 -0.3874,0.32512 -0.80095,0.63244 -0.919,0.68292 -0.11805,0.0505 -1.4367,-0.17059 -2.93034,-0.49129 l -2.7157,-0.58308 0.25953,-1.1496 c 0.30595,-1.35526 0.32537,-3.34822 0.0461,-4.73089 l -0.19947,-0.98759 1.79131,-1.945 c 1.72811,-1.87637 1.80979,-1.94359 2.31467,-1.90494 3.21631,0.24625 5.97194,-0.92654 6.27029,-2.66863 0.0922,-0.53857 0.0558,-0.70984 -0.25344,-1.19 -0.63078,-0.97954 -2.43388,-1.68778 -4.31614,-1.69535 -0.60696,-0.002 -0.61002,-0.005 -0.69554,-0.6526 -0.14298,-1.0821 -0.83573,-2.95336 -1.27967,-3.45664 -0.82755,-0.93816 -1.98156,-1.08317 -2.88647,-0.36271 -0.97461,0.77595 -1.56647,3.11955 -1.33058,5.26866 l 0.14331,1.30569 -1.1346,1.23306 -1.13459,1.23305 -0.94837,-0.92506 c -1.14156,-1.11351 -3.24111,-2.32937 -4.94007,-2.86082 -4.39421,-1.37456 -9.466193,0.004 -12.668964,3.4435 -1.500136,1.611 -2.669281,3.94028 -3.034552,6.04572 -0.114823,0.66185 -0.217408,1.22683 -0.227966,1.25551 -0.01056,0.0287 -0.749334,-0.10732 -1.641723,-0.30222 l -1.622525,-0.35436 -0.650098,-1.1654 c -0.84155,-1.50861 -1.810117,-2.53357 -2.949859,-3.12161 -1.83534,-0.94692 -3.125438,-0.33671 -3.336796,1.57829 -0.07172,0.64984 0.514285,2.78636 0.982867,3.58341 l 0.281318,0.47852 -0.814684,0.64812 c -2.340873,1.8623 -2.921609,4.08301 -1.32115,5.05202 0.771038,0.46683 1.577821,0.46157 3.124074,-0.0204 1.18247,-0.36857 1.56922,-0.56337 2.460259,-1.23926 l 1.057236,-0.80196 2.512681,0.53966 c 1.381975,0.29681 2.574175,0.5898 2.649331,0.65108 0.07516,0.0613 0.311842,0.51321 0.525966,1.00428 0.592761,1.35945 2.062781,3.23902 3.216793,4.113 l 0.395646,0.29964 -1.920265,2.10698 -1.920266,2.10697 -1.127547,-0.0937 c -1.007362,-0.0837 -1.308321,-0.0365 -2.823505,0.44328 -1.47831,0.4681 -1.761573,0.60457 -2.207259,1.06347 -0.281214,0.28955 -0.567806,0.70789 -0.636871,0.92963 -0.156958,0.50396 0.125988,1.42271 0.576697,1.87258 0.715513,0.71418 2.58502,1.28408 4.290798,1.308 0.253603,0.004 0.308571,0.10968 0.42336,0.8173 0.461429,2.84455 1.910238,4.5459 3.453298,4.05525 0.530306,-0.16869 1.406382,-1.19592 1.662407,-1.94938 0.429937,-1.26527 0.544793,-3.55769 0.227961,-4.54991 -0.101515,-0.31792 0.07554,-0.58665 1.225709,-1.86033 l 1.344363,-1.48874 0.666666,1.1951 c 0.97126,1.74114 2.16028,2.90517 3.87517,3.79374 2.6899,1.39377 5.71299,1.37029 8.42224,-0.0654 z m -8.18415,-10.59458 c -0.0735,-0.23017 1.32075,-5.22407 1.43949,-5.15594 0.20803,0.11934 3.98629,3.33179 4.01151,3.41076 0.0112,0.0352 -1.20636,0.45566 -2.70575,0.93444 -1.49939,0.47877 -2.73475,0.84361 -2.74525,0.81074 z m -5.094627,-2.83698 c -2.733479,-0.0642 -4.793116,-2.5068 -4.344078,-5.15174 0.137269,-0.80855 0.734161,-1.9891 1.278751,-2.52915 0.700587,-0.69474 2.172134,-1.2629 3.238882,-1.25053 1.109632,0.0129 2.532692,0.66675 3.251442,1.494 0.63358,0.72921 1.10114,1.9434 1.14465,2.97253 0.0616,1.45588 -0.87558,3.07824 -2.22466,3.85129 -0.92637,0.53082 -1.333566,0.63737 -2.344987,0.6136 z m 10.338907,-3.28447 c -2.80699,-0.0958 -4.80138,-2.46092 -4.37033,-5.18268 0.12405,-0.7833 0.71802,-1.93949 1.29079,-2.51256 0.68624,-0.68661 2.16362,-1.25787 3.22131,-1.2456 1.75316,0.0203 3.55538,1.31536 4.11065,2.95378 0.36871,1.08792 0.34478,2.31361 -0.0641,3.28378 -0.66204,1.57085 -2.50555,2.76072 -4.18831,2.70328 z"
       style="fill:#000000;stroke:#ffffff;stroke-width:5;stroke-miterlimit:4;stroke-dasharray:none;paint-order:markers stroke fill" /></g><path
     transform="translate(-259.3587,-587.65759)"
     sodipodi:type="star"
     style="opacity:1;vector-effect:none;fill:#ff0000;fill-opacity:1;stroke:none;stroke-width:15.52090263;stroke-linecap:round;stroke-linejoin:round;stroke-miterlimit:4;stroke-dasharray:none;stroke-dashoffset:0;stroke-opacity:1;paint-order:markers stroke fill"
     id="path986"
     sodipodi:sides="7"
     sodipodi:cx="534.02429"
     sodipodi:cy="1212.7349"
     sodipodi:r1="95.440811"
     sodipodi:r2="47.720406"
     sodipodi:arg1="1.0471976"
     sodipodi:arg2="1.4959966"
     inkscape:flatsided="false"
     inkscape:rounded="0"
     inkscape:randomized="0.1"
     d="m 589.90493,1298.5902 -51.00353,-45.7195 -39.49824,46.4745 5.17817,-56.1404 -53.9651,-5.2069 43.0722,-36.4787 -47.75437,-44.6278 54.72863,13.1926 22.54457,-51.0039 34.87779,41.0813 38.45913,-4.1167 -9.94966,43.4273 40.92584,33.8021 -60.18814,13.6074 z"
     inkscape:transform-center-x="-1.4881166"
     inkscape:transform-center-y="-3.5375556" /><g
     transform="translate(-4.03733,-24.86768)"
     id="g1145"><rect
       transform="matrix(-0.9587953,-0.28409783,-0.28409783,0.9587953,0,0)"
       ry="6.0726557"
       y="640.46802"
       x="-467.60013"
       height="69.633057"
       width="52.832058"
       id="rect1188-4"
       style="opacity:1;vector-effect:none;fill:#e3dedb;fill-opacity:1;stroke:#000000;stroke-width:2.38857579;stroke-linecap:butt;stroke-linejoin:miter;stroke-miterlimit:4;stroke-dasharray:none;stroke-dashoffset:0;stroke-opacity:1;paint-order:normal" /><path
       inkscape:connector-curvature="0"
       id="path1190-6"
       d="m 246.6511,761.495 c 2.42452,34.21714 -23.75979,3.45461 -32.77923,8.35077 -18.47796,10.03065 5.08096,25.80346 15.79717,25.28214"
       style="fill:none;stroke:#000000;stroke-width:2.38857579;stroke-linecap:butt;stroke-linejoin:miter;stroke-miterlimit:4;stroke-dasharray:2.38857575, 2.38857575;stroke-dashoffset:0;stroke-opacity:1" /><circle
       transform="matrix(-0.9587953,-0.28409783,-0.28409783,0.9587953,0,0)"
       r="3.8646109"
       cy="654.60571"
       cx="-450.39371"
       id="path1192-4"
       style="opacity:1;vector-effect:none;fill:none;fill-opacity:1;stroke:#ff0000;stroke-width:2.38857579;stroke-linecap:butt;stroke-linejoin:miter;stroke-miterlimit:4;stroke-dasharray:none;stroke-dashoffset:0;stroke-opacity:1;paint-order:normal" /><path
       inkscape:connector-curvature="0"
       id="path1194-3"
       d="m 239.55201,795.0261 -10.76295,5.8426"
       style="opacity:1;vector-effect:none;fill:none;fill-opacity:1;stroke:#ff0000;stroke-width:2.38857579;stroke-linecap:butt;stroke-linejoin:miter;stroke-miterlimit:4;stroke-dasharray:none;stroke-dashoffset:0;stroke-opacity:1" /><path
       style="fill:none;stroke:#ff0000;stroke-width:2.38857579;stroke-linecap:butt;stroke-linejoin:miter;stroke-miterlimit:4;stroke-dasharray:none;stroke-opacity:1"
       d="m 231.24923,792.56593 5.84261,10.76294"
       id="path1196-3"
       inkscape:connector-curvature="0" /></g><path
     inkscape:transform-center-y="-2.0474644"
     inkscape:transform-center-x="3.6859447"
     d="m 463.26093,1025.0833 -36.53994,-23.923 -37.67889,31.6862 3.30059,-39.21332 -47.11693,-14.01807 38.37678,-16.12224 -18.81733,-42.24989 44.15965,14.58907 3.89249,-49.44866 18.75347,32.61083 48.1444,-13.08834 -25.63957,49.80957 42.15308,15.55169 -45.50179,11.62543 z"
     inkscape:randomized="0.1"
     inkscape:rounded="0"
     inkscape:flatsided="false"
     sodipodi:arg2="1.4959966"
     sodipodi:arg1="1.0471976"
     sodipodi:r2="37.840374"
     sodipodi:r1="75.680748"
     sodipodi:cy="961.65027"
     sodipodi:cx="423.4599"
     sodipodi:sides="7"
     id="path984"
     style="opacity:1;vector-effect:none;fill:#ffd42a;fill-opacity:1;stroke:none;stroke-width:12.30745506;stroke-linecap:round;stroke-linejoin:round;stroke-miterlimit:4;stroke-dasharray:none;stroke-dashoffset:0;stroke-opacity:1;paint-order:markers stroke fill"
     sodipodi:type="star"
     transform="translate(-148.5428,-336.56979)" /><path
     sodipodi:type="star"
     style="opacity:1;vector-effect:none;fill:#ffffff;fill-opacity:1;stroke:none;stroke-width:8;stroke-linecap:round;stroke-linejoin:round;stroke-miterlimit:4;stroke-dasharray:none;stroke-dashoffset:0;stroke-opacity:1;paint-order:markers stroke fill"
     id="path982"
     sodipodi:sides="7"
     sodipodi:cx="275.25424"
     sodipodi:cy="625.08472"
     sodipodi:r1="49.193436"
     sodipodi:r2="24.596718"
     sodipodi:arg1="1.0471976"
     sodipodi:arg2="1.4959966"
     inkscape:flatsided="false"
     inkscape:rounded="0"
     inkscape:randomized="0.1"
     d="m 304.56113,668.20811 -30.92695,-17.63473 -19.68762,17.84145 -0.19056,-24.79235 -21.96414,-2.99491 22.32662,-21.4021 -23.53618,-22.08045 37.02412,11.11385 3.99901,-27.68392 9.01998,21.81915 29.78855,-5.98785 -11.34739,19.75388 26.53038,18.86941 -26.45584,-0.57993 z"
     inkscape:transform-center-x="-2.2092331"
     inkscape:transform-center-y="-0.59770977" /><path
     inkscape:transform-center-y="-3.5375556"
     inkscape:transform-center-x="-1.4881166"
     d="m 589.90493,1298.5902 -53.69691,-38.9816 -36.80486,39.7366 -13.21924,-41.4022 -35.56769,-19.9451 26.09343,-28.1382 -30.7756,-52.9683 56.40709,10.2511 20.86611,-48.0624 37.17605,50.9476 36.16087,-13.983 -18.59726,46.7539 49.57344,30.4755 -53.56565,12.3618 z"
     inkscape:randomized="0.1"
     inkscape:rounded="0"
     inkscape:flatsided="false"
     sodipodi:arg2="1.4919099"
     sodipodi:arg1="1.0471976"
     sodipodi:r2="53.856153"
     sodipodi:r1="95.440811"
     sodipodi:cy="1212.7349"
     sodipodi:cx="534.02429"
     sodipodi:sides="7"
     id="path988"
     style="opacity:1;vector-effect:none;fill:#ff0000;fill-opacity:1;stroke:none;stroke-width:15.52090263;stroke-linecap:round;stroke-linejoin:round;stroke-miterlimit:4;stroke-dasharray:none;stroke-dashoffset:0;stroke-opacity:1;paint-order:markers stroke fill"
     sodipodi:type="star"
     transform="translate(-104.99369,-525.33631)" /><path
     transform="translate(5.8222062,-274.24851)"
     sodipodi:type="star"
     style="opacity:1;vector-effect:none;fill:#ffd42a;fill-opacity:1;stroke:none;stroke-width:12.30745506;stroke-linecap:round;stroke-linejoin:round;stroke-miterlimit:4;stroke-dasharray:none;stroke-dashoffset:0;stroke-opacity:1;paint-order:markers stroke fill"
     id="path990"
     sodipodi:sides="7"
     sodipodi:cx="423.4599"
     sodipodi:cy="961.65027"
     sodipodi:r1="75.680748"
     sodipodi:r2="36.408397"
     sodipodi:arg1="1.0471976"
     sodipodi:arg2="1.5303584"
     inkscape:flatsided="false"
     inkscape:rounded="0"
     inkscape:randomized="0.1"
     d="m 463.26093,1025.0833 -32.03844,-32.15094 -42.18039,39.91414 6.67647,-40.06568 -50.49281,-13.16571 47.54446,-20.86267 -27.98501,-37.50946 48.18628,0.74787 -0.13414,-35.60746 28.06001,40.40634 38.83786,-20.88385 -20.3122,38.89735 36.82571,26.46391 -36.01657,12.31368 z"
     inkscape:transform-center-x="3.6859447"
     inkscape:transform-center-y="-2.0474644" /><path
     inkscape:transform-center-y="-0.59770977"
     inkscape:transform-center-x="-2.2092331"
     d="m 304.56113,668.20811 -23.01488,-16.56114 -27.59969,16.76786 2.50755,-21.06483 -24.66225,-6.72243 14.58333,-17.61345 -15.79289,-25.8691 34.60165,1.99299 6.42148,-18.56306 7.18582,21.36035 31.62271,-5.52905 -12.69517,22.8378 27.87816,15.78549 -27.06692,0.61626 z"
     inkscape:randomized="0.1"
     inkscape:rounded="0"
     inkscape:flatsided="false"
     sodipodi:arg2="1.44475"
     sodipodi:arg1="1.0471976"
     sodipodi:r2="25.407472"
     sodipodi:r1="49.193436"
     sodipodi:cy="625.08472"
     sodipodi:cx="275.25424"
     sodipodi:sides="7"
     id="path992"
     style="opacity:1;vector-effect:none;fill:#ffffff;fill-opacity:1;stroke:none;stroke-width:8;stroke-linecap:round;stroke-linejoin:round;stroke-miterlimit:4;stroke-dasharray:none;stroke-dashoffset:0;stroke-opacity:1;paint-order:markers stroke fill"
     sodipodi:type="star"
     transform="translate(154.36501,62.321276)" /><g
     style="display:inline"
     id="g3030"
     transform="matrix(0.88711934,0,0,0.88711934,58.106185,124.62192)"><path
       style="fill:none;fill-opacity:1;stroke:#000000;stroke-width:6;stroke-linecap:round;stroke-linejoin:round;stroke-miterlimit:4;stroke-dasharray:none;stroke-dashoffset:0;stroke-opacity:1;paint-order:markers fill stroke"
       d="m 371.42132,321.39594 19.18782,99.36548 -76.06599,4.79696 19.18782,76.75127"
       id="path5538"
       sodipodi:nodetypes="cccc"
       inkscape:connector-curvature="0" /><path
       style="fill:none;fill-opacity:1;stroke:#000000;stroke-width:6;stroke-linecap:round;stroke-linejoin:round;stroke-miterlimit:4;stroke-dasharray:none;stroke-dashoffset:0;stroke-opacity:1;paint-order:markers fill stroke"
       d="m 390.60914,420.76142 40.43147,-30.15228 35.63452,89.77157"
       id="path5559"
       inkscape:connector-curvature="0" /><path
       style="fill:none;fill-opacity:1;stroke:#000000;stroke-width:6;stroke-linecap:round;stroke-linejoin:round;stroke-miterlimit:4;stroke-dasharray:none;stroke-dashoffset:0;stroke-opacity:1;paint-order:markers fill stroke"
       d="m 491.34518,257.66498 -54.13706,71.95431 c -2.74111,0 -63.12353,-8.23705 -63.12353,-8.23705 l -49.26225,52.09492 -91.82741,-60.98985"
       id="path5561"
       inkscape:connector-curvature="0" /><circle
       style="fill:#ffffff;fill-opacity:1;stroke:#000000;stroke-width:6;stroke-linecap:round;stroke-linejoin:round;stroke-miterlimit:4;stroke-dasharray:none;stroke-dashoffset:0;stroke-opacity:1;paint-order:markers fill stroke"
       id="circle4637"
       cx="373.35397"
       cy="268.8656"
       r="48.804577" /><path
       style="fill:#000000;stroke:#000000;stroke-width:1px;stroke-linecap:butt;stroke-linejoin:miter;stroke-opacity:1"
       d="m 325.38578,276.20237 90.61376,14.29468 3.14967,-6.05707 1.4537,-4.60337 1.21141,-4.60337 0.72685,-6.29936 -95.7017,-15.99066 -2.66511,12.5987 z"
       id="path5536"
       inkscape:connector-curvature="0" /><circle
       style="display:inline;fill:#ffffff;fill-opacity:1;stroke:#000000;stroke-width:1.63505995;stroke-linecap:round;stroke-linejoin:round;stroke-miterlimit:4;stroke-dasharray:none;stroke-dashoffset:0;stroke-opacity:1;paint-order:markers fill stroke"
       id="circle4649"
       cx="-182.88834"
       cy="400.32629"
       r="12.2805"
       transform="rotate(-77.01314)" /><circle
       style="display:inline;fill:#000000;fill-opacity:1;stroke:none;stroke-width:1;stroke-linecap:round;stroke-linejoin:round;stroke-miterlimit:4;stroke-dasharray:none;stroke-dashoffset:0;stroke-opacity:1;paint-order:markers fill stroke"
       id="circle4651"
       cx="60.698212"
       cy="437.242"
       r="2.1805451"
       transform="rotate(-44.016007)" /><circle
       style="display:inline;fill:#ffffff;fill-opacity:1;stroke:#000000;stroke-width:1.27216995;stroke-linecap:round;stroke-linejoin:round;stroke-miterlimit:4;stroke-dasharray:none;stroke-dashoffset:0;stroke-opacity:1;paint-order:markers fill stroke"
       id="circle4675"
       cx="-179.18764"
       cy="429.30994"
       r="9.5549383"
       transform="rotate(-77.01314)" /><circle
       style="display:inline;fill:#000000;fill-opacity:1;stroke:none;stroke-width:1;stroke-linecap:round;stroke-linejoin:round;stroke-miterlimit:4;stroke-dasharray:none;stroke-dashoffset:0;stroke-opacity:1;paint-order:markers fill stroke"
       id="circle4677"
       cx="79.58638"
       cy="459.53516"
       r="2.1805451"
       transform="rotate(-44.016007)" /><circle
       style="fill:#ff5555;fill-opacity:1;stroke:#000000;stroke-width:2.25395989;stroke-linecap:round;stroke-linejoin:round;stroke-miterlimit:4;stroke-dasharray:none;stroke-dashoffset:0;stroke-opacity:1;paint-order:markers fill stroke"
       id="path4756"
       cx="371.17722"
       cy="306.97226"
       r="13.925422" /></g></svg>