<?xml version="1.0" encoding="UTF-8" standalone="no"?>
<!-- Created with Inkscape (http://www.inkscape.org/) -->

<svg
   xmlns:dc="http://purl.org/dc/elements/1.1/"
   xmlns:cc="http://creativecommons.org/ns#"
   xmlns:rdf="http://www.w3.org/1999/02/22-rdf-syntax-ns#"
   xmlns:svg="http://www.w3.org/2000/svg"
   xmlns="http://www.w3.org/2000/svg"
   xmlns:sodipodi="http://sodipodi.sourceforge.net/DTD/sodipodi-0.dtd"
   xmlns:inkscape="http://www.inkscape.org/namespaces/inkscape"
   width="740"
   height="1280"
   version="1.1"
   viewBox="0 0 740 1280"
   xml:space="preserve"
   id="svg18"
   sodipodi:docname="level20lose.svg"
   inkscape:version="0.92.5 (2060ec1f9f, 2020-04-08)"><defs
     id="defs22" /><sodipodi:namedview
     pagecolor="#ffffff"
     bordercolor="#666666"
     borderopacity="1"
     objecttolerance="10"
     gridtolerance="10"
     guidetolerance="10"
     inkscape:pageopacity="0"
     inkscape:pageshadow="2"
     inkscape:window-width="1920"
     inkscape:window-height="986"
     id="namedview20"
     showgrid="false"
     inkscape:zoom="2.0000001"
     inkscape:cx="303.0781"
     inkscape:cy="595.9123"
     inkscape:window-x="1909"
     inkscape:window-y="49"
     inkscape:window-maximized="1"
     inkscape:current-layer="svg18"
     inkscape:snap-bbox="true"
     inkscape:bbox-paths="true"
     inkscape:snap-bbox-edge-midpoints="true"
     inkscape:bbox-nodes="true"
     inkscape:snap-bbox-midpoints="true"
     inkscape:object-paths="true"
     inkscape:snap-intersection-paths="true"
     inkscape:snap-smooth-nodes="true"
     inkscape:snap-midpoints="true"
     inkscape:snap-object-midpoints="true"
     inkscape:snap-center="true"
     inkscape:snap-text-baseline="true"
     inkscape:snap-page="true"
     inkscape:snap-global="false"
     showguides="false" /><metadata
     id="metadata2"><rdf:RDF><cc:Work
         rdf:about=""><dc:format>image/svg+xml</dc:format><dc:type
           rdf:resource="http://purl.org/dc/dcmitype/StillImage" /><dc:title /></cc:Work></rdf:RDF></metadata><rect
     style="opacity:1;vector-effect:none;fill:#93ac9d;fill-opacity:1;stroke:#000000;stroke-width:0.99999994;stroke-linecap:round;stroke-linejoin:miter;stroke-miterlimit:4;stroke-dasharray:none;stroke-dashoffset:0;stroke-opacity:1;paint-order:normal"
     id="rect821"
     width="739"
     height="739"
     x="0.5"
     y="270.5" /><rect
     y="270.5"
     x="0.5"
     height="159.17244"
     width="739"
     id="rect932"
     style="opacity:1;vector-effect:none;fill:#7d9b89;fill-opacity:1;stroke:#000000;stroke-width:0.99999994;stroke-linecap:round;stroke-linejoin:miter;stroke-miterlimit:4;stroke-dasharray:none;stroke-dashoffset:0;stroke-opacity:1;paint-order:normal" /><rect
     ry="26.870058"
     y="636.53284"
     x="405.17218"
     height="192.33304"
     width="192.33304"
     id="rect846"
     style="opacity:1;vector-effect:none;fill:#786721;fill-opacity:1;stroke:#000000;stroke-width:2;stroke-linecap:round;stroke-linejoin:round;stroke-miterlimit:4;stroke-dasharray:none;stroke-dashoffset:0;stroke-opacity:1;paint-order:fill markers stroke"
     rx="26.870058" /><rect
     style="opacity:1;vector-effect:none;fill:#d3bc5f;fill-opacity:1;stroke:#000000;stroke-width:2;stroke-linecap:round;stroke-linejoin:round;stroke-miterlimit:4;stroke-dasharray:none;stroke-dashoffset:0;stroke-opacity:1;paint-order:fill markers stroke"
     id="rect844"
     width="192.33304"
     height="214.33304"
     x="405.17218"
     y="584.2572"
     ry="26.870056"
     rx="26.870058" /><g
     id="g1078"
     transform="translate(-223.44278,-152.48736)"><path
   d="m -412.75781,589.05078 a 57.909454,18.542391 0 0 0 -57.91016,18.54297 57.909454,18.542391 0 0 0 0.0996,0.89844 90.126152,90.126152 0 0 0 -15.53711,50.21289 90.126152,90.126152 0 0 0 15.27539,49.93164 57.909454,18.542391 0 0 0 -0.37109,2.02539 57.909454,18.542391 0 0 0 57.91015,18.54297 57.909454,18.542391 0 0 0 57.90821,-18.54297 57.909454,18.542391 0 0 0 -0.10157,-0.92383 90.126152,90.126152 0 0 0 16.07227,-51.0332 90.126152,90.126152 0 0 0 -15.55469,-50.36133 57.909454,18.542391 0 0 0 0.11719,-0.75 57.909454,18.542391 0 0 0 -57.9082,-18.54297 z"
   id="path1054"
   style="opacity:1;vector-effect:none;fill:#d45500;fill-opacity:1;stroke:#000000;stroke-width:4;stroke-linecap:round;stroke-linejoin:round;stroke-miterlimit:4;stroke-dasharray:none;stroke-dashoffset:0;stroke-opacity:1;paint-order:markers fill stroke"
   inkscape:original="M -412.75781 589.05078 A 57.909454 18.542391 0 0 0 -470.66797 607.59375 A 57.909454 18.542391 0 0 0 -470.56836 608.49219 A 90.126152 90.126152 0 0 0 -486.10547 658.70508 A 90.126152 90.126152 0 0 0 -470.83008 708.63672 A 57.909454 18.542391 0 0 0 -471.20117 710.66211 A 57.909454 18.542391 0 0 0 -413.29102 729.20508 A 57.909454 18.542391 0 0 0 -355.38281 710.66211 A 57.909454 18.542391 0 0 0 -355.48438 709.73828 A 90.126152 90.126152 0 0 0 -339.41211 658.70508 A 90.126152 90.126152 0 0 0 -354.9668 608.34375 A 57.909454 18.542391 0 0 0 -354.84961 607.59375 A 57.909454 18.542391 0 0 0 -412.75781 589.05078 z "
   inkscape:radius="0"
   sodipodi:type="inkscape:offset"
   transform="translate(810.85694,87.46585)" /><path
   id="path1056"
   d="m 451.91749,690.35452 -108.16797,0.66406 a 90.126152,90.126152 0 0 0 -18.99805,55.15235 90.126152,90.126152 0 0 0 15.27539,49.93164 57.909454,18.542391 0 0 0 -0.37109,2.02539 57.909454,18.542391 0 0 0 57.91015,18.54297 57.909454,18.542391 0 0 0 57.90821,-18.54297 57.909454,18.542391 0 0 0 -0.10157,-0.92383 90.126152,90.126152 0 0 0 16.07227,-51.0332 90.126152,90.126152 0 0 0 -19.52734,-55.81641 z"
   style="opacity:1;vector-effect:none;fill:#784421;fill-opacity:1;stroke:none;stroke-width:2;stroke-linecap:round;stroke-linejoin:round;stroke-miterlimit:4;stroke-dasharray:none;stroke-dashoffset:0;stroke-opacity:1;paint-order:markers fill stroke"
   inkscape:connector-curvature="0" /><ellipse
   ry="18.542391"
   rx="57.909454"
   cy="695.0589"
   cx="398.09814"
   id="ellipse1058"
   style="opacity:1;vector-effect:none;fill:#4d4d4d;fill-opacity:1;stroke:none;stroke-width:1.99999964;stroke-linecap:round;stroke-linejoin:round;stroke-miterlimit:4;stroke-dasharray:none;stroke-dashoffset:0;stroke-opacity:1;paint-order:markers fill stroke" /><ellipse
   style="opacity:1;vector-effect:none;fill:#b3b3b3;fill-opacity:1;stroke:none;stroke-width:1.99999976;stroke-linecap:round;stroke-linejoin:round;stroke-miterlimit:4;stroke-dasharray:none;stroke-dashoffset:0;stroke-opacity:1;paint-order:markers fill stroke"
   id="ellipse1060"
   cx="398.09814"
   cy="695.0589"
   rx="48.926319"
   ry="15.666024" /><path
   sodipodi:type="star"
   style="opacity:1;vector-effect:none;fill:#ffff00;fill-opacity:1;stroke:#000000;stroke-width:2.2074554;stroke-linecap:round;stroke-linejoin:round;stroke-miterlimit:4;stroke-dasharray:none;stroke-dashoffset:0;stroke-opacity:1;paint-order:markers fill stroke"
   id="path1062"
   sodipodi:sides="10"
   sodipodi:cx="285.67407"
   sodipodi:cy="720.06854"
   sodipodi:r1="45.987404"
   sodipodi:r2="33.824558"
   sodipodi:arg1="0.52359878"
   sodipodi:arg2="0.8652625"
   inkscape:flatsided="false"
   inkscape:rounded="0"
   inkscape:randomized="0"
   d="m 325.50033,743.06224 -17.89305,2.75577 -3.22845,16.26212 -16.09558,-8.28781 -12.1705,11.25869 -8.15014,-16.16572 -16.46384,1.95483 2.90837,-17.86888 -14.46855,-8.09571 12.85599,-12.74673 -6.94677,-15.05396 17.89306,-2.75577 3.22844,-16.26211 16.09558,8.28781 12.1705,-11.2587 8.15015,16.16573 16.46383,-1.95484 -2.90836,17.86889 14.46854,8.0957 -12.85598,12.74674 z"
   inkscape:transform-center-x="-2.9349771"
   inkscape:transform-center-y="-1.8473433"
   transform="matrix(0.96304879,0.23525264,-0.28988253,0.78155718,331.71537,129.01095)" /><text
   id="text1066"
   y="772.15906"
   x="370.39218"
   style="font-style:normal;font-variant:normal;font-weight:normal;font-stretch:normal;font-size:35.78207397px;line-height:1.25;font-family:'Another Typewriter';-inkscape-font-specification:'Another Typewriter, Normal';font-variant-ligatures:normal;font-variant-caps:normal;font-variant-numeric:normal;font-feature-settings:normal;text-align:start;letter-spacing:0px;word-spacing:0px;writing-mode:lr-tb;text-anchor:start;fill:#ff0000;fill-opacity:1;stroke:#000000;stroke-width:1;stroke-linecap:round;stroke-linejoin:round;stroke-miterlimit:4;stroke-dasharray:none;paint-order:markers fill stroke"
   xml:space="preserve"><tspan
     style="fill:#ff0000;stroke:#000000;stroke-width:1;stroke-linecap:round;stroke-linejoin:round;stroke-miterlimit:4;stroke-dasharray:none;paint-order:markers fill stroke"
     y="772.15906"
     x="370.39218"
     id="tspan1064"
     sodipodi:role="line">tnt</tspan></text>

<ellipse
   ry="6.6571126"
   rx="20.790726"
   cy="694.38098"
   cx="419.79306"
   id="ellipse1068"
   style="opacity:1;vector-effect:none;fill:#000000;fill-opacity:1;stroke:none;stroke-width:1.99999964;stroke-linecap:round;stroke-linejoin:round;stroke-miterlimit:4;stroke-dasharray:none;stroke-dashoffset:0;stroke-opacity:1;paint-order:markers fill stroke" /></g><g
     transform="translate(-24.038665,-308.75796)"
     id="g886"><path
   transform="translate(810.85694,87.46585)"
   sodipodi:type="inkscape:offset"
   inkscape:radius="0"
   inkscape:original="M -412.75781 589.05078 A 57.909454 18.542391 0 0 0 -470.66797 607.59375 A 57.909454 18.542391 0 0 0 -470.56836 608.49219 A 90.126152 90.126152 0 0 0 -486.10547 658.70508 A 90.126152 90.126152 0 0 0 -470.83008 708.63672 A 57.909454 18.542391 0 0 0 -471.20117 710.66211 A 57.909454 18.542391 0 0 0 -413.29102 729.20508 A 57.909454 18.542391 0 0 0 -355.38281 710.66211 A 57.909454 18.542391 0 0 0 -355.48438 709.73828 A 90.126152 90.126152 0 0 0 -339.41211 658.70508 A 90.126152 90.126152 0 0 0 -354.9668 608.34375 A 57.909454 18.542391 0 0 0 -354.84961 607.59375 A 57.909454 18.542391 0 0 0 -412.75781 589.05078 z "
   style="opacity:1;vector-effect:none;fill:#d45500;fill-opacity:1;stroke:#000000;stroke-width:4;stroke-linecap:round;stroke-linejoin:round;stroke-miterlimit:4;stroke-dasharray:none;stroke-dashoffset:0;stroke-opacity:1;paint-order:markers fill stroke"
   id="path870"
   d="m -412.75781,589.05078 a 57.909454,18.542391 0 0 0 -57.91016,18.54297 57.909454,18.542391 0 0 0 0.0996,0.89844 90.126152,90.126152 0 0 0 -15.53711,50.21289 90.126152,90.126152 0 0 0 15.27539,49.93164 57.909454,18.542391 0 0 0 -0.37109,2.02539 57.909454,18.542391 0 0 0 57.91015,18.54297 57.909454,18.542391 0 0 0 57.90821,-18.54297 57.909454,18.542391 0 0 0 -0.10157,-0.92383 90.126152,90.126152 0 0 0 16.07227,-51.0332 90.126152,90.126152 0 0 0 -15.55469,-50.36133 57.909454,18.542391 0 0 0 0.11719,-0.75 57.909454,18.542391 0 0 0 -57.9082,-18.54297 z" /><path
   inkscape:connector-curvature="0"
   style="opacity:1;vector-effect:none;fill:#784421;fill-opacity:1;stroke:none;stroke-width:2;stroke-linecap:round;stroke-linejoin:round;stroke-miterlimit:4;stroke-dasharray:none;stroke-dashoffset:0;stroke-opacity:1;paint-order:markers fill stroke"
   d="m 451.91749,690.35452 -108.16797,0.66406 a 90.126152,90.126152 0 0 0 -18.99805,55.15235 90.126152,90.126152 0 0 0 15.27539,49.93164 57.909454,18.542391 0 0 0 -0.37109,2.02539 57.909454,18.542391 0 0 0 57.91015,18.54297 57.909454,18.542391 0 0 0 57.90821,-18.54297 57.909454,18.542391 0 0 0 -0.10157,-0.92383 90.126152,90.126152 0 0 0 16.07227,-51.0332 90.126152,90.126152 0 0 0 -19.52734,-55.81641 z"
   id="path872" /><ellipse
   style="opacity:1;vector-effect:none;fill:#4d4d4d;fill-opacity:1;stroke:none;stroke-width:1.99999964;stroke-linecap:round;stroke-linejoin:round;stroke-miterlimit:4;stroke-dasharray:none;stroke-dashoffset:0;stroke-opacity:1;paint-order:markers fill stroke"
   id="ellipse874"
   cx="398.09814"
   cy="695.0589"
   rx="57.909454"
   ry="18.542391" /><ellipse
   ry="15.666024"
   rx="48.926319"
   cy="695.0589"
   cx="398.09814"
   id="ellipse876"
   style="opacity:1;vector-effect:none;fill:#b3b3b3;fill-opacity:1;stroke:none;stroke-width:1.99999976;stroke-linecap:round;stroke-linejoin:round;stroke-miterlimit:4;stroke-dasharray:none;stroke-dashoffset:0;stroke-opacity:1;paint-order:markers fill stroke" /><path
   transform="matrix(0.96304879,0.23525264,-0.28988253,0.78155718,331.71537,129.01095)"
   inkscape:transform-center-y="-1.8473433"
   inkscape:transform-center-x="-2.9349771"
   d="m 325.50033,743.06224 -17.89305,2.75577 -3.22845,16.26212 -16.09558,-8.28781 -12.1705,11.25869 -8.15014,-16.16572 -16.46384,1.95483 2.90837,-17.86888 -14.46855,-8.09571 12.85599,-12.74673 -6.94677,-15.05396 17.89306,-2.75577 3.22844,-16.26211 16.09558,8.28781 12.1705,-11.2587 8.15015,16.16573 16.46383,-1.95484 -2.90836,17.86889 14.46854,8.0957 -12.85598,12.74674 z"
   inkscape:randomized="0"
   inkscape:rounded="0"
   inkscape:flatsided="false"
   sodipodi:arg2="0.8652625"
   sodipodi:arg1="0.52359878"
   sodipodi:r2="33.824558"
   sodipodi:r1="45.987404"
   sodipodi:cy="720.06854"
   sodipodi:cx="285.67407"
   sodipodi:sides="10"
   id="path878"
   style="opacity:1;vector-effect:none;fill:#ffff00;fill-opacity:1;stroke:#000000;stroke-width:2.2074554;stroke-linecap:round;stroke-linejoin:round;stroke-miterlimit:4;stroke-dasharray:none;stroke-dashoffset:0;stroke-opacity:1;paint-order:markers fill stroke"
   sodipodi:type="star" /><text
   xml:space="preserve"
   style="font-style:normal;font-variant:normal;font-weight:normal;font-stretch:normal;font-size:35.78207397px;line-height:1.25;font-family:'Another Typewriter';-inkscape-font-specification:'Another Typewriter, Normal';font-variant-ligatures:normal;font-variant-caps:normal;font-variant-numeric:normal;font-feature-settings:normal;text-align:start;letter-spacing:0px;word-spacing:0px;writing-mode:lr-tb;text-anchor:start;fill:#ff0000;fill-opacity:1;stroke:#000000;stroke-width:1;stroke-linecap:round;stroke-linejoin:round;stroke-miterlimit:4;stroke-dasharray:none;paint-order:markers fill stroke"
   x="370.39218"
   y="772.15906"
   id="text882"><tspan
     sodipodi:role="line"
     id="tspan880"
     x="370.39218"
     y="772.15906"
     style="fill:#ff0000;stroke:#000000;stroke-width:1;stroke-linecap:round;stroke-linejoin:round;stroke-miterlimit:4;stroke-dasharray:none;paint-order:markers fill stroke">tnt</tspan></text>

<ellipse
   style="opacity:1;vector-effect:none;fill:#000000;fill-opacity:1;stroke:none;stroke-width:1.99999964;stroke-linecap:round;stroke-linejoin:round;stroke-miterlimit:4;stroke-dasharray:none;stroke-dashoffset:0;stroke-opacity:1;paint-order:markers fill stroke"
   id="ellipse884"
   cx="419.79306"
   cy="694.38098"
   rx="20.790726"
   ry="6.6571126" /></g><path
     inkscape:connector-curvature="0"
     sodipodi:nodetypes="cccc"
     id="path5538"
     d="m 166.39151,791.62793 -14.19913,73.53118 56.28939,3.54979 -14.19912,56.7965"
     style="fill:none;fill-opacity:1;stroke:#000000;stroke-width:4.44004393;stroke-linecap:round;stroke-linejoin:round;stroke-miterlimit:4;stroke-dasharray:none;stroke-dashoffset:0;stroke-opacity:1;paint-order:markers fill stroke" /><path
     inkscape:connector-curvature="0"
     id="path5559"
     d="M 152.19238,865.15911 122.2728,842.84621 95.902997,909.27782"
     style="fill:none;fill-opacity:1;stroke:#000000;stroke-width:4.44004393;stroke-linecap:round;stroke-linejoin:round;stroke-miterlimit:4;stroke-dasharray:none;stroke-dashoffset:0;stroke-opacity:1;paint-order:markers fill stroke" /><path
     inkscape:connector-curvature="0"
     id="path5561"
     d="m 77.64698,744.46656 40.06182,53.24671 c 2.02844,0 46.71187,-6.09548 46.71187,-6.09548 l 36.45443,38.55062 67.95295,-45.13293"
     style="fill:none;fill-opacity:1;stroke:#000000;stroke-width:4.44004393;stroke-linecap:round;stroke-linejoin:round;stroke-miterlimit:4;stroke-dasharray:none;stroke-dashoffset:0;stroke-opacity:1;paint-order:markers fill stroke" /><circle
     r="36.115742"
     cy="752.75513"
     cx="-164.96133"
     id="circle4637"
     style="fill:#ffffff;fill-opacity:1;stroke:#000000;stroke-width:4.44004393;stroke-linecap:round;stroke-linejoin:round;stroke-miterlimit:4;stroke-dasharray:none;stroke-dashoffset:0;stroke-opacity:1;paint-order:markers fill stroke"
     transform="scale(-1,1)" /><path
     inkscape:connector-curvature="0"
     id="path5536"
     d="m 200.45815,758.18436 -67.05485,10.57817 -2.33078,-4.48228 -1.07574,-3.40653 -0.89646,-3.40652 -0.53787,-4.66158 70.81996,-11.8332 1.9722,9.32313 z"
     style="fill:#000000;stroke:#000000;stroke-width:0.74000728px;stroke-linecap:butt;stroke-linejoin:miter;stroke-opacity:1" /><circle
     transform="matrix(-0.22472759,-0.97442163,-0.97442163,0.22472759,0,0)"
     r="9.0876598"
     cy="-9.2627888"
     cx="-774.12634"
     id="circle4649"
     style="display:inline;fill:#ffffff;fill-opacity:1;stroke:#000000;stroke-width:1.20995629;stroke-linecap:round;stroke-linejoin:round;stroke-miterlimit:4;stroke-dasharray:none;stroke-dashoffset:0;stroke-opacity:1;paint-order:markers fill stroke" /><circle
     transform="matrix(-0.7191457,-0.69485931,-0.69485931,0.7191457,0,0)"
     r="1.6136193"
     cy="410.78079"
     cx="-651.1875"
     id="circle4651"
     style="display:inline;fill:#000000;fill-opacity:1;stroke:none;stroke-width:0.74000728;stroke-linecap:round;stroke-linejoin:round;stroke-miterlimit:4;stroke-dasharray:none;stroke-dashoffset:0;stroke-opacity:1;paint-order:markers fill stroke" /><circle
     transform="matrix(-0.22472759,-0.97442163,-0.97442163,0.22472759,0,0)"
     r="7.070724"
     cy="12.185318"
     cx="-771.38782"
     id="circle4675"
     style="display:inline;fill:#ffffff;fill-opacity:1;stroke:#000000;stroke-width:0.94141507;stroke-linecap:round;stroke-linejoin:round;stroke-miterlimit:4;stroke-dasharray:none;stroke-dashoffset:0;stroke-opacity:1;paint-order:markers fill stroke" /><circle
     transform="matrix(-0.7191457,-0.69485931,-0.69485931,0.7191457,0,0)"
     r="1.6136193"
     cy="428.25458"
     cx="-637.4585"
     id="circle4677"
     style="display:inline;fill:#000000;fill-opacity:1;stroke:none;stroke-width:0.74000728;stroke-linecap:round;stroke-linejoin:round;stroke-miterlimit:4;stroke-dasharray:none;stroke-dashoffset:0;stroke-opacity:1;paint-order:markers fill stroke" /><circle
     r="10.304914"
     cy="780.95428"
     cx="-166.57214"
     id="path4756"
     style="fill:#ff5555;fill-opacity:1;stroke:#000000;stroke-width:1.66794682;stroke-linecap:round;stroke-linejoin:round;stroke-miterlimit:4;stroke-dasharray:none;stroke-dashoffset:0;stroke-opacity:1;paint-order:markers fill stroke"
     transform="scale(-1,1)" /><circle
     transform="scale(-1,1)"
     r="32.642502"
     cy="330.35126"
     cx="-128.24893"
     id="circle1461-2"
     style="fill:#ffffff;fill-opacity:1;stroke:#000000;stroke-width:4.01304626;stroke-linecap:round;stroke-linejoin:round;stroke-miterlimit:4;stroke-dasharray:none;stroke-dashoffset:0;stroke-opacity:1;paint-order:markers fill stroke" /><path
     sodipodi:nodetypes="ccccc"
     inkscape:connector-curvature="0"
     id="path1463-1"
     d="m 95.606425,330.35126 c -2.490744,-9.30682 -1.487824,-11.92468 -11.922954,-13.85473 18.646789,-18.5245 37.422119,-43.20358 52.645109,-43.23953 2.95341,18.77045 8.98493,27.89577 15.73501,34.7695 -13.69055,-2.09272 -33.3932,6.99154 -56.457165,22.32476 z"
     style="fill:#0000ff;stroke:#000000;stroke-width:0.668841px;stroke-linecap:butt;stroke-linejoin:miter;stroke-opacity:1" /><circle
     r="6.5224586"
     transform="matrix(-0.82352811,0.56727546,0.56727546,0.82352811,0,0)"
     cy="360.20062"
     cx="68.344208"
     id="circle1465-4"
     style="fill:#ffffff;fill-opacity:1;stroke:#000000;stroke-width:0.668841;stroke-linecap:round;stroke-linejoin:round;stroke-miterlimit:4;stroke-dasharray:none;stroke-dashoffset:0;stroke-opacity:1;paint-order:markers fill stroke" /><circle
     r="1.458438"
     cy="267.04382"
     cx="257.44913"
     id="circle1468-5"
     style="fill:#000000;fill-opacity:1;stroke:none;stroke-width:0.668841;stroke-linecap:round;stroke-linejoin:round;stroke-miterlimit:4;stroke-dasharray:none;stroke-dashoffset:0;stroke-opacity:1;paint-order:markers fill stroke"
     transform="matrix(-0.38175467,0.92426369,0.92426369,0.38175467,0,0)" /><circle
     style="fill:#ffffff;fill-opacity:1;stroke:#000000;stroke-width:0.668841;stroke-linecap:round;stroke-linejoin:round;stroke-miterlimit:4;stroke-dasharray:none;stroke-dashoffset:0;stroke-opacity:1;paint-order:markers fill stroke"
     id="circle1472-4"
     cx="84.626549"
     cy="352.57404"
     transform="matrix(-0.82352811,0.56727546,0.56727546,0.82352811,0,0)"
     r="6.5224586" /><circle
     style="fill:#000000;fill-opacity:1;stroke:none;stroke-width:0.668841;stroke-linecap:round;stroke-linejoin:round;stroke-miterlimit:4;stroke-dasharray:none;stroke-dashoffset:0;stroke-opacity:1;paint-order:markers fill stroke"
     id="circle1474-2"
     cx="266.95166"
     cy="251.78015"
     r="1.458438"
     transform="matrix(-0.38175467,0.92426369,0.92426369,0.38175467,0,0)" /><path
     sodipodi:nodetypes="cccc"
     inkscape:connector-curvature="0"
     id="path1478-1"
     d="m 125.59373,365.61454 -19.3183,62.84602 41.78718,37.24644 32.51531,55.10857"
     style="opacity:1;vector-effect:none;fill:none;fill-opacity:1;stroke:#000000;stroke-width:4.01304626;stroke-linecap:round;stroke-linejoin:round;stroke-miterlimit:4;stroke-dasharray:none;stroke-dashoffset:0;stroke-opacity:1;paint-order:markers fill stroke" /><path
     sodipodi:nodetypes="ccc"
     inkscape:connector-curvature="0"
     id="path1480-3"
     d="M 106.27543,428.46056 70.546691,476.86267 22.430234,502.53915"
     style="opacity:1;vector-effect:none;fill:none;fill-opacity:1;stroke:#000000;stroke-width:4.01304626;stroke-linecap:round;stroke-linejoin:round;stroke-miterlimit:4;stroke-dasharray:none;stroke-dashoffset:0;stroke-opacity:1;paint-order:markers fill stroke" /><path
     sodipodi:nodetypes="ccccc"
     inkscape:connector-curvature="0"
     id="path1482-8"
     d="m 57.266953,432.58193 22.142898,-37.63769 46.183879,-29.3297 33.93382,47.02789 57.04114,-6.02956"
     style="opacity:1;vector-effect:none;fill:none;fill-opacity:1;stroke:#000000;stroke-width:4.01304626;stroke-linecap:round;stroke-linejoin:round;stroke-miterlimit:4;stroke-dasharray:none;stroke-dashoffset:0;stroke-opacity:1;paint-order:markers fill stroke" /><path
     sodipodi:nodetypes="ccc"
     inkscape:connector-curvature="0"
     id="path1484-8"
     d="M 95.606425,330.35126 C 108.19071,308.13399 188.69849,264.61635 152.06512,308.02814 135.29379,306.86659 114.56104,322.343 95.606425,330.35126 Z"
     style="fill:#000080;stroke:#000000;stroke-width:0.668841px;stroke-linecap:butt;stroke-linejoin:miter;stroke-opacity:1" /><circle
     r="5.7478523"
     cy="293.11322"
     cx="130.45009"
     id="circle1487-9"
     style="opacity:1;vector-effect:none;fill:#ffff00;fill-opacity:1;stroke:none;stroke-width:4.01304626;stroke-linecap:round;stroke-linejoin:round;stroke-miterlimit:4;stroke-dasharray:none;stroke-dashoffset:0;stroke-opacity:1;paint-order:markers fill stroke" /><path
     style="fill:none;stroke:#000000;stroke-width:0.668841px;stroke-linecap:butt;stroke-linejoin:miter;stroke-opacity:1"
     d="m 126.07874,324.79272 9.42189,4.80332"
     id="path1495-5"
     inkscape:connector-curvature="0"
     sodipodi:nodetypes="cc" /><path
     style="fill:none;stroke:#000000;stroke-width:0.668841px;stroke-linecap:butt;stroke-linejoin:miter;stroke-opacity:1"
     d="m 141.18148,328.48758 7.80539,-7.1588"
     id="path1497-7"
     inkscape:connector-curvature="0"
     sodipodi:nodetypes="cc" /><path
     style="fill:none;stroke:#000000;stroke-width:0.668841px;stroke-linecap:butt;stroke-linejoin:miter;stroke-opacity:1"
     d="m 127.27965,354.70817 c 3.59632,-2.67907 6.41989,-7.29004 13.32457,-1.69823"
     id="path1499-9"
     inkscape:connector-curvature="0"
     sodipodi:nodetypes="cc" /><path
     inkscape:connector-curvature="0"
     id="path941"
     d="m 48.183218,449.68607 c 8.065746,-3.87882 11.499825,-13.67554 7.621004,-21.7413 -3.28703,-6.83518 -10.823872,-10.34122 -17.95566,-8.89184 l -6.591913,-13.70746 c 1.763223,-0.83008 3.856987,-1.85044 5.99568,-2.91429 4.766841,-2.37062 9.486756,-4.79745 9.486756,-4.79745 a 3.9627413,3.9627413 0 1 0 -3.621492,-7.04846 c 0,0 -2.660509,1.35681 -5.779935,2.93075 l -1.442826,-3.00043 c 3.2155,-1.62202 5.966176,-3.02544 5.966176,-3.02544 a 3.9627413,3.9627413 0 1 0 -3.621383,-7.04843 c 0,0 -2.660588,1.35685 -5.779971,2.93068 l -1.442887,-3.0004 c 3.215758,-1.62161 5.966936,-3.02404 5.966936,-3.02404 a 3.9629579,3.9629579 0 1 0 -3.622157,-7.04982 c 0,0 -4.690337,2.41027 -9.394564,4.74974 -2.137509,1.06298 -4.225279,2.08082 -5.900835,2.8686 l -2.028468,-4.21811 a 3.9627413,3.9627413 0 1 0 -7.1418363,3.43454 l 3.6042303,7.49466 a 3.9627413,3.9627413 0 0 0 0.04153,0.078 l 4.839774,10.06411 a 3.9627413,3.9627413 0 0 0 0.03433,0.0812 l 4.839741,10.06404 a 3.9627413,3.9627413 0 0 0 0.04162,0.0781 l 8.412451,17.49324 c -5.584913,4.66606 -7.551786,12.74232 -4.26473,19.57757 3.878756,8.06579 13.675476,11.49987 21.741222,7.62104 z m -3.434421,-7.14179 c -4.20609,2.02269 -9.142351,0.29235 -11.165036,-3.91373 -1.953558,-4.0623 -0.398635,-8.79642 3.498994,-10.93807 a 3.9627413,3.9627413 0 0 0 0.492822,-0.20006 3.9627413,3.9627413 0 0 0 0.370044,-0.21264 c 4.103539,-1.69965 8.765222,0.0414 10.717025,4.09992 2.022692,4.20609 0.292357,9.14235 -3.913659,11.16502 z"
     style="color:#000000;font-style:normal;font-variant:normal;font-weight:normal;font-stretch:normal;font-size:medium;line-height:normal;font-family:sans-serif;font-variant-ligatures:normal;font-variant-position:normal;font-variant-caps:normal;font-variant-numeric:normal;font-variant-alternates:normal;font-feature-settings:normal;text-indent:0;text-align:start;text-decoration:none;text-decoration-line:none;text-decoration-style:solid;text-decoration-color:#000000;letter-spacing:normal;word-spacing:normal;text-transform:none;writing-mode:lr-tb;direction:ltr;text-orientation:mixed;dominant-baseline:auto;baseline-shift:baseline;text-anchor:start;white-space:normal;shape-padding:0;clip-rule:nonzero;display:inline;overflow:visible;visibility:visible;opacity:1;isolation:auto;mix-blend-mode:normal;color-interpolation:sRGB;color-interpolation-filters:linearRGB;solid-color:#000000;solid-opacity:1;vector-effect:none;fill:#cece00;fill-opacity:1;fill-rule:nonzero;stroke:#000000;stroke-width:6.3397522;stroke-linecap:butt;stroke-linejoin:round;stroke-miterlimit:4;stroke-dasharray:none;stroke-dashoffset:0;stroke-opacity:1;paint-order:markers stroke fill;color-rendering:auto;image-rendering:auto;shape-rendering:auto;text-rendering:auto;enable-background:accumulate"
     inkscape:export-xdpi="96"
     inkscape:export-ydpi="96" /></svg>