<?xml version="1.0" encoding="UTF-8" standalone="no"?>
<!-- Created with Inkscape (http://www.inkscape.org/) -->

<svg
   xmlns:dc="http://purl.org/dc/elements/1.1/"
   xmlns:cc="http://creativecommons.org/ns#"
   xmlns:rdf="http://www.w3.org/1999/02/22-rdf-syntax-ns#"
   xmlns:svg="http://www.w3.org/2000/svg"
   xmlns="http://www.w3.org/2000/svg"
   xmlns:sodipodi="http://sodipodi.sourceforge.net/DTD/sodipodi-0.dtd"
   xmlns:inkscape="http://www.inkscape.org/namespaces/inkscape"
   width="740"
   height="1280"
   version="1.1"
   viewBox="0 0 740 1280"
   xml:space="preserve"
   id="svg18"
   sodipodi:docname="level18lose.svg"
   inkscape:version="0.92.5 (2060ec1f9f, 2020-04-08)"><defs
     id="defs22" /><sodipodi:namedview
     pagecolor="#ffffff"
     bordercolor="#666666"
     borderopacity="1"
     objecttolerance="10"
     gridtolerance="10"
     guidetolerance="10"
     inkscape:pageopacity="0"
     inkscape:pageshadow="2"
     inkscape:window-width="1920"
     inkscape:window-height="986"
     id="namedview20"
     showgrid="false"
     inkscape:zoom="0.70710678"
     inkscape:cx="123.43789"
     inkscape:cy="1060.0462"
     inkscape:window-x="1909"
     inkscape:window-y="49"
     inkscape:window-maximized="1"
     inkscape:current-layer="svg18"
     inkscape:snap-bbox="true"
     inkscape:bbox-paths="true"
     inkscape:snap-bbox-edge-midpoints="true"
     inkscape:bbox-nodes="true"
     inkscape:snap-bbox-midpoints="true"
     inkscape:object-paths="true"
     inkscape:snap-intersection-paths="true"
     inkscape:snap-smooth-nodes="true"
     inkscape:snap-midpoints="true"
     inkscape:snap-object-midpoints="true"
     inkscape:snap-center="true"
     inkscape:snap-text-baseline="true"
     inkscape:snap-page="true"
     inkscape:snap-global="true" /><metadata
     id="metadata2"><rdf:RDF><cc:Work
         rdf:about=""><dc:format>image/svg+xml</dc:format><dc:type
           rdf:resource="http://purl.org/dc/dcmitype/StillImage" /><dc:title></dc:title></cc:Work></rdf:RDF></metadata><rect
     style="opacity:1;vector-effect:none;fill:#d4ff2a;fill-opacity:1;stroke:#000000;stroke-width:0.99999994;stroke-linecap:round;stroke-linejoin:miter;stroke-miterlimit:4;stroke-dasharray:none;stroke-dashoffset:0;stroke-opacity:1;paint-order:normal"
     id="rect821"
     width="739"
     height="739"
     x="0.49998033"
     y="270.49994" /><rect
     y="270.49994"
     x="0.49998033"
     height="185.49883"
     width="739.49884"
     id="rect870"
     style="opacity:1;vector-effect:none;fill:#00ffff;fill-opacity:1;stroke:#000000;stroke-width:0.5011813;stroke-linecap:round;stroke-linejoin:miter;stroke-miterlimit:4;stroke-dasharray:none;stroke-dashoffset:0;stroke-opacity:1;paint-order:normal" /><path
     inkscape:connector-curvature="0"
     style="opacity:1;vector-effect:none;fill:#00ff72;fill-opacity:1;stroke:#000000;stroke-width:2.06025434;stroke-linecap:butt;stroke-linejoin:miter;stroke-miterlimit:4;stroke-dasharray:none;stroke-dashoffset:0;stroke-opacity:1;paint-order:markers stroke fill"
     d="m 392.65174,344.72014 a 54,54 0 0 0 -42.875,19.19727 54,54 0 0 0 -10.39648,19.43555 54,54 0 0 0 -41.13086,-19.10352 54,54 0 0 0 -54,54 54,54 0 0 0 0.23633,4.6582 33,33 0 0 0 -1.94922,1.55469 54,54 0 0 0 -44.28711,-23.21289 54,54 0 0 0 -10.86328,1.16406 33,33 0 0 0 -17.03516,-22.34765 33,33 0 0 0 -32.67773,1.34375 A 54,54 0 0 0 98.2494,364.24944 54,54 0 0 0 49.72401,394.71233 33,33 0 0 0 20.11268,405.91546 54,54 0 0 0 0.4994005,401.351 v 54.64844 H 739.9994 v -31.4082 a 54,54 0 0 0 -17.97656,-15.16407 54,54 0 0 0 -44.75391,-2.24023 33,33 0 0 0 -1.91797,-1.12109 33,33 0 0 0 -39.70703,7.2539 54,54 0 0 0 -19.42383,-17.10937 54,54 0 0 0 -40.68164,-3.68946 33,33 0 0 0 -15.1875,-16.45507 33,33 0 0 0 -42.95312,11.45898 54,54 0 0 0 -67.29297,12.49609 54,54 0 0 0 -6.08203,9.01172 54,54 0 0 0 -18.15821,-51.64258 54,54 0 0 0 -33.21289,-12.66992 z"
     id="path872" /><g
     id="g1402"
     transform="matrix(0.8382949,0,0,0.8382949,-54.286228,-131.72522)"><path
       inkscape:connector-curvature="0"
       style="fill:none;stroke:#000000;stroke-width:7.75994253px;stroke-linecap:round;stroke-linejoin:round;stroke-miterlimit:4;stroke-dasharray:none;stroke-opacity:1"
       d="M 428.63616,766.51727 456.39595,646.75816 447.83602,749.5574"
       id="path1279" /><path
       inkscape:connector-curvature="0"
       style="fill:none;stroke:#000000;stroke-width:7.75994253px;stroke-linecap:round;stroke-linejoin:round;stroke-miterlimit:4;stroke-dasharray:none;stroke-opacity:1"
       d="m 456.39595,646.75816 27.7598,119.75911"
       id="path1281" /><path
       inkscape:connector-curvature="0"
       style="fill:#000000;fill-opacity:1;fill-rule:nonzero;stroke:#000000;stroke-width:3.99997044px;stroke-linecap:round;stroke-linejoin:round;stroke-miterlimit:4;stroke-dasharray:none;stroke-opacity:1"
       d="m 456.39595,588.1986 c -1.19999,0 -2.31998,0 -3.51997,0.08 v 0 c -30.87977,0.88 -55.03959,13.6799 -55.03959,29.19979 0,12.7199 16.47987,23.99982 40.6397,27.83979 -0.08,0.48 -0.24,0.95999 -0.24,1.43999 0,5.03996 8.15994,9.03993 18.15986,9.03993 9.99993,0 18.15987,-3.99997 18.15987,-9.03993 0,-0.48 -0.08,-0.95999 -0.24,-1.43999 24.15982,-3.83997 40.6397,-15.11989 40.6397,-27.83979 0,-15.19989 -23.27983,-27.8398 -53.5996,-29.11979 v 0 c -1.67999,-0.08 -3.27998,-0.15999 -4.95997,-0.15999 z"
       id="path1283" /><path
       inkscape:connector-curvature="0"
       style="fill:#a05a2c;fill-opacity:1;fill-rule:nonzero;stroke:none"
       d="m 474.55582,646.75816 c 0,5.03996 -8.15994,9.03993 -18.15987,9.03993 -9.99992,0 -18.15986,-3.99997 -18.15986,-9.03993 0,-5.03996 8.15994,-9.03993 18.15986,-9.03993 9.99993,0 18.15987,3.99997 18.15987,9.03993 z"
       id="path1285" /><path
       inkscape:connector-curvature="0"
       style="fill:#916f6f;fill-opacity:1;fill-rule:nonzero;stroke:none"
       d="m 514.95552,617.47838 c 0,16.15988 -26.23981,29.27978 -58.55957,29.27978 -32.31976,0 -58.55956,-13.1199 -58.55956,-29.27978 0,-16.15988 26.2398,-29.27978 58.55956,-29.27978 32.31976,0 58.55957,13.1199 58.55957,29.27978 z"
       id="path1287" /><path
       inkscape:connector-curvature="0"
       style="fill:#ff0000;fill-opacity:1;fill-rule:nonzero;stroke:none"
       d="m 505.91558,609.95843 c 0,10.87992 -22.15983,19.75986 -49.51963,19.75986 -27.35979,0 -49.51963,-8.87994 -49.51963,-19.75986 0,-10.95992 22.15984,-19.83985 49.51963,-19.83985 27.3598,0 49.51963,8.87993 49.51963,19.83985 z"
       id="path1289" /><path
       inkscape:connector-curvature="0"
       style="fill:none;stroke:#000000;stroke-width:0.8799935px;stroke-linecap:butt;stroke-linejoin:miter;stroke-miterlimit:4;stroke-dasharray:none;stroke-opacity:1"
       d="m 447.99602,596.99853 h 16.79987"
       id="path1291" /><path
       inkscape:connector-curvature="0"
       style="fill:#d40000;fill-opacity:1;fill-rule:nonzero;stroke:none"
       d="m 456.39595,597.39853 c -23.83982,0 -44.23967,6.79995 -48.63964,16.15988 4.39997,9.35993 24.79982,16.15988 48.63964,16.15988 23.83983,0 44.23967,-6.79995 48.63964,-16.15988 -4.39997,-9.35993 -24.79981,-16.15988 -48.63964,-16.15988 z"
       id="path1293" /><path
       inkscape:connector-curvature="0"
       style="fill:none;stroke:#000000;stroke-width:0.8799935px;stroke-linecap:butt;stroke-linejoin:miter;stroke-miterlimit:4;stroke-dasharray:none;stroke-opacity:1"
       d="m 421.43621,609.07844 h 69.91948"
       id="path1295" /><path
       inkscape:connector-curvature="0"
       style="fill:none;stroke:#000000;stroke-width:1.03999233px;stroke-linecap:butt;stroke-linejoin:miter;stroke-miterlimit:4;stroke-dasharray:none;stroke-opacity:1"
       d="m 430.39615,603.07848 h 52.07961"
       id="path1297" /><path
       inkscape:connector-curvature="0"
       style="fill:none;stroke:#000000;stroke-width:0.8799935px;stroke-linecap:butt;stroke-linejoin:miter;stroke-miterlimit:4;stroke-dasharray:none;stroke-opacity:1"
       d="m 447.99602,621.15835 h 16.79987"
       id="path1299" /><path
       inkscape:connector-curvature="0"
       style="fill:none;stroke:#000000;stroke-width:1.03999233px;stroke-linecap:butt;stroke-linejoin:miter;stroke-miterlimit:4;stroke-dasharray:none;stroke-opacity:1"
       d="m 430.39615,615.15839 h 52.07961"
       id="path1301" /></g><g
     id="g1009"
     transform="matrix(0,-0.88372672,0.88372672,0,-219.37588,1140.1086)"><g
       inkscape:export-ydpi="96"
       inkscape:export-xdpi="96"
       id="g1523"
       style="display:inline"
       transform="translate(742.63166,191.23025)"><rect
         style="opacity:1;vector-effect:none;fill:#999999;fill-opacity:1;stroke:#000000;stroke-width:1;stroke-linecap:round;stroke-linejoin:round;stroke-miterlimit:4;stroke-dasharray:none;stroke-dashoffset:0;stroke-opacity:1;paint-order:markers fill stroke"
         id="rect1440"
         width="109.51182"
         height="32.950459"
         x="-270.38757"
         y="597.73169"
         ry="16.475229"
         rx="16.475229" /><path
         sodipodi:type="inkscape:offset"
         inkscape:radius="-0.60570508"
         inkscape:original="M -253.91211 597.73242 C -262.22211 597.73242 -269.03789 603.82935 -270.19531 611.80859 C -269.03789 619.78783 -262.22211 625.88477 -253.91211 625.88477 L -177.35156 625.88477 C -169.04156 625.88477 -162.22578 619.78783 -161.06836 611.80859 C -162.22578 603.82935 -169.04156 597.73242 -177.35156 597.73242 L -253.91211 597.73242 z "
         style="opacity:1;vector-effect:none;fill:#b3b3b3;fill-opacity:1;stroke:none;stroke-width:1;stroke-linecap:round;stroke-linejoin:round;stroke-miterlimit:4;stroke-dasharray:none;stroke-dashoffset:0;stroke-opacity:1;paint-order:markers fill stroke"
         id="rect1442"
         d="m -253.91211,598.33789 c -7.98215,0 -14.50864,5.82705 -15.66211,13.4707 1.15347,7.64366 7.67996,13.47071 15.66211,13.47071 h 76.56055 c 7.98215,0 14.50863,-5.82705 15.66211,-13.47071 -1.15348,-7.64365 -7.67996,-13.4707 -15.66211,-13.4707 z" /></g><g
       inkscape:export-ydpi="96"
       inkscape:export-xdpi="96"
       id="g1519"
       style="display:inline"
       transform="translate(746.62203,228.31784)"><path
         style="fill:#ff0000;stroke:#000000;stroke-width:1px;stroke-linecap:butt;stroke-linejoin:miter;stroke-opacity:1"
         d="m -239.66066,544.09735 43.7783,-0.60571 c 0,0 14.72108,-33.79102 11.64975,-58.89539 -3.77017,-30.81651 -55.27699,-34.64101 -62.37763,-13.7442 -4.00389,11.78323 2.65346,19.14704 7.39258,34.92846 l -5.89184,-15.96823 c 0,0 -18.4819,-1.87121 -12.47381,21.26044 3.77194,14.5223 17.92265,33.02463 17.92265,33.02463 z"
         id="path1451"
         inkscape:connector-curvature="0"
         sodipodi:nodetypes="ccssccsc" /><rect
         style="opacity:1;vector-effect:none;fill:#800000;fill-opacity:1;stroke:#000000;stroke-width:1;stroke-linecap:round;stroke-linejoin:round;stroke-miterlimit:4;stroke-dasharray:none;stroke-dashoffset:0;stroke-opacity:1;paint-order:markers fill stroke"
         id="rect1455"
         width="54.513626"
         height="34.888721"
         x="-245.50847"
         y="538.69659"
         ry="9.2512703"
         rx="9.2512703" /><rect
         ry="7.0231214"
         y="542.89807"
         x="-211.26089"
         height="26.485844"
         width="17.541325"
         id="rect1457"
         style="opacity:1;vector-effect:none;fill:#ffffff;fill-opacity:1;stroke:#000000;stroke-width:0.49424589;stroke-linecap:round;stroke-linejoin:round;stroke-miterlimit:4;stroke-dasharray:none;stroke-dashoffset:0;stroke-opacity:1;paint-order:markers fill stroke"
         rx="7.0231214" /></g></g><g
     transform="matrix(0,-0.88372672,-0.88372672,0,970.37491,992.3404)"
     id="g1025"><g
       transform="translate(742.63166,191.23025)"
       style="display:inline"
       id="g1015"
       inkscape:export-xdpi="96"
       inkscape:export-ydpi="96"><rect
         rx="16.475229"
         ry="16.475229"
         y="597.73169"
         x="-270.38757"
         height="32.950459"
         width="109.51182"
         id="rect1011"
         style="opacity:1;vector-effect:none;fill:#999999;fill-opacity:1;stroke:#000000;stroke-width:1;stroke-linecap:round;stroke-linejoin:round;stroke-miterlimit:4;stroke-dasharray:none;stroke-dashoffset:0;stroke-opacity:1;paint-order:markers fill stroke" /><path
         d="m -253.91211,598.33789 c -7.98215,0 -14.50864,5.82705 -15.66211,13.4707 1.15347,7.64366 7.67996,13.47071 15.66211,13.47071 h 76.56055 c 7.98215,0 14.50863,-5.82705 15.66211,-13.47071 -1.15348,-7.64365 -7.67996,-13.4707 -15.66211,-13.4707 z"
         id="path1013"
         style="opacity:1;vector-effect:none;fill:#b3b3b3;fill-opacity:1;stroke:none;stroke-width:1;stroke-linecap:round;stroke-linejoin:round;stroke-miterlimit:4;stroke-dasharray:none;stroke-dashoffset:0;stroke-opacity:1;paint-order:markers fill stroke"
         inkscape:original="M -253.91211 597.73242 C -262.22211 597.73242 -269.03789 603.82935 -270.19531 611.80859 C -269.03789 619.78783 -262.22211 625.88477 -253.91211 625.88477 L -177.35156 625.88477 C -169.04156 625.88477 -162.22578 619.78783 -161.06836 611.80859 C -162.22578 603.82935 -169.04156 597.73242 -177.35156 597.73242 L -253.91211 597.73242 z "
         inkscape:radius="-0.60570508"
         sodipodi:type="inkscape:offset" /></g><g
       transform="translate(746.62203,228.31784)"
       style="display:inline"
       id="g1023"
       inkscape:export-xdpi="96"
       inkscape:export-ydpi="96"><path
         sodipodi:nodetypes="ccssccsc"
         inkscape:connector-curvature="0"
         id="path1017"
         d="m -239.66066,544.09735 43.7783,-0.60571 c 0,0 14.72108,-33.79102 11.64975,-58.89539 -3.77017,-30.81651 -55.27699,-34.64101 -62.37763,-13.7442 -4.00389,11.78323 2.65346,19.14704 7.39258,34.92846 l -5.89184,-15.96823 c 0,0 -18.4819,-1.87121 -12.47381,21.26044 3.77194,14.5223 17.92265,33.02463 17.92265,33.02463 z"
         style="fill:#ff0000;stroke:#000000;stroke-width:1px;stroke-linecap:butt;stroke-linejoin:miter;stroke-opacity:1" /><rect
         rx="9.2512703"
         ry="9.2512703"
         y="538.69659"
         x="-245.50847"
         height="34.888721"
         width="54.513626"
         id="rect1019"
         style="opacity:1;vector-effect:none;fill:#800000;fill-opacity:1;stroke:#000000;stroke-width:1;stroke-linecap:round;stroke-linejoin:round;stroke-miterlimit:4;stroke-dasharray:none;stroke-dashoffset:0;stroke-opacity:1;paint-order:markers fill stroke" /><rect
         rx="7.0231214"
         style="opacity:1;vector-effect:none;fill:#ffffff;fill-opacity:1;stroke:#000000;stroke-width:0.49424589;stroke-linecap:round;stroke-linejoin:round;stroke-miterlimit:4;stroke-dasharray:none;stroke-dashoffset:0;stroke-opacity:1;paint-order:markers fill stroke"
         id="rect1021"
         width="17.541325"
         height="26.485844"
         x="-211.26089"
         y="542.89807"
         ry="7.0231214" /></g></g><g
     id="g912"
     transform="translate(-264.26245,-7.0362683)"><path
       style="fill:none;fill-opacity:1;stroke:#000000;stroke-width:4.93856907;stroke-linecap:round;stroke-linejoin:round;stroke-miterlimit:4;stroke-dasharray:none;stroke-dashoffset:0;stroke-opacity:1;paint-order:markers fill stroke"
       d="m 641.29129,831.23248 15.7934,81.78722 -62.60953,3.94835 15.7934,63.17358"
       id="path5538-0"
       sodipodi:nodetypes="cccc"
       inkscape:connector-curvature="0" /><path
       style="fill:none;fill-opacity:1;stroke:#000000;stroke-width:4.93856907;stroke-linecap:round;stroke-linejoin:round;stroke-miterlimit:4;stroke-dasharray:none;stroke-dashoffset:0;stroke-opacity:1;paint-order:markers fill stroke"
       d="m 657.08469,913.0197 33.27893,-24.81819 29.33059,73.89052"
       id="path5559-3"
       inkscape:connector-curvature="0" /><path
       style="fill:none;fill-opacity:1;stroke:#000000;stroke-width:4.93856907;stroke-linecap:round;stroke-linejoin:round;stroke-miterlimit:4;stroke-dasharray:none;stroke-dashoffset:0;stroke-opacity:1;paint-order:markers fill stroke"
       d="m 740,778.77586 -44.55993,59.22522 c -2.25619,0 -51.95665,-6.77987 -51.95665,-6.77987 l -40.54751,42.87906 -75.58267,-50.20043"
       id="path5561-0"
       inkscape:connector-curvature="0" /><circle
       style="fill:#ffffff;fill-opacity:1;stroke:#000000;stroke-width:4.93856907;stroke-linecap:round;stroke-linejoin:round;stroke-miterlimit:4;stroke-dasharray:none;stroke-dashoffset:0;stroke-opacity:1;paint-order:markers fill stroke"
       id="circle4637-2"
       cx="642.88208"
       cy="787.99506"
       r="40.170795" /><path
       style="fill:#000000;stroke:#000000;stroke-width:0.82309484px;stroke-linecap:butt;stroke-linejoin:miter;stroke-opacity:1"
       d="m 603.39968,794.03389 74.58372,11.76588 2.59247,-4.98555 1.19654,-3.78901 0.9971,-3.78901 0.59827,-5.18497 -78.77158,-13.16183 -2.19364,10.36993 z"
       id="path5536-7"
       inkscape:connector-curvature="0" /><circle
       style="display:inline;fill:#ffffff;fill-opacity:1;stroke:#000000;stroke-width:1.34580946;stroke-linecap:round;stroke-linejoin:round;stroke-miterlimit:4;stroke-dasharray:none;stroke-dashoffset:0;stroke-opacity:1;paint-order:markers fill stroke"
       id="circle4649-3"
       cx="-627.31921"
       cy="783.85095"
       r="10.108017"
       transform="rotate(-77.01314)" /><circle
       style="display:inline;fill:#000000;fill-opacity:1;stroke:none;stroke-width:0.82309484;stroke-linecap:round;stroke-linejoin:round;stroke-miterlimit:4;stroke-dasharray:none;stroke-dashoffset:0;stroke-opacity:1;paint-order:markers fill stroke"
       id="circle4651-1"
       cx="-97.086052"
       cy="995.73853"
       r="1.7947954"
       transform="rotate(-44.016007)" /><circle
       style="display:inline;fill:#ffffff;fill-opacity:1;stroke:#000000;stroke-width:1.04711652;stroke-linecap:round;stroke-linejoin:round;stroke-miterlimit:4;stroke-dasharray:none;stroke-dashoffset:0;stroke-opacity:1;paint-order:markers fill stroke"
       id="circle4675-5"
       cx="-624.27319"
       cy="807.70721"
       r="7.8646207"
       transform="rotate(-77.01314)" /><circle
       style="display:inline;fill:#000000;fill-opacity:1;stroke:none;stroke-width:0.82309484;stroke-linecap:round;stroke-linejoin:round;stroke-miterlimit:4;stroke-dasharray:none;stroke-dashoffset:0;stroke-opacity:1;paint-order:markers fill stroke"
       id="circle4677-9"
       cx="-81.539299"
       cy="1014.0879"
       r="1.7947954"
       transform="rotate(-44.016007)" /><circle
       style="fill:#ff5555;fill-opacity:1;stroke:#000000;stroke-width:1.85522282;stroke-linecap:round;stroke-linejoin:round;stroke-miterlimit:4;stroke-dasharray:none;stroke-dashoffset:0;stroke-opacity:1;paint-order:markers fill stroke"
       id="path4756-2"
       cx="641.09033"
       cy="819.36047"
       r="11.461943" /></g><g
     id="g1053"><circle
       r="35.023838"
       cy="318.26654"
       cx="488.25137"
       id="circle5587"
       style="fill:#ffffff;fill-opacity:1;stroke:#000000;stroke-width:4.30580568;stroke-linecap:round;stroke-linejoin:round;stroke-miterlimit:4;stroke-dasharray:none;stroke-dashoffset:0;stroke-opacity:1;paint-order:markers fill stroke" /><circle
       style="fill:#ffffff;fill-opacity:1;stroke:#000000;stroke-width:0.71763432;stroke-linecap:round;stroke-linejoin:round;stroke-miterlimit:4;stroke-dasharray:none;stroke-dashoffset:0;stroke-opacity:1;paint-order:markers fill stroke"
       id="circle5589"
       cx="560.56183"
       cy="-114.62903"
       r="5.3899832"
       transform="rotate(45.834143)" /><circle
       transform="rotate(78.831276)"
       style="fill:#000000;fill-opacity:1;stroke:none;stroke-width:0.71763432;stroke-linecap:round;stroke-linejoin:round;stroke-miterlimit:4;stroke-dasharray:none;stroke-dashoffset:0;stroke-opacity:1;paint-order:markers fill stroke"
       id="circle5591"
       cx="404.89484"
       cy="-400.0639"
       r="1.564834" /><circle
       transform="rotate(78.831276)"
       style="fill:#000000;fill-opacity:1;stroke:none;stroke-width:0.71763432;stroke-linecap:round;stroke-linejoin:round;stroke-miterlimit:4;stroke-dasharray:none;stroke-dashoffset:0;stroke-opacity:1;paint-order:markers fill stroke"
       id="circle5593"
       cx="404.89484"
       cy="-400.0639"
       r="1.564834" /><circle
       transform="rotate(78.831276)"
       style="fill:#000000;fill-opacity:1;stroke:none;stroke-width:0.71763432;stroke-linecap:round;stroke-linejoin:round;stroke-miterlimit:4;stroke-dasharray:none;stroke-dashoffset:0;stroke-opacity:1;paint-order:markers fill stroke"
       id="circle5595"
       cx="404.89484"
       cy="-400.0639"
       r="1.564834" /><circle
       style="fill:#ffffff;fill-opacity:1;stroke:#000000;stroke-width:0.71763432;stroke-linecap:round;stroke-linejoin:round;stroke-miterlimit:4;stroke-dasharray:none;stroke-dashoffset:0;stroke-opacity:1;paint-order:markers fill stroke"
       id="circle5605"
       cx="574.85663"
       cy="-129.34622"
       r="5.3899832"
       transform="rotate(45.834143)" /><circle
       transform="rotate(78.831276)"
       style="fill:#000000;fill-opacity:1;stroke:none;stroke-width:0.71763432;stroke-linecap:round;stroke-linejoin:round;stroke-miterlimit:4;stroke-dasharray:none;stroke-dashoffset:0;stroke-opacity:1;paint-order:markers fill stroke"
       id="circle5607"
       cx="408.86893"
       cy="-420.19208"
       r="1.564834" /><circle
       transform="rotate(78.831276)"
       style="fill:#000000;fill-opacity:1;stroke:none;stroke-width:0.71763432;stroke-linecap:round;stroke-linejoin:round;stroke-miterlimit:4;stroke-dasharray:none;stroke-dashoffset:0;stroke-opacity:1;paint-order:markers fill stroke"
       id="circle5609"
       cx="408.86893"
       cy="-420.19208"
       r="1.564834" /><circle
       transform="rotate(78.831276)"
       style="fill:#000000;fill-opacity:1;stroke:none;stroke-width:0.71763432;stroke-linecap:round;stroke-linejoin:round;stroke-miterlimit:4;stroke-dasharray:none;stroke-dashoffset:0;stroke-opacity:1;paint-order:markers fill stroke"
       id="circle5611"
       cx="408.86893"
       cy="-420.19208"
       r="1.564834" /><path
       id="path5615"
       d="m 473.77335,309.99533 5.73771,5.9116"
       style="fill:none;stroke:#000000;stroke-width:0.71763432px;stroke-linecap:butt;stroke-linejoin:miter;stroke-opacity:1"
       inkscape:connector-curvature="0" /><path
       id="path5617"
       d="m 484.37942,315.90693 6.781,-5.56386"
       style="fill:none;stroke:#000000;stroke-width:0.71763432px;stroke-linecap:butt;stroke-linejoin:miter;stroke-opacity:1"
       inkscape:connector-curvature="0" /><path
       sodipodi:nodetypes="ccc"
       id="path5619"
       d="m 472.38236,339.20557 c -6.44284,-9.5792 10.86046,-4.38296 24.34188,-1.56484 z"
       style="fill:none;stroke:#000000;stroke-width:0.71763432px;stroke-linecap:butt;stroke-linejoin:miter;stroke-opacity:1"
       inkscape:connector-curvature="0" /><path
       id="path5621"
       d="m 488.20649,355.56983 10.81912,62.94782 19.67127,53.60405 51.14506,38.35877"
       style="fill:none;fill-opacity:1;stroke:#000000;stroke-width:4.30580568;stroke-linecap:round;stroke-linejoin:round;stroke-miterlimit:4;stroke-dasharray:none;stroke-dashoffset:0;stroke-opacity:1;paint-order:markers fill stroke"
       inkscape:connector-curvature="0" /><path
       id="path5633"
       d="m 499.02561,418.51765 -58.02998,39.83418 32.94924,46.22732"
       style="fill:none;fill-opacity:1;stroke:#000000;stroke-width:4.30580568;stroke-linecap:round;stroke-linejoin:round;stroke-miterlimit:4;stroke-dasharray:none;stroke-dashoffset:0;stroke-opacity:1;paint-order:markers fill stroke"
       inkscape:connector-curvature="0" /><path
       id="path5635"
       d="m 392.80116,348.19313 50.65337,48.68621 44.75196,-41.30951 53.11214,22.62188 11.80273,52.62044"
       style="fill:none;fill-opacity:1;stroke:#000000;stroke-width:4.30580568;stroke-linecap:round;stroke-linejoin:round;stroke-miterlimit:4;stroke-dasharray:none;stroke-dashoffset:0;stroke-opacity:1;paint-order:markers fill stroke"
       inkscape:connector-curvature="0" /><circle
       style="fill:#ffffff;fill-opacity:1;stroke:#000000;stroke-width:0.71763426;stroke-linecap:round;stroke-linejoin:round;stroke-miterlimit:4;stroke-dasharray:none;stroke-dashoffset:0;stroke-opacity:1;paint-order:markers fill stroke"
       id="circle1043-5-6"
       cx="194.77411"
       cy="-555.22241"
       transform="rotate(103.88883)"
       r="6.9982848" /><circle
       transform="rotate(136.88596)"
       style="fill:#000000;fill-opacity:1;stroke:none;stroke-width:0.71763432;stroke-linecap:round;stroke-linejoin:round;stroke-miterlimit:4;stroke-dasharray:none;stroke-dashoffset:0;stroke-opacity:1;paint-order:markers fill stroke"
       id="circle1045-9-2"
       cx="-135.87654"
       cy="-574.36853"
       r="1.564834" /><circle
       r="6.9982848"
       transform="rotate(103.88883)"
       cy="-536.31836"
       cx="199.44858"
       id="circle4841"
       style="fill:#ffffff;fill-opacity:1;stroke:#000000;stroke-width:0.71763426;stroke-linecap:round;stroke-linejoin:round;stroke-miterlimit:4;stroke-dasharray:none;stroke-dashoffset:0;stroke-opacity:1;paint-order:markers fill stroke" /><circle
       transform="rotate(136.88596)"
       r="1.564834"
       cy="-561.05939"
       cx="-121.66092"
       id="circle4843"
       style="fill:#000000;fill-opacity:1;stroke:none;stroke-width:0.71763432;stroke-linecap:round;stroke-linejoin:round;stroke-miterlimit:4;stroke-dasharray:none;stroke-dashoffset:0;stroke-opacity:1;paint-order:markers fill stroke" /><path
       inkscape:connector-curvature="0"
       id="path1006-1"
       d="M 397.30696,403.58744 409.05097,429.803"
       style="display:inline;fill:none;stroke:#666666;stroke-width:3.50287104;stroke-linecap:butt;stroke-linejoin:miter;stroke-miterlimit:4;stroke-dasharray:none;stroke-opacity:1" /><path
       sodipodi:nodetypes="cc"
       inkscape:connector-curvature="0"
       id="path1008-8"
       d="m 402.35388,432.56184 c -0.89908,-11.97897 1.99007,-17.52976 14.34161,-7.02404"
       style="display:inline;opacity:1;vector-effect:none;fill:none;fill-opacity:1;stroke:#666666;stroke-width:3.50287104;stroke-linecap:butt;stroke-linejoin:miter;stroke-miterlimit:4;stroke-dasharray:none;stroke-dashoffset:0;stroke-opacity:1" /></g></svg>