<?xml version="1.0" encoding="UTF-8" standalone="no"?>
<!-- Created with Inkscape (http://www.inkscape.org/) -->

<svg
   xmlns:dc="http://purl.org/dc/elements/1.1/"
   xmlns:cc="http://creativecommons.org/ns#"
   xmlns:rdf="http://www.w3.org/1999/02/22-rdf-syntax-ns#"
   xmlns:svg="http://www.w3.org/2000/svg"
   xmlns="http://www.w3.org/2000/svg"
   xmlns:sodipodi="http://sodipodi.sourceforge.net/DTD/sodipodi-0.dtd"
   xmlns:inkscape="http://www.inkscape.org/namespaces/inkscape"
   width="740"
   height="1280"
   version="1.1"
   viewBox="0 0 740 1280"
   xml:space="preserve"
   id="svg18"
   sodipodi:docname="level19lose2.svg"
   inkscape:version="0.92.5 (2060ec1f9f, 2020-04-08)"><defs
     id="defs22" /><sodipodi:namedview
     pagecolor="#ffffff"
     bordercolor="#666666"
     borderopacity="1"
     objecttolerance="10"
     gridtolerance="10"
     guidetolerance="10"
     inkscape:pageopacity="0"
     inkscape:pageshadow="2"
     inkscape:window-width="1920"
     inkscape:window-height="986"
     id="namedview20"
     showgrid="false"
     inkscape:zoom="1.4142136"
     inkscape:cx="319.94"
     inkscape:cy="567.37178"
     inkscape:window-x="1909"
     inkscape:window-y="49"
     inkscape:window-maximized="1"
     inkscape:current-layer="svg18"
     inkscape:snap-bbox="true"
     inkscape:bbox-paths="true"
     inkscape:snap-bbox-edge-midpoints="true"
     inkscape:bbox-nodes="true"
     inkscape:snap-bbox-midpoints="true"
     inkscape:object-paths="true"
     inkscape:snap-intersection-paths="true"
     inkscape:snap-smooth-nodes="true"
     inkscape:snap-midpoints="true"
     inkscape:snap-object-midpoints="true"
     inkscape:snap-center="true"
     inkscape:snap-text-baseline="true"
     inkscape:snap-page="true"
     inkscape:snap-global="false"
     showguides="false" /><metadata
     id="metadata2"><rdf:RDF><cc:Work
         rdf:about=""><dc:format>image/svg+xml</dc:format><dc:type
           rdf:resource="http://purl.org/dc/dcmitype/StillImage" /><dc:title></dc:title></cc:Work></rdf:RDF></metadata><rect
     style="opacity:1;vector-effect:none;fill:#7c6f91;fill-opacity:1;stroke:#000000;stroke-width:0.99999994;stroke-linecap:round;stroke-linejoin:miter;stroke-miterlimit:4;stroke-dasharray:none;stroke-dashoffset:0;stroke-opacity:1;paint-order:normal"
     id="rect821"
     width="739"
     height="739"
     x="0.49998033"
     y="270.49994" /><g
     id="g851"
     transform="translate(0,-39.287791)"><g
       transform="translate(-21.000042,41.534882)"
       id="g904"><rect
         ry="19.670185"
         rx="19.670185"
         y="944.76166"
         x="53.544659"
         height="101.92661"
         width="632.91077"
         id="rect822"
         style="opacity:1;vector-effect:none;fill:#6c6753;fill-opacity:1;stroke:#000000;stroke-width:0.70497978;stroke-linecap:round;stroke-linejoin:round;stroke-miterlimit:4;stroke-dasharray:none;stroke-dashoffset:0;stroke-opacity:1;paint-order:normal" /><rect
         style="opacity:1;vector-effect:none;fill:#aca793;fill-opacity:1;stroke:#000000;stroke-width:0.72885859;stroke-linecap:round;stroke-linejoin:round;stroke-miterlimit:4;stroke-dasharray:none;stroke-dashoffset:0;stroke-opacity:1;paint-order:normal"
         id="rect820"
         width="632.88684"
         height="127.79012"
         x="53.556599"
         y="896.51343"
         rx="19.669443"
         ry="19.669443" /></g><g
       transform="translate(-16.938202,60.517933)"
       id="g898"><rect
         style="opacity:1;vector-effect:none;fill:#aca793;fill-opacity:1;stroke:#000000;stroke-width:0.72885859;stroke-linecap:round;stroke-linejoin:round;stroke-miterlimit:4;stroke-dasharray:none;stroke-dashoffset:0;stroke-opacity:1;paint-order:normal"
         id="rect872"
         width="73.58873"
         height="390.06223"
         x="524.73108"
         y="209.84644"
         rx="19.670185"
         ry="19.670185" /><rect
         style="opacity:1;vector-effect:none;fill:#6c6753;fill-opacity:1;stroke:#000000;stroke-width:0.70497978;stroke-linecap:round;stroke-linejoin:round;stroke-miterlimit:4;stroke-dasharray:none;stroke-dashoffset:0;stroke-opacity:1;paint-order:normal"
         id="rect864"
         width="464.09723"
         height="101.92664"
         x="134.22263"
         y="597.64301"
         rx="19.670185"
         ry="19.670185" /><rect
         ry="19.669443"
         rx="19.669443"
         y="549.39478"
         x="133.55659"
         height="127.79012"
         width="464.75125"
         id="rect866"
         style="opacity:1;vector-effect:none;fill:#aca793;fill-opacity:1;stroke:#000000;stroke-width:0.72885859;stroke-linecap:round;stroke-linejoin:round;stroke-miterlimit:4;stroke-dasharray:none;stroke-dashoffset:0;stroke-opacity:1;paint-order:normal" /><path
         style="opacity:1;vector-effect:none;fill:#6c6753;fill-opacity:1;stroke:#000000;stroke-width:0.70497978;stroke-linecap:round;stroke-linejoin:round;stroke-miterlimit:4;stroke-dasharray:none;stroke-dashoffset:0;stroke-opacity:1;paint-order:normal"
         d="m 544.40152,309.50781 c -10.89728,0 -19.66992,8.77264 -19.66992,19.66992 V 677.18555 H 153.90453 c -10.89687,0 -19.66992,-8.77304 -19.66992,-19.66993 v -40.67187 c -0.004,0.15657 -0.0117,0.31128 -0.0117,0.46875 v 62.58789 c 0,10.89728 8.77264,19.66992 19.66992,19.66992 h 390.50871 34.24805 c 1.36216,0 2.69182,-0.13727 3.97461,-0.39843 1.28278,-0.26117 2.51788,-0.64623 3.69531,-1.14258 1.17661,-0.49602 2.2963,-1.10364 3.3418,-1.8086 7.5e-4,-5.1e-4 0.001,-10e-4 0.002,-0.002 1.04565,-0.70548 2.01974,-1.50984 2.9082,-2.39844 2.66611,-2.66611 4.56587,-6.0977 5.34961,-9.94531 1.3e-4,-6.3e-4 -1.3e-4,-10e-4 0,-0.002 0.13046,-0.64077 0.22996,-1.29289 0.29688,-1.95508 6e-5,-6.4e-4 -7e-5,-10e-4 0,-0.002 0.0334,-0.33079 0.0592,-0.66448 0.0762,-1 3e-5,-6.5e-4 -3e-5,-0.001 0,-0.002 0.0169,-0.33619 0.0254,-0.67313 0.0254,-1.01367 V 617.3125 329.17773 c 0,-10.89728 -8.77264,-19.66992 -19.66992,-19.66992 z"
         id="rect868"
         inkscape:connector-curvature="0"
         sodipodi:nodetypes="sscsscssscscccccccccccscsss" /></g></g><g
     transform="translate(-55.368509,-39.555043)"
     id="g867"><path
       inkscape:transform-center-y="-3.5375556"
       inkscape:transform-center-x="-1.4881166"
       d="m 589.90493,1298.5902 -51.00353,-45.7195 -39.49824,46.4745 5.17817,-56.1404 -53.9651,-5.2069 43.0722,-36.4787 -47.75437,-44.6278 54.72863,13.1926 22.54457,-51.0039 34.87779,41.0813 38.45913,-4.1167 -9.94966,43.4273 40.92584,33.8021 -60.18814,13.6074 z"
       inkscape:randomized="0.1"
       inkscape:rounded="0"
       inkscape:flatsided="false"
       sodipodi:arg2="1.4959966"
       sodipodi:arg1="1.0471976"
       sodipodi:r2="47.720406"
       sodipodi:r1="95.440811"
       sodipodi:cy="1212.7349"
       sodipodi:cx="534.02429"
       sodipodi:sides="7"
       id="path986"
       style="opacity:1;vector-effect:none;fill:#ff0000;fill-opacity:1;stroke:none;stroke-width:15.52090263;stroke-linecap:round;stroke-linejoin:round;stroke-miterlimit:4;stroke-dasharray:none;stroke-dashoffset:0;stroke-opacity:1;paint-order:markers stroke fill"
       sodipodi:type="star"
       transform="translate(-259.3587,-587.65759)" /><path
       transform="translate(-148.5428,-336.56979)"
       sodipodi:type="star"
       style="opacity:1;vector-effect:none;fill:#ffd42a;fill-opacity:1;stroke:none;stroke-width:12.30745506;stroke-linecap:round;stroke-linejoin:round;stroke-miterlimit:4;stroke-dasharray:none;stroke-dashoffset:0;stroke-opacity:1;paint-order:markers stroke fill"
       id="path984"
       sodipodi:sides="7"
       sodipodi:cx="423.4599"
       sodipodi:cy="961.65027"
       sodipodi:r1="75.680748"
       sodipodi:r2="37.840374"
       sodipodi:arg1="1.0471976"
       sodipodi:arg2="1.4959966"
       inkscape:flatsided="false"
       inkscape:rounded="0"
       inkscape:randomized="0.1"
       d="m 463.26093,1025.0833 -36.53994,-23.923 -37.67889,31.6862 3.30059,-39.21332 -47.11693,-14.01807 38.37678,-16.12224 -18.81733,-42.24989 44.15965,14.58907 3.89249,-49.44866 18.75347,32.61083 48.1444,-13.08834 -25.63957,49.80957 42.15308,15.55169 -45.50179,11.62543 z"
       inkscape:transform-center-x="3.6859447"
       inkscape:transform-center-y="-2.0474644" /><path
       inkscape:transform-center-y="-0.59770977"
       inkscape:transform-center-x="-2.2092331"
       d="m 304.56113,668.20811 -30.92695,-17.63473 -19.68762,17.84145 -0.19056,-24.79235 -21.96414,-2.99491 22.32662,-21.4021 -23.53618,-22.08045 37.02412,11.11385 3.99901,-27.68392 9.01998,21.81915 29.78855,-5.98785 -11.34739,19.75388 26.53038,18.86941 -26.45584,-0.57993 z"
       inkscape:randomized="0.1"
       inkscape:rounded="0"
       inkscape:flatsided="false"
       sodipodi:arg2="1.4959966"
       sodipodi:arg1="1.0471976"
       sodipodi:r2="24.596718"
       sodipodi:r1="49.193436"
       sodipodi:cy="625.08472"
       sodipodi:cx="275.25424"
       sodipodi:sides="7"
       id="path982"
       style="opacity:1;vector-effect:none;fill:#ffffff;fill-opacity:1;stroke:none;stroke-width:8;stroke-linecap:round;stroke-linejoin:round;stroke-miterlimit:4;stroke-dasharray:none;stroke-dashoffset:0;stroke-opacity:1;paint-order:markers stroke fill"
       sodipodi:type="star" /></g><path
     inkscape:connector-curvature="0"
     sodipodi:nodetypes="cccc"
     id="path5538"
     d="m 337.93979,799.35158 16.45897,85.23393 -65.24804,4.11475 16.45897,65.83587"
     style="fill:none;fill-opacity:1;stroke:#000000;stroke-width:5.14669275;stroke-linecap:round;stroke-linejoin:round;stroke-miterlimit:4;stroke-dasharray:none;stroke-dashoffset:0;stroke-opacity:1;paint-order:markers fill stroke" /><path
     inkscape:connector-curvature="0"
     id="path5559"
     d="m 354.39876,884.58551 34.6814,-25.86409 30.56665,77.00445"
     style="fill:none;fill-opacity:1;stroke:#000000;stroke-width:5.14669275;stroke-linecap:round;stroke-linejoin:round;stroke-miterlimit:4;stroke-dasharray:none;stroke-dashoffset:0;stroke-opacity:1;paint-order:markers fill stroke" /><path
     inkscape:connector-curvature="0"
     id="path5561"
     d="m 440.80834,744.6843 -46.4378,61.72112 c -2.35128,0 -54.14624,-7.06559 -54.14624,-7.06559 l -42.25628,44.68609 -78.76791,-52.31601"
     style="fill:none;fill-opacity:1;stroke:#000000;stroke-width:5.14669275;stroke-linecap:round;stroke-linejoin:round;stroke-miterlimit:4;stroke-dasharray:none;stroke-dashoffset:0;stroke-opacity:1;paint-order:markers fill stroke" /><circle
     r="41.863693"
     cy="754.29199"
     cx="339.5976"
     id="circle4637"
     style="fill:#ffffff;fill-opacity:1;stroke:#000000;stroke-width:5.14669275;stroke-linecap:round;stroke-linejoin:round;stroke-miterlimit:4;stroke-dasharray:none;stroke-dashoffset:0;stroke-opacity:1;paint-order:markers fill stroke" /><path
     inkscape:connector-curvature="0"
     id="path5536"
     d="m 298.45133,760.58534 77.72687,12.26172 2.70173,-5.19565 1.24695,-3.94868 1.03913,-3.94869 0.62348,-5.40348 -82.09121,-13.7165 -2.28608,10.80694 z"
     style="fill:#000000;stroke:#000000;stroke-width:0.85778213px;stroke-linecap:butt;stroke-linejoin:miter;stroke-opacity:1" /><circle
     transform="rotate(-77.01314)"
     r="10.533994"
     cy="479.92096"
     cx="-662.80127"
     id="circle4649"
     style="display:inline;fill:#ffffff;fill-opacity:1;stroke:#000000;stroke-width:1.40252519;stroke-linecap:round;stroke-linejoin:round;stroke-miterlimit:4;stroke-dasharray:none;stroke-dashoffset:0;stroke-opacity:1;paint-order:markers fill stroke" /><circle
     transform="rotate(-44.016007)"
     r="1.8704326"
     cy="761.77454"
     cx="-294.2041"
     id="circle4651"
     style="display:inline;fill:#000000;fill-opacity:1;stroke:none;stroke-width:0.85778213;stroke-linecap:round;stroke-linejoin:round;stroke-miterlimit:4;stroke-dasharray:none;stroke-dashoffset:0;stroke-opacity:1;paint-order:markers fill stroke" /><circle
     transform="rotate(-77.01314)"
     r="8.1960554"
     cy="504.78262"
     cx="-659.62683"
     id="circle4675"
     style="display:inline;fill:#ffffff;fill-opacity:1;stroke:#000000;stroke-width:1.0912447;stroke-linecap:round;stroke-linejoin:round;stroke-miterlimit:4;stroke-dasharray:none;stroke-dashoffset:0;stroke-opacity:1;paint-order:markers fill stroke" /><circle
     transform="rotate(-44.016007)"
     r="1.8704326"
     cy="780.89722"
     cx="-278.00217"
     id="circle4677"
     style="display:inline;fill:#000000;fill-opacity:1;stroke:none;stroke-width:0.85778213;stroke-linecap:round;stroke-linejoin:round;stroke-miterlimit:4;stroke-dasharray:none;stroke-dashoffset:0;stroke-opacity:1;paint-order:markers fill stroke" /><circle
     r="11.944978"
     cy="786.97919"
     cx="337.73041"
     id="path4756"
     style="fill:#ff5555;fill-opacity:1;stroke:#000000;stroke-width:1.93340659;stroke-linecap:round;stroke-linejoin:round;stroke-miterlimit:4;stroke-dasharray:none;stroke-dashoffset:0;stroke-opacity:1;paint-order:markers fill stroke" /></svg>