<?xml version="1.0" encoding="UTF-8" standalone="no"?>
<!-- Created with Inkscape (http://www.inkscape.org/) -->

<svg
   xmlns:dc="http://purl.org/dc/elements/1.1/"
   xmlns:cc="http://creativecommons.org/ns#"
   xmlns:rdf="http://www.w3.org/1999/02/22-rdf-syntax-ns#"
   xmlns:svg="http://www.w3.org/2000/svg"
   xmlns="http://www.w3.org/2000/svg"
   xmlns:sodipodi="http://sodipodi.sourceforge.net/DTD/sodipodi-0.dtd"
   xmlns:inkscape="http://www.inkscape.org/namespaces/inkscape"
   width="740"
   height="1280"
   version="1.1"
   viewBox="0 0 740 1280"
   xml:space="preserve"
   id="svg18"
   sodipodi:docname="level16win.svg"
   inkscape:version="0.92.5 (2060ec1f9f, 2020-04-08)"><defs
     id="defs22" /><sodipodi:namedview
     pagecolor="#ffffff"
     bordercolor="#666666"
     borderopacity="1"
     objecttolerance="10"
     gridtolerance="10"
     guidetolerance="10"
     inkscape:pageopacity="0"
     inkscape:pageshadow="2"
     inkscape:window-width="1920"
     inkscape:window-height="986"
     id="namedview20"
     showgrid="false"
     inkscape:zoom="1"
     inkscape:cx="440.30519"
     inkscape:cy="754.57586"
     inkscape:window-x="1909"
     inkscape:window-y="49"
     inkscape:window-maximized="1"
     inkscape:current-layer="svg18"
     inkscape:snap-bbox="true"
     inkscape:bbox-paths="true"
     inkscape:snap-bbox-edge-midpoints="true"
     inkscape:bbox-nodes="true"
     inkscape:snap-bbox-midpoints="true"
     inkscape:object-paths="true"
     inkscape:snap-intersection-paths="true"
     inkscape:snap-smooth-nodes="true"
     inkscape:snap-midpoints="true"
     inkscape:snap-object-midpoints="true"
     inkscape:snap-center="true"
     inkscape:snap-text-baseline="true"
     inkscape:snap-page="true"
     inkscape:snap-global="false" /><metadata
     id="metadata2"><rdf:RDF><cc:Work
         rdf:about=""><dc:format>image/svg+xml</dc:format><dc:type
           rdf:resource="http://purl.org/dc/dcmitype/StillImage" /><dc:title /></cc:Work></rdf:RDF></metadata><rect
     style="opacity:1;vector-effect:none;fill:#aad400;fill-opacity:1;stroke:#000000;stroke-width:1;stroke-linecap:round;stroke-linejoin:miter;stroke-miterlimit:4;stroke-dasharray:none;stroke-dashoffset:0;stroke-opacity:1;paint-order:normal"
     id="rect821"
     width="739"
     height="739"
     x="0.49998033"
     y="270.49994" /><circle
     style="display:inline;fill:#ffffff;fill-opacity:1;stroke:#000000;stroke-width:5.68840599;stroke-linecap:round;stroke-linejoin:round;stroke-miterlimit:4;stroke-dasharray:none;stroke-dashoffset:0;stroke-opacity:1;paint-order:markers fill stroke"
     id="circle844"
     cx="238.54276"
     cy="647.1142"
     r="46.270042" /><path
     style="fill:none;stroke:#000000;stroke-width:5.68840599;stroke-linecap:round;stroke-linejoin:round;stroke-dasharray:none;stroke-opacity:1;paint-order:markers fill stroke"
     d="m 236.36718,695.85752 -22.90072,86.92099 75.50754,-21.23739 46.559,40.0889"
     id="path848"
     inkscape:connector-curvature="0"
     sodipodi:nodetypes="cccc" /><path
     style="fill:none;stroke:#000000;stroke-width:5.68840599;stroke-linecap:round;stroke-linejoin:round;stroke-dasharray:none;stroke-opacity:1;paint-order:markers fill stroke"
     d="m 213.46646,782.77851 86.06182,-42.20965 47.54864,23.52849"
     id="path850"
     inkscape:connector-curvature="0"
     sodipodi:nodetypes="ccc" /><path
     style="opacity:1;fill:none;fill-opacity:1;stroke:#000000;stroke-width:5.68840599;stroke-linecap:round;stroke-linejoin:round;stroke-miterlimit:4;stroke-dasharray:none;stroke-dashoffset:0;stroke-opacity:1;paint-order:markers fill stroke"
     d="m 159.42761,632.04609 20.92949,66.50075 56.01008,-2.68932 56.82303,31.64665 34.55874,-48.71954"
     id="path852"
     inkscape:connector-curvature="0"
     sodipodi:nodetypes="ccccc" /><circle
     style="fill:#ffffff;fill-opacity:1;stroke:#000000;stroke-width:0.94806767;stroke-linecap:round;stroke-linejoin:round;stroke-miterlimit:4;stroke-dasharray:none;stroke-dashoffset:0;stroke-opacity:1;paint-order:markers fill stroke"
     id="circle854"
     cx="-676.10583"
     cy="-175.94498"
     transform="rotate(-125.01532)"
     r="9.2454433" /><circle
     style="fill:#000000;fill-opacity:1;stroke:none;stroke-width:0.94806767;stroke-linecap:round;stroke-linejoin:round;stroke-miterlimit:4;stroke-dasharray:none;stroke-dashoffset:0;stroke-opacity:1;paint-order:markers fill stroke"
     id="circle856"
     cx="-665.69061"
     cy="216.58406"
     r="2.0673044"
     transform="rotate(-92.018184)" /><circle
     r="12.780977"
     transform="rotate(-125.01532)"
     cy="-196.53813"
     cx="-663.83331"
     id="circle862"
     style="fill:#ffffff;fill-opacity:1;stroke:#000000;stroke-width:0.94806767;stroke-linecap:round;stroke-linejoin:round;stroke-miterlimit:4;stroke-dasharray:none;stroke-dashoffset:0;stroke-opacity:1;paint-order:markers fill stroke" /><circle
     r="2.0673044"
     cy="190.37601"
     cx="-666.65833"
     id="circle864"
     style="fill:#000000;fill-opacity:1;stroke:none;stroke-width:0.94806767;stroke-linecap:round;stroke-linejoin:round;stroke-miterlimit:4;stroke-dasharray:none;stroke-dashoffset:0;stroke-opacity:1;paint-order:markers fill stroke"
     transform="rotate(-92.018184)" /><rect
     y="881.39856"
     x="0.49998033"
     height="128.10136"
     width="739"
     id="rect885"
     style="opacity:1;vector-effect:none;fill:#00ffff;fill-opacity:1;stroke:#000000;stroke-width:1;stroke-linecap:round;stroke-linejoin:miter;stroke-miterlimit:4;stroke-dasharray:none;stroke-dashoffset:0;stroke-opacity:1;paint-order:normal" /><path
     style="fill:#c87137;stroke:#000000;stroke-width:1px;stroke-linecap:butt;stroke-linejoin:miter;stroke-opacity:1"
     d="m 344.24188,679.33178 c -7.29544,-1.62435 -9.2464,13.12539 -1.03292,12.63163 46.19496,0.4779 111.95428,27.51702 176.12204,91.0448 C 482.88234,733.93862 410.00287,692.72743 344.24188,679.33178 Z"
     id="path887"
     inkscape:connector-curvature="0"
     sodipodi:nodetypes="cccc" /><rect
     style="opacity:1;vector-effect:none;fill:#85a600;fill-opacity:1;stroke:#000000;stroke-width:1;stroke-linecap:round;stroke-linejoin:miter;stroke-miterlimit:4;stroke-dasharray:none;stroke-dashoffset:0;stroke-opacity:1;paint-order:normal;font-variant-east_asian:normal"
     id="rect891"
     width="739"
     height="20.101364"
     x="0.49998033"
     y="864.39856" /><path
     style="fill:none;stroke:#000000;stroke-width:2;stroke-linecap:round;stroke-linejoin:miter;stroke-miterlimit:4;stroke-dasharray:none;stroke-opacity:1"
     d="m 519.331,783.00821 69.08235,141.37595"
     id="path889"
     inkscape:connector-curvature="0"
     sodipodi:nodetypes="cc" /><g
     style="display:inline"
     id="g1283"
     transform="matrix(0.09308768,0,0,0.09308768,135.26318,563.92851)"
     inkscape:export-xdpi="96"
     inkscape:export-ydpi="96"><g
       id="g1269"><circle
         style="opacity:1;vector-effect:none;fill:#ffffff;fill-opacity:1;stroke:#000000;stroke-width:50;stroke-linecap:butt;stroke-linejoin:miter;stroke-miterlimit:4;stroke-dasharray:none;stroke-dashoffset:0;stroke-opacity:1;paint-order:markers stroke fill"
         id="path451"
         cx="370"
         cy="-1271.0009"
         r="448.39206" /><g
         id="g449"
         transform="translate(-624.67086)"><path
           id="path296"
           d="m 982.46851,-822.31129 c -1.925,-0.7551 -9.125,-4.1921 -16,-7.6377 -68.7289,-34.4454 -135.4516,-91.1453 -194.17577,-165.0075 -39.6713,-49.89791 -72.7148,-106.21821 -83.1773,-141.76991 l -1.5509,-5.2698 3.202,-3.6527 c 10.2246,-11.6637 38.4251,-34.4209 56.8316,-45.8619 10.9182,-6.7864 38.9449,-21.4457 41.0015,-21.4457 0.80297,0 3.90527,5.0544 7.21187,11.75 46.2924,93.7367 123.6921,188.0933 204.157,248.88421 53.58689,40.4847 109.12279,67.7089 167.89199,82.3022 17.8092,4.4224 18.9893,5.5688 9.9278,9.6451 -41.8799,18.8394 -90.9959,31.9846 -137.9203,36.9123 -21.5428,2.2623 -52.96069,2.8925 -57.39949,1.1514 z"
           style="opacity:1;vector-effect:none;fill:#3771c8;fill-opacity:1;stroke-width:1;stroke-linecap:butt;stroke-linejoin:miter;stroke-miterlimit:4;stroke-dasharray:none;stroke-dashoffset:0;stroke-opacity:1"
           inkscape:connector-curvature="0" /><path
           id="path294"
           d="m 873.08321,-837.97089 c -100.48847,-29.5825 -184.48637,-87.9938 -242.74467,-168.80211 l -8.1585,-11.3164 1.2716,-5.6819 c 1.7818,-7.9623 9.3354,-29.7098 14.6522,-42.1852 7.6058,-17.8465 22.2374,-43.5577 24.3681,-42.8204 0.5093,0.1762 6.6795,11.8001 13.7114,25.8308 21.6861,43.2703 48.2384,82.9054 84.6695,126.38771 33.41987,39.8884 78.28377,82.3297 117.91937,111.552 13.7698,10.1521 12.0639,12.2617 -5.689,7.0355 z"
           style="opacity:1;vector-effect:none;fill:#ff5555;fill-opacity:1;stroke-width:1;stroke-linecap:butt;stroke-linejoin:miter;stroke-miterlimit:4;stroke-dasharray:none;stroke-dashoffset:0;stroke-opacity:1"
           inkscape:connector-curvature="0" /><path
           id="path292"
           d="m 1218.9431,-894.49309 c -23.833,-2.6043 -53.2591,-9.5575 -80.3102,-18.9769 -106.7702,-37.178 -213.10749,-132.66321 -290.64819,-260.98651 -8.704,-14.4043 -26.5162,-48.4071 -26.5162,-50.6184 0,-1.557 4.1852,-3.2032 21.1979,-8.338 38.9532,-11.7569 80.3505,-18.4471 130.0521,-21.0175 l 11.75,-0.6076 2.75,4.6545 c 22.72269,38.459 61.10689,86.2617 93.26689,116.1523 48.408,44.9921 93.8825,72.6727 147.9831,90.0784 33.7931,10.8722 72.4103,15.5864 108.3564,13.2276 9.8838,-0.6486 22.2208,-1.8173 27.4157,-2.5971 9.1994,-1.381 11.2279,-1.2744 11.2279,0.59 0,3.0443 -28.7059,42.57261 -41.0133,56.47581 -25.3954,28.6883 -57.5963,57.3768 -86.2655,76.8559 -11.0326,7.496 -9.6301,7.2511 -29.2466,5.1075 z"
           style="opacity:1;vector-effect:none;fill:#ffdd55;fill-opacity:1;stroke-width:1;stroke-linecap:butt;stroke-linejoin:miter;stroke-miterlimit:4;stroke-dasharray:none;stroke-dashoffset:0;stroke-opacity:1"
           inkscape:connector-curvature="0" /><path
           id="path290"
           d="m 596.73274,-1061.1732 c -1.9154,-2.3726 -10.1132,-19.4252 -16.3029,-33.9126 -18.7475,-43.8795 -31.6413,-96.9865 -34.7823,-143.2618 l -0.7393,-10.891 4.7536,-6.9004 c 28.3302,-41.1245 68.7185,-78.5936 114.9798,-106.6693 77.4656,-47.0135 175.52977,-75.045 287.63427,-82.2198 19.5209,-1.2494 84.27619,-0.82 87.56229,0.5806 2.4967,1.0641 1.8876,6.0648 -3.2878,26.991 -9.606,38.8409 -26.0322,81.4704 -46.23879,120 l -4.72,9 -21.3116,1.1743 c -95.5375,5.2642 -181.52067,31.5922 -245.31147,75.1143 -51.2653,34.9764 -89.2071,80.6241 -111.5549,134.2114 -3.3259,7.975 -6.3937,15.1482 -6.8175,15.9405 -1.0771,2.0136 -2.6425,2.3551 -3.8634,0.8428 z"
           style="fill:#3771c8"
           inkscape:connector-curvature="0" /><path
           id="path288"
           d="m 1304.9685,-1063.8484 c -2.7811,-0.4228 -3.9669,-1.086 -3.8914,-2.1766 0.06,-0.8627 2.6395,-4.9907 5.7327,-9.1733 36.2076,-48.96 72.2669,-127.2442 93.1329,-202.1904 10.1226,-36.3583 17.5656,-73.4588 20.9581,-104.4669 2.3236,-21.2387 4.4585,-20.44 10.4221,3.8991 13.5254,55.2012 16.5947,110.9814 9.1665,166.5886 -5.0621,37.8945 -16.7197,80.1758 -31.8459,115.5027 -4.216,9.8464 -8.829,19.7216 -9.6668,20.6943 -0.7473,0.8675 -25.7394,6.5726 -36.0082,8.2199 -20.4634,3.2826 -47.3538,4.7211 -58,3.1026 z"
           style="opacity:1;vector-effect:none;fill:#3771c8;fill-opacity:1;stroke-width:1;stroke-linecap:butt;stroke-linejoin:miter;stroke-miterlimit:4;stroke-dasharray:none;stroke-dashoffset:0;stroke-opacity:1"
           inkscape:connector-curvature="0" /><path
           id="path286"
           d="m 1245.9685,-1073.4252 c -30.146,-8.4207 -61.4885,-23.2252 -90.7172,-42.8498 -4.2445,-2.8498 -7.732,-5.7394 -7.75,-6.4214 -0.018,-0.682 3.0569,-5.857 6.8331,-11.5 24.7938,-37.0508 51.3478,-88.8342 70.6418,-137.7601 22.9588,-58.219 36.9161,-113.3581 44.171,-174.5 1.4154,-11.9277 1.7805,-22.8855 1.7826,-53.5 0,-34.3702 -0.2386,-40.2699 -2.246,-55 -3.8186,-28.0194 -9.6678,-55.4481 -15.8286,-74.2257 -4.1021,-12.5028 -2.8635,-12.6305 12.2681,-1.2648 45.1809,33.9363 83.8633,76.6559 113.4831,125.3272 4.9041,8.0584 9.3279,16.2293 9.8308,18.1575 1.8401,7.056 3.2903,39.4465 2.6194,58.5058 -2.067,58.7221 -13.8758,118.629 -36.2069,183.6803 -20.2932,59.1147 -49.3467,116.8256 -77.6165,154.1752 -6.1522,8.1282 -17.5528,20.6967 -18.6732,20.5861 -0.3253,-0.032 -5.9915,-1.5667 -12.5915,-3.4103 z"
           style="opacity:1;vector-effect:none;fill:#ffdd55;fill-opacity:1;stroke-width:1;stroke-linecap:butt;stroke-linejoin:miter;stroke-miterlimit:4;stroke-dasharray:none;stroke-dashoffset:0;stroke-opacity:1"
           inkscape:connector-curvature="0" /><path
           id="path284"
           d="m 1105.8635,-1155.8208 c -23.4055,-21.3839 -49.9738,-52.1103 -72.058,-83.3356 -8.061,-11.3977 -19.337,-29.9671 -19.337,-31.8444 0,-0.9342 2.3326,-5.9189 5.1835,-11.0771 11.6568,-21.0905 26.5932,-55.6456 36.4286,-84.2765 11.6515,-33.9179 19.7982,-70.3142 23.973,-107.1021 2.0754,-18.2881 2.3489,-55.8096 0.5321,-73 -6.7146,-63.5353 -28.4396,-117.2647 -67.2116,-166.2257 -4.5613,-5.7598 -4.6182,-8.2773 -0.187,-8.2693 7.5844,0.014 38.5476,3.2875 52.2007,5.5192 44.1719,7.2205 89.2749,21.5386 126.2973,40.0937 l 8.7166,4.3686 3.6133,7.7568 c 16.8215,36.111 26.9018,72.1378 31.969,114.2567 2.2508,18.7084 3.036,59.4962 1.5499,80.5 -3.7465,52.9478 -13.9418,101.1251 -33.4459,158.0468 -13.0432,38.0661 -36.0719,88.6468 -56.8895,124.9532 -10.6757,18.6187 -25.6417,41.5 -27.1439,41.5 -0.6629,0 -7.0489,-5.3389 -14.1911,-11.8643 z"
           style="opacity:1;vector-effect:none;fill:#ff5555;fill-opacity:1;stroke-width:1;stroke-linecap:butt;stroke-linejoin:miter;stroke-miterlimit:4;stroke-dasharray:none;stroke-dashoffset:0;stroke-opacity:1"
           inkscape:connector-curvature="0" /><path
           id="path282"
           d="m 546.77694,-1311.5952 c -0.978,-2.5487 2.4045,-28.0565 6.2277,-46.9631 9.6811,-47.8756 28.1866,-97.2397 50.957,-135.93 6.0807,-10.332 7.3874,-11.5243 26.0069,-23.7318 66.4977,-43.5976 163.88667,-75.8163 261.99997,-86.6761 49.2979,-5.4567 94.1681,-5.4479 126.49999,0.025 17.2763,2.9242 17.6219,3.0887 19.3796,9.2249 4.3605,15.2222 7.9576,34.8985 9.7159,53.146 1.216,12.6198 0.8672,62.9148 -0.4455,64.2274 -0.4052,0.4052 -4.2047,0.5297 -8.4433,0.2767 -4.2387,-0.253 -26.6067,-0.4322 -49.70669,-0.3981 -43.7071,0.064 -58.6929,0.9505 -93.5,5.5291 -78.5385,10.331 -144.44347,29.2087 -205.49997,58.863 -51.3759,24.9526 -90.0543,52.4203 -127.3493,90.438 -7.3422,7.4844 -13.7688,13.608 -14.2814,13.608 -0.5126,0 -1.215,-0.7374 -1.5609,-1.6387 z"
           style="fill:#ff5555"
           inkscape:connector-curvature="0" /><path
           id="path278"
           d="m 670.46854,-1581.8509 c 0,-1.1044 4.4831,-6.1805 10.75,-12.172 42.145,-40.2927 86.0738,-69.3269 138.93777,-91.8294 40.2115,-17.1167 90.5995,-29.7261 134.3944,-33.6316 l 7.5822,-0.6761 9.6195,10.3517 c 5.2907,5.6935 12.871,14.4018 16.8451,19.3518 12.64179,15.7463 30.87099,45.1331 30.87099,49.7663 0,1.8935 -0.432,1.9823 -6.75,1.3881 -27.03169,-2.5424 -36.00969,-2.8678 -64.24999,-2.3285 -88.6946,1.6939 -180.29217,21.1539 -260.39427,55.321 -8.1918,3.4942 -15.5043,6.3531 -16.25,6.3531 -0.7456,0 -1.3557,-0.8525 -1.3557,-1.8944 z"
           style="fill:#ffdd55"
           inkscape:connector-curvature="0" /></g></g></g><circle
     style="opacity:1;vector-effect:none;fill:#ff0000;fill-opacity:1;stroke:#000000;stroke-width:2;stroke-linecap:round;stroke-linejoin:round;stroke-miterlimit:4;stroke-dasharray:none;stroke-dashoffset:0;stroke-opacity:1;paint-order:markers stroke fill"
     id="path856"
     cx="244.77138"
     cy="675.91632"
     r="8.3942909" /><g
     style="display:inline"
     id="g4981"
     transform="matrix(-0.94804218,0,0,0.94804218,-576.13781,103.04017)"><g
       id="g4766"><circle
         r="48.804577"
         cy="269.35016"
         cx="-1095.7184"
         id="circle2342"
         style="fill:#ffffff;fill-opacity:1;stroke:#000000;stroke-width:6;stroke-linecap:round;stroke-linejoin:round;stroke-miterlimit:4;stroke-dasharray:none;stroke-dashoffset:0;stroke-opacity:1;paint-order:markers fill stroke" /><path
         inkscape:connector-curvature="0"
         id="path2345"
         d="m -1219.3636,560.93963 -23.2994,-75.38071 86.3451,-60.30457 32.2082,71.26904 74.6954,4.11167"
         style="opacity:1;fill:none;fill-opacity:1;stroke:#000000;stroke-width:6;stroke-linecap:round;stroke-linejoin:round;stroke-miterlimit:4;stroke-dasharray:none;stroke-dashoffset:0;stroke-opacity:1;paint-order:markers fill stroke" /><path
         inkscape:connector-curvature="0"
         sodipodi:nodetypes="cc"
         id="path2347"
         d="m -1156.3179,425.25435 34.264,-111.01523"
         style="opacity:1;fill:none;fill-opacity:1;stroke:#000000;stroke-width:6;stroke-linecap:round;stroke-linejoin:round;stroke-miterlimit:4;stroke-dasharray:none;stroke-dashoffset:0;stroke-opacity:1;paint-order:markers fill stroke" /><path
         inkscape:connector-curvature="0"
         id="path2349"
         d="m -1263.2214,293.68075 65.1015,32.8934 75.3807,-12.33503 -75.3807,43.17259 -106.9036,-21.24365"
         style="opacity:1;fill:none;fill-opacity:1;stroke:#000000;stroke-width:6;stroke-linecap:round;stroke-linejoin:round;stroke-miterlimit:4;stroke-dasharray:none;stroke-dashoffset:0;stroke-opacity:1;paint-order:markers fill stroke" /><path
         inkscape:connector-curvature="0"
         sodipodi:nodetypes="ccc"
         id="path2422"
         d="m -1131.4561,276.68694 c -4.3101,21.96715 8.2939,17.15347 18.8981,15.5061 z"
         style="fill:none;stroke:#000000;stroke-width:1px;stroke-linecap:round;stroke-linejoin:round;stroke-opacity:1" /><path
         inkscape:connector-curvature="0"
         id="path3895"
         d="m -1139.4514,256.0929 63.4781,56.45189 10.9027,-4.60337 8.4799,-7.51077 -74.3808,-63.96265 -7.0262,6.54163 -5.5725,10.17588 z"
         style="fill:#000000;stroke:#000000;stroke-width:1px;stroke-linecap:butt;stroke-linejoin:miter;stroke-opacity:1" /><g
         id="g4746"
         transform="rotate(80.393351,-970.95921,91.807499)"><circle
           r="9.7518816"
           transform="rotate(-32.997134)"
           cy="-227.9151"
           cx="-848.2196"
           id="circle4742"
           style="fill:#ffffff;fill-opacity:1;stroke:#000000;stroke-width:1;stroke-linecap:round;stroke-linejoin:round;stroke-miterlimit:4;stroke-dasharray:none;stroke-dashoffset:0;stroke-opacity:1;paint-order:markers fill stroke" /><circle
           r="2.1805451"
           cy="277.5069"
           cx="-836.08844"
           id="circle4744"
           style="fill:#000000;fill-opacity:1;stroke:none;stroke-width:1;stroke-linecap:round;stroke-linejoin:round;stroke-miterlimit:4;stroke-dasharray:none;stroke-dashoffset:0;stroke-opacity:1;paint-order:markers fill stroke" /></g><g
         transform="rotate(80.393351,-971.334,109.19628)"
         id="g4752"><circle
           style="fill:#ffffff;fill-opacity:1;stroke:#000000;stroke-width:1;stroke-linecap:round;stroke-linejoin:round;stroke-miterlimit:4;stroke-dasharray:none;stroke-dashoffset:0;stroke-opacity:1;paint-order:markers fill stroke"
           id="circle4748"
           cx="-848.2196"
           cy="-227.9151"
           transform="rotate(-32.997134)"
           r="9.7518816" /><circle
           style="fill:#000000;fill-opacity:1;stroke:none;stroke-width:1;stroke-linecap:round;stroke-linejoin:round;stroke-miterlimit:4;stroke-dasharray:none;stroke-dashoffset:0;stroke-opacity:1;paint-order:markers fill stroke"
           id="circle4750"
           cx="-836.08844"
           cy="277.5069"
           r="2.1805451" /></g></g></g><g
     id="g924"
     transform="translate(543.29505,-404.27981)"><path
       inkscape:connector-curvature="0"
       id="path920"
       d="m 116.49584,750.20024 18.47317,2.03294 3.8007,7.513 c 0,0 -2.2981,11.31371 -2.82843,11.57888 -0.53033,0.26516 -6.27557,8.83883 -6.8059,8.92722 -0.53033,0.0884 -16.35185,-2.74004 -16.35185,-2.74004 0,0 -3.88909,-4.94974 -4.24264,-6.36396 -0.35355,-1.41421 -1.14905,-9.36916 -1.14905,-10.16466 0,-0.79549 3.00521,-7.95495 3.00521,-7.95495 z"
       style="fill:#000000;stroke:#000000;stroke-width:1px;stroke-linecap:butt;stroke-linejoin:miter;stroke-opacity:1" /><path
       inkscape:connector-curvature="0"
       id="path918"
       d="m 111.48277,794.78552 c -3.74866,0.80228 -5.381,1.03584 -5.24607,0.75056 0.0266,-0.0557 0.6087,-1.20375 1.29387,-2.55073 0.68519,-1.34692 1.19071,-2.58226 1.12341,-2.74512 -0.081,-0.19585 -0.98588,-0.24454 -2.67364,-0.14381 -6.692531,0.3994 -12.706427,-0.13494 -18.813895,-1.67159 -1.642278,-0.41318 -3.062552,-0.71987 -3.156169,-0.68149 -0.09363,0.0384 -1.508284,1.60779 -3.143717,3.48755 -4.421604,5.08221 -11.562836,11.82661 -13.568323,12.81441 -0.995727,0.49044 -1.313268,0.55004 -1.430116,0.26726 -0.197065,-0.47692 0.424277,-3.19887 1.466596,-6.42479 1.181311,-3.65617 1.438297,-5.94202 0.878739,-7.81686 -0.615549,-2.06247 -1.560928,-3.03522 -5.695175,-5.86007 -3.908065,-2.67031 -6.598608,-4.86453 -7.303665,-5.95634 -1.49183,-2.31015 0.358714,-2.79763 6.153696,-1.62098 6.846337,1.39013 15.889257,2.52042 17.222316,2.15272 0.690521,-0.1905 0.974497,-0.54013 2.927318,-3.60447 4.247596,-6.66525 8.000565,-11.50241 11.398003,-14.69073 0.800336,-0.75107 1.502199,-1.47095 1.559698,-1.5997 0.05746,-0.12874 -0.635515,-0.3824 -1.540024,-0.56368 -2.66256,-0.53367 -4.162418,-0.95909 -4.266135,-1.21009 -0.143381,-0.34698 2.426078,-2.28566 5.116714,-3.86067 2.148728,-1.25772 6.412019,-2.9431 8.385779,-3.31506 0.94492,-0.17811 3.0807,-0.35914 4.74627,-0.4023 2.58778,-0.0671 3.37611,-0.18447 5.41975,-0.80704 6.13549,-1.86909 12.10831,-2.26571 18.42193,-1.22327 6.20007,1.02361 12.21613,3.61494 15.78357,6.79839 1.43247,1.27831 1.59168,1.49704 2.25091,3.09241 0.59376,1.43693 0.69846,1.93972 0.64235,3.08471 -0.14213,2.90117 -1.90319,5.89985 -6.46445,11.0076 -4.46587,5.00093 -8.90402,8.96061 -12.50215,11.15434 -1.10063,0.671 -1.94108,1.40766 -3.05318,2.67612 -3.41256,3.89229 -5.99232,5.93989 -9.48495,7.52846 -1.99425,0.90699 -2.85317,1.16482 -6.44926,1.93426 z m 15.60729,-18.83689 c -2.8959,-2.48815 -6.00956,-6.40108 -7.63138,-9.59033 -1.46598,-2.88282 -2.17626,-6.54892 -2.22139,-11.46563 -0.0117,-1.28118 -0.0612,-2.34585 -0.10978,-2.366 -0.0487,-0.0202 -0.3989,0.8838 -0.77833,2.0087 -0.91908,2.72458 -1.35555,5.50934 -1.22063,7.78764 0.0996,1.68252 0.22263,2.13922 1.23733,4.59489 1.02677,2.48485 1.23506,2.84513 2.34882,4.06257 1.3966,1.52653 3.14246,2.94417 4.90034,3.97899 1.5296,0.90045 4.53736,2.28965 4.60555,2.12714 0.0282,-0.0674 -0.48044,-0.57946 -1.13051,-1.13797 z m 6.88521,-18.23537 c 0.35867,-0.85445 0.35548,-1.09517 -0.0268,-2.0203 -0.38228,-0.92512 -0.55013,-1.09831 -1.4087,-1.45365 -2.30538,-0.95411 -4.12333,1.45153 -2.81123,3.71993 0.61977,1.07146 1.91042,1.51507 3.0494,1.04804 0.62758,-0.25733 0.87385,-0.52349 1.19731,-1.29402 z"
       style="fill:#7137c8;stroke:#000000;stroke-width:1" /></g></svg>