<?xml version="1.0" encoding="UTF-8" standalone="no"?>
<!-- Created with Inkscape (http://www.inkscape.org/) -->

<svg
   xmlns:dc="http://purl.org/dc/elements/1.1/"
   xmlns:cc="http://creativecommons.org/ns#"
   xmlns:rdf="http://www.w3.org/1999/02/22-rdf-syntax-ns#"
   xmlns:svg="http://www.w3.org/2000/svg"
   xmlns="http://www.w3.org/2000/svg"
   xmlns:sodipodi="http://sodipodi.sourceforge.net/DTD/sodipodi-0.dtd"
   xmlns:inkscape="http://www.inkscape.org/namespaces/inkscape"
   width="740"
   height="1280"
   version="1.1"
   viewBox="0 0 740 1280"
   xml:space="preserve"
   id="svg18"
   sodipodi:docname="level17lose.svg"
   inkscape:version="0.92.5 (2060ec1f9f, 2020-04-08)"><defs
     id="defs22" /><sodipodi:namedview
     pagecolor="#ffffff"
     bordercolor="#666666"
     borderopacity="1"
     objecttolerance="10"
     gridtolerance="10"
     guidetolerance="10"
     inkscape:pageopacity="0"
     inkscape:pageshadow="2"
     inkscape:window-width="1920"
     inkscape:window-height="986"
     id="namedview20"
     showgrid="false"
     inkscape:zoom="1.4142136"
     inkscape:cx="400.12223"
     inkscape:cy="796.4249"
     inkscape:window-x="1909"
     inkscape:window-y="49"
     inkscape:window-maximized="1"
     inkscape:current-layer="svg18"
     inkscape:snap-bbox="true"
     inkscape:bbox-paths="true"
     inkscape:snap-bbox-edge-midpoints="true"
     inkscape:bbox-nodes="true"
     inkscape:snap-bbox-midpoints="true"
     inkscape:object-paths="true"
     inkscape:snap-intersection-paths="true"
     inkscape:snap-smooth-nodes="true"
     inkscape:snap-midpoints="true"
     inkscape:snap-object-midpoints="true"
     inkscape:snap-center="true"
     inkscape:snap-text-baseline="true"
     inkscape:snap-page="true"
     inkscape:snap-global="false" /><metadata
     id="metadata2"><rdf:RDF><cc:Work
         rdf:about=""><dc:format>image/svg+xml</dc:format><dc:type
           rdf:resource="http://purl.org/dc/dcmitype/StillImage" /><dc:title></dc:title></cc:Work></rdf:RDF></metadata><rect
     style="opacity:1;vector-effect:none;fill:#00ffff;fill-opacity:1;stroke:#000000;stroke-width:0.99999994;stroke-linecap:round;stroke-linejoin:miter;stroke-miterlimit:4;stroke-dasharray:none;stroke-dashoffset:0;stroke-opacity:1;paint-order:normal"
     id="rect821"
     width="739"
     height="739"
     x="0.49998033"
     y="270.49994" /><path
     inkscape:connector-curvature="0"
     id="path834"
     d="m -21.345784,745.68326 c 60.544782,5.95435 125.280604,2.92799 187.275474,2.92799 38.32201,0 107.33922,54.72484 126.80109,83.93575 24.06542,36.12047 169.84054,-26.35246 121.92415,101.50371 -28.40668,75.79809 -271.05612,12.44685 -329.682859,21.47193 -41.75644,6.42804 -211.010951,129.69256 -226.291221,17.56796"
     style="opacity:1;vector-effect:none;fill:#b1e2e2;fill-opacity:1;stroke:#000000;stroke-width:2;stroke-linecap:butt;stroke-linejoin:miter;stroke-miterlimit:4;stroke-dasharray:none;stroke-dashoffset:0;stroke-opacity:1" /><path
     style="fill:#f2f2f2;stroke:#000000;stroke-width:2;stroke-linecap:butt;stroke-linejoin:miter;stroke-opacity:1;stroke-miterlimit:4;stroke-dasharray:none"
     d="m -21.345784,726.16331 c 60.544782,5.95435 125.280604,2.92799 187.275474,2.92799 38.32201,0 107.33922,54.72484 126.80109,83.93575 24.06542,36.12047 169.84054,-26.35245 121.92415,101.50371 -28.40668,75.79803 -271.05612,12.44685 -329.682859,21.47193 -41.75644,6.42804 -211.010951,129.69261 -226.291221,17.56796"
     id="path836"
     inkscape:connector-curvature="0" /><path
     inkscape:connector-curvature="0"
     id="path976"
     d="M 746,635 C 676.93304,608.67677 651.04233,667.31922 598,685 370.62637,760.79121 293.74533,479.50187 485,403 c 48.98599,-19.5944 105.74117,30 156,30 64.00928,0 174.49582,-31.56251 225,13"
     style="opacity:1;vector-effect:none;fill:#b1e2e2;fill-opacity:1;stroke:#000000;stroke-width:2;stroke-linecap:butt;stroke-linejoin:miter;stroke-miterlimit:4;stroke-dasharray:none;stroke-dashoffset:0;stroke-opacity:1" /><path
     style="fill:#f2f2f2;stroke:#000000;stroke-width:2;stroke-linecap:butt;stroke-linejoin:miter;stroke-opacity:1;font-variant-east_asian:normal;opacity:1;vector-effect:none;fill-opacity:1;stroke-miterlimit:4;stroke-dasharray:none;stroke-dashoffset:0"
     d="M 746,609 C 676.93304,582.67677 651.04233,641.31922 598,659 370.62637,734.79121 293.74533,453.50187 485,377 c 48.98599,-19.5944 105.74117,30 156,30 64.00928,0 174.49582,-31.56251 225,13"
     id="path960"
     inkscape:connector-curvature="0" /><g
     id="g1078"
     transform="translate(119.90185,-169.59378)"><path
   d="m -412.75781,589.05078 a 57.909454,18.542391 0 0 0 -57.91016,18.54297 57.909454,18.542391 0 0 0 0.0996,0.89844 90.126152,90.126152 0 0 0 -15.53711,50.21289 90.126152,90.126152 0 0 0 15.27539,49.93164 57.909454,18.542391 0 0 0 -0.37109,2.02539 57.909454,18.542391 0 0 0 57.91015,18.54297 57.909454,18.542391 0 0 0 57.90821,-18.54297 57.909454,18.542391 0 0 0 -0.10157,-0.92383 90.126152,90.126152 0 0 0 16.07227,-51.0332 90.126152,90.126152 0 0 0 -15.55469,-50.36133 57.909454,18.542391 0 0 0 0.11719,-0.75 57.909454,18.542391 0 0 0 -57.9082,-18.54297 z"
   id="path1054"
   style="opacity:1;vector-effect:none;fill:#d45500;fill-opacity:1;stroke:#000000;stroke-width:4;stroke-linecap:round;stroke-linejoin:round;stroke-miterlimit:4;stroke-dasharray:none;stroke-dashoffset:0;stroke-opacity:1;paint-order:markers fill stroke"
   inkscape:original="M -412.75781 589.05078 A 57.909454 18.542391 0 0 0 -470.66797 607.59375 A 57.909454 18.542391 0 0 0 -470.56836 608.49219 A 90.126152 90.126152 0 0 0 -486.10547 658.70508 A 90.126152 90.126152 0 0 0 -470.83008 708.63672 A 57.909454 18.542391 0 0 0 -471.20117 710.66211 A 57.909454 18.542391 0 0 0 -413.29102 729.20508 A 57.909454 18.542391 0 0 0 -355.38281 710.66211 A 57.909454 18.542391 0 0 0 -355.48438 709.73828 A 90.126152 90.126152 0 0 0 -339.41211 658.70508 A 90.126152 90.126152 0 0 0 -354.9668 608.34375 A 57.909454 18.542391 0 0 0 -354.84961 607.59375 A 57.909454 18.542391 0 0 0 -412.75781 589.05078 z "
   inkscape:radius="0"
   sodipodi:type="inkscape:offset"
   transform="translate(810.85694,87.46585)" /><path
   id="path1056"
   d="m 451.91749,690.35452 -108.16797,0.66406 a 90.126152,90.126152 0 0 0 -18.99805,55.15235 90.126152,90.126152 0 0 0 15.27539,49.93164 57.909454,18.542391 0 0 0 -0.37109,2.02539 57.909454,18.542391 0 0 0 57.91015,18.54297 57.909454,18.542391 0 0 0 57.90821,-18.54297 57.909454,18.542391 0 0 0 -0.10157,-0.92383 90.126152,90.126152 0 0 0 16.07227,-51.0332 90.126152,90.126152 0 0 0 -19.52734,-55.81641 z"
   style="opacity:1;vector-effect:none;fill:#784421;fill-opacity:1;stroke:none;stroke-width:2;stroke-linecap:round;stroke-linejoin:round;stroke-miterlimit:4;stroke-dasharray:none;stroke-dashoffset:0;stroke-opacity:1;paint-order:markers fill stroke"
   inkscape:connector-curvature="0" /><ellipse
   ry="18.542391"
   rx="57.909454"
   cy="695.0589"
   cx="398.09814"
   id="ellipse1058"
   style="opacity:1;vector-effect:none;fill:#4d4d4d;fill-opacity:1;stroke:none;stroke-width:1.99999964;stroke-linecap:round;stroke-linejoin:round;stroke-miterlimit:4;stroke-dasharray:none;stroke-dashoffset:0;stroke-opacity:1;paint-order:markers fill stroke" /><ellipse
   style="opacity:1;vector-effect:none;fill:#b3b3b3;fill-opacity:1;stroke:none;stroke-width:1.99999976;stroke-linecap:round;stroke-linejoin:round;stroke-miterlimit:4;stroke-dasharray:none;stroke-dashoffset:0;stroke-opacity:1;paint-order:markers fill stroke"
   id="ellipse1060"
   cx="398.09814"
   cy="695.0589"
   rx="48.926319"
   ry="15.666024" /><path
   sodipodi:type="star"
   style="opacity:1;vector-effect:none;fill:#ffff00;fill-opacity:1;stroke:#000000;stroke-width:2.2074554;stroke-linecap:round;stroke-linejoin:round;stroke-miterlimit:4;stroke-dasharray:none;stroke-dashoffset:0;stroke-opacity:1;paint-order:markers fill stroke"
   id="path1062"
   sodipodi:sides="10"
   sodipodi:cx="285.67407"
   sodipodi:cy="720.06854"
   sodipodi:r1="45.987404"
   sodipodi:r2="33.824558"
   sodipodi:arg1="0.52359878"
   sodipodi:arg2="0.8652625"
   inkscape:flatsided="false"
   inkscape:rounded="0"
   inkscape:randomized="0"
   d="m 325.50033,743.06224 -17.89305,2.75577 -3.22845,16.26212 -16.09558,-8.28781 -12.1705,11.25869 -8.15014,-16.16572 -16.46384,1.95483 2.90837,-17.86888 -14.46855,-8.09571 12.85599,-12.74673 -6.94677,-15.05396 17.89306,-2.75577 3.22844,-16.26211 16.09558,8.28781 12.1705,-11.2587 8.15015,16.16573 16.46383,-1.95484 -2.90836,17.86889 14.46854,8.0957 -12.85598,12.74674 z"
   inkscape:transform-center-x="-2.9349771"
   inkscape:transform-center-y="-1.8473433"
   transform="matrix(0.96304879,0.23525264,-0.28988253,0.78155718,331.71537,129.01095)" /><text
   id="text1066"
   y="772.15906"
   x="370.39218"
   style="font-style:normal;font-variant:normal;font-weight:normal;font-stretch:normal;font-size:35.78207397px;line-height:1.25;font-family:'Another Typewriter';-inkscape-font-specification:'Another Typewriter, Normal';font-variant-ligatures:normal;font-variant-caps:normal;font-variant-numeric:normal;font-feature-settings:normal;text-align:start;letter-spacing:0px;word-spacing:0px;writing-mode:lr-tb;text-anchor:start;fill:#ff0000;fill-opacity:1;stroke:#000000;stroke-width:1;stroke-linecap:round;stroke-linejoin:round;stroke-miterlimit:4;stroke-dasharray:none;paint-order:markers fill stroke"
   xml:space="preserve"><tspan
     style="fill:#ff0000;stroke:#000000;stroke-width:1;stroke-linecap:round;stroke-linejoin:round;stroke-miterlimit:4;stroke-dasharray:none;paint-order:markers fill stroke"
     y="772.15906"
     x="370.39218"
     id="tspan1064"
     sodipodi:role="line">tnt</tspan></text>


<ellipse
   ry="6.6571126"
   rx="20.790726"
   cy="694.38098"
   cx="419.79306"
   id="ellipse1068"
   style="opacity:1;vector-effect:none;fill:#000000;fill-opacity:1;stroke:none;stroke-width:1.99999964;stroke-linecap:round;stroke-linejoin:round;stroke-miterlimit:4;stroke-dasharray:none;stroke-dashoffset:0;stroke-opacity:1;paint-order:markers fill stroke" /></g><path
     inkscape:transform-center-y="-0.19780552"
     inkscape:transform-center-x="0.29495861"
     d="m 240.38466,391.82798 c -5.4789,9.44723 -5.02897,7.52644 -15.05916,11.74388 -10.03018,4.21743 -12.65152,7.51347 -23.18014,4.66391 -10.52862,-2.84956 -10.14086,-5.03614 -16.91396,-13.36753 -6.77311,-8.33139 -9.85112,-4.94399 -10.33065,-15.79916 -0.47953,-10.85517 -0.99053,-13.27463 4.44778,-22.70982 5.43831,-9.4352 6.18866,-12.61456 16.60435,-16.33246 10.41569,-3.71791 9.66097,-0.57976 19.99959,1.48611 10.33861,2.06586 13.16771,0.83928 20.97982,8.42328 7.8121,7.584 6.98185,9.58084 7.46382,20.40912 0.48196,10.82828 1.46745,12.03545 -4.01145,21.48267 z"
     inkscape:randomized="0.049"
     inkscape:rounded="0.5"
     inkscape:flatsided="false"
     sodipodi:arg2="1.1519173"
     sodipodi:arg1="0.52359878"
     sodipodi:r2="33.402042"
     sodipodi:r1="36.055511"
     sodipodi:cy="374"
     sodipodi:cx="210"
     sodipodi:sides="5"
     id="path1033"
     style="opacity:1;vector-effect:none;fill:#b1e2e2;fill-opacity:1;stroke:#000000;stroke-width:2;stroke-linecap:butt;stroke-linejoin:miter;stroke-miterlimit:4;stroke-dasharray:none;stroke-dashoffset:0;stroke-opacity:1;paint-order:markers stroke fill"
     sodipodi:type="star"
     transform="translate(-23.48023,-16.556349)" /><path
     sodipodi:type="star"
     style="opacity:1;vector-effect:none;fill:#f2f2f2;fill-opacity:1;stroke:#000000;stroke-width:2;stroke-linecap:butt;stroke-linejoin:miter;stroke-miterlimit:4;stroke-dasharray:none;stroke-dashoffset:0;stroke-opacity:1;paint-order:markers stroke fill"
     id="path1017"
     sodipodi:sides="5"
     sodipodi:cx="210"
     sodipodi:cy="374"
     sodipodi:r1="36.055511"
     sodipodi:r2="33.402042"
     sodipodi:arg1="0.52359878"
     sodipodi:arg2="1.1519173"
     inkscape:flatsided="false"
     inkscape:rounded="0.5"
     inkscape:randomized="0.049"
     d="m 240.38466,391.82798 c -5.4789,9.44723 -5.02897,7.52644 -15.05916,11.74388 -10.03018,4.21743 -12.65152,7.51347 -23.18014,4.66391 -10.52862,-2.84956 -10.14086,-5.03614 -16.91396,-13.36753 -6.77311,-8.33139 -9.85112,-4.94399 -10.33065,-15.79916 -0.47953,-10.85517 -0.99053,-13.27463 4.44778,-22.70982 5.43831,-9.4352 6.18866,-12.61456 16.60435,-16.33246 10.41569,-3.71791 9.66097,-0.57976 19.99959,1.48611 10.33861,2.06586 13.16771,0.83928 20.97982,8.42328 7.8121,7.584 6.98185,9.58084 7.46382,20.40912 0.48196,10.82828 1.46745,12.03545 -4.01145,21.48267 z"
     inkscape:transform-center-x="0.29495861"
     inkscape:transform-center-y="-0.19780552"
     transform="translate(-23.48023,-30.870058)" /><path
     transform="matrix(3.4132268,0,0,1,-538.08469,151.23759)"
     sodipodi:type="star"
     style="opacity:1;vector-effect:none;fill:#b1e2e2;fill-opacity:1;stroke:#000000;stroke-width:1.08254862;stroke-linecap:butt;stroke-linejoin:miter;stroke-miterlimit:4;stroke-dasharray:none;stroke-dashoffset:0;stroke-opacity:1;paint-order:markers stroke fill"
     id="path1049"
     sodipodi:sides="5"
     sodipodi:cx="210"
     sodipodi:cy="374"
     sodipodi:r1="36.055511"
     sodipodi:r2="33.402042"
     sodipodi:arg1="0.52359878"
     sodipodi:arg2="1.1519173"
     inkscape:flatsided="false"
     inkscape:rounded="0.5"
     inkscape:randomized="0.049"
     d="m 240.38466,391.82798 c -5.4789,9.44723 -5.02897,7.52644 -15.05916,11.74388 -10.03018,4.21743 -12.65152,7.51347 -23.18014,4.66391 -10.52862,-2.84956 -10.14086,-5.03614 -16.91396,-13.36753 -6.77311,-8.33139 -9.85112,-4.94399 -10.33065,-15.79916 -0.47953,-10.85517 -0.99053,-13.27463 4.44778,-22.70982 5.43831,-9.4352 6.18866,-12.61456 16.60435,-16.33246 10.41569,-3.71791 9.66097,-0.57976 19.99959,1.48611 10.33861,2.06586 13.16771,0.83928 20.97982,8.42328 7.8121,7.584 6.98185,9.58084 7.46382,20.40912 0.48196,10.82828 1.46745,12.03545 -4.01145,21.48267 z"
     inkscape:transform-center-x="1.0067612"
     inkscape:transform-center-y="-0.19780552" /><path
     transform="matrix(3.4132268,0,0,1,-538.08469,136.92388)"
     inkscape:transform-center-y="-0.19780552"
     inkscape:transform-center-x="1.0067612"
     d="m 240.38466,391.82798 c -5.4789,9.44723 -5.02897,7.52644 -15.05916,11.74388 -10.03018,4.21743 -12.65152,7.51347 -23.18014,4.66391 -10.52862,-2.84956 -10.14086,-5.03614 -16.91396,-13.36753 -6.77311,-8.33139 -9.85112,-4.94399 -10.33065,-15.79916 -0.47953,-10.85517 -0.99053,-13.27463 4.44778,-22.70982 5.43831,-9.4352 6.18866,-12.61456 16.60435,-16.33246 10.41569,-3.71791 9.66097,-0.57976 19.99959,1.48611 10.33861,2.06586 13.16771,0.83928 20.97982,8.42328 7.8121,7.584 6.98185,9.58084 7.46382,20.40912 0.48196,10.82828 1.46745,12.03545 -4.01145,21.48267 z"
     inkscape:randomized="0.049"
     inkscape:rounded="0.5"
     inkscape:flatsided="false"
     sodipodi:arg2="1.1519173"
     sodipodi:arg1="0.52359878"
     sodipodi:r2="33.402042"
     sodipodi:r1="36.055511"
     sodipodi:cy="374"
     sodipodi:cx="210"
     sodipodi:sides="5"
     id="path1051"
     style="opacity:1;vector-effect:none;fill:#f2f2f2;fill-opacity:1;stroke:#000000;stroke-width:1.08254862;stroke-linecap:butt;stroke-linejoin:miter;stroke-miterlimit:4;stroke-dasharray:none;stroke-dashoffset:0;stroke-opacity:1;paint-order:markers stroke fill"
     sodipodi:type="star" /><g
     style="display:inline"
     id="g3030"
     transform="matrix(0.81268867,0,0,0.81268867,321.67249,94.451921)"><path
       style="fill:none;fill-opacity:1;stroke:#000000;stroke-width:6;stroke-linecap:round;stroke-linejoin:round;stroke-miterlimit:4;stroke-dasharray:none;stroke-dashoffset:0;stroke-opacity:1;paint-order:markers fill stroke"
       d="m 371.42132,321.39594 19.18782,99.36548 -76.06599,4.79696 19.18782,76.75127"
       id="path5538"
       sodipodi:nodetypes="cccc"
       inkscape:connector-curvature="0" /><path
       style="fill:none;fill-opacity:1;stroke:#000000;stroke-width:6;stroke-linecap:round;stroke-linejoin:round;stroke-miterlimit:4;stroke-dasharray:none;stroke-dashoffset:0;stroke-opacity:1;paint-order:markers fill stroke"
       d="m 390.60914,420.76142 40.43147,-30.15228 35.63452,89.77157"
       id="path5559"
       inkscape:connector-curvature="0" /><path
       style="fill:none;fill-opacity:1;stroke:#000000;stroke-width:6;stroke-linecap:round;stroke-linejoin:round;stroke-miterlimit:4;stroke-dasharray:none;stroke-dashoffset:0;stroke-opacity:1;paint-order:markers fill stroke"
       d="m 491.34518,257.66498 -54.13706,71.95431 c -2.74111,0 -63.12353,-8.23705 -63.12353,-8.23705 l -49.26225,52.09492 -91.82741,-60.98985"
       id="path5561"
       inkscape:connector-curvature="0" /><circle
       style="fill:#ffffff;fill-opacity:1;stroke:#000000;stroke-width:6;stroke-linecap:round;stroke-linejoin:round;stroke-miterlimit:4;stroke-dasharray:none;stroke-dashoffset:0;stroke-opacity:1;paint-order:markers fill stroke"
       id="circle4637"
       cx="373.35397"
       cy="268.8656"
       r="48.804577" /><path
       style="fill:#000000;stroke:#000000;stroke-width:1px;stroke-linecap:butt;stroke-linejoin:miter;stroke-opacity:1"
       d="m 325.38578,276.20237 90.61376,14.29468 3.14967,-6.05707 1.4537,-4.60337 1.21141,-4.60337 0.72685,-6.29936 -95.7017,-15.99066 -2.66511,12.5987 z"
       id="path5536"
       inkscape:connector-curvature="0" /><circle
       style="display:inline;fill:#ffffff;fill-opacity:1;stroke:#000000;stroke-width:1.63505995;stroke-linecap:round;stroke-linejoin:round;stroke-miterlimit:4;stroke-dasharray:none;stroke-dashoffset:0;stroke-opacity:1;paint-order:markers fill stroke"
       id="circle4649"
       cx="-182.88834"
       cy="400.32629"
       r="12.2805"
       transform="rotate(-77.01314)" /><circle
       style="display:inline;fill:#000000;fill-opacity:1;stroke:none;stroke-width:1;stroke-linecap:round;stroke-linejoin:round;stroke-miterlimit:4;stroke-dasharray:none;stroke-dashoffset:0;stroke-opacity:1;paint-order:markers fill stroke"
       id="circle4651"
       cx="60.698212"
       cy="437.242"
       r="2.1805451"
       transform="rotate(-44.016007)" /><circle
       style="display:inline;fill:#ffffff;fill-opacity:1;stroke:#000000;stroke-width:1.27216995;stroke-linecap:round;stroke-linejoin:round;stroke-miterlimit:4;stroke-dasharray:none;stroke-dashoffset:0;stroke-opacity:1;paint-order:markers fill stroke"
       id="circle4675"
       cx="-179.18764"
       cy="429.30994"
       r="9.5549383"
       transform="rotate(-77.01314)" /><circle
       style="display:inline;fill:#000000;fill-opacity:1;stroke:none;stroke-width:1;stroke-linecap:round;stroke-linejoin:round;stroke-miterlimit:4;stroke-dasharray:none;stroke-dashoffset:0;stroke-opacity:1;paint-order:markers fill stroke"
       id="circle4677"
       cx="79.58638"
       cy="459.53516"
       r="2.1805451"
       transform="rotate(-44.016007)" /><circle
       style="fill:#ff5555;fill-opacity:1;stroke:#000000;stroke-width:2.25395989;stroke-linecap:round;stroke-linejoin:round;stroke-miterlimit:4;stroke-dasharray:none;stroke-dashoffset:0;stroke-opacity:1;paint-order:markers fill stroke"
       id="path4756"
       cx="371.17722"
       cy="306.97226"
       r="13.925422" /></g><g
     transform="translate(-114.85119,71.947409)"
     id="g862"><circle
       r="46.270042"
       cy="647.1142"
       cx="238.54276"
       id="circle844-3"
       style="display:inline;fill:#ffffff;fill-opacity:1;stroke:#000000;stroke-width:5.68840599;stroke-linecap:round;stroke-linejoin:round;stroke-miterlimit:4;stroke-dasharray:none;stroke-dashoffset:0;stroke-opacity:1;paint-order:markers fill stroke" /><path
       sodipodi:nodetypes="cccc"
       inkscape:connector-curvature="0"
       id="path848-4"
       d="m 236.36718,695.85752 -22.90072,86.92099 75.50754,-21.23739 33.12397,37.26047"
       style="fill:none;stroke:#000000;stroke-width:5.68840599;stroke-linecap:round;stroke-linejoin:round;stroke-dasharray:none;stroke-opacity:1;paint-order:markers fill stroke" /><path
       sodipodi:nodetypes="ccc"
       inkscape:connector-curvature="0"
       id="path850-4"
       d="m 213.46646,782.77851 86.06182,-42.20965 0.87959,60.6516"
       style="fill:none;stroke:#000000;stroke-width:5.68840599;stroke-linecap:round;stroke-linejoin:round;stroke-dasharray:none;stroke-opacity:1;paint-order:markers fill stroke" /><path
       sodipodi:nodetypes="ccccc"
       inkscape:connector-curvature="0"
       id="path852-1"
       d="m 161.14081,630.10958 20.33761,77.5898 54.88876,-11.84186 44.44866,42.60681 54.00418,-33.1632"
       style="opacity:1;fill:none;fill-opacity:1;stroke:#000000;stroke-width:5.68840599;stroke-linecap:round;stroke-linejoin:round;stroke-miterlimit:4;stroke-dasharray:none;stroke-dashoffset:0;stroke-opacity:1;paint-order:markers fill stroke" /><circle
       r="9.2454433"
       transform="rotate(-125.01532)"
       cy="-150.68761"
       cx="-681.37445"
       id="circle854-8"
       style="fill:#ffffff;fill-opacity:1;stroke:#000000;stroke-width:0.94806767;stroke-linecap:round;stroke-linejoin:round;stroke-miterlimit:4;stroke-dasharray:none;stroke-dashoffset:0;stroke-opacity:1;paint-order:markers fill stroke" /><circle
       transform="rotate(-92.018184)"
       r="2.0673044"
       cy="249.45728"
       cx="-652.0069"
       id="circle856-3"
       style="fill:#000000;fill-opacity:1;stroke:none;stroke-width:0.94806767;stroke-linecap:round;stroke-linejoin:round;stroke-miterlimit:4;stroke-dasharray:none;stroke-dashoffset:0;stroke-opacity:1;paint-order:markers fill stroke" /><circle
       style="fill:#ffffff;fill-opacity:1;stroke:#000000;stroke-width:0.94806767;stroke-linecap:round;stroke-linejoin:round;stroke-miterlimit:4;stroke-dasharray:none;stroke-dashoffset:0;stroke-opacity:1;paint-order:markers fill stroke"
       id="circle862-3"
       cx="-667.91327"
       cy="-173.19524"
       transform="rotate(-125.01532)"
       r="9.2454433" /><circle
       transform="rotate(-92.018184)"
       style="fill:#000000;fill-opacity:1;stroke:none;stroke-width:0.94806767;stroke-linecap:round;stroke-linejoin:round;stroke-miterlimit:4;stroke-dasharray:none;stroke-dashoffset:0;stroke-opacity:1;paint-order:markers fill stroke"
       id="circle864-3"
       cx="-652.97461"
       cy="223.24922"
       r="2.0673044" /><path
       sodipodi:nodetypes="cccc"
       inkscape:connector-curvature="0"
       id="path887-7"
       d="m 336.81506,700.06331 c -6.91688,2.83173 -0.0973,16.05498 6.36396,10.96016 38.19836,-25.98245 107.62383,-41.32865 196.57569,-25.8094 -57.93997,-19.47534 -141.30248,-11.69903 -202.93965,14.84924 z"
       style="fill:#c87137;stroke:#000000;stroke-width:1px;stroke-linecap:butt;stroke-linejoin:miter;stroke-opacity:1" /><path
       sodipodi:nodetypes="cc"
       inkscape:connector-curvature="0"
       id="path889-1"
       d="m 539.75471,685.21407 48.65864,239.8772"
       style="fill:none;stroke:#000000;stroke-width:2;stroke-linecap:round;stroke-linejoin:miter;stroke-miterlimit:4;stroke-dasharray:none;stroke-opacity:1" /><path
       inkscape:connector-curvature="0"
       id="path854"
       d="m 240.06275,628.4011 13.78858,5.65685 6.01041,-7.60139"
       style="fill:none;stroke:#000000;stroke-width:2;stroke-linecap:round;stroke-linejoin:round;stroke-miterlimit:4;stroke-dasharray:none;stroke-opacity:1" /><path
       sodipodi:nodetypes="ccc"
       inkscape:connector-curvature="0"
       id="path856"
       d="m 224.5064,674.36304 c 13.13553,-3.22543 25.62612,-19.99434 39.59798,-5.65685 z"
       style="fill:#ff0000;stroke:#000000;stroke-width:1px;stroke-linecap:butt;stroke-linejoin:miter;stroke-opacity:1" /></g></svg>