<?xml version="1.0" encoding="UTF-8" standalone="no"?>
<!-- Created with Inkscape (http://www.inkscape.org/) -->

<svg
   xmlns:dc="http://purl.org/dc/elements/1.1/"
   xmlns:cc="http://creativecommons.org/ns#"
   xmlns:rdf="http://www.w3.org/1999/02/22-rdf-syntax-ns#"
   xmlns:svg="http://www.w3.org/2000/svg"
   xmlns="http://www.w3.org/2000/svg"
   xmlns:sodipodi="http://sodipodi.sourceforge.net/DTD/sodipodi-0.dtd"
   xmlns:inkscape="http://www.inkscape.org/namespaces/inkscape"
   width="740"
   height="1280"
   version="1.1"
   viewBox="0 0 740 1280"
   xml:space="preserve"
   id="svg18"
   sodipodi:docname="level18.svg"
   inkscape:version="0.92.5 (2060ec1f9f, 2020-04-08)"><defs
     id="defs22" /><sodipodi:namedview
     pagecolor="#ffffff"
     bordercolor="#666666"
     borderopacity="1"
     objecttolerance="10"
     gridtolerance="10"
     guidetolerance="10"
     inkscape:pageopacity="0"
     inkscape:pageshadow="2"
     inkscape:window-width="1920"
     inkscape:window-height="986"
     id="namedview20"
     showgrid="false"
     inkscape:zoom="1"
     inkscape:cx="488.50662"
     inkscape:cy="702.32923"
     inkscape:window-x="1909"
     inkscape:window-y="49"
     inkscape:window-maximized="1"
     inkscape:current-layer="svg18"
     inkscape:snap-bbox="true"
     inkscape:bbox-paths="true"
     inkscape:snap-bbox-edge-midpoints="true"
     inkscape:bbox-nodes="true"
     inkscape:snap-bbox-midpoints="true"
     inkscape:object-paths="true"
     inkscape:snap-intersection-paths="true"
     inkscape:snap-smooth-nodes="true"
     inkscape:snap-midpoints="true"
     inkscape:snap-object-midpoints="true"
     inkscape:snap-center="true"
     inkscape:snap-text-baseline="true"
     inkscape:snap-page="true"
     inkscape:snap-global="false" /><metadata
     id="metadata2"><rdf:RDF><cc:Work
         rdf:about=""><dc:format>image/svg+xml</dc:format><dc:type
           rdf:resource="http://purl.org/dc/dcmitype/StillImage" /><dc:title></dc:title></cc:Work></rdf:RDF></metadata><rect
     style="opacity:1;vector-effect:none;fill:#d4ff2a;fill-opacity:1;stroke:#000000;stroke-width:0.99999994;stroke-linecap:round;stroke-linejoin:miter;stroke-miterlimit:4;stroke-dasharray:none;stroke-dashoffset:0;stroke-opacity:1;paint-order:normal"
     id="rect821"
     width="739"
     height="739"
     x="0.49998033"
     y="270.49994" /><g
     id="g1068"
     transform="matrix(0.78361522,0,0,0.78361522,269.77956,238.73432)"><circle
       style="display:inline;fill:#ffffff;fill-opacity:1;stroke:#000000;stroke-width:6;stroke-linecap:round;stroke-linejoin:round;stroke-miterlimit:4;stroke-dasharray:none;stroke-dashoffset:0;stroke-opacity:1;paint-order:markers fill stroke"
       id="circle906-4"
       cx="137.79829"
       cy="688.32959"
       r="48.804577" /><path
       style="fill:#000000;stroke:#000000;stroke-width:1px;stroke-linecap:butt;stroke-linejoin:miter;stroke-opacity:1"
       d="m 88.68154,688.3771 97.30965,-3.4264 0.68528,9.594 -4.11168,13.7055 -85.31726,4.1117 c 0,0 -6.16751,-6.6815 -6.16751,-8.7373 0,-2.0558 -2.39848,-15.2475 -2.39848,-15.2475 z"
       id="path13849"
       sodipodi:nodetypes="cccccsc"
       inkscape:connector-curvature="0" /><path
       style="fill:none;stroke:#000000;stroke-width:6;stroke-linecap:round;stroke-linejoin:round;stroke-dasharray:none;stroke-opacity:1;paint-order:markers fill stroke"
       d="m 135.50354,739.7429 -33.64815,90.3638 44.30859,68.5738 -19.38262,80.4378"
       id="path13052"
       inkscape:connector-curvature="0"
       sodipodi:nodetypes="cccc" /><path
       style="fill:none;stroke:#000000;stroke-width:6;stroke-linecap:round;stroke-linejoin:round;stroke-dasharray:none;stroke-opacity:1;paint-order:markers fill stroke"
       d="M 101.85539,830.1067 65.79448,892.3811 78.3248,980.0875"
       id="path13054"
       inkscape:connector-curvature="0"
       sodipodi:nodetypes="ccc" /><path
       style="opacity:1;fill:none;fill-opacity:1;stroke:#000000;stroke-width:6;stroke-linecap:round;stroke-linejoin:round;stroke-miterlimit:4;stroke-dasharray:none;stroke-dashoffset:0;stroke-opacity:1;paint-order:markers fill stroke"
       d="m 51.67369,835.2024 1.93827,-72.6849 81.89158,-22.7746 33.43502,67.3547"
       id="path13851"
       inkscape:connector-curvature="0"
       sodipodi:nodetypes="cccc" /><circle
       style="fill:#ffffff;fill-opacity:1;stroke:#000000;stroke-width:1;stroke-linecap:round;stroke-linejoin:round;stroke-miterlimit:4;stroke-dasharray:none;stroke-dashoffset:0;stroke-opacity:1;paint-order:markers fill stroke"
       id="circle1043-52"
       cx="-666.5163"
       cy="-263.62332"
       transform="rotate(-125.01532)"
       r="9.7518816" /><circle
       transform="rotate(-92.018184)"
       style="fill:#000000;fill-opacity:1;stroke:none;stroke-width:1;stroke-linecap:round;stroke-linejoin:round;stroke-miterlimit:4;stroke-dasharray:none;stroke-dashoffset:0;stroke-opacity:1;paint-order:markers fill stroke"
       id="circle1045-0"
       cx="-700.07526"
       cy="146.94257"
       r="2.1805451" /><circle
       r="9.7518816"
       transform="rotate(-125.01532)"
       cy="-287.36383"
       cx="-652.31769"
       id="circle1532"
       style="fill:#ffffff;fill-opacity:1;stroke:#000000;stroke-width:1;stroke-linecap:round;stroke-linejoin:round;stroke-miterlimit:4;stroke-dasharray:none;stroke-dashoffset:0;stroke-opacity:1;paint-order:markers fill stroke" /><circle
       transform="rotate(-92.018184)"
       r="2.1805451"
       cy="119.29893"
       cx="-701.09595"
       id="circle1534"
       style="fill:#000000;fill-opacity:1;stroke:none;stroke-width:1;stroke-linecap:round;stroke-linejoin:round;stroke-miterlimit:4;stroke-dasharray:none;stroke-dashoffset:0;stroke-opacity:1;paint-order:markers fill stroke" /></g><rect
     y="270.25052"
     x="0.25057101"
     height="185.49883"
     width="739.49884"
     id="rect870"
     style="opacity:1;vector-effect:none;fill:#00ffff;fill-opacity:1;stroke:#000000;stroke-width:0.5011813;stroke-linecap:round;stroke-linejoin:miter;stroke-miterlimit:4;stroke-dasharray:none;stroke-dashoffset:0;stroke-opacity:1;paint-order:normal" /><path
     style="opacity:1;vector-effect:none;fill:#00ff72;fill-opacity:1;stroke:#000000;stroke-width:2.06025434;stroke-linecap:butt;stroke-linejoin:miter;stroke-miterlimit:4;stroke-dasharray:none;stroke-dashoffset:0;stroke-opacity:1;paint-order:markers stroke fill"
     d="M 392.40234 344.4707 A 54 54 0 0 0 349.52734 363.66797 A 54 54 0 0 0 339.13086 383.10352 A 54 54 0 0 0 298 364 A 54 54 0 0 0 244 418 A 54 54 0 0 0 244.23633 422.6582 A 33 33 0 0 0 242.28711 424.21289 A 54 54 0 0 0 198 401 A 54 54 0 0 0 187.13672 402.16406 A 33 33 0 0 0 170.10156 379.81641 A 33 33 0 0 0 137.42383 381.16016 A 54 54 0 0 0 98 364 A 54 54 0 0 0 49.474609 394.46289 A 33 33 0 0 0 19.863281 405.66602 A 54 54 0 0 0 0.25 401.10156 L 0.25 455.75 L 739.75 455.75 L 739.75 424.3418 A 54 54 0 0 0 721.77344 409.17773 A 54 54 0 0 0 677.01953 406.9375 A 33 33 0 0 0 675.10156 405.81641 A 33 33 0 0 0 635.39453 413.07031 A 54 54 0 0 0 615.9707 395.96094 A 54 54 0 0 0 575.28906 392.27148 A 33 33 0 0 0 560.10156 375.81641 A 33 33 0 0 0 517.14844 387.27539 A 54 54 0 0 0 449.85547 399.77148 A 54 54 0 0 0 443.77344 408.7832 A 54 54 0 0 0 425.61523 357.14062 A 54 54 0 0 0 392.40234 344.4707 z "
     id="path872" /><g
     transform="matrix(0.8382949,0,0,0.8382949,-55.43516,-136.89541)"
     style="display:inline"
     id="g974"><g
       transform="translate(1.3705584,6.1675129)"
       id="g1402"><path
         id="path1279"
         d="M 428.63616,766.51727 456.39595,646.75816 447.83602,749.5574"
         style="fill:none;stroke:#000000;stroke-width:7.75994253px;stroke-linecap:round;stroke-linejoin:round;stroke-miterlimit:4;stroke-dasharray:none;stroke-opacity:1"
         inkscape:connector-curvature="0" /><path
         id="path1281"
         d="m 456.39595,646.75816 27.7598,119.75911"
         style="fill:none;stroke:#000000;stroke-width:7.75994253px;stroke-linecap:round;stroke-linejoin:round;stroke-miterlimit:4;stroke-dasharray:none;stroke-opacity:1"
         inkscape:connector-curvature="0" /><path
         id="path1283"
         d="m 456.39595,588.1986 c -1.19999,0 -2.31998,0 -3.51997,0.08 v 0 c -30.87977,0.88 -55.03959,13.6799 -55.03959,29.19979 0,12.7199 16.47987,23.99982 40.6397,27.83979 -0.08,0.48 -0.24,0.95999 -0.24,1.43999 0,5.03996 8.15994,9.03993 18.15986,9.03993 9.99993,0 18.15987,-3.99997 18.15987,-9.03993 0,-0.48 -0.08,-0.95999 -0.24,-1.43999 24.15982,-3.83997 40.6397,-15.11989 40.6397,-27.83979 0,-15.19989 -23.27983,-27.8398 -53.5996,-29.11979 v 0 c -1.67999,-0.08 -3.27998,-0.15999 -4.95997,-0.15999 z"
         style="fill:#000000;fill-opacity:1;fill-rule:nonzero;stroke:#000000;stroke-width:3.99997044px;stroke-linecap:round;stroke-linejoin:round;stroke-miterlimit:4;stroke-dasharray:none;stroke-opacity:1"
         inkscape:connector-curvature="0" /><path
         id="path1285"
         d="m 474.55582,646.75816 c 0,5.03996 -8.15994,9.03993 -18.15987,9.03993 -9.99992,0 -18.15986,-3.99997 -18.15986,-9.03993 0,-5.03996 8.15994,-9.03993 18.15986,-9.03993 9.99993,0 18.15987,3.99997 18.15987,9.03993 z"
         style="fill:#a05a2c;fill-opacity:1;fill-rule:nonzero;stroke:none"
         inkscape:connector-curvature="0" /><path
         id="path1287"
         d="m 514.95552,617.47838 c 0,16.15988 -26.23981,29.27978 -58.55957,29.27978 -32.31976,0 -58.55956,-13.1199 -58.55956,-29.27978 0,-16.15988 26.2398,-29.27978 58.55956,-29.27978 32.31976,0 58.55957,13.1199 58.55957,29.27978 z"
         style="fill:#916f6f;fill-opacity:1;fill-rule:nonzero;stroke:none"
         inkscape:connector-curvature="0" /><path
         id="path1289"
         d="m 505.91558,609.95843 c 0,10.87992 -22.15983,19.75986 -49.51963,19.75986 -27.35979,0 -49.51963,-8.87994 -49.51963,-19.75986 0,-10.95992 22.15984,-19.83985 49.51963,-19.83985 27.3598,0 49.51963,8.87993 49.51963,19.83985 z"
         style="fill:#ff0000;fill-opacity:1;fill-rule:nonzero;stroke:none"
         inkscape:connector-curvature="0" /><path
         id="path1291"
         d="m 447.99602,596.99853 h 16.79987"
         style="fill:none;stroke:#000000;stroke-width:0.8799935px;stroke-linecap:butt;stroke-linejoin:miter;stroke-miterlimit:4;stroke-dasharray:none;stroke-opacity:1"
         inkscape:connector-curvature="0" /><path
         id="path1293"
         d="m 456.39595,597.39853 c -23.83982,0 -44.23967,6.79995 -48.63964,16.15988 4.39997,9.35993 24.79982,16.15988 48.63964,16.15988 23.83983,0 44.23967,-6.79995 48.63964,-16.15988 -4.39997,-9.35993 -24.79981,-16.15988 -48.63964,-16.15988 z"
         style="fill:#d40000;fill-opacity:1;fill-rule:nonzero;stroke:none"
         inkscape:connector-curvature="0" /><path
         id="path1295"
         d="m 421.43621,609.07844 h 69.91948"
         style="fill:none;stroke:#000000;stroke-width:0.8799935px;stroke-linecap:butt;stroke-linejoin:miter;stroke-miterlimit:4;stroke-dasharray:none;stroke-opacity:1"
         inkscape:connector-curvature="0" /><path
         id="path1297"
         d="m 430.39615,603.07848 h 52.07961"
         style="fill:none;stroke:#000000;stroke-width:1.03999233px;stroke-linecap:butt;stroke-linejoin:miter;stroke-miterlimit:4;stroke-dasharray:none;stroke-opacity:1"
         inkscape:connector-curvature="0" /><path
         id="path1299"
         d="m 447.99602,621.15835 h 16.79987"
         style="fill:none;stroke:#000000;stroke-width:0.8799935px;stroke-linecap:butt;stroke-linejoin:miter;stroke-miterlimit:4;stroke-dasharray:none;stroke-opacity:1"
         inkscape:connector-curvature="0" /><path
         id="path1301"
         d="m 430.39615,615.15839 h 52.07961"
         style="fill:none;stroke:#000000;stroke-width:1.03999233px;stroke-linecap:butt;stroke-linejoin:miter;stroke-miterlimit:4;stroke-dasharray:none;stroke-opacity:1"
         inkscape:connector-curvature="0" /></g><circle
       transform="scale(-1,1)"
       r="40.873699"
       cy="529.35223"
       cx="-619.91241"
       id="circle1358"
       style="display:inline;fill:#ffffff;fill-opacity:1;stroke:#000000;stroke-width:5.02498388;stroke-linecap:round;stroke-linejoin:round;stroke-miterlimit:4;stroke-dasharray:none;stroke-dashoffset:0;stroke-opacity:1;paint-order:markers fill stroke" /><path
       sodipodi:nodetypes="cccc"
       inkscape:connector-curvature="0"
       id="path1362"
       d="m 621.83426,572.41078 0.0838,83.90275 -32.99664,45.78058 16.23289,67.36651"
       style="fill:none;stroke:#000000;stroke-width:5.02498388;stroke-linecap:round;stroke-linejoin:round;stroke-dasharray:none;stroke-opacity:1;paint-order:markers fill stroke" /><path
       sodipodi:nodetypes="ccc"
       inkscape:connector-curvature="0"
       id="path1364"
       d="m 622.60332,657.68409 1.41919,58.32215 45.69879,57.69242"
       style="fill:none;stroke:#000000;stroke-width:5.02498388;stroke-linecap:round;stroke-linejoin:round;stroke-dasharray:none;stroke-opacity:1;paint-order:markers fill stroke" /><path
       sodipodi:nodetypes="ccccc"
       inkscape:connector-curvature="0"
       id="path1366"
       d="M 594.0466,637.96691 652.04259,615.4692 621.83426,572.41078 579.29555,608.95289 535.61197,550.5687"
       style="opacity:1;fill:none;fill-opacity:1;stroke:#000000;stroke-width:5.02498388;stroke-linecap:round;stroke-linejoin:round;stroke-miterlimit:4;stroke-dasharray:none;stroke-dashoffset:0;stroke-opacity:1;paint-order:markers fill stroke" /><circle
       r="8.1671743"
       transform="matrix(0.57379541,-0.81899867,-0.81899867,-0.57379541,0,0)"
       cy="-795.97009"
       cx="-97.690636"
       id="circle1368"
       style="fill:#ffffff;fill-opacity:1;stroke:#000000;stroke-width:0.83749729;stroke-linecap:round;stroke-linejoin:round;stroke-miterlimit:4;stroke-dasharray:none;stroke-dashoffset:0;stroke-opacity:1;paint-order:markers fill stroke" /><circle
       transform="matrix(0.03521668,-0.9993797,-0.9993797,-0.03521668,0,0)"
       r="1.8262006"
       cy="-610.45874"
       cx="-519.88702"
       id="circle1370"
       style="fill:#000000;fill-opacity:1;stroke:none;stroke-width:0.83749729;stroke-linecap:round;stroke-linejoin:round;stroke-miterlimit:4;stroke-dasharray:none;stroke-dashoffset:0;stroke-opacity:1;paint-order:markers fill stroke" /><circle
       style="fill:#ffffff;fill-opacity:1;stroke:#000000;stroke-width:0.83749729;stroke-linecap:round;stroke-linejoin:round;stroke-miterlimit:4;stroke-dasharray:none;stroke-dashoffset:0;stroke-opacity:1;paint-order:markers fill stroke"
       id="circle1376"
       cx="-85.799347"
       cy="-815.85266"
       transform="matrix(0.57379541,-0.81899867,-0.81899867,-0.57379541,0,0)"
       r="8.1671743" /><circle
       transform="matrix(0.03521668,-0.9993797,-0.9993797,-0.03521668,0,0)"
       style="fill:#000000;fill-opacity:1;stroke:none;stroke-width:0.83749729;stroke-linecap:round;stroke-linejoin:round;stroke-miterlimit:4;stroke-dasharray:none;stroke-dashoffset:0;stroke-opacity:1;paint-order:markers fill stroke"
       id="circle1378"
       cx="-520.74182"
       cy="-633.61017"
       r="1.8262006" /><path
       inkscape:connector-curvature="0"
       id="path1006"
       d="m 535.61197,550.5687 -28.95304,15.41878"
       style="fill:none;stroke:#666666;stroke-width:4;stroke-linecap:butt;stroke-linejoin:miter;stroke-miterlimit:4;stroke-dasharray:none;stroke-opacity:1" /><path
       sodipodi:nodetypes="cc"
       inkscape:connector-curvature="0"
       id="path1008"
       d="m 502.99494,558.5723 c 13.57732,-1.9561 20.12589,0.90365 9.11784,15.79256"
       style="opacity:1;vector-effect:none;fill:none;fill-opacity:1;stroke:#666666;stroke-width:4;stroke-linecap:butt;stroke-linejoin:miter;stroke-miterlimit:4;stroke-dasharray:none;stroke-dashoffset:0;stroke-opacity:1" /></g><g
     id="g1084"
     transform="translate(54.800776,-13.081475)"><circle
       r="8.2233505"
       cy="795.6308"
       cx="257.24753"
       id="path948"
       style="display:inline;opacity:1;vector-effect:none;fill:#ffffff;fill-opacity:1;stroke:none;stroke-width:2;stroke-linecap:round;stroke-linejoin:round;stroke-miterlimit:4;stroke-dasharray:none;stroke-dashoffset:0;stroke-opacity:1;paint-order:markers stroke fill" /><circle
       r="11.387291"
       cy="793.29773"
       cx="227.45374"
       id="path950"
       style="display:inline;opacity:1;vector-effect:none;fill:#ffffff;fill-opacity:1;stroke:none;stroke-width:2;stroke-linecap:round;stroke-linejoin:round;stroke-miterlimit:4;stroke-dasharray:none;stroke-dashoffset:0;stroke-opacity:1;paint-order:markers stroke fill" /><circle
       r="53.544498"
       cy="792.19171"
       cx="158.05025"
       id="path952"
       style="display:inline;opacity:1;vector-effect:none;fill:#ffffff;fill-opacity:1;stroke:none;stroke-width:2.46927381;stroke-linecap:round;stroke-linejoin:round;stroke-miterlimit:4;stroke-dasharray:none;stroke-dashoffset:0;stroke-opacity:1;paint-order:markers stroke fill" /><g
       transform="translate(-217.99689,536.92275)"
       inkscape:export-ydpi="96"
       inkscape:export-xdpi="96"
       id="g1424"
       style="display:inline"><path
         style="fill:#c87137;stroke:#000000;stroke-width:1;stroke-linecap:butt;stroke-linejoin:miter;stroke-miterlimit:4;stroke-dasharray:none;stroke-opacity:1;paint-order:markers fill stroke"
         d="m 349.26393,245.78457 c -9.71121,-6.57667 -12.98303,7.51681 -3.77278,14.0802 9.03262,6.43681 43.99838,8.2228 55.83243,1.91673 9.18128,-4.89248 9.55494,-20.98899 0.0623,-15.51863 -12.48336,7.19382 -39.6434,7.97248 -52.12195,-0.4783 z"
         id="path1419"
         inkscape:connector-curvature="0"
         sodipodi:nodetypes="sssss" /><path
         sodipodi:nodetypes="sssss"
         inkscape:connector-curvature="0"
         id="path1405"
         d="m 348.56648,253.99365 c -9.27921,-8.73047 -16.27733,5.90564 -5.46876,9.23454 10.80857,3.3289 52.46064,5.41495 63.10091,1.91673 10.64026,-3.49822 4.34317,-18.23941 -3.57195,-12.12667 -9.04307,6.98384 -44.19465,10.25753 -54.0602,0.9754 z"
         style="fill:#d40000;stroke:#000000;stroke-width:1;stroke-linecap:butt;stroke-linejoin:miter;stroke-miterlimit:4;stroke-dasharray:none;stroke-opacity:1;paint-order:markers fill stroke" /><path
         sodipodi:nodetypes="sssss"
         inkscape:connector-curvature="0"
         id="path1407"
         d="m 349.43525,260.34675 c -9.71121,-6.57667 -12.98303,7.51681 -3.77278,14.0802 9.03262,6.43681 43.99838,8.2228 55.83243,1.91673 9.18128,-4.89248 9.55494,-20.98899 0.0623,-15.51863 -12.48336,7.19382 -39.6434,7.97248 -52.12195,-0.4783 z"
         style="fill:#c87137;stroke:#000000;stroke-width:1;stroke-linecap:butt;stroke-linejoin:miter;stroke-miterlimit:4;stroke-dasharray:none;stroke-opacity:1;paint-order:markers fill stroke" /></g></g><g
     id="g1009"
     transform="matrix(0,-0.88372672,0.88372672,0,-219.37588,1140.1086)"><g
       inkscape:export-ydpi="96"
       inkscape:export-xdpi="96"
       id="g1523"
       style="display:inline"
       transform="translate(742.63166,191.23025)"><rect
         style="opacity:1;vector-effect:none;fill:#999999;fill-opacity:1;stroke:#000000;stroke-width:1;stroke-linecap:round;stroke-linejoin:round;stroke-miterlimit:4;stroke-dasharray:none;stroke-dashoffset:0;stroke-opacity:1;paint-order:markers fill stroke"
         id="rect1440"
         width="109.51182"
         height="32.950459"
         x="-270.38757"
         y="597.73169"
         ry="16.475229"
         rx="16.475229" /><path
         sodipodi:type="inkscape:offset"
         inkscape:radius="-0.60570508"
         inkscape:original="M -253.91211 597.73242 C -262.22211 597.73242 -269.03789 603.82935 -270.19531 611.80859 C -269.03789 619.78783 -262.22211 625.88477 -253.91211 625.88477 L -177.35156 625.88477 C -169.04156 625.88477 -162.22578 619.78783 -161.06836 611.80859 C -162.22578 603.82935 -169.04156 597.73242 -177.35156 597.73242 L -253.91211 597.73242 z "
         style="opacity:1;vector-effect:none;fill:#b3b3b3;fill-opacity:1;stroke:none;stroke-width:1;stroke-linecap:round;stroke-linejoin:round;stroke-miterlimit:4;stroke-dasharray:none;stroke-dashoffset:0;stroke-opacity:1;paint-order:markers fill stroke"
         id="rect1442"
         d="m -253.91211,598.33789 c -7.98215,0 -14.50864,5.82705 -15.66211,13.4707 1.15347,7.64366 7.67996,13.47071 15.66211,13.47071 h 76.56055 c 7.98215,0 14.50863,-5.82705 15.66211,-13.47071 -1.15348,-7.64365 -7.67996,-13.4707 -15.66211,-13.4707 z" /></g><g
       inkscape:export-ydpi="96"
       inkscape:export-xdpi="96"
       id="g1519"
       style="display:inline"
       transform="translate(746.62203,228.31784)"><path
         style="fill:#ff0000;stroke:#000000;stroke-width:1px;stroke-linecap:butt;stroke-linejoin:miter;stroke-opacity:1"
         d="m -239.66066,544.09735 43.7783,-0.60571 c 0,0 14.72108,-33.79102 11.64975,-58.89539 -3.77017,-30.81651 -55.27699,-34.64101 -62.37763,-13.7442 -4.00389,11.78323 2.65346,19.14704 7.39258,34.92846 l -5.89184,-15.96823 c 0,0 -18.4819,-1.87121 -12.47381,21.26044 3.77194,14.5223 17.92265,33.02463 17.92265,33.02463 z"
         id="path1451"
         inkscape:connector-curvature="0"
         sodipodi:nodetypes="ccssccsc" /><rect
         style="opacity:1;vector-effect:none;fill:#800000;fill-opacity:1;stroke:#000000;stroke-width:1;stroke-linecap:round;stroke-linejoin:round;stroke-miterlimit:4;stroke-dasharray:none;stroke-dashoffset:0;stroke-opacity:1;paint-order:markers fill stroke"
         id="rect1455"
         width="54.513626"
         height="34.888721"
         x="-245.50847"
         y="538.69659"
         ry="9.2512703"
         rx="9.2512703" /><rect
         ry="7.0231214"
         y="542.89807"
         x="-211.26089"
         height="26.485844"
         width="17.541325"
         id="rect1457"
         style="opacity:1;vector-effect:none;fill:#ffffff;fill-opacity:1;stroke:#000000;stroke-width:0.49424589;stroke-linecap:round;stroke-linejoin:round;stroke-miterlimit:4;stroke-dasharray:none;stroke-dashoffset:0;stroke-opacity:1;paint-order:markers fill stroke"
         rx="7.0231214" /></g></g><g
     transform="matrix(0,-0.88372672,-0.88372672,0,970.37491,992.3404)"
     id="g1025"><g
       transform="translate(742.63166,191.23025)"
       style="display:inline"
       id="g1015"
       inkscape:export-xdpi="96"
       inkscape:export-ydpi="96"><rect
         rx="16.475229"
         ry="16.475229"
         y="597.73169"
         x="-270.38757"
         height="32.950459"
         width="109.51182"
         id="rect1011"
         style="opacity:1;vector-effect:none;fill:#999999;fill-opacity:1;stroke:#000000;stroke-width:1;stroke-linecap:round;stroke-linejoin:round;stroke-miterlimit:4;stroke-dasharray:none;stroke-dashoffset:0;stroke-opacity:1;paint-order:markers fill stroke" /><path
         d="m -253.91211,598.33789 c -7.98215,0 -14.50864,5.82705 -15.66211,13.4707 1.15347,7.64366 7.67996,13.47071 15.66211,13.47071 h 76.56055 c 7.98215,0 14.50863,-5.82705 15.66211,-13.47071 -1.15348,-7.64365 -7.67996,-13.4707 -15.66211,-13.4707 z"
         id="path1013"
         style="opacity:1;vector-effect:none;fill:#b3b3b3;fill-opacity:1;stroke:none;stroke-width:1;stroke-linecap:round;stroke-linejoin:round;stroke-miterlimit:4;stroke-dasharray:none;stroke-dashoffset:0;stroke-opacity:1;paint-order:markers fill stroke"
         inkscape:original="M -253.91211 597.73242 C -262.22211 597.73242 -269.03789 603.82935 -270.19531 611.80859 C -269.03789 619.78783 -262.22211 625.88477 -253.91211 625.88477 L -177.35156 625.88477 C -169.04156 625.88477 -162.22578 619.78783 -161.06836 611.80859 C -162.22578 603.82935 -169.04156 597.73242 -177.35156 597.73242 L -253.91211 597.73242 z "
         inkscape:radius="-0.60570508"
         sodipodi:type="inkscape:offset" /></g><g
       transform="translate(746.62203,228.31784)"
       style="display:inline"
       id="g1023"
       inkscape:export-xdpi="96"
       inkscape:export-ydpi="96"><path
         sodipodi:nodetypes="ccssccsc"
         inkscape:connector-curvature="0"
         id="path1017"
         d="m -239.66066,544.09735 43.7783,-0.60571 c 0,0 14.72108,-33.79102 11.64975,-58.89539 -3.77017,-30.81651 -55.27699,-34.64101 -62.37763,-13.7442 -4.00389,11.78323 2.65346,19.14704 7.39258,34.92846 l -5.89184,-15.96823 c 0,0 -18.4819,-1.87121 -12.47381,21.26044 3.77194,14.5223 17.92265,33.02463 17.92265,33.02463 z"
         style="fill:#ff0000;stroke:#000000;stroke-width:1px;stroke-linecap:butt;stroke-linejoin:miter;stroke-opacity:1" /><rect
         rx="9.2512703"
         ry="9.2512703"
         y="538.69659"
         x="-245.50847"
         height="34.888721"
         width="54.513626"
         id="rect1019"
         style="opacity:1;vector-effect:none;fill:#800000;fill-opacity:1;stroke:#000000;stroke-width:1;stroke-linecap:round;stroke-linejoin:round;stroke-miterlimit:4;stroke-dasharray:none;stroke-dashoffset:0;stroke-opacity:1;paint-order:markers fill stroke" /><rect
         rx="7.0231214"
         style="opacity:1;vector-effect:none;fill:#ffffff;fill-opacity:1;stroke:#000000;stroke-width:0.49424589;stroke-linecap:round;stroke-linejoin:round;stroke-miterlimit:4;stroke-dasharray:none;stroke-dashoffset:0;stroke-opacity:1;paint-order:markers fill stroke"
         id="rect1021"
         width="17.541325"
         height="26.485844"
         x="-211.26089"
         y="542.89807"
         ry="7.0231214" /></g></g></svg>