<?xml version="1.0" encoding="UTF-8" standalone="no"?>
<!-- Created with Inkscape (http://www.inkscape.org/) -->

<svg
   xmlns:dc="http://purl.org/dc/elements/1.1/"
   xmlns:cc="http://creativecommons.org/ns#"
   xmlns:rdf="http://www.w3.org/1999/02/22-rdf-syntax-ns#"
   xmlns:svg="http://www.w3.org/2000/svg"
   xmlns="http://www.w3.org/2000/svg"
   xmlns:sodipodi="http://sodipodi.sourceforge.net/DTD/sodipodi-0.dtd"
   xmlns:inkscape="http://www.inkscape.org/namespaces/inkscape"
   width="740"
   height="1280"
   version="1.1"
   viewBox="0 0 740 1280"
   xml:space="preserve"
   id="svg18"
   sodipodi:docname="level11lose.svg"
   inkscape:version="0.92.5 (2060ec1f9f, 2020-04-08)"><defs
     id="defs22" /><sodipodi:namedview
     pagecolor="#ffffff"
     bordercolor="#666666"
     borderopacity="1"
     objecttolerance="10"
     gridtolerance="10"
     guidetolerance="10"
     inkscape:pageopacity="0"
     inkscape:pageshadow="2"
     inkscape:window-width="1920"
     inkscape:window-height="986"
     id="namedview20"
     showgrid="false"
     inkscape:zoom="0.70710678"
     inkscape:cx="417.18003"
     inkscape:cy="658.02237"
     inkscape:window-x="1909"
     inkscape:window-y="49"
     inkscape:window-maximized="1"
     inkscape:current-layer="svg18"
     inkscape:snap-bbox="true"
     inkscape:bbox-paths="true"
     inkscape:snap-bbox-edge-midpoints="true"
     inkscape:bbox-nodes="true"
     inkscape:snap-bbox-midpoints="true"
     inkscape:object-paths="true"
     inkscape:snap-intersection-paths="true"
     inkscape:snap-smooth-nodes="true"
     inkscape:snap-midpoints="true"
     inkscape:snap-object-midpoints="true"
     inkscape:snap-center="true"
     inkscape:snap-text-baseline="true"
     inkscape:snap-page="true"
     inkscape:snap-global="false" /><metadata
     id="metadata2"><rdf:RDF><cc:Work
         rdf:about=""><dc:format>image/svg+xml</dc:format><dc:type
           rdf:resource="http://purl.org/dc/dcmitype/StillImage" /><dc:title /></cc:Work></rdf:RDF></metadata><rect
     style="opacity:1;vector-effect:none;fill:#55faff;fill-opacity:1;stroke:#000000;stroke-width:0.99999994;stroke-linecap:round;stroke-linejoin:miter;stroke-miterlimit:4;stroke-dasharray:none;stroke-dashoffset:0;stroke-opacity:1;paint-order:normal"
     id="rect821"
     width="739"
     height="739"
     x="0.49998033"
     y="270.49994" /><rect
     y="780.14996"
     x="0.49998033"
     height="229.35001"
     width="739"
     id="rect823"
     style="opacity:1;vector-effect:none;fill:#5593ff;fill-opacity:1;stroke:#000000;stroke-width:0.99999988;stroke-linecap:round;stroke-linejoin:miter;stroke-miterlimit:4;stroke-dasharray:none;stroke-dashoffset:0;stroke-opacity:1;paint-order:normal" /><g
     id="g881"
     transform="translate(-15.9331)"><path
       sodipodi:nodetypes="ccccc"
       inkscape:connector-curvature="0"
       id="path827"
       d="M -48.5,887 H 206 L 300.33107,723.61379 H -48.5 Z"
       style="fill:#c87137;stroke:#502d16;stroke-width:2;stroke-linecap:butt;stroke-linejoin:round;stroke-miterlimit:4;stroke-dasharray:none;stroke-opacity:1;paint-order:markers fill stroke" /><path
       inkscape:connector-curvature="0"
       id="path831"
       d="M -48.5,756.29102 H 282.21023"
       style="opacity:1;vector-effect:none;fill:#c87137;fill-opacity:1;stroke:#502d16;stroke-width:2;stroke-linecap:butt;stroke-linejoin:round;stroke-miterlimit:4;stroke-dasharray:none;stroke-dashoffset:0;stroke-opacity:1;paint-order:markers fill stroke" /><path
       sodipodi:nodetypes="cc"
       inkscape:connector-curvature="0"
       id="path833"
       d="M -66.5,788.96826 H 262.59865"
       style="opacity:1;vector-effect:none;fill:#c87137;fill-opacity:1;stroke:#502d16;stroke-width:2;stroke-linecap:butt;stroke-linejoin:round;stroke-miterlimit:4;stroke-dasharray:none;stroke-dashoffset:0;stroke-opacity:1;paint-order:markers fill stroke" /><path
       sodipodi:nodetypes="cc"
       inkscape:connector-curvature="0"
       id="path835"
       d="M -64,821.64551 H 243.73243"
       style="opacity:1;vector-effect:none;fill:#c87137;fill-opacity:1;stroke:#502d16;stroke-width:2;stroke-linecap:butt;stroke-linejoin:round;stroke-miterlimit:4;stroke-dasharray:none;stroke-dashoffset:0;stroke-opacity:1;paint-order:markers fill stroke" /><path
       sodipodi:nodetypes="cc"
       inkscape:connector-curvature="0"
       id="path837"
       d="M -66,854.32275 H 224.86622"
       style="opacity:1;vector-effect:none;fill:#c87137;fill-opacity:1;stroke:#502d16;stroke-width:2;stroke-linecap:butt;stroke-linejoin:round;stroke-miterlimit:4;stroke-dasharray:none;stroke-dashoffset:0;stroke-opacity:1;paint-order:markers fill stroke" /></g><g
     transform="translate(73.814575,281.60656)"
     style="display:inline"
     id="g3568"><path
       inkscape:connector-curvature="0"
       id="path3563"
       d="m 281.18542,95.319923 c -1.89048,6.274507 3.85469,12.190347 1.65729,18.782527 -2.56679,7.70038 -17.40433,0.0115 -19.61116,8.83883 -4.52375,18.095 13.15736,12.88115 20.71602,20.43981 2.17538,2.17538 -2.04851,12.3721 0.82864,13.81068 8.0544,4.0272 17.38576,1.19905 15.19175,14.3631"
       style="fill:none;stroke:#000000;stroke-width:4;stroke-linecap:round;stroke-linejoin:round;stroke-miterlimit:4;stroke-dasharray:none;stroke-opacity:1" /><circle
       style="opacity:1;vector-effect:none;fill:#800000;fill-opacity:1;stroke:#000000;stroke-width:0.99999994;stroke-linecap:round;stroke-linejoin:round;stroke-miterlimit:4;stroke-dasharray:none;stroke-dashoffset:0;stroke-opacity:1;paint-order:markers fill stroke"
       id="circle3559"
       cx="281.18542"
       cy="95.319923"
       r="6.0766973" /><circle
       r="38.117474"
       cy="55.821381"
       cx="281.18542"
       id="path3557"
       style="opacity:1;vector-effect:none;fill:#ff2a2a;fill-opacity:1;stroke:#000000;stroke-width:0.99999994;stroke-linecap:round;stroke-linejoin:round;stroke-miterlimit:4;stroke-dasharray:none;stroke-dashoffset:0;stroke-opacity:1;paint-order:markers fill stroke" /></g><path
     style="fill:#ffffff;stroke:#000000;stroke-width:8;stroke-linecap:round;stroke-linejoin:round;stroke-opacity:1;stroke-miterlimit:4;stroke-dasharray:none"
     d="M 676,723.61379 V 415 L 590.56828,468 676,524.5"
     id="path998"
     inkscape:connector-curvature="0"
     sodipodi:nodetypes="cccc" /><g
     id="g1059"
     transform="matrix(0.77199708,0,0,0.77199708,497.79342,160.75806)"><path
   sodipodi:nodetypes="cc"
   inkscape:connector-curvature="0"
   id="path1000"
   d="m 607.75828,636.42229 c -190.21131,102.2993 176.59158,121.78656 0,0 z"
   style="fill:#c8b7b7;stroke:#000000;stroke-width:4;stroke-linecap:butt;stroke-linejoin:miter;stroke-miterlimit:4;stroke-dasharray:none;stroke-opacity:1;paint-order:markers fill stroke" /><path
   sodipodi:nodetypes="ccc"
   inkscape:connector-curvature="0"
   id="path1027"
   d="m 571.69583,644.15521 c 17.51295,-19.4424 21.09413,-13.94344 36.06245,-8.7283 20.02954,-7.80058 21.9506,10.35543 39.95153,15.44581"
   style="opacity:1;vector-effect:none;fill:none;fill-opacity:1;stroke:#000000;stroke-width:4;stroke-linecap:round;stroke-linejoin:miter;stroke-miterlimit:4;stroke-dasharray:none;stroke-dashoffset:0;stroke-opacity:1;paint-order:markers fill stroke" /><path
   inkscape:connector-curvature="0"
   id="path1043"
   d="m 607.75828,636.42229 -7.6014,-21.45622 h 21.74353 z"
   style="opacity:1;vector-effect:none;fill:#c8b7b7;fill-opacity:1;stroke:#000000;stroke-width:4;stroke-linecap:butt;stroke-linejoin:round;stroke-miterlimit:4;stroke-dasharray:none;stroke-dashoffset:0;stroke-opacity:1;paint-order:markers fill stroke" /><text
   id="text1052"
   y="692.21753"
   x="593.45386"
   style="font-style:normal;font-variant:normal;font-weight:normal;font-stretch:normal;font-size:40px;line-height:1.25;font-family:'Another Typewriter';-inkscape-font-specification:'Another Typewriter, Normal';font-variant-ligatures:normal;font-variant-caps:normal;font-variant-numeric:normal;font-feature-settings:normal;text-align:start;letter-spacing:0px;word-spacing:0px;writing-mode:lr-tb;text-anchor:start;fill:#ffff00;fill-opacity:1;stroke:#000000;stroke-width:4;stroke-linejoin:round;stroke-miterlimit:4;stroke-dasharray:none;paint-order:markers stroke fill"
   xml:space="preserve"><tspan
     y="692.21753"
     x="593.45386"
     id="tspan1050"
     sodipodi:role="line">$</tspan></text>


</g><g
     id="g1126"
     transform="translate(20.5,40.538507)"><path
       id="ellipse1085"
       d="m 285.5,799.53906 v 46.92188 H 382 A 14.5,23.461493 0 0 0 396.5,823 14.5,23.461493 0 0 0 382,799.53906 Z"
       style="opacity:1;vector-effect:none;fill:#c87137;fill-opacity:1;stroke:#502d16;stroke-width:2;stroke-linecap:butt;stroke-linejoin:round;stroke-miterlimit:4;stroke-dasharray:none;stroke-dashoffset:0;stroke-opacity:1;paint-order:markers fill stroke"
       inkscape:connector-curvature="0" /><ellipse
       ry="23.461493"
       rx="14.5"
       cy="823"
       cx="285.5"
       id="path1083"
       style="opacity:1;vector-effect:none;fill:#c87137;fill-opacity:1;stroke:#502d16;stroke-width:2;stroke-linecap:butt;stroke-linejoin:round;stroke-miterlimit:4;stroke-dasharray:none;stroke-dashoffset:0;stroke-opacity:1;paint-order:markers fill stroke" /></g><circle
     style="fill:#ffffff;fill-opacity:1;stroke:#000000;stroke-width:5.00161505;stroke-linecap:round;stroke-linejoin:round;stroke-miterlimit:4;stroke-dasharray:none;stroke-dashoffset:0;stroke-opacity:1;paint-order:markers fill stroke"
     id="circle5587-3"
     cx="500.09741"
     cy="505.44778"
     r="40.683617" /><circle
     transform="rotate(45.834143)"
     r="6.2609935"
     cy="9.5292091"
     cx="701.80511"
     id="circle5589-9"
     style="fill:#ffffff;fill-opacity:1;stroke:#000000;stroke-width:0.83360249;stroke-linecap:round;stroke-linejoin:round;stroke-miterlimit:4;stroke-dasharray:none;stroke-dashoffset:0;stroke-opacity:1;paint-order:markers fill stroke" /><circle
     r="1.8177079"
     cy="-372.63428"
     cx="590.51569"
     id="circle5591-6"
     style="fill:#000000;fill-opacity:1;stroke:none;stroke-width:0.83360249;stroke-linecap:round;stroke-linejoin:round;stroke-miterlimit:4;stroke-dasharray:none;stroke-dashoffset:0;stroke-opacity:1;paint-order:markers fill stroke"
     transform="rotate(78.831276)" /><circle
     r="1.8177079"
     cy="-372.63428"
     cx="590.51569"
     id="circle5593-3"
     style="fill:#000000;fill-opacity:1;stroke:none;stroke-width:0.83360249;stroke-linecap:round;stroke-linejoin:round;stroke-miterlimit:4;stroke-dasharray:none;stroke-dashoffset:0;stroke-opacity:1;paint-order:markers fill stroke"
     transform="rotate(78.831276)" /><circle
     r="1.8177079"
     cy="-372.63428"
     cx="590.51569"
     id="circle5595-6"
     style="fill:#000000;fill-opacity:1;stroke:none;stroke-width:0.83360249;stroke-linecap:round;stroke-linejoin:round;stroke-miterlimit:4;stroke-dasharray:none;stroke-dashoffset:0;stroke-opacity:1;paint-order:markers fill stroke"
     transform="rotate(78.831276)" /><circle
     transform="rotate(45.834143)"
     r="6.2609935"
     cy="-7.5663042"
     cx="718.40997"
     id="circle5605-8"
     style="fill:#ffffff;fill-opacity:1;stroke:#000000;stroke-width:0.83360249;stroke-linecap:round;stroke-linejoin:round;stroke-miterlimit:4;stroke-dasharray:none;stroke-dashoffset:0;stroke-opacity:1;paint-order:markers fill stroke" /><circle
     r="1.8177079"
     cy="-396.01523"
     cx="595.13202"
     id="circle5607-4"
     style="fill:#000000;fill-opacity:1;stroke:none;stroke-width:0.83360249;stroke-linecap:round;stroke-linejoin:round;stroke-miterlimit:4;stroke-dasharray:none;stroke-dashoffset:0;stroke-opacity:1;paint-order:markers fill stroke"
     transform="rotate(78.831276)" /><circle
     r="1.8177079"
     cy="-396.01523"
     cx="595.13202"
     id="circle5609-5"
     style="fill:#000000;fill-opacity:1;stroke:none;stroke-width:0.83360249;stroke-linecap:round;stroke-linejoin:round;stroke-miterlimit:4;stroke-dasharray:none;stroke-dashoffset:0;stroke-opacity:1;paint-order:markers fill stroke"
     transform="rotate(78.831276)" /><circle
     r="1.8177079"
     cy="-396.01523"
     cx="595.13202"
     id="circle5611-1"
     style="fill:#000000;fill-opacity:1;stroke:none;stroke-width:0.83360249;stroke-linecap:round;stroke-linejoin:round;stroke-miterlimit:4;stroke-dasharray:none;stroke-dashoffset:0;stroke-opacity:1;paint-order:markers fill stroke"
     transform="rotate(78.831276)" /><path
     inkscape:connector-curvature="0"
     style="fill:none;stroke:#000000;stroke-width:0.83360249px;stroke-linecap:butt;stroke-linejoin:miter;stroke-opacity:1"
     d="m 483.27976,495.83997 6.6649,6.86689"
     id="path5615-4" /><path
     inkscape:connector-curvature="0"
     style="fill:none;stroke:#000000;stroke-width:0.83360249px;stroke-linecap:butt;stroke-linejoin:miter;stroke-opacity:1"
     d="m 495.59974,502.70686 7.87679,-6.46296"
     id="path5617-4" /><path
     inkscape:connector-curvature="0"
     style="fill:none;stroke:#000000;stroke-width:0.83360249px;stroke-linecap:butt;stroke-linejoin:miter;stroke-opacity:1"
     d="m 481.66399,529.77052 c -7.484,-11.12718 12.61549,-5.09125 28.27546,-1.81771 z"
     id="path5619-4"
     sodipodi:nodetypes="ccc" /><path
     inkscape:connector-curvature="0"
     style="fill:none;fill-opacity:1;stroke:#000000;stroke-width:5.00161505;stroke-linecap:round;stroke-linejoin:round;stroke-miterlimit:4;stroke-dasharray:none;stroke-dashoffset:0;stroke-opacity:1;paint-order:markers fill stroke"
     d="m 500.04525,548.77921 12.56748,73.12006 22.85005,62.26634 59.41001,44.55747"
     id="path5621-0" /><path
     inkscape:connector-curvature="0"
     style="fill:none;fill-opacity:1;stroke:#000000;stroke-width:5.00161505;stroke-linecap:round;stroke-linejoin:round;stroke-miterlimit:4;stroke-dasharray:none;stroke-dashoffset:0;stroke-opacity:1;paint-order:markers fill stroke"
     d="m 512.61273,621.89927 -67.40752,46.27129 38.27378,53.69755"
     id="path5633-4" /><path
     inkscape:connector-curvature="0"
     style="fill:none;fill-opacity:1;stroke:#000000;stroke-width:5.00161505;stroke-linecap:round;stroke-linejoin:round;stroke-miterlimit:4;stroke-dasharray:none;stroke-dashoffset:0;stroke-opacity:1;paint-order:markers fill stroke"
     d="m 389.22264,540.21045 58.83883,56.5538 51.98378,-47.98504 61.69501,26.27752 13.71001,61.1238"
     id="path5635-8" /><circle
     r="8.1291933"
     transform="rotate(103.88883)"
     cy="-612.43658"
     cx="374.12604"
     id="circle1043-5-6-3"
     style="fill:#ffffff;fill-opacity:1;stroke:#000000;stroke-width:0.83360249;stroke-linecap:round;stroke-linejoin:round;stroke-miterlimit:4;stroke-dasharray:none;stroke-dashoffset:0;stroke-opacity:1;paint-order:markers fill stroke" /><circle
     r="1.8177079"
     cy="-715.14587"
     cx="-15.216002"
     id="circle1045-9-2-9"
     style="fill:#000000;fill-opacity:1;stroke:none;stroke-width:0.83360249;stroke-linecap:round;stroke-linejoin:round;stroke-miterlimit:4;stroke-dasharray:none;stroke-dashoffset:0;stroke-opacity:1;paint-order:markers fill stroke"
     transform="rotate(136.88596)" /><circle
     style="fill:#ffffff;fill-opacity:1;stroke:#000000;stroke-width:0.83360249;stroke-linecap:round;stroke-linejoin:round;stroke-miterlimit:4;stroke-dasharray:none;stroke-dashoffset:0;stroke-opacity:1;paint-order:markers fill stroke"
     id="circle4841-6"
     cx="379.55579"
     cy="-590.4776"
     transform="rotate(103.88883)"
     r="8.1291933" /><circle
     style="fill:#000000;fill-opacity:1;stroke:none;stroke-width:0.83360249;stroke-linecap:round;stroke-linejoin:round;stroke-miterlimit:4;stroke-dasharray:none;stroke-dashoffset:0;stroke-opacity:1;paint-order:markers fill stroke"
     id="circle4843-6"
     cx="1.2967433"
     cy="-699.68597"
     r="1.8177079"
     transform="rotate(136.88596)" /><rect
     transform="rotate(-16.504929)"
     ry="6.0726557"
     y="703.76978"
     x="159.83737"
     height="69.633057"
     width="52.832058"
     id="rect1025"
     style="opacity:1;vector-effect:none;fill:#e3dedb;fill-opacity:1;stroke:#000000;stroke-width:2.38857579;stroke-linecap:butt;stroke-linejoin:miter;stroke-miterlimit:4;stroke-dasharray:none;stroke-dashoffset:0;stroke-opacity:1;paint-order:normal" /><path
     inkscape:connector-curvature="0"
     id="path1027-6"
     d="m 372.91692,643.93478 c -2.42452,34.21714 23.75979,3.45461 32.77923,8.35077 18.47796,10.03065 -5.08096,25.80346 -15.79717,25.28214"
     style="fill:none;stroke:#000000;stroke-width:2.38857579;stroke-linecap:butt;stroke-linejoin:miter;stroke-miterlimit:4;stroke-dasharray:2.38857575, 2.38857575;stroke-dashoffset:0;stroke-opacity:1" /><circle
     transform="rotate(-16.504929)"
     r="3.8646109"
     cy="717.90747"
     cx="177.04379"
     id="circle1029"
     style="opacity:1;vector-effect:none;fill:none;fill-opacity:1;stroke:#ff0000;stroke-width:2.38857579;stroke-linecap:butt;stroke-linejoin:miter;stroke-miterlimit:4;stroke-dasharray:none;stroke-dashoffset:0;stroke-opacity:1;paint-order:normal" /><path
     inkscape:connector-curvature="0"
     id="path1031"
     d="m 380.01601,677.46588 10.76295,5.8426"
     style="opacity:1;vector-effect:none;fill:none;fill-opacity:1;stroke:#ff0000;stroke-width:2.38857579;stroke-linecap:butt;stroke-linejoin:miter;stroke-miterlimit:4;stroke-dasharray:none;stroke-dashoffset:0;stroke-opacity:1" /><path
     style="fill:none;stroke:#ff0000;stroke-width:2.38857579;stroke-linecap:butt;stroke-linejoin:miter;stroke-miterlimit:4;stroke-dasharray:none;stroke-opacity:1"
     d="m 388.31879,675.00571 -5.84261,10.76294"
     id="path1033"
     inkscape:connector-curvature="0" /><ellipse
     transform="matrix(-0.95261354,-0.30418325,-0.30418325,0.95261354,0,0)"
     ry="25.881031"
     rx="31.338341"
     cy="274.57199"
     cx="-630.23853"
     id="ellipse1035"
     style="opacity:1;vector-effect:none;fill:#ffffff;fill-opacity:1;stroke:#ffffff;stroke-width:1.07394457;stroke-linecap:round;stroke-linejoin:round;stroke-miterlimit:4;stroke-dasharray:none;stroke-dashoffset:0;stroke-opacity:1;paint-order:markers stroke fill" /><path
     inkscape:connector-curvature="0"
     id="path1037"
     d="m 547.64957,498.10285 c 2.38979,-1.72066 8.19979,-4.92781 18.31056,-10.10754 13.15892,-6.74129 17.57167,-9.6271 18.35592,-12.00422 0.81158,-2.46 -2.19301,-3.42139 -10.74781,-3.43902 -3.18211,-0.007 -5.82326,-0.21043 -7.72314,-0.59616 -4.8262,-0.97985 -8.93914,-5.25889 -11.07811,-11.52549 -0.707,-2.07131 -1.17601,-4.2465 -1.67443,-7.76567 -1.22733,-8.66568 -1.4518,-10.09056 -1.89288,-12.01548 -1.35315,-5.90537 -3.9179,-10.56878 -8.00669,-14.55831 -2.71183,-2.64599 -6.17579,-5.03726 -9.92363,-6.85055 -2.40931,-1.16568 -7.96369,-2.94333 -10.43167,-3.3386 -7.92061,-1.26855 -14.47485,-0.35424 -20.01044,2.79143 -3.95926,2.24991 -6.48274,4.41704 -13.1814,11.32003 -4.85993,5.00819 -6.35326,6.36756 -8.67349,7.89551 -4.99011,3.28616 -10.47477,4.12456 -14.69862,2.24689 -1.7464,-0.77635 -4.22582,-2.27253 -6.82185,-4.11656 -3.42098,-2.43002 -5.73907,-3.7782 -7.41826,-4.31439 -3.13548,-1.00121 -4.04493,0.92124 -2.57803,5.44956 1.12425,3.47057 1.95772,5.24282 8.30066,17.65025 5.46656,10.69313 7.09176,14.08061 8.03169,16.74078 0.4414,1.24924 0.63962,1.6179 0.88346,1.64316 0.17291,0.0179 1.59716,0.13446 3.165,0.25901 27.46389,2.18175 53.44929,10.59013 75.11939,24.30721 0.84673,0.53597 1.5795,0.98728 1.62838,1.00288 0.0489,0.0156 0.52831,-0.28802 1.06539,-0.67472 z m -37.4692,-29.47266 c -1.16445,-0.61708 -2.75072,-2.17062 -3.43745,-3.36655 -1.06411,-1.85314 -1.44239,-3.87208 -1.12149,-5.98572 0.0872,-0.57457 0.14545,-1.07016 0.12938,-1.10131 -0.0161,-0.0311 -0.88157,0.13132 -1.92333,0.36104 l -1.89412,0.41766 -0.50397,0.97022 c -1.56234,3.00772 -4.19977,4.54169 -5.67077,3.2982 -0.52854,-0.44679 -0.72003,-1.13584 -0.65083,-2.3419 0.0496,-0.86363 0.13776,-1.17386 0.59738,-2.10109 0.29657,-0.59832 0.5218,-1.1577 0.50051,-1.24306 -0.0213,-0.0854 -0.20713,-0.2593 -0.41296,-0.38651 -1.09186,-0.67484 -2.29358,-2.29743 -2.4783,-3.34623 -0.19742,-1.1209 0.50655,-2.01818 1.72657,-2.20067 0.7148,-0.10692 1.01279,-0.0566 2.43085,0.4107 1.31705,0.434 1.74656,0.64197 2.32055,1.12369 0.3874,0.32512 0.80095,0.63244 0.919,0.68292 0.11805,0.0505 1.4367,-0.17059 2.93034,-0.49129 l 2.7157,-0.58308 -0.25953,-1.1496 c -0.30595,-1.35526 -0.32537,-3.34822 -0.0461,-4.73089 l 0.19947,-0.98759 -1.79131,-1.945 c -1.72811,-1.87637 -1.80979,-1.94359 -2.31467,-1.90494 -3.21631,0.24625 -5.97194,-0.92654 -6.27029,-2.66863 -0.0922,-0.53857 -0.0558,-0.70984 0.25344,-1.19 0.63078,-0.97954 2.43388,-1.68778 4.31614,-1.69535 0.60696,-0.002 0.61002,-0.005 0.69554,-0.6526 0.14298,-1.0821 0.83573,-2.95336 1.27967,-3.45664 0.82755,-0.93816 1.98156,-1.08317 2.88647,-0.36271 0.97461,0.77595 1.56647,3.11955 1.33058,5.26866 l -0.14331,1.30569 1.1346,1.23306 1.13459,1.23305 0.94837,-0.92506 c 1.14156,-1.11351 3.24111,-2.32937 4.94007,-2.86082 4.39421,-1.37456 9.46619,0.004 12.66896,3.4435 1.50014,1.611 2.66929,3.94028 3.03456,6.04572 0.11482,0.66185 0.2174,1.22683 0.22796,1.25551 0.0106,0.0287 0.74934,-0.10732 1.64173,-0.30222 l 1.62252,-0.35436 0.6501,-1.1654 c 0.84155,-1.50861 1.81012,-2.53357 2.94986,-3.12161 1.83534,-0.94692 3.12544,-0.33671 3.33679,1.57829 0.0717,0.64984 -0.51428,2.78636 -0.98286,3.58341 l -0.28132,0.47852 0.81468,0.64812 c 2.34088,1.8623 2.92161,4.08301 1.32115,5.05202 -0.77104,0.46683 -1.57782,0.46157 -3.12407,-0.0204 -1.18247,-0.36857 -1.56922,-0.56337 -2.46026,-1.23926 l -1.05724,-0.80196 -2.51268,0.53966 c -1.38197,0.29681 -2.57417,0.5898 -2.64933,0.65108 -0.0752,0.0613 -0.31184,0.51321 -0.52596,1.00428 -0.59277,1.35945 -2.06279,3.23902 -3.2168,4.113 l -0.39564,0.29964 1.92026,2.10698 1.92027,2.10697 1.12754,-0.0937 c 1.00737,-0.0837 1.30833,-0.0365 2.82351,0.44328 1.47831,0.4681 1.76157,0.60457 2.20726,1.06347 0.28121,0.28955 0.5678,0.70789 0.63687,0.92963 0.15696,0.50396 -0.12599,1.42271 -0.5767,1.87258 -0.71551,0.71418 -2.58502,1.28408 -4.2908,1.308 -0.2536,0.004 -0.30857,0.10968 -0.42336,0.8173 -0.46142,2.84455 -1.91023,4.5459 -3.45329,4.05525 -0.53031,-0.16869 -1.40639,-1.19592 -1.66241,-1.94938 -0.42994,-1.26527 -0.54479,-3.55769 -0.22796,-4.54991 0.10151,-0.31792 -0.0755,-0.58665 -1.22571,-1.86033 l -1.34436,-1.48874 -0.66667,1.1951 c -0.97126,1.74114 -2.16028,2.90517 -3.87517,3.79374 -2.6899,1.39377 -5.71299,1.37029 -8.42224,-0.0654 z m 8.18415,-10.59458 c 0.0735,-0.23017 -1.32075,-5.22407 -1.43949,-5.15594 -0.20803,0.11934 -3.98629,3.33179 -4.01151,3.41076 -0.0112,0.0352 1.20636,0.45566 2.70575,0.93444 1.49939,0.47877 2.73475,0.84361 2.74525,0.81074 z m 5.09463,-2.83698 c 2.73348,-0.0642 4.79311,-2.5068 4.34407,-5.15174 -0.13726,-0.80855 -0.73416,-1.9891 -1.27875,-2.52915 -0.70058,-0.69474 -2.17213,-1.2629 -3.23888,-1.25053 -1.10963,0.0129 -2.53269,0.66675 -3.25144,1.494 -0.63358,0.72921 -1.10114,1.9434 -1.14465,2.97253 -0.0616,1.45588 0.87558,3.07824 2.22466,3.85129 0.92637,0.53082 1.33357,0.63737 2.34499,0.6136 z m -10.33891,-3.28447 c 2.80699,-0.0958 4.80138,-2.46092 4.37033,-5.18268 -0.12405,-0.7833 -0.71802,-1.93949 -1.29079,-2.51256 -0.68624,-0.68661 -2.16362,-1.25787 -3.22131,-1.2456 -1.75316,0.0203 -3.55538,1.31536 -4.11065,2.95378 -0.36871,1.08792 -0.34478,2.31361 0.0641,3.28378 0.66204,1.57085 2.50555,2.76072 4.18831,2.70328 z"
     style="fill:#000000;stroke:#ffffff;stroke-width:5;stroke-miterlimit:4;stroke-dasharray:none;paint-order:markers stroke fill" /><g
     id="g888"
     transform="translate(-93.9331)"><path
       style="fill:#c87137;stroke:#502d16;stroke-width:2;stroke-linecap:butt;stroke-linejoin:round;stroke-miterlimit:4;stroke-dasharray:none;stroke-opacity:1;paint-order:markers fill stroke"
       d="m 878.3662,887 h -254.5 L 529.53514,723.61379 H 878.3662 Z"
       id="path866"
       inkscape:connector-curvature="0"
       sodipodi:nodetypes="ccccc" /><path
       style="opacity:1;vector-effect:none;fill:#c87137;fill-opacity:1;stroke:#502d16;stroke-width:2;stroke-linecap:butt;stroke-linejoin:round;stroke-miterlimit:4;stroke-dasharray:none;stroke-dashoffset:0;stroke-opacity:1;paint-order:markers fill stroke"
       d="M 878.3662,756.29102 H 547.65597"
       id="path868"
       inkscape:connector-curvature="0" /><path
       style="opacity:1;vector-effect:none;fill:#c87137;fill-opacity:1;stroke:#502d16;stroke-width:2;stroke-linecap:butt;stroke-linejoin:round;stroke-miterlimit:4;stroke-dasharray:none;stroke-dashoffset:0;stroke-opacity:1;paint-order:markers fill stroke"
       d="M 896.3662,788.96826 H 567.26755"
       id="path870"
       inkscape:connector-curvature="0"
       sodipodi:nodetypes="cc" /><path
       style="opacity:1;vector-effect:none;fill:#c87137;fill-opacity:1;stroke:#502d16;stroke-width:2;stroke-linecap:butt;stroke-linejoin:round;stroke-miterlimit:4;stroke-dasharray:none;stroke-dashoffset:0;stroke-opacity:1;paint-order:markers fill stroke"
       d="M 893.8662,821.64551 H 586.13377"
       id="path872"
       inkscape:connector-curvature="0"
       sodipodi:nodetypes="cc" /><path
       style="opacity:1;vector-effect:none;fill:#c87137;fill-opacity:1;stroke:#502d16;stroke-width:2;stroke-linecap:butt;stroke-linejoin:round;stroke-miterlimit:4;stroke-dasharray:none;stroke-dashoffset:0;stroke-opacity:1;paint-order:markers fill stroke"
       d="M 895.8662,854.32275 H 604.99998"
       id="path874"
       inkscape:connector-curvature="0"
       sodipodi:nodetypes="cc" /></g><g
     transform="matrix(-0.83844249,0,0,0.83844249,-248.41483,-368.34395)"
     style="display:inline"
     id="g1648"><circle
       transform="scale(-1,1)"
       style="display:inline;fill:#ffffff;fill-opacity:1;stroke:#000000;stroke-width:5.6497612;stroke-linecap:round;stroke-linejoin:round;stroke-miterlimit:4;stroke-dasharray:none;stroke-dashoffset:0;stroke-opacity:1;paint-order:markers fill stroke"
       id="circle906-4-1-0-3"
       cx="508.08551"
       cy="1033.0549"
       r="45.955704" /><path
       style="fill:#000000;stroke:#000000;stroke-width:0.94162685px;stroke-linecap:butt;stroke-linejoin:miter;stroke-opacity:1"
       d="m -461.83586,1033.0997 -91.62938,-3.2264 -0.64527,9.0339 3.87166,12.9056 80.33703,3.8716 c 0,0 5.80749,-6.2914 5.80749,-8.2273 0,-1.9358 2.25847,-14.3574 2.25847,-14.3574 z"
       id="path13849-7-5-7"
       sodipodi:nodetypes="cccccsc"
       inkscape:connector-curvature="0" /><path
       style="fill:none;stroke:#000000;stroke-width:5.6497612;stroke-linecap:round;stroke-linejoin:round;stroke-dasharray:none;stroke-opacity:1;paint-order:markers fill stroke"
       d="m -504.47912,1080.9206 6.40751,103.9058 -57.60942,37.5625 -66.56549,56.6447"
       id="path13052-4-0-9"
       inkscape:connector-curvature="0"
       sodipodi:nodetypes="cccc" /><path
       style="fill:none;stroke:#000000;stroke-width:5.6497612;stroke-linecap:round;stroke-linejoin:round;stroke-dasharray:none;stroke-opacity:1;paint-order:markers fill stroke"
       d="m -498.07161,1184.8264 -11.86394,71.2624 49.42638,47.1996"
       id="path13054-4-4-0"
       inkscape:connector-curvature="0"
       sodipodi:nodetypes="ccc" /><path
       style="opacity:1;fill:none;fill-opacity:1;stroke:#000000;stroke-width:5.6497612;stroke-linecap:round;stroke-linejoin:round;stroke-miterlimit:4;stroke-dasharray:none;stroke-dashoffset:0;stroke-opacity:1;paint-order:markers fill stroke"
       d="m -505.92471,1081.4671 -65.18529,39.2698 -41.44675,-51.7871"
       id="path13851-1-5-9"
       inkscape:connector-curvature="0"
       sodipodi:nodetypes="ccc" /><circle
       style="fill:#ffffff;fill-opacity:1;stroke:#000000;stroke-width:1.13621819;stroke-linecap:round;stroke-linejoin:round;stroke-miterlimit:4;stroke-dasharray:none;stroke-dashoffset:0;stroke-opacity:1;paint-order:markers fill stroke"
       id="circle1043-52-8-0-1"
       cx="-1159.225"
       cy="-159.68982"
       transform="matrix(0.57379544,-0.81899865,-0.81899865,-0.57379544,0,0)"
       r="11.080264" /><circle
       transform="matrix(0.03521667,-0.9993797,-0.9993797,-0.03521667,0,0)"
       style="fill:#000000;fill-opacity:1;stroke:none;stroke-width:0.94162685;stroke-linecap:round;stroke-linejoin:round;stroke-miterlimit:4;stroke-dasharray:none;stroke-dashoffset:0;stroke-opacity:1;paint-order:markers fill stroke"
       id="circle1045-0-9-6-5"
       cx="-1063.3237"
       cy="503.47159"
       r="2.0532598" /><circle
       r="9.1826334"
       transform="matrix(0.57379544,-0.81899865,-0.81899865,-0.57379544,0,0)"
       cy="-181.59393"
       cx="-1146.5613"
       id="circle1532-3-9-7"
       style="fill:#ffffff;fill-opacity:1;stroke:#000000;stroke-width:0.94162685;stroke-linecap:round;stroke-linejoin:round;stroke-miterlimit:4;stroke-dasharray:none;stroke-dashoffset:0;stroke-opacity:1;paint-order:markers fill stroke" /><circle
       transform="matrix(0.03521667,-0.9993797,-0.9993797,-0.03521667,0,0)"
       r="2.0532598"
       cy="476.66843"
       cx="-1063.6384"
       id="circle1534-7-9-7"
       style="fill:#000000;fill-opacity:1;stroke:none;stroke-width:0.94162685;stroke-linecap:round;stroke-linejoin:round;stroke-miterlimit:4;stroke-dasharray:none;stroke-dashoffset:0;stroke-opacity:1;paint-order:markers fill stroke" /><circle
       transform="scale(-1,1)"
       r="9.5488949"
       cy="1073.5483"
       cx="523.87012"
       id="path915-0-9"
       style="opacity:1;vector-effect:none;fill:#ff2a2a;fill-opacity:1;stroke:#000000;stroke-width:2.24679875;stroke-linecap:round;stroke-linejoin:round;stroke-miterlimit:4;stroke-dasharray:none;stroke-dashoffset:0;stroke-opacity:1;paint-order:markers stroke fill" /><path
       sodipodi:nodetypes="ccc"
       inkscape:connector-curvature="0"
       id="path883-8-7"
       d="m -592.11088,1173.6782 72.28502,1.6162 13.90115,-93.8273"
       style="opacity:1;fill:none;fill-opacity:1;stroke:#000000;stroke-width:5.6497612;stroke-linecap:round;stroke-linejoin:round;stroke-miterlimit:4;stroke-dasharray:none;stroke-dashoffset:0;stroke-opacity:1;paint-order:markers fill stroke" /></g></svg>