<?xml version="1.0" encoding="UTF-8" standalone="no"?>
<!-- Created with Inkscape (http://www.inkscape.org/) -->

<svg
   xmlns:dc="http://purl.org/dc/elements/1.1/"
   xmlns:cc="http://creativecommons.org/ns#"
   xmlns:rdf="http://www.w3.org/1999/02/22-rdf-syntax-ns#"
   xmlns:svg="http://www.w3.org/2000/svg"
   xmlns="http://www.w3.org/2000/svg"
   xmlns:sodipodi="http://sodipodi.sourceforge.net/DTD/sodipodi-0.dtd"
   xmlns:inkscape="http://www.inkscape.org/namespaces/inkscape"
   width="740"
   height="1280"
   version="1.1"
   viewBox="0 0 740 1280"
   xml:space="preserve"
   id="svg18"
   sodipodi:docname="level18win.svg"
   inkscape:version="0.92.5 (2060ec1f9f, 2020-04-08)"><defs
     id="defs22" /><sodipodi:namedview
     pagecolor="#ffffff"
     bordercolor="#666666"
     borderopacity="1"
     objecttolerance="10"
     gridtolerance="10"
     guidetolerance="10"
     inkscape:pageopacity="0"
     inkscape:pageshadow="2"
     inkscape:window-width="1920"
     inkscape:window-height="986"
     id="namedview20"
     showgrid="false"
     inkscape:zoom="1"
     inkscape:cx="560.25214"
     inkscape:cy="746.33107"
     inkscape:window-x="1909"
     inkscape:window-y="49"
     inkscape:window-maximized="1"
     inkscape:current-layer="svg18"
     inkscape:snap-bbox="true"
     inkscape:bbox-paths="true"
     inkscape:snap-bbox-edge-midpoints="true"
     inkscape:bbox-nodes="true"
     inkscape:snap-bbox-midpoints="true"
     inkscape:object-paths="true"
     inkscape:snap-intersection-paths="true"
     inkscape:snap-smooth-nodes="true"
     inkscape:snap-midpoints="true"
     inkscape:snap-object-midpoints="true"
     inkscape:snap-center="true"
     inkscape:snap-text-baseline="true"
     inkscape:snap-page="true"
     inkscape:snap-global="true" /><metadata
     id="metadata2"><rdf:RDF><cc:Work
         rdf:about=""><dc:format>image/svg+xml</dc:format><dc:type
           rdf:resource="http://purl.org/dc/dcmitype/StillImage" /><dc:title /></cc:Work></rdf:RDF></metadata><rect
     style="opacity:1;vector-effect:none;fill:#d4ff2a;fill-opacity:1;stroke:#000000;stroke-width:0.99999994;stroke-linecap:round;stroke-linejoin:miter;stroke-miterlimit:4;stroke-dasharray:none;stroke-dashoffset:0;stroke-opacity:1;paint-order:normal"
     id="rect821"
     width="739"
     height="739"
     x="0.49998033"
     y="270.49994" /><rect
     y="270.49994"
     x="0.49998033"
     height="185.49883"
     width="739.49884"
     id="rect870"
     style="opacity:1;vector-effect:none;fill:#00ffff;fill-opacity:1;stroke:#000000;stroke-width:0.5011813;stroke-linecap:round;stroke-linejoin:miter;stroke-miterlimit:4;stroke-dasharray:none;stroke-dashoffset:0;stroke-opacity:1;paint-order:normal" /><path
     inkscape:connector-curvature="0"
     style="opacity:1;vector-effect:none;fill:#00ff72;fill-opacity:1;stroke:#000000;stroke-width:2.06025434;stroke-linecap:butt;stroke-linejoin:miter;stroke-miterlimit:4;stroke-dasharray:none;stroke-dashoffset:0;stroke-opacity:1;paint-order:markers stroke fill"
     d="m 392.65175,344.7201 a 54,54 0 0 0 -42.875,19.19727 54,54 0 0 0 -10.39648,19.43555 54,54 0 0 0 -41.13086,-19.10352 54,54 0 0 0 -54,54 54,54 0 0 0 0.23633,4.6582 33,33 0 0 0 -1.94922,1.55469 54,54 0 0 0 -44.28711,-23.21289 54,54 0 0 0 -10.86328,1.16406 33,33 0 0 0 -17.03516,-22.34765 33,33 0 0 0 -32.67773,1.34375 A 54,54 0 0 0 98.249406,364.2494 54,54 0 0 0 49.724015,394.71229 33,33 0 0 0 20.112687,405.91542 54,54 0 0 0 0.49940813,401.35096 V 455.9994 H 739.99941 v -31.4082 a 54,54 0 0 0 -17.97656,-15.16407 54,54 0 0 0 -44.75391,-2.24023 33,33 0 0 0 -1.91797,-1.12109 33,33 0 0 0 -39.70703,7.2539 54,54 0 0 0 -19.42383,-17.10937 54,54 0 0 0 -40.68164,-3.68946 33,33 0 0 0 -15.1875,-16.45507 33,33 0 0 0 -42.95312,11.45898 54,54 0 0 0 -67.29297,12.49609 54,54 0 0 0 -6.08203,9.01172 54,54 0 0 0 -18.15821,-51.64258 54,54 0 0 0 -33.21289,-12.66992 z"
     id="path872" /><g
     id="g1402"
     transform="matrix(0.8382949,0,0,0.8382949,-54.286228,-131.72522)"><path
       inkscape:connector-curvature="0"
       style="fill:none;stroke:#000000;stroke-width:7.75994253px;stroke-linecap:round;stroke-linejoin:round;stroke-miterlimit:4;stroke-dasharray:none;stroke-opacity:1"
       d="M 428.63616,766.51727 456.39595,646.75816 447.83602,749.5574"
       id="path1279" /><path
       inkscape:connector-curvature="0"
       style="fill:none;stroke:#000000;stroke-width:7.75994253px;stroke-linecap:round;stroke-linejoin:round;stroke-miterlimit:4;stroke-dasharray:none;stroke-opacity:1"
       d="m 456.39595,646.75816 27.7598,119.75911"
       id="path1281" /><path
       inkscape:connector-curvature="0"
       style="fill:#000000;fill-opacity:1;fill-rule:nonzero;stroke:#000000;stroke-width:3.99997044px;stroke-linecap:round;stroke-linejoin:round;stroke-miterlimit:4;stroke-dasharray:none;stroke-opacity:1"
       d="m 456.39595,588.1986 c -1.19999,0 -2.31998,0 -3.51997,0.08 v 0 c -30.87977,0.88 -55.03959,13.6799 -55.03959,29.19979 0,12.7199 16.47987,23.99982 40.6397,27.83979 -0.08,0.48 -0.24,0.95999 -0.24,1.43999 0,5.03996 8.15994,9.03993 18.15986,9.03993 9.99993,0 18.15987,-3.99997 18.15987,-9.03993 0,-0.48 -0.08,-0.95999 -0.24,-1.43999 24.15982,-3.83997 40.6397,-15.11989 40.6397,-27.83979 0,-15.19989 -23.27983,-27.8398 -53.5996,-29.11979 v 0 c -1.67999,-0.08 -3.27998,-0.15999 -4.95997,-0.15999 z"
       id="path1283" /><path
       inkscape:connector-curvature="0"
       style="fill:#a05a2c;fill-opacity:1;fill-rule:nonzero;stroke:none"
       d="m 474.55582,646.75816 c 0,5.03996 -8.15994,9.03993 -18.15987,9.03993 -9.99992,0 -18.15986,-3.99997 -18.15986,-9.03993 0,-5.03996 8.15994,-9.03993 18.15986,-9.03993 9.99993,0 18.15987,3.99997 18.15987,9.03993 z"
       id="path1285" /><path
       inkscape:connector-curvature="0"
       style="fill:#916f6f;fill-opacity:1;fill-rule:nonzero;stroke:none"
       d="m 514.95552,617.47838 c 0,16.15988 -26.23981,29.27978 -58.55957,29.27978 -32.31976,0 -58.55956,-13.1199 -58.55956,-29.27978 0,-16.15988 26.2398,-29.27978 58.55956,-29.27978 32.31976,0 58.55957,13.1199 58.55957,29.27978 z"
       id="path1287" /><path
       inkscape:connector-curvature="0"
       style="fill:#ff0000;fill-opacity:1;fill-rule:nonzero;stroke:none"
       d="m 505.91558,609.95843 c 0,10.87992 -22.15983,19.75986 -49.51963,19.75986 -27.35979,0 -49.51963,-8.87994 -49.51963,-19.75986 0,-10.95992 22.15984,-19.83985 49.51963,-19.83985 27.3598,0 49.51963,8.87993 49.51963,19.83985 z"
       id="path1289" /><path
       inkscape:connector-curvature="0"
       style="fill:none;stroke:#000000;stroke-width:0.8799935px;stroke-linecap:butt;stroke-linejoin:miter;stroke-miterlimit:4;stroke-dasharray:none;stroke-opacity:1"
       d="m 447.99602,596.99853 h 16.79987"
       id="path1291" /><path
       inkscape:connector-curvature="0"
       style="fill:#d40000;fill-opacity:1;fill-rule:nonzero;stroke:none"
       d="m 456.39595,597.39853 c -23.83982,0 -44.23967,6.79995 -48.63964,16.15988 4.39997,9.35993 24.79982,16.15988 48.63964,16.15988 23.83983,0 44.23967,-6.79995 48.63964,-16.15988 -4.39997,-9.35993 -24.79981,-16.15988 -48.63964,-16.15988 z"
       id="path1293" /><path
       inkscape:connector-curvature="0"
       style="fill:none;stroke:#000000;stroke-width:0.8799935px;stroke-linecap:butt;stroke-linejoin:miter;stroke-miterlimit:4;stroke-dasharray:none;stroke-opacity:1"
       d="m 421.43621,609.07844 h 69.91948"
       id="path1295" /><path
       inkscape:connector-curvature="0"
       style="fill:none;stroke:#000000;stroke-width:1.03999233px;stroke-linecap:butt;stroke-linejoin:miter;stroke-miterlimit:4;stroke-dasharray:none;stroke-opacity:1"
       d="m 430.39615,603.07848 h 52.07961"
       id="path1297" /><path
       inkscape:connector-curvature="0"
       style="fill:none;stroke:#000000;stroke-width:0.8799935px;stroke-linecap:butt;stroke-linejoin:miter;stroke-miterlimit:4;stroke-dasharray:none;stroke-opacity:1"
       d="m 447.99602,621.15835 h 16.79987"
       id="path1299" /><path
       inkscape:connector-curvature="0"
       style="fill:none;stroke:#000000;stroke-width:1.03999233px;stroke-linecap:butt;stroke-linejoin:miter;stroke-miterlimit:4;stroke-dasharray:none;stroke-opacity:1"
       d="m 430.39615,615.15839 h 52.07961"
       id="path1301" /></g><g
     id="g1009"
     transform="matrix(0,-0.88372672,0.88372672,0,-219.37588,1140.1086)"><g
       inkscape:export-ydpi="96"
       inkscape:export-xdpi="96"
       id="g1523"
       style="display:inline"
       transform="translate(742.63166,191.23025)"><rect
         style="opacity:1;vector-effect:none;fill:#999999;fill-opacity:1;stroke:#000000;stroke-width:1;stroke-linecap:round;stroke-linejoin:round;stroke-miterlimit:4;stroke-dasharray:none;stroke-dashoffset:0;stroke-opacity:1;paint-order:markers fill stroke"
         id="rect1440"
         width="109.51182"
         height="32.950459"
         x="-270.38757"
         y="597.73169"
         ry="16.475229"
         rx="16.475229" /><path
         sodipodi:type="inkscape:offset"
         inkscape:radius="-0.60570508"
         inkscape:original="M -253.91211 597.73242 C -262.22211 597.73242 -269.03789 603.82935 -270.19531 611.80859 C -269.03789 619.78783 -262.22211 625.88477 -253.91211 625.88477 L -177.35156 625.88477 C -169.04156 625.88477 -162.22578 619.78783 -161.06836 611.80859 C -162.22578 603.82935 -169.04156 597.73242 -177.35156 597.73242 L -253.91211 597.73242 z "
         style="opacity:1;vector-effect:none;fill:#b3b3b3;fill-opacity:1;stroke:none;stroke-width:1;stroke-linecap:round;stroke-linejoin:round;stroke-miterlimit:4;stroke-dasharray:none;stroke-dashoffset:0;stroke-opacity:1;paint-order:markers fill stroke"
         id="rect1442"
         d="m -253.91211,598.33789 c -7.98215,0 -14.50864,5.82705 -15.66211,13.4707 1.15347,7.64366 7.67996,13.47071 15.66211,13.47071 h 76.56055 c 7.98215,0 14.50863,-5.82705 15.66211,-13.47071 -1.15348,-7.64365 -7.67996,-13.4707 -15.66211,-13.4707 z" /></g><g
       inkscape:export-ydpi="96"
       inkscape:export-xdpi="96"
       id="g1519"
       style="display:inline"
       transform="translate(746.62203,228.31784)"><path
         style="fill:#ff0000;stroke:#000000;stroke-width:1px;stroke-linecap:butt;stroke-linejoin:miter;stroke-opacity:1"
         d="m -239.66066,544.09735 43.7783,-0.60571 c 0,0 14.72108,-33.79102 11.64975,-58.89539 -3.77017,-30.81651 -55.27699,-34.64101 -62.37763,-13.7442 -4.00389,11.78323 2.65346,19.14704 7.39258,34.92846 l -5.89184,-15.96823 c 0,0 -18.4819,-1.87121 -12.47381,21.26044 3.77194,14.5223 17.92265,33.02463 17.92265,33.02463 z"
         id="path1451"
         inkscape:connector-curvature="0"
         sodipodi:nodetypes="ccssccsc" /><rect
         style="opacity:1;vector-effect:none;fill:#800000;fill-opacity:1;stroke:#000000;stroke-width:1;stroke-linecap:round;stroke-linejoin:round;stroke-miterlimit:4;stroke-dasharray:none;stroke-dashoffset:0;stroke-opacity:1;paint-order:markers fill stroke"
         id="rect1455"
         width="54.513626"
         height="34.888721"
         x="-245.50847"
         y="538.69659"
         ry="9.2512703"
         rx="9.2512703" /><rect
         ry="7.0231214"
         y="542.89807"
         x="-211.26089"
         height="26.485844"
         width="17.541325"
         id="rect1457"
         style="opacity:1;vector-effect:none;fill:#ffffff;fill-opacity:1;stroke:#000000;stroke-width:0.49424589;stroke-linecap:round;stroke-linejoin:round;stroke-miterlimit:4;stroke-dasharray:none;stroke-dashoffset:0;stroke-opacity:1;paint-order:markers fill stroke"
         rx="7.0231214" /></g></g><g
     transform="matrix(0,-0.88372672,-0.88372672,0,970.37491,992.3404)"
     id="g1025"><g
       transform="translate(742.63166,191.23025)"
       style="display:inline"
       id="g1015"
       inkscape:export-xdpi="96"
       inkscape:export-ydpi="96"><rect
         rx="16.475229"
         ry="16.475229"
         y="597.73169"
         x="-270.38757"
         height="32.950459"
         width="109.51182"
         id="rect1011"
         style="opacity:1;vector-effect:none;fill:#999999;fill-opacity:1;stroke:#000000;stroke-width:1;stroke-linecap:round;stroke-linejoin:round;stroke-miterlimit:4;stroke-dasharray:none;stroke-dashoffset:0;stroke-opacity:1;paint-order:markers fill stroke" /><path
         d="m -253.91211,598.33789 c -7.98215,0 -14.50864,5.82705 -15.66211,13.4707 1.15347,7.64366 7.67996,13.47071 15.66211,13.47071 h 76.56055 c 7.98215,0 14.50863,-5.82705 15.66211,-13.47071 -1.15348,-7.64365 -7.67996,-13.4707 -15.66211,-13.4707 z"
         id="path1013"
         style="opacity:1;vector-effect:none;fill:#b3b3b3;fill-opacity:1;stroke:none;stroke-width:1;stroke-linecap:round;stroke-linejoin:round;stroke-miterlimit:4;stroke-dasharray:none;stroke-dashoffset:0;stroke-opacity:1;paint-order:markers fill stroke"
         inkscape:original="M -253.91211 597.73242 C -262.22211 597.73242 -269.03789 603.82935 -270.19531 611.80859 C -269.03789 619.78783 -262.22211 625.88477 -253.91211 625.88477 L -177.35156 625.88477 C -169.04156 625.88477 -162.22578 619.78783 -161.06836 611.80859 C -162.22578 603.82935 -169.04156 597.73242 -177.35156 597.73242 L -253.91211 597.73242 z "
         inkscape:radius="-0.60570508"
         sodipodi:type="inkscape:offset" /></g><g
       transform="translate(746.62203,228.31784)"
       style="display:inline"
       id="g1023"
       inkscape:export-xdpi="96"
       inkscape:export-ydpi="96"><path
         sodipodi:nodetypes="ccssccsc"
         inkscape:connector-curvature="0"
         id="path1017"
         d="m -239.66066,544.09735 43.7783,-0.60571 c 0,0 14.72108,-33.79102 11.64975,-58.89539 -3.77017,-30.81651 -55.27699,-34.64101 -62.37763,-13.7442 -4.00389,11.78323 2.65346,19.14704 7.39258,34.92846 l -5.89184,-15.96823 c 0,0 -18.4819,-1.87121 -12.47381,21.26044 3.77194,14.5223 17.92265,33.02463 17.92265,33.02463 z"
         style="fill:#ff0000;stroke:#000000;stroke-width:1px;stroke-linecap:butt;stroke-linejoin:miter;stroke-opacity:1" /><rect
         rx="9.2512703"
         ry="9.2512703"
         y="538.69659"
         x="-245.50847"
         height="34.888721"
         width="54.513626"
         id="rect1019"
         style="opacity:1;vector-effect:none;fill:#800000;fill-opacity:1;stroke:#000000;stroke-width:1;stroke-linecap:round;stroke-linejoin:round;stroke-miterlimit:4;stroke-dasharray:none;stroke-dashoffset:0;stroke-opacity:1;paint-order:markers fill stroke" /><rect
         rx="7.0231214"
         style="opacity:1;vector-effect:none;fill:#ffffff;fill-opacity:1;stroke:#000000;stroke-width:0.49424589;stroke-linecap:round;stroke-linejoin:round;stroke-miterlimit:4;stroke-dasharray:none;stroke-dashoffset:0;stroke-opacity:1;paint-order:markers fill stroke"
         id="rect1021"
         width="17.541325"
         height="26.485844"
         x="-211.26089"
         y="542.89807"
         ry="7.0231214" /></g></g><g
     id="g913"
     transform="translate(-393,11)"><g
       transform="translate(405.69565,58.500005)"
       id="g1135"><path
         style="fill:none;stroke:#666666;stroke-width:3.35317969;stroke-linecap:butt;stroke-linejoin:miter;stroke-miterlimit:4;stroke-dasharray:none;stroke-opacity:1"
         d="m 393.56562,324.64352 -24.27118,12.92549"
         id="path1006-6"
         inkscape:connector-curvature="0" /><path
         style="opacity:1;vector-effect:none;fill:none;fill-opacity:1;stroke:#666666;stroke-width:3.35317969;stroke-linecap:butt;stroke-linejoin:miter;stroke-miterlimit:4;stroke-dasharray:none;stroke-dashoffset:0;stroke-opacity:1"
         d="m 366.22293,331.3529 c 11.3818,-1.63979 16.87143,0.75753 7.64344,13.23882"
         id="path1008-1"
         inkscape:connector-curvature="0"
         sodipodi:nodetypes="cc" /></g><g
       id="g970"
       style="display:inline"
       transform="matrix(0.80217229,0,0,0.80217229,338.06855,-137.97525)"><circle
         r="41.758862"
         cy="541.02448"
         cx="621.78125"
         id="circle5704"
         style="fill:#ffffff;fill-opacity:1;stroke:#000000;stroke-width:5.1338048;stroke-linecap:round;stroke-linejoin:round;stroke-miterlimit:4;stroke-dasharray:none;stroke-dashoffset:0;stroke-opacity:1;paint-order:markers fill stroke" /><circle
         transform="rotate(-32.997133)"
         r="9.731411"
         cy="788.40778"
         cx="201.75954"
         id="circle5706"
         style="fill:#ffffff;fill-opacity:1;stroke:#000000;stroke-width:0.85563415;stroke-linecap:round;stroke-linejoin:round;stroke-miterlimit:4;stroke-dasharray:none;stroke-dashoffset:0;stroke-opacity:1;paint-order:markers fill stroke" /><circle
         transform="rotate(-32.997133)"
         r="12.064311"
         cy="794.12372"
         cx="218.87222"
         id="circle5712"
         style="fill:#ffffff;fill-opacity:1;stroke:#000000;stroke-width:0.85563415;stroke-linecap:round;stroke-linejoin:round;stroke-miterlimit:4;stroke-dasharray:none;stroke-dashoffset:0;stroke-opacity:1;paint-order:markers fill stroke" /><circle
         r="1.8657489"
         cy="553.68555"
         cx="592.96246"
         id="circle5714"
         style="fill:#000000;fill-opacity:1;stroke:none;stroke-width:0.85563415;stroke-linecap:round;stroke-linejoin:round;stroke-miterlimit:4;stroke-dasharray:none;stroke-dashoffset:0;stroke-opacity:1;paint-order:markers fill stroke" /><circle
         r="1.8657489"
         cy="549.15979"
         cx="610.42767"
         id="circle5716"
         style="fill:#000000;fill-opacity:1;stroke:none;stroke-width:0.85563415;stroke-linecap:round;stroke-linejoin:round;stroke-miterlimit:4;stroke-dasharray:none;stroke-dashoffset:0;stroke-opacity:1;paint-order:markers fill stroke" /><circle
         r="10.365272"
         cy="573.66034"
         cx="617.25983"
         id="path5720"
         style="opacity:1;fill:#ff0000;fill-opacity:1;stroke:#000000;stroke-width:0.85563415;stroke-linecap:round;stroke-linejoin:round;stroke-miterlimit:4;stroke-dasharray:none;stroke-dashoffset:0;stroke-opacity:1;paint-order:markers fill stroke" /><path
         inkscape:connector-curvature="0"
         sodipodi:nodetypes="cccc"
         id="path9352"
         d="m 638.19767,582.36717 24.04742,64.67929 -33.99811,61.77702 6.63382,59.28935"
         style="fill:none;stroke:#000000;stroke-width:5.1338048;stroke-linecap:round;stroke-linejoin:round;stroke-dasharray:none;stroke-opacity:1" /><path
         inkscape:connector-curvature="0"
         sodipodi:nodetypes="ccc"
         id="path9354"
         d="m 662.24509,647.04646 8.29221,70.06923 20.31592,60.05608"
         style="fill:none;stroke:#000000;stroke-width:5.1338048;stroke-linecap:round;stroke-linejoin:round;stroke-dasharray:none;stroke-opacity:1" /><path
         inkscape:connector-curvature="0"
         id="path10808"
         d="m 557.34854,625.4867 45.19263,12.85294 35.24186,-55.97247 48.92413,5.80455 -45.60718,-63.02084"
         style="opacity:1;fill:none;fill-opacity:1;stroke:#000000;stroke-width:5.1338048;stroke-linecap:round;stroke-linejoin:round;stroke-miterlimit:4;stroke-dasharray:none;stroke-dashoffset:0;stroke-opacity:1;paint-order:markers fill stroke" /></g></g><g
     style="display:inline"
     id="g4981"
     transform="matrix(-0.80948801,0,0,0.80948801,-546.94948,552.68202)"><g
       id="g4766"><circle
         r="48.804577"
         cy="269.35016"
         cx="-1095.7184"
         id="circle2342"
         style="fill:#ffffff;fill-opacity:1;stroke:#000000;stroke-width:6;stroke-linecap:round;stroke-linejoin:round;stroke-miterlimit:4;stroke-dasharray:none;stroke-dashoffset:0;stroke-opacity:1;paint-order:markers fill stroke" /><path
         inkscape:connector-curvature="0"
         id="path2345"
         d="m -1219.3636,560.93963 -23.2994,-75.38071 86.3451,-60.30457 32.2082,71.26904 74.6954,4.11167"
         style="opacity:1;fill:none;fill-opacity:1;stroke:#000000;stroke-width:6;stroke-linecap:round;stroke-linejoin:round;stroke-miterlimit:4;stroke-dasharray:none;stroke-dashoffset:0;stroke-opacity:1;paint-order:markers fill stroke" /><path
         inkscape:connector-curvature="0"
         sodipodi:nodetypes="cc"
         id="path2347"
         d="m -1156.3179,425.25435 34.264,-111.01523"
         style="opacity:1;fill:none;fill-opacity:1;stroke:#000000;stroke-width:6;stroke-linecap:round;stroke-linejoin:round;stroke-miterlimit:4;stroke-dasharray:none;stroke-dashoffset:0;stroke-opacity:1;paint-order:markers fill stroke" /><path
         inkscape:connector-curvature="0"
         id="path2349"
         d="m -1263.2214,293.68075 65.1015,32.8934 75.3807,-12.33503 -75.3807,43.17259 -106.9036,-21.24365"
         style="opacity:1;fill:none;fill-opacity:1;stroke:#000000;stroke-width:6;stroke-linecap:round;stroke-linejoin:round;stroke-miterlimit:4;stroke-dasharray:none;stroke-dashoffset:0;stroke-opacity:1;paint-order:markers fill stroke" /><path
         inkscape:connector-curvature="0"
         sodipodi:nodetypes="ccc"
         id="path2422"
         d="m -1131.4561,276.68694 c -4.3101,21.96715 8.2939,17.15347 18.8981,15.5061 z"
         style="fill:none;stroke:#000000;stroke-width:1px;stroke-linecap:round;stroke-linejoin:round;stroke-opacity:1" /><path
         inkscape:connector-curvature="0"
         id="path3895"
         d="m -1139.4514,256.0929 63.4781,56.45189 10.9027,-4.60337 8.4799,-7.51077 -74.3808,-63.96265 -7.0262,6.54163 -5.5725,10.17588 z"
         style="fill:#000000;stroke:#000000;stroke-width:1px;stroke-linecap:butt;stroke-linejoin:miter;stroke-opacity:1" /><g
         id="g4746"
         transform="rotate(80.393351,-970.95921,91.807499)"><circle
           r="9.7518816"
           transform="rotate(-32.997134)"
           cy="-227.9151"
           cx="-848.2196"
           id="circle4742"
           style="fill:#ffffff;fill-opacity:1;stroke:#000000;stroke-width:1;stroke-linecap:round;stroke-linejoin:round;stroke-miterlimit:4;stroke-dasharray:none;stroke-dashoffset:0;stroke-opacity:1;paint-order:markers fill stroke" /><circle
           r="2.1805451"
           cy="277.5069"
           cx="-836.08844"
           id="circle4744"
           style="fill:#000000;fill-opacity:1;stroke:none;stroke-width:1;stroke-linecap:round;stroke-linejoin:round;stroke-miterlimit:4;stroke-dasharray:none;stroke-dashoffset:0;stroke-opacity:1;paint-order:markers fill stroke" /></g><g
         transform="rotate(80.393351,-971.334,109.19628)"
         id="g4752"><circle
           style="fill:#ffffff;fill-opacity:1;stroke:#000000;stroke-width:1;stroke-linecap:round;stroke-linejoin:round;stroke-miterlimit:4;stroke-dasharray:none;stroke-dashoffset:0;stroke-opacity:1;paint-order:markers fill stroke"
           id="circle4748"
           cx="-848.2196"
           cy="-227.9151"
           transform="rotate(-32.997134)"
           r="9.7518816" /><circle
           style="fill:#000000;fill-opacity:1;stroke:none;stroke-width:1;stroke-linecap:round;stroke-linejoin:round;stroke-miterlimit:4;stroke-dasharray:none;stroke-dashoffset:0;stroke-opacity:1;paint-order:markers fill stroke"
           id="circle4750"
           cx="-836.08844"
           cy="277.5069"
           r="2.1805451" /></g></g></g><g
     style="display:inline"
     id="g1424"
     inkscape:export-xdpi="96"
     inkscape:export-ydpi="96"
     transform="rotate(41.297992,-282.79539,683.91244)"><path
       sodipodi:nodetypes="sssss"
       inkscape:connector-curvature="0"
       id="path1419"
       d="m 349.26393,245.78457 c -9.71121,-6.57667 -12.98303,7.51681 -3.77278,14.0802 9.03262,6.43681 43.99838,8.2228 55.83243,1.91673 9.18128,-4.89248 9.55494,-20.98899 0.0623,-15.51863 -12.48336,7.19382 -39.6434,7.97248 -52.12195,-0.4783 z"
       style="fill:#c87137;stroke:#000000;stroke-width:1;stroke-linecap:butt;stroke-linejoin:miter;stroke-miterlimit:4;stroke-dasharray:none;stroke-opacity:1;paint-order:markers fill stroke" /><path
       style="fill:#d40000;stroke:#000000;stroke-width:1;stroke-linecap:butt;stroke-linejoin:miter;stroke-miterlimit:4;stroke-dasharray:none;stroke-opacity:1;paint-order:markers fill stroke"
       d="m 348.56648,253.99365 c -9.27921,-8.73047 -16.27733,5.90564 -5.46876,9.23454 10.80857,3.3289 52.46064,5.41495 63.10091,1.91673 10.64026,-3.49822 4.34317,-18.23941 -3.57195,-12.12667 -9.04307,6.98384 -44.19465,10.25753 -54.0602,0.9754 z"
       id="path1405"
       inkscape:connector-curvature="0"
       sodipodi:nodetypes="sssss" /><path
       style="fill:#c87137;stroke:#000000;stroke-width:1;stroke-linecap:butt;stroke-linejoin:miter;stroke-miterlimit:4;stroke-dasharray:none;stroke-opacity:1;paint-order:markers fill stroke"
       d="m 349.43525,260.34675 c -9.71121,-6.57667 -12.98303,7.51681 -3.77278,14.0802 9.03262,6.43681 43.99838,8.2228 55.83243,1.91673 9.18128,-4.89248 9.55494,-20.98899 0.0623,-15.51863 -12.48336,7.19382 -39.6434,7.97248 -52.12195,-0.4783 z"
       id="path1407"
       inkscape:connector-curvature="0"
       sodipodi:nodetypes="sssss" /></g></svg>