<?xml version="1.0" encoding="UTF-8" standalone="no"?>
<!-- Created with Inkscape (http://www.inkscape.org/) -->

<svg
   xmlns:dc="http://purl.org/dc/elements/1.1/"
   xmlns:cc="http://creativecommons.org/ns#"
   xmlns:rdf="http://www.w3.org/1999/02/22-rdf-syntax-ns#"
   xmlns:svg="http://www.w3.org/2000/svg"
   xmlns="http://www.w3.org/2000/svg"
   xmlns:sodipodi="http://sodipodi.sourceforge.net/DTD/sodipodi-0.dtd"
   xmlns:inkscape="http://www.inkscape.org/namespaces/inkscape"
   width="740"
   height="1280"
   version="1.1"
   viewBox="0 0 740 1280"
   xml:space="preserve"
   id="svg18"
   sodipodi:docname="level29win.svg"
   inkscape:version="0.92.5 (2060ec1f9f, 2020-04-08)"><defs
     id="defs22" /><sodipodi:namedview
     pagecolor="#ffffff"
     bordercolor="#666666"
     borderopacity="1"
     objecttolerance="10"
     gridtolerance="10"
     guidetolerance="10"
     inkscape:pageopacity="0"
     inkscape:pageshadow="2"
     inkscape:window-width="1920"
     inkscape:window-height="986"
     id="namedview20"
     showgrid="false"
     inkscape:zoom="1"
     inkscape:cx="182.55049"
     inkscape:cy="626.4268"
     inkscape:window-x="1909"
     inkscape:window-y="49"
     inkscape:window-maximized="1"
     inkscape:current-layer="svg18"
     inkscape:snap-bbox="true"
     inkscape:bbox-paths="true"
     inkscape:snap-bbox-edge-midpoints="true"
     inkscape:bbox-nodes="true"
     inkscape:snap-bbox-midpoints="true"
     inkscape:object-paths="true"
     inkscape:snap-intersection-paths="true"
     inkscape:snap-smooth-nodes="true"
     inkscape:snap-midpoints="true"
     inkscape:snap-object-midpoints="true"
     inkscape:snap-center="true"
     inkscape:snap-text-baseline="true"
     inkscape:snap-page="true"
     inkscape:snap-global="false" /><metadata
     id="metadata2"><rdf:RDF><cc:Work
         rdf:about=""><dc:format>image/svg+xml</dc:format><dc:type
           rdf:resource="http://purl.org/dc/dcmitype/StillImage" /><dc:title /></cc:Work></rdf:RDF></metadata><rect
     style="opacity:1;vector-effect:none;fill:#808080;fill-opacity:1;stroke:#000000;stroke-width:0.99999994;stroke-linecap:round;stroke-linejoin:miter;stroke-miterlimit:4;stroke-dasharray:none;stroke-dashoffset:0;stroke-opacity:1;paint-order:normal"
     id="rect821"
     width="739"
     height="739"
     x="0.5"
     y="270.5" /><rect
     style="opacity:1;vector-effect:none;fill:#000000;fill-opacity:0.15645161;stroke:none;stroke-width:2;stroke-linecap:butt;stroke-linejoin:miter;stroke-miterlimit:4;stroke-dasharray:none;stroke-dashoffset:0;stroke-opacity:1;paint-order:markers stroke fill"
     id="rect1020"
     width="647"
     height="104"
     x="63"
     y="765"
     rx="0"
     ry="52" /><rect
     y="270"
     x="0.3762207"
     height="457.62372"
     width="739.24756"
     id="rect1022"
     style="opacity:1;vector-effect:none;fill:#707070;fill-opacity:1;stroke:#000000;stroke-width:0.78705442;stroke-linecap:round;stroke-linejoin:miter;stroke-miterlimit:4;stroke-dasharray:none;stroke-dashoffset:0;stroke-opacity:1;paint-order:normal" /><rect
     style="opacity:1;vector-effect:none;fill:#999999;fill-opacity:1;stroke:none;stroke-width:2;stroke-linecap:butt;stroke-linejoin:miter;stroke-miterlimit:4;stroke-dasharray:none;stroke-dashoffset:0;stroke-opacity:1;paint-order:markers stroke fill"
     id="rect1024"
     width="206"
     height="330"
     x="517"
     y="384.02249"
     ry="36.952099" /><g
     transform="matrix(0.94319262,0,0,0.94319262,1125.4193,-515.04758)"
     style="display:inline"
     id="g1648"><circle
       transform="scale(-1,1)"
       style="display:inline;fill:#ffffff;fill-opacity:1;stroke:#000000;stroke-width:5.6497612;stroke-linecap:round;stroke-linejoin:round;stroke-miterlimit:4;stroke-dasharray:none;stroke-dashoffset:0;stroke-opacity:1;paint-order:markers fill stroke"
       id="circle906-4-1-0-3"
       cx="508.08551"
       cy="1033.0549"
       r="45.955704" /><path
       style="fill:#000000;stroke:#000000;stroke-width:0.94162685px;stroke-linecap:butt;stroke-linejoin:miter;stroke-opacity:1"
       d="m -461.83586,1033.0997 -91.62938,-3.2264 -0.64527,9.0339 3.87166,12.9056 80.33703,3.8716 c 0,0 5.80749,-6.2914 5.80749,-8.2273 0,-1.9358 2.25847,-14.3574 2.25847,-14.3574 z"
       id="path13849-7-5-7"
       sodipodi:nodetypes="cccccsc"
       inkscape:connector-curvature="0" /><path
       style="fill:none;stroke:#000000;stroke-width:5.6497612;stroke-linecap:round;stroke-linejoin:round;stroke-dasharray:none;stroke-opacity:1;paint-order:markers fill stroke"
       d="m -504.47912,1080.9206 6.40751,103.9058 -57.60942,37.5625 -66.56549,56.6447"
       id="path13052-4-0-9"
       inkscape:connector-curvature="0"
       sodipodi:nodetypes="cccc" /><path
       style="fill:none;stroke:#000000;stroke-width:5.6497612;stroke-linecap:round;stroke-linejoin:round;stroke-dasharray:none;stroke-opacity:1;paint-order:markers fill stroke"
       d="m -498.07161,1184.8264 -11.86394,71.2624 49.42638,47.1996"
       id="path13054-4-4-0"
       inkscape:connector-curvature="0"
       sodipodi:nodetypes="ccc" /><path
       style="opacity:1;fill:none;fill-opacity:1;stroke:#000000;stroke-width:5.6497612;stroke-linecap:round;stroke-linejoin:round;stroke-miterlimit:4;stroke-dasharray:none;stroke-dashoffset:0;stroke-opacity:1;paint-order:markers fill stroke"
       d="m -505.92471,1081.4671 -65.18529,39.2698 -41.44675,-51.7871"
       id="path13851-1-5-9"
       inkscape:connector-curvature="0"
       sodipodi:nodetypes="ccc" /><circle
       style="fill:#ffffff;fill-opacity:1;stroke:#000000;stroke-width:1.13621819;stroke-linecap:round;stroke-linejoin:round;stroke-miterlimit:4;stroke-dasharray:none;stroke-dashoffset:0;stroke-opacity:1;paint-order:markers fill stroke"
       id="circle1043-52-8-0-1"
       cx="-1159.225"
       cy="-159.68982"
       transform="matrix(0.57379544,-0.81899865,-0.81899865,-0.57379544,0,0)"
       r="11.080264" /><circle
       transform="matrix(0.03521667,-0.9993797,-0.9993797,-0.03521667,0,0)"
       style="fill:#000000;fill-opacity:1;stroke:none;stroke-width:0.94162685;stroke-linecap:round;stroke-linejoin:round;stroke-miterlimit:4;stroke-dasharray:none;stroke-dashoffset:0;stroke-opacity:1;paint-order:markers fill stroke"
       id="circle1045-0-9-6-5"
       cx="-1063.3237"
       cy="503.47159"
       r="2.0532598" /><circle
       r="9.1826334"
       transform="matrix(0.57379544,-0.81899865,-0.81899865,-0.57379544,0,0)"
       cy="-181.59393"
       cx="-1146.5613"
       id="circle1532-3-9-7"
       style="fill:#ffffff;fill-opacity:1;stroke:#000000;stroke-width:0.94162685;stroke-linecap:round;stroke-linejoin:round;stroke-miterlimit:4;stroke-dasharray:none;stroke-dashoffset:0;stroke-opacity:1;paint-order:markers fill stroke" /><circle
       transform="matrix(0.03521667,-0.9993797,-0.9993797,-0.03521667,0,0)"
       r="2.0532598"
       cy="476.66843"
       cx="-1063.6384"
       id="circle1534-7-9-7"
       style="fill:#000000;fill-opacity:1;stroke:none;stroke-width:0.94162685;stroke-linecap:round;stroke-linejoin:round;stroke-miterlimit:4;stroke-dasharray:none;stroke-dashoffset:0;stroke-opacity:1;paint-order:markers fill stroke" /><circle
       transform="scale(-1,1)"
       r="9.5488949"
       cy="1073.5483"
       cx="523.87012"
       id="path915-0-9"
       style="opacity:1;vector-effect:none;fill:#ff2a2a;fill-opacity:1;stroke:#000000;stroke-width:2.24679875;stroke-linecap:round;stroke-linejoin:round;stroke-miterlimit:4;stroke-dasharray:none;stroke-dashoffset:0;stroke-opacity:1;paint-order:markers stroke fill" /><path
       sodipodi:nodetypes="ccc"
       inkscape:connector-curvature="0"
       id="path883-8-7"
       d="m -592.11088,1173.6782 72.28502,1.6162 13.90115,-93.8273"
       style="opacity:1;fill:none;fill-opacity:1;stroke:#000000;stroke-width:5.6497612;stroke-linecap:round;stroke-linejoin:round;stroke-miterlimit:4;stroke-dasharray:none;stroke-dashoffset:0;stroke-opacity:1;paint-order:markers fill stroke" /></g><circle
     transform="scale(-1,1)"
     r="41.572018"
     cy="544.71497"
     cx="-379.00275"
     id="circle1461-2"
     style="fill:#ffffff;fill-opacity:1;stroke:#000000;stroke-width:5.1108346;stroke-linecap:round;stroke-linejoin:round;stroke-miterlimit:4;stroke-dasharray:none;stroke-dashoffset:0;stroke-opacity:1;paint-order:markers fill stroke" /><path
     sodipodi:nodetypes="ccccc"
     inkscape:connector-curvature="0"
     id="path1463-1"
     d="m 337.43074,544.71495 c -3.1721,-11.85275 -1.89483,-15.18673 -15.18454,-17.64476 23.74771,-23.59197 47.65913,-55.02213 67.04643,-55.06792 3.76134,23.9052 11.44281,35.52679 20.0394,44.28087 -17.43566,-2.6652 -42.52807,8.90411 -71.90129,28.43181 z"
     style="fill:#0000ff;stroke:#000000;stroke-width:0.85180575px;stroke-linecap:butt;stroke-linejoin:miter;stroke-opacity:1" /><circle
     r="8.3067083"
     transform="matrix(-0.82352811,0.56727547,0.56727547,0.82352811,0,0)"
     cy="683.19287"
     cx="-20.231781"
     id="circle1465-4"
     style="fill:#ffffff;fill-opacity:1;stroke:#000000;stroke-width:0.85180575;stroke-linecap:round;stroke-linejoin:round;stroke-miterlimit:4;stroke-dasharray:none;stroke-dashoffset:0;stroke-opacity:1;paint-order:markers fill stroke" /><circle
     r="1.8574008"
     cy="588.4834"
     cx="352.7402"
     id="circle1468-5"
     style="fill:#000000;fill-opacity:1;stroke:none;stroke-width:0.85180575;stroke-linecap:round;stroke-linejoin:round;stroke-miterlimit:4;stroke-dasharray:none;stroke-dashoffset:0;stroke-opacity:1;paint-order:markers fill stroke"
     transform="matrix(-0.38175466,0.9242637,0.9242637,0.38175466,0,0)" /><circle
     style="fill:#ffffff;fill-opacity:1;stroke:#000000;stroke-width:0.85180575;stroke-linecap:round;stroke-linejoin:round;stroke-miterlimit:4;stroke-dasharray:none;stroke-dashoffset:0;stroke-opacity:1;paint-order:markers fill stroke"
     id="circle1472-4"
     cx="0.50467652"
     cy="673.48004"
     transform="matrix(-0.82352811,0.56727547,0.56727547,0.82352811,0,0)"
     r="8.3067083" /><circle
     style="fill:#000000;fill-opacity:1;stroke:none;stroke-width:0.85180575;stroke-linecap:round;stroke-linejoin:round;stroke-miterlimit:4;stroke-dasharray:none;stroke-dashoffset:0;stroke-opacity:1;paint-order:markers fill stroke"
     id="circle1474-2"
     cx="364.84225"
     cy="569.04425"
     r="1.8574008"
     transform="matrix(-0.38175466,0.9242637,0.9242637,0.38175466,0,0)" /><path
     sodipodi:nodetypes="cccc"
     inkscape:connector-curvature="0"
     id="path1478-1"
     d="m 375.62122,589.62467 -24.60292,80.03785 53.21827,47.43539 41.41003,70.18378"
     style="opacity:1;vector-effect:none;fill:none;fill-opacity:1;stroke:#000000;stroke-width:5.1108346;stroke-linecap:round;stroke-linejoin:round;stroke-miterlimit:4;stroke-dasharray:none;stroke-dashoffset:0;stroke-opacity:1;paint-order:markers fill stroke" /><path
     sodipodi:nodetypes="ccc"
     inkscape:connector-curvature="0"
     id="path1480-3"
     d="m 351.0183,669.66252 -45.50251,61.64275 -61.27895,32.7004"
     style="opacity:1;vector-effect:none;fill:none;fill-opacity:1;stroke:#000000;stroke-width:5.1108346;stroke-linecap:round;stroke-linejoin:round;stroke-miterlimit:4;stroke-dasharray:none;stroke-dashoffset:0;stroke-opacity:1;paint-order:markers fill stroke" /><path
     sodipodi:nodetypes="ccccc"
     inkscape:connector-curvature="0"
     id="path1482-8"
     d="m 288.60332,674.91131 28.20019,-47.93366 58.81771,-37.35298 43.21657,59.89259 72.64503,-7.67897"
     style="opacity:1;vector-effect:none;fill:none;fill-opacity:1;stroke:#000000;stroke-width:5.1108346;stroke-linecap:round;stroke-linejoin:round;stroke-miterlimit:4;stroke-dasharray:none;stroke-dashoffset:0;stroke-opacity:1;paint-order:markers fill stroke" /><path
     sodipodi:nodetypes="ccc"
     inkscape:connector-curvature="0"
     id="path1484-8"
     d="m 337.43074,544.71495 c 16.02677,-28.29492 118.55785,-83.71702 71.90324,-28.42972 -21.3592,-1.4793 -47.76349,18.23076 -71.90324,28.42972 z"
     style="fill:#000080;stroke:#000000;stroke-width:0.85180575px;stroke-linecap:butt;stroke-linejoin:miter;stroke-opacity:1" /><circle
     r="7.3202057"
     cy="497.29025"
     cx="381.80606"
     id="circle1487-9"
     style="opacity:1;vector-effect:none;fill:#ffff00;fill-opacity:1;stroke:none;stroke-width:5.1108346;stroke-linecap:round;stroke-linejoin:round;stroke-miterlimit:4;stroke-dasharray:none;stroke-dashoffset:0;stroke-opacity:1;paint-order:markers fill stroke" /><path
     style="fill:none;stroke:#000000;stroke-width:0.85180575px;stroke-linecap:butt;stroke-linejoin:miter;stroke-opacity:1"
     d="m 376.23891,537.63584 11.99929,6.11729"
     id="path1495-5"
     inkscape:connector-curvature="0"
     sodipodi:nodetypes="cc" /><path
     style="fill:none;stroke:#000000;stroke-width:0.85180575px;stroke-linecap:butt;stroke-linejoin:miter;stroke-opacity:1"
     d="m 395.47307,542.34145 9.9406,-9.11712"
     id="path1497-7"
     inkscape:connector-curvature="0"
     sodipodi:nodetypes="cc" /><path
     style="fill:none;stroke:#000000;stroke-width:0.85180575px;stroke-linecap:butt;stroke-linejoin:miter;stroke-opacity:1"
     d="m 377.76833,575.73481 c 4.58012,-3.41195 8.17608,-9.28427 16.96957,-2.16279"
     id="path1499-9"
     inkscape:connector-curvature="0"
     sodipodi:nodetypes="cc" /><g
     id="g1102"
     transform="translate(-14.949747,-21.59798)"><path
       transform="matrix(1,0,0,0.73313209,-375.27076,250.8028)"
       inkscape:transform-center-y="1.7759226"
       inkscape:transform-center-x="-1.1715245"
       d="m 661.25441,477.35778 c -6.24925,19.21084 -10.78893,22.36754 -27.60406,33.72963 -16.81512,11.36209 -13.51374,16.37371 -33.4758,16.30001 -19.96207,-0.0737 -18.73013,-5.71271 -34.41016,-17.44212 -15.68003,-11.72941 -23.55372,-12.63298 -29.43827,-31.80868 -5.88455,-19.1757 -0.24643,-14.76036 6.15766,-33.14715 6.40409,-18.38678 2.52276,-27.3596 17.77378,-40.25078 15.25102,-12.89117 21.17337,-2.99573 40.73351,-4.09346 19.56015,-1.09774 18.98974,-7.19438 36.0635,3.65992 17.07375,10.8543 14.61989,17.32567 21.03247,36.59445 6.41259,19.26879 9.41661,17.24735 3.16737,36.45818 z"
       inkscape:randomized="0.049"
       inkscape:rounded="0.5"
       inkscape:flatsided="false"
       sodipodi:arg2="0.92855301"
       sodipodi:arg1="0.30023448"
       sodipodi:r2="61.342018"
       sodipodi:r1="66.215034"
       sodipodi:cy="460"
       sodipodi:cx="600"
       sodipodi:sides="5"
       id="path1026"
       style="opacity:1;vector-effect:none;fill:#4d4d4d;fill-opacity:1;stroke:none;stroke-width:9.34326935;stroke-linecap:round;stroke-linejoin:round;stroke-miterlimit:4;stroke-dasharray:none;stroke-dashoffset:0;stroke-opacity:1;paint-order:markers stroke fill"
       sodipodi:type="star" /><path
       id="rect1028"
       d="m 246.34262,542.55531 c -4.44467,-0.0822 -8.61296,1.18909 -17.25586,1.78711 v 19.35938 h 49.65039 c -2.57838,-6.8435 -4.90259,-10.87379 -16.95313,-16.49024 -7.46977,-3.48146 -11.56278,-4.58454 -15.4414,-4.65625 z m -46.92188,0.084 c -4.30656,0.15162 -8.71446,1.34652 -14.43359,4.89062 -9.22754,5.71824 -11.44809,10.39194 -13.1836,16.17188 h 52.86328 v -19.1543 c -11.55366,0.31009 -18.28365,-2.15333 -25.24609,-1.9082 z m -29.05078,26.01367 c -0.74627,2.50851 -1.66897,5.25615 -3.15625,8.38672 -3.83021,8.0622 -7.36675,10.15398 -8.34766,13.5332 h 35.39649 v -21.91992 z m 28.3125,0 v 21.91992 h 59.75 v -21.91992 z m 64.16992,0 v 21.91992 h 26.50586 c 0.40891,-4.67639 -2.31414,-7.22164 -6.54101,-16.5332 -0.89933,-1.98117 -1.60551,-3.73987 -2.23438,-5.38672 z m -98.28906,27.22266 v 12.01953 c 3.23237,4.66095 7.20636,7.21427 12.43555,9.90039 h 47.31445 v -21.91992 z m 64.16992,0 v 21.91992 h 44.01172 c 6.05279,-3.97005 9.30936,-8.17265 13.23828,-17.02735 0.83975,-1.89255 1.49977,-3.48652 2.01953,-4.89257 z m -33.76367,27.57812 v 3.80859 c 11.15192,6.82622 12.11199,10.13732 29.93359,10.18555 18.35193,0.0497 17.08155,-3.06402 29.81641,-10.03711 v -3.95703 z"
       style="opacity:1;vector-effect:none;fill:#ff6600;fill-opacity:1;stroke:none;stroke-width:8;stroke-linecap:round;stroke-linejoin:round;stroke-miterlimit:4;stroke-dasharray:none;stroke-dashoffset:0;stroke-opacity:1;paint-order:markers stroke fill"
       inkscape:connector-curvature="0" /></g><g
     id="g1074"
     transform="translate(0,29.022489)"><rect
       ry="7.6415658"
       y="346.78967"
       x="508.21741"
       height="15.283132"
       width="223.56525"
       id="rect848"
       style="opacity:1;vector-effect:none;fill:#cccccc;fill-opacity:1;stroke:#333333;stroke-width:1.56887889;stroke-linecap:butt;stroke-linejoin:round;stroke-miterlimit:4;stroke-dasharray:none;stroke-dashoffset:0;stroke-opacity:1;paint-order:markers fill stroke" /><rect
       style="opacity:1;vector-effect:none;fill:#cccccc;fill-opacity:1;stroke:#333333;stroke-width:1.56887889;stroke-linecap:butt;stroke-linejoin:round;stroke-miterlimit:4;stroke-dasharray:none;stroke-dashoffset:0;stroke-opacity:1;paint-order:markers fill stroke"
       id="rect850"
       width="223.56525"
       height="15.283132"
       x="508.21741"
       y="682.92719"
       ry="7.6415658" /><g
       transform="matrix(0.78443944,0,0,0.78443944,509.80101,-30.931361)"
       id="g875"><rect
         style="opacity:1;vector-effect:none;fill:#cccccc;fill-opacity:1;stroke:#333333;stroke-width:2;stroke-linecap:butt;stroke-linejoin:round;stroke-miterlimit:4;stroke-dasharray:none;stroke-dashoffset:0;stroke-opacity:1;paint-order:markers fill stroke"
         id="rect860"
         width="427.12848"
         height="12.482864"
         x="493.41559"
         y="-43.453537"
         ry="6.2414322"
         transform="rotate(90)" /><rect
         transform="rotate(90)"
         ry="6.2414322"
         y="-95.088089"
         x="493.41559"
         height="12.482864"
         width="427.12848"
         id="rect862"
         style="opacity:1;vector-effect:none;fill:#cccccc;fill-opacity:1;stroke:#333333;stroke-width:2;stroke-linecap:butt;stroke-linejoin:round;stroke-miterlimit:4;stroke-dasharray:none;stroke-dashoffset:0;stroke-opacity:1;paint-order:markers fill stroke" /><rect
         style="opacity:1;vector-effect:none;fill:#cccccc;fill-opacity:1;stroke:#333333;stroke-width:2;stroke-linecap:butt;stroke-linejoin:round;stroke-miterlimit:4;stroke-dasharray:none;stroke-dashoffset:0;stroke-opacity:1;paint-order:markers fill stroke"
         id="rect864"
         width="427.12848"
         height="12.482864"
         x="493.41559"
         y="-146.72263"
         ry="6.2414322"
         transform="rotate(90)" /><rect
         transform="rotate(90)"
         ry="6.2414322"
         y="-198.35718"
         x="493.41559"
         height="12.482864"
         width="427.12848"
         id="rect866"
         style="opacity:1;vector-effect:none;fill:#cccccc;fill-opacity:1;stroke:#333333;stroke-width:2;stroke-linecap:butt;stroke-linejoin:round;stroke-miterlimit:4;stroke-dasharray:none;stroke-dashoffset:0;stroke-opacity:1;paint-order:markers fill stroke" /><rect
         style="opacity:1;vector-effect:none;fill:#cccccc;fill-opacity:1;stroke:#333333;stroke-width:2;stroke-linecap:butt;stroke-linejoin:round;stroke-miterlimit:4;stroke-dasharray:none;stroke-dashoffset:0;stroke-opacity:1;paint-order:markers fill stroke"
         id="rect868"
         width="427.12848"
         height="12.482864"
         x="493.41559"
         y="-249.99173"
         ry="6.2414322"
         transform="rotate(90)" /></g></g><g
     style="display:inline"
     id="g1059"
     transform="matrix(0.77199708,0,0,0.77199708,-183.00612,364.9528)"
     inkscape:export-xdpi="96"
     inkscape:export-ydpi="96"><path
   sodipodi:nodetypes="cc"
   inkscape:connector-curvature="0"
   id="path1000"
   d="m 607.75828,636.42229 c -190.21131,102.2993 176.59158,121.78656 0,0 z"
   style="fill:#c8b7b7;stroke:#000000;stroke-width:4;stroke-linecap:butt;stroke-linejoin:miter;stroke-miterlimit:4;stroke-dasharray:none;stroke-opacity:1;paint-order:markers fill stroke" /><path
   sodipodi:nodetypes="ccc"
   inkscape:connector-curvature="0"
   id="path1027"
   d="m 571.69583,644.15521 c 17.51295,-19.4424 21.09413,-13.94344 36.06245,-8.7283 20.02954,-7.80058 21.9506,10.35543 39.95153,15.44581"
   style="opacity:1;vector-effect:none;fill:none;fill-opacity:1;stroke:#000000;stroke-width:4;stroke-linecap:round;stroke-linejoin:miter;stroke-miterlimit:4;stroke-dasharray:none;stroke-dashoffset:0;stroke-opacity:1;paint-order:markers fill stroke" /><path
   inkscape:connector-curvature="0"
   id="path1043"
   d="m 607.75828,636.42229 -7.6014,-21.45622 h 21.74353 z"
   style="opacity:1;vector-effect:none;fill:#c8b7b7;fill-opacity:1;stroke:#000000;stroke-width:4;stroke-linecap:butt;stroke-linejoin:round;stroke-miterlimit:4;stroke-dasharray:none;stroke-dashoffset:0;stroke-opacity:1;paint-order:markers fill stroke" /><text
   id="text1052"
   y="692.21753"
   x="593.45386"
   style="font-style:normal;font-variant:normal;font-weight:normal;font-stretch:normal;font-size:40px;line-height:1.25;font-family:'Another Typewriter';-inkscape-font-specification:'Another Typewriter, Normal';font-variant-ligatures:normal;font-variant-caps:normal;font-variant-numeric:normal;font-feature-settings:normal;text-align:start;letter-spacing:0px;word-spacing:0px;writing-mode:lr-tb;text-anchor:start;fill:#ffff00;fill-opacity:1;stroke:#000000;stroke-width:4;stroke-linejoin:round;stroke-miterlimit:4;stroke-dasharray:none;paint-order:markers stroke fill"
   xml:space="preserve"><tspan
     y="692.21753"
     x="593.45386"
     id="tspan1050"
     sodipodi:role="line">$</tspan></text>

</g><g
     id="g1065"
     transform="translate(-117.65174,-21.224605)"><path
       d="m 635.25391,757.02539 c -7.34598,-4e-5 -14.64741,3.02241 -19.8418,8.2168 -5.19439,5.19439 -8.21683,12.49582 -8.2168,19.84179 a 1.9835345,1.9835345 0 0 0 0,0.004 c 0.002,1.42743 0.14008,2.85123 0.35938,4.26172 -0.21231,1.36024 -0.34883,2.7327 -0.35938,4.10937 a 1.9835345,1.9835345 0 0 0 0,0.0156 c -3e-5,7.34598 3.02241,14.64741 8.2168,19.8418 5.19439,5.19438 12.49582,8.21683 19.8418,8.21679 7.34597,4e-5 14.6474,-3.02241 19.84179,-8.21679 5.19439,-5.19439 8.21684,-12.49583 8.2168,-19.8418 a 1.9835345,1.9835345 0 0 0 0,-0.004 c -0.002,-1.42743 -0.14007,-2.85123 -0.35938,-4.26172 0.21231,-1.36024 0.34884,-2.7327 0.35938,-4.10937 a 1.9835345,1.9835345 0 0 0 0,-0.0156 c 4e-5,-7.34597 -3.02241,-14.6474 -8.2168,-19.84179 -5.19439,-5.19439 -12.49582,-8.21684 -19.84179,-8.2168 z"
       id="circle1034"
       style="opacity:1;vector-effect:none;fill:#000000;fill-opacity:1;stroke:none;stroke-width:7.12262249;stroke-linecap:round;stroke-linejoin:round;stroke-miterlimit:4;stroke-dasharray:none;stroke-dashoffset:0;stroke-opacity:1;paint-order:markers stroke fill"
       inkscape:original="M 635.25391 759.00781 A 26.07604 26.07604 0 0 0 609.17773 785.08398 A 26.07604 26.07604 0 0 0 609.53711 789.35547 A 26.07604 26.07604 0 0 0 609.17773 793.47461 A 26.07604 26.07604 0 0 0 635.25391 819.55078 A 26.07604 26.07604 0 0 0 661.33008 793.47461 A 26.07604 26.07604 0 0 0 660.9707 789.20312 A 26.07604 26.07604 0 0 0 661.33008 785.08398 A 26.07604 26.07604 0 0 0 635.25391 759.00781 z "
       inkscape:radius="1.9833362"
       sodipodi:type="inkscape:offset" /><circle
       style="opacity:1;vector-effect:none;fill:#800000;fill-opacity:1;stroke:none;stroke-width:7.12262249;stroke-linecap:round;stroke-linejoin:round;stroke-miterlimit:4;stroke-dasharray:none;stroke-dashoffset:0;stroke-opacity:1;paint-order:markers stroke fill"
       id="circle1032"
       cx="635.25421"
       cy="793.47412"
       r="26.07604" /><circle
       r="26.07604"
       cy="785.08472"
       cx="635.25421"
       id="circle1030"
       style="opacity:1;vector-effect:none;fill:#d40000;fill-opacity:1;stroke:none;stroke-width:7.12262249;stroke-linecap:round;stroke-linejoin:round;stroke-miterlimit:4;stroke-dasharray:none;stroke-dashoffset:0;stroke-opacity:1;paint-order:markers stroke fill" /><circle
       style="opacity:1;vector-effect:none;fill:#cccccc;fill-opacity:1;stroke:none;stroke-width:6.66431236;stroke-linecap:round;stroke-linejoin:round;stroke-miterlimit:4;stroke-dasharray:none;stroke-dashoffset:0;stroke-opacity:1;paint-order:markers stroke fill"
       id="circle1028"
       cx="635.25421"
       cy="785.08472"
       r="24.398159" /><circle
       r="20.169491"
       cy="785.08472"
       cx="635.25421"
       id="path1026-4"
       style="opacity:1;vector-effect:none;fill:#ffffff;fill-opacity:1;stroke:none;stroke-width:5.50925922;stroke-linecap:round;stroke-linejoin:round;stroke-miterlimit:4;stroke-dasharray:none;stroke-dashoffset:0;stroke-opacity:1;paint-order:markers stroke fill" /><path
       inkscape:transform-center-y="0.080913222"
       inkscape:transform-center-x="0.062035722"
       d="m 649.13269,793.09746 -12.84155,-4.14289 -9.04967,10.00862 4.14288,-12.84155 -10.00862,-9.04967 12.84156,4.14289 9.04966,-10.00862 -4.14288,12.84155 z"
       inkscape:randomized="0"
       inkscape:rounded="0"
       inkscape:flatsided="false"
       sodipodi:arg2="1.3089969"
       sodipodi:arg1="0.52359878"
       sodipodi:r2="4.0063715"
       sodipodi:r1="16.025486"
       sodipodi:cy="785.08472"
       sodipodi:cx="635.25421"
       sodipodi:sides="4"
       id="path1057"
       style="opacity:1;vector-effect:none;fill:#ff0000;fill-opacity:1;stroke:none;stroke-width:3.89852858;stroke-linecap:round;stroke-linejoin:round;stroke-miterlimit:4;stroke-dasharray:none;stroke-dashoffset:0;stroke-opacity:1;paint-order:markers stroke fill"
       sodipodi:type="star" /></g><g
     id="g966"
     transform="translate(22.355934,-223.21609)"><rect
       y="614.57623"
       x="62.203388"
       height="72.881355"
       width="72.881355"
       id="rect1016"
       style="opacity:1;vector-effect:none;fill:#ffffff;fill-opacity:1;stroke:#000000;stroke-width:2;stroke-linecap:round;stroke-linejoin:round;stroke-miterlimit:4;stroke-dasharray:none;stroke-dashoffset:0;stroke-opacity:1;paint-order:markers fill stroke" /><path
       sodipodi:nodetypes="cscc"
       inkscape:connector-curvature="0"
       id="path1018"
       d="m 81.271187,614.57623 c 0,0 17.203391,-25.2542 17.203391,-24.91522 0,0.33899 17.203392,24.91522 17.203392,24.91522 z"
       style="fill:none;stroke:#000000;stroke-width:1px;stroke-linecap:butt;stroke-linejoin:miter;stroke-opacity:1" /><circle
       r="3.6440678"
       cy="592.11865"
       cx="98.135597"
       id="path1020"
       style="opacity:1;vector-effect:none;fill:#808080;fill-opacity:1;stroke:#000000;stroke-width:1px;stroke-linecap:butt;stroke-linejoin:miter;stroke-miterlimit:4;stroke-dasharray:none;stroke-dashoffset:0;stroke-opacity:1;paint-order:markers fill stroke" /><circle
       r="13.423044"
       cy="651.7536"
       cx="89.167366"
       id="path1060"
       style="opacity:1;vector-effect:none;fill:#00ffff;fill-opacity:1;stroke:none;stroke-width:1px;stroke-linecap:butt;stroke-linejoin:miter;stroke-miterlimit:4;stroke-dasharray:none;stroke-dashoffset:0;stroke-opacity:1;paint-order:markers fill stroke" /><circle
       style="opacity:1;vector-effect:none;fill:#00ff00;fill-opacity:1;stroke:none;stroke-width:1px;stroke-linecap:butt;stroke-linejoin:miter;stroke-miterlimit:4;stroke-dasharray:none;stroke-dashoffset:0;stroke-opacity:1;paint-order:markers fill stroke"
       id="circle1062"
       cx="98.644066"
       cy="637.59387"
       r="13.423044" /><circle
       r="13.423044"
       cy="657.48877"
       cx="106.79377"
       id="circle1064"
       style="opacity:1;vector-effect:none;fill:#ff0000;fill-opacity:1;stroke:none;stroke-width:1px;stroke-linecap:butt;stroke-linejoin:miter;stroke-miterlimit:4;stroke-dasharray:none;stroke-dashoffset:0;stroke-opacity:1;paint-order:markers fill stroke" /></g><circle
     style="fill:#ffffff;fill-opacity:1;stroke:#000000;stroke-width:5.1108346;stroke-linecap:round;stroke-linejoin:round;stroke-miterlimit:4;stroke-dasharray:none;stroke-dashoffset:0;stroke-opacity:1;paint-order:markers fill stroke"
     id="circle953"
     cx="-175.25549"
     cy="544.71497"
     r="41.572018"
     transform="scale(-1,1)" /><path
     style="fill:#0000ff;stroke:#000000;stroke-width:0.85180575px;stroke-linecap:butt;stroke-linejoin:miter;stroke-opacity:1"
     d="m 133.68348,544.71495 c -3.1721,-11.85275 -1.89483,-15.18673 -15.18454,-17.64476 23.74771,-23.59197 47.65913,-55.02213 67.04643,-55.06792 3.76134,23.9052 11.44281,35.52679 20.0394,44.28087 -17.43566,-2.6652 -42.52807,8.90411 -71.90129,28.43181 z"
     id="path955"
     inkscape:connector-curvature="0"
     sodipodi:nodetypes="ccccc" /><circle
     style="fill:#ffffff;fill-opacity:1;stroke:#000000;stroke-width:0.85180575;stroke-linecap:round;stroke-linejoin:round;stroke-miterlimit:4;stroke-dasharray:none;stroke-dashoffset:0;stroke-opacity:1;paint-order:markers fill stroke"
     id="circle957"
     cx="147.55981"
     cy="567.61206"
     transform="matrix(-0.82352811,0.56727547,0.56727547,0.82352811,0,0)"
     r="8.3067083" /><circle
     style="fill:#000000;fill-opacity:1;stroke:none;stroke-width:0.85180575;stroke-linecap:round;stroke-linejoin:round;stroke-miterlimit:4;stroke-dasharray:none;stroke-dashoffset:0;stroke-opacity:1;paint-order:markers fill stroke"
     id="circle959"
     cx="430.5217"
     cy="400.16718"
     r="1.8574008"
     transform="matrix(-0.38175466,0.9242637,0.9242637,0.38175466,0,0)" /><circle
     r="8.3067083"
     transform="matrix(-0.82352811,0.56727547,0.56727547,0.82352811,0,0)"
     cy="557.89923"
     cx="168.29626"
     id="circle963"
     style="fill:#ffffff;fill-opacity:1;stroke:#000000;stroke-width:0.85180575;stroke-linecap:round;stroke-linejoin:round;stroke-miterlimit:4;stroke-dasharray:none;stroke-dashoffset:0;stroke-opacity:1;paint-order:markers fill stroke" /><circle
     r="1.8574008"
     cy="380.72803"
     cx="442.62372"
     id="circle965"
     style="fill:#000000;fill-opacity:1;stroke:none;stroke-width:0.85180575;stroke-linecap:round;stroke-linejoin:round;stroke-miterlimit:4;stroke-dasharray:none;stroke-dashoffset:0;stroke-opacity:1;paint-order:markers fill stroke"
     transform="matrix(-0.38175466,0.9242637,0.9242637,0.38175466,0,0)" /><path
     style="opacity:1;vector-effect:none;fill:none;fill-opacity:1;stroke:#000000;stroke-width:5.1108346;stroke-linecap:round;stroke-linejoin:round;stroke-miterlimit:4;stroke-dasharray:none;stroke-dashoffset:0;stroke-opacity:1;paint-order:markers fill stroke"
     d="m 171.87396,589.62467 -24.60292,80.03785 53.21827,47.43539 41.41003,70.18378"
     id="path969"
     inkscape:connector-curvature="0"
     sodipodi:nodetypes="cccc" /><path
     style="opacity:1;vector-effect:none;fill:none;fill-opacity:1;stroke:#000000;stroke-width:5.1108346;stroke-linecap:round;stroke-linejoin:round;stroke-miterlimit:4;stroke-dasharray:none;stroke-dashoffset:0;stroke-opacity:1;paint-order:markers fill stroke"
     d="m 147.27104,669.66252 -45.50251,61.64275 -61.278947,32.7004"
     id="path971"
     inkscape:connector-curvature="0"
     sodipodi:nodetypes="ccc" /><path
     style="opacity:1;vector-effect:none;fill:none;fill-opacity:1;stroke:#000000;stroke-width:5.1108346;stroke-linecap:round;stroke-linejoin:round;stroke-miterlimit:4;stroke-dasharray:none;stroke-dashoffset:0;stroke-opacity:1;paint-order:markers fill stroke"
     d="m 84.856055,674.91131 28.200195,-47.93366 58.81771,-37.35298 43.21657,59.89259 72.64503,-7.67897"
     id="path973"
     inkscape:connector-curvature="0"
     sodipodi:nodetypes="ccccc" /><path
     style="fill:#000080;stroke:#000000;stroke-width:0.85180575px;stroke-linecap:butt;stroke-linejoin:miter;stroke-opacity:1"
     d="m 133.68348,544.71495 c 16.02677,-28.29492 118.55785,-83.71702 71.90324,-28.42972 -21.3592,-1.4793 -47.76349,18.23076 -71.90324,28.42972 z"
     id="path975"
     inkscape:connector-curvature="0"
     sodipodi:nodetypes="ccc" /><circle
     style="opacity:1;vector-effect:none;fill:#ffff00;fill-opacity:1;stroke:none;stroke-width:5.1108346;stroke-linecap:round;stroke-linejoin:round;stroke-miterlimit:4;stroke-dasharray:none;stroke-dashoffset:0;stroke-opacity:1;paint-order:markers fill stroke"
     id="circle977"
     cx="178.05881"
     cy="497.29025"
     r="7.3202057" /><path
     sodipodi:nodetypes="cc"
     inkscape:connector-curvature="0"
     id="path981"
     d="m 172.49165,537.63584 11.99929,6.11729"
     style="fill:none;stroke:#000000;stroke-width:0.85180575px;stroke-linecap:butt;stroke-linejoin:miter;stroke-opacity:1" /><path
     sodipodi:nodetypes="cc"
     inkscape:connector-curvature="0"
     id="path983"
     d="m 191.72581,542.34145 9.9406,-9.11712"
     style="fill:none;stroke:#000000;stroke-width:0.85180575px;stroke-linecap:butt;stroke-linejoin:miter;stroke-opacity:1" /><path
     sodipodi:nodetypes="cc"
     inkscape:connector-curvature="0"
     id="path985"
     d="m 174.02107,575.73481 c 4.58012,-3.41195 8.17608,-9.28427 16.96957,-2.16279"
     style="fill:none;stroke:#000000;stroke-width:0.85180575px;stroke-linecap:butt;stroke-linejoin:miter;stroke-opacity:1" /><path
     inkscape:connector-curvature="0"
     id="path941"
     d="m 92.073292,691.20754 c 3.751008,-7.27803 0.858235,-16.32387 -6.419801,-20.07488 -6.167635,-3.17874 -13.603121,-1.58418 -18.011368,3.40522 l -12.368762,-6.37471 c 0.829868,-1.57798 1.796132,-3.47711 2.771264,-5.43274 2.173699,-4.35844 4.282163,-8.73204 4.282163,-8.73204 A 3.6252801,3.6252801 0 1 0 55.79738,650.8483 c 0,0 -1.194627,2.45716 -2.604646,5.32583 l -2.707339,-1.39541 c 1.453676,-2.95673 2.688437,-5.49763 2.688437,-5.49763 a 3.6252801,3.6252801 0 1 0 -6.529305,-3.15013 c 0,0 -1.194669,2.45723 -2.604714,5.32581 l -2.707371,-1.39534 c 1.454078,-2.95658 2.689753,-5.49704 2.689753,-5.49704 a 3.6254746,3.6254746 0 1 0 -6.530621,-3.15072 c 0,0 -2.096008,4.34521 -4.241169,8.64638 -0.974729,1.95435 -1.938038,3.84832 -2.727167,5.34709 l -3.806143,-1.96165 a 3.6252801,3.6252801 0 1 0 -3.321341,6.44435 l 6.762757,3.48541 a 3.6252801,3.6252801 0 0 0 0.07325,0.0342 l 9.081187,4.68039 a 3.6252801,3.6252801 0 0 0 0.06981,0.0403 l 9.08112,4.68033 a 3.6252801,3.6252801 0 0 0 0.07328,0.0343 l 15.784768,8.13531 c -1.505724,6.48536 1.509949,13.46628 7.677654,16.64505 7.27799,3.75107 16.323834,0.85829 20.074843,-6.41974 z m -6.444256,-3.32137 c -1.956063,3.79531 -6.513995,5.25288 -10.309294,3.29681 -3.665561,-1.88919 -5.13977,-6.20281 -3.474501,-9.91496 a 3.6252801,3.6252801 0 0 0 0.249329,-0.41784 3.6252801,3.6252801 0 0 0 0.152996,-0.3592 c 2.059251,-3.50293 6.422578,-4.80137 10.084801,-2.91393 3.795299,1.95607 5.252883,6.51399 3.29684,10.30922 z"
     style="color:#000000;font-style:normal;font-variant:normal;font-weight:normal;font-stretch:normal;font-size:medium;line-height:normal;font-family:sans-serif;font-variant-ligatures:normal;font-variant-position:normal;font-variant-caps:normal;font-variant-numeric:normal;font-variant-alternates:normal;font-feature-settings:normal;text-indent:0;text-align:start;text-decoration:none;text-decoration-line:none;text-decoration-style:solid;text-decoration-color:#000000;letter-spacing:normal;word-spacing:normal;text-transform:none;writing-mode:lr-tb;direction:ltr;text-orientation:mixed;dominant-baseline:auto;baseline-shift:baseline;text-anchor:start;white-space:normal;shape-padding:0;clip-rule:nonzero;display:inline;overflow:visible;visibility:visible;opacity:1;isolation:auto;mix-blend-mode:normal;color-interpolation:sRGB;color-interpolation-filters:linearRGB;solid-color:#000000;solid-opacity:1;vector-effect:none;fill:#cece00;fill-opacity:1;fill-rule:nonzero;stroke:#000000;stroke-width:5.79986811;stroke-linecap:butt;stroke-linejoin:round;stroke-miterlimit:4;stroke-dasharray:none;stroke-dashoffset:0;stroke-opacity:1;paint-order:markers stroke fill;color-rendering:auto;image-rendering:auto;shape-rendering:auto;text-rendering:auto;enable-background:accumulate"
     inkscape:export-xdpi="96"
     inkscape:export-ydpi="96" /></svg>