<?xml version="1.0" encoding="UTF-8" standalone="no"?>
<!-- Created with Inkscape (http://www.inkscape.org/) -->

<svg
   xmlns:dc="http://purl.org/dc/elements/1.1/"
   xmlns:cc="http://creativecommons.org/ns#"
   xmlns:rdf="http://www.w3.org/1999/02/22-rdf-syntax-ns#"
   xmlns:svg="http://www.w3.org/2000/svg"
   xmlns="http://www.w3.org/2000/svg"
   xmlns:sodipodi="http://sodipodi.sourceforge.net/DTD/sodipodi-0.dtd"
   xmlns:inkscape="http://www.inkscape.org/namespaces/inkscape"
   width="740"
   height="1280"
   version="1.1"
   viewBox="0 0 740 1280"
   xml:space="preserve"
   id="svg18"
   sodipodi:docname="level5lose.svg"
   inkscape:version="0.92.5 (2060ec1f9f, 2020-04-08)"><defs
     id="defs22" /><sodipodi:namedview
     pagecolor="#ffffff"
     bordercolor="#666666"
     borderopacity="1"
     objecttolerance="10"
     gridtolerance="10"
     guidetolerance="10"
     inkscape:pageopacity="0"
     inkscape:pageshadow="2"
     inkscape:window-width="1920"
     inkscape:window-height="986"
     id="namedview20"
     showgrid="false"
     inkscape:zoom="1.475"
     inkscape:cx="304.42731"
     inkscape:cy="512.91584"
     inkscape:window-x="1909"
     inkscape:window-y="49"
     inkscape:window-maximized="1"
     inkscape:current-layer="svg18"
     inkscape:snap-bbox="true"
     inkscape:bbox-paths="true"
     inkscape:snap-bbox-edge-midpoints="true"
     inkscape:bbox-nodes="true"
     inkscape:snap-bbox-midpoints="true"
     inkscape:object-paths="true"
     inkscape:snap-intersection-paths="true"
     inkscape:snap-smooth-nodes="true"
     inkscape:snap-midpoints="true"
     inkscape:snap-object-midpoints="true"
     inkscape:snap-center="true"
     inkscape:snap-text-baseline="true"
     inkscape:snap-page="true"
     inkscape:snap-global="false" /><metadata
     id="metadata2"><rdf:RDF><cc:Work
         rdf:about=""><dc:format>image/svg+xml</dc:format><dc:type
           rdf:resource="http://purl.org/dc/dcmitype/StillImage" /><dc:title></dc:title></cc:Work></rdf:RDF></metadata><rect
     style="opacity:1;vector-effect:none;fill:#4d4d4d;fill-opacity:1;stroke:none;stroke-width:2;stroke-linecap:round;stroke-linejoin:round;stroke-miterlimit:4;stroke-dasharray:none;stroke-dashoffset:0;stroke-opacity:1;paint-order:markers fill stroke"
     id="rect869"
     width="404.60889"
     height="811.13538"
     x="1140.9587"
     y="152.46431" /><rect
     style="opacity:1;vector-effect:none;fill:#4d4d4d;fill-opacity:1;stroke:#000000;stroke-width:2;stroke-linecap:round;stroke-linejoin:round;stroke-miterlimit:4;stroke-dasharray:none;stroke-dashoffset:0;stroke-opacity:1;paint-order:markers fill stroke"
     id="rect858"
     width="44.021851"
     height="543.89532"
     x="1316.1246"
     y="187.11864" /><rect
     style="opacity:1;vector-effect:none;fill:#ffdd55;fill-opacity:1;stroke:#000000;stroke-width:2;stroke-linecap:round;stroke-linejoin:round;stroke-miterlimit:4;stroke-dasharray:none;stroke-dashoffset:0;stroke-opacity:1;paint-order:markers fill stroke"
     id="rect830"
     width="738"
     height="738"
     x="1"
     y="271" /><ellipse
     cy="655.14032"
     cx="1338.1356"
     id="circle836"
     style="opacity:1;vector-effect:none;fill:#4d4d4d;fill-opacity:1;stroke:#000000;stroke-width:2;stroke-linecap:round;stroke-linejoin:round;stroke-miterlimit:4;stroke-dasharray:none;stroke-dashoffset:0;stroke-opacity:1;paint-order:markers fill stroke"
     r="52.367279" /><path
     style="fill:#4d4d4d;stroke:#000000;stroke-width:2;stroke-linecap:round;stroke-linejoin:round;stroke-miterlimit:4;stroke-dasharray:none;paint-order:markers fill stroke"
     d="m 1311.9925,873.09515 c -26.9141,-7.04734 -46.5684,-26.17721 -44.7725,-43.57786 0.7619,-7.38242 3.5352,-11.65331 16.7973,-25.86755 13.1881,-14.13499 21.9668,-25.59203 26.2433,-34.25 1.6979,-3.4375 3.4629,-6.25 3.9221,-6.25 0.4593,0 2.1938,0.70263 3.8545,1.5614 4.5855,2.37125 17.5381,4.53905 23.2895,3.89782 7.2771,-0.81133 13.3728,-2.44254 18.8945,-5.0562 l 4.8027,-2.27332 4.9506,6.68515 c 5.9504,8.03527 12.0382,20.30349 14.4826,29.18515 2.8261,10.26886 2.3889,27.21609 -0.9728,37.71451 -6.0399,18.86209 -20.5245,33.04475 -39.4973,38.67397 -7.5631,2.24395 -22.5239,2.03677 -31.9945,-0.44307 z m 133.8473,-87.25119 c -4.8978,-1.8349 -6.2558,-2.8749 -18.0886,-13.85266 -17.6815,-16.404 -26.3726,-23.08809 -36.8327,-28.32734 -3.025,-1.51515 -5.5984,-2.83658 -5.7187,-2.93651 -0.1202,-0.0999 0.8684,-3.30829 2.1971,-7.1297 4.686,-13.47792 4.0598,-27.21738 -1.7986,-39.45842 l -2.4508,-5.12097 6.6355,-4.90455 c 8.2275,-6.08129 20.5631,-12.23897 29.1355,-14.54384 8.7658,-2.35691 26.2225,-2.36317 34.9199,-0.0125 28.3355,7.65829 46.6347,34.03773 43.0727,62.09228 -2.7987,22.04364 -16.3954,45.0953 -30.9633,52.49493 -5.4707,2.77876 -15.0629,3.58938 -20.108,1.69929 z m -118.813,-20.77582 c -16.9027,-3.3195 -33.0424,-19.0418 -37.5334,-36.56274 -10.5974,-41.34405 32.447,-75.955 71.0649,-57.14149 16.6551,8.1139 27.3364,25.61329 27.3364,44.78583 0,13.59625 -4.9506,25.5925 -14.5579,35.27681 -11.8525,11.94734 -29.0867,17.02404 -46.31,13.64159 z m 21.9364,-19.84341 c 6.9354,-2.63524 12.9398,-7.81156 16.4842,-14.21077 2.7107,-4.8941 2.9708,-6.19679 2.9683,-14.86422 0,-7.93686 -0.3735,-10.19472 -2.2561,-13.7222 -10.1728,-19.06094 -34.7031,-23.34121 -49.7818,-8.68638 -13.8119,13.42361 -12.1769,36.08113 3.4319,47.56001 8.0573,5.92541 19.7453,7.49841 29.1535,3.92356 z m -118.1202,18.93175 c -19.0875,-2.41658 -34.8169,-12.51531 -44.4012,-28.50674 -5.3383,-8.90709 -7.5233,-17.02336 -7.5233,-27.94537 0,-31.08777 21.6236,-62.53509 43,-62.53509 8.4252,0 13.7989,3.15012 28,16.41406 15.5609,14.53409 24.441,21.38268 33.75,26.02904 3.9875,1.99028 7.25,3.72848 7.25,3.86268 0,0.1342 -0.8809,2.75025 -1.9575,5.81345 -2.5843,7.3526 -4.2502,18.10938 -3.5135,22.68644 1.3643,8.47649 2.8816,13.94791 5.0908,18.35791 l 2.3461,4.68312 -6.6803,5.00283 c -16.5475,12.3923 -37.2586,18.42954 -55.3611,16.13767 z m 74.3774,-101.18563 c -6.7981,-9.86298 -10.8573,-18.17808 -13.402,-27.45368 -2.8686,-10.45584 -2.3408,-30.54178 1.0533,-40.09021 7.2248,-20.32504 26.0386,-35.83077 46.2156,-38.08937 21.3548,-2.39044 45.8822,6.46149 60.133,21.70197 9.6039,10.27087 12.1722,21.44894 7.2629,31.61018 -1.4246,2.9488 -7.2196,10.12801 -14.1258,17.5 -14.1536,15.10819 -21.0698,24.10584 -25.9874,33.8085 -2.8889,5.69976 -4.0616,7.15807 -5.3279,6.62507 -13.4924,-5.67935 -27.9483,-6.4186 -40.1236,-2.05185 -4.125,1.47945 -8.2092,2.9308 -9.076,3.22521 -1.1119,0.37769 -3.0617,-1.62025 -6.6221,-6.78582 z"
     id="path832"
     inkscape:connector-curvature="0" /><path
     style="opacity:1;vector-effect:none;fill:#4d4d4d;fill-opacity:1;stroke:#000000;stroke-width:2;stroke-linecap:round;stroke-linejoin:round;stroke-miterlimit:4;stroke-dasharray:none;stroke-dashoffset:0;stroke-opacity:1;paint-order:markers fill stroke"
     d="M 1338.1348 663.65625 A 52.367279 52.367279 0 0 0 1285.7676 716.02344 L 1285.7676 769.39062 L 1390.502 769.39062 L 1390.502 716.02344 A 52.367279 52.367279 0 0 0 1338.1348 663.65625 z "
     id="path834" /><ellipse
     r="52.367279"
     cy="716.02344"
     cx="1338.1356"
     id="ellipse860"
     style="opacity:1;vector-effect:none;fill:#4d4d4d;fill-opacity:1;stroke:#000000;stroke-width:2;stroke-linecap:round;stroke-linejoin:round;stroke-miterlimit:4;stroke-dasharray:none;stroke-dashoffset:0;stroke-opacity:1;paint-order:markers fill stroke" /><ellipse
     cy="769.39075"
     cx="1338.1356"
     id="circle862"
     style="opacity:1;vector-effect:none;fill:#4d4d4d;fill-opacity:1;stroke:#000000;stroke-width:2;stroke-linecap:round;stroke-linejoin:round;stroke-miterlimit:4;stroke-dasharray:none;stroke-dashoffset:0;stroke-opacity:1;paint-order:markers fill stroke"
     r="52.367279" /><ellipse
     style="opacity:1;vector-effect:none;fill:#4d4d4d;fill-opacity:1;stroke:#000000;stroke-width:2;stroke-linecap:round;stroke-linejoin:round;stroke-miterlimit:4;stroke-dasharray:none;stroke-dashoffset:0;stroke-opacity:1;paint-order:markers fill stroke"
     id="circle866"
     cx="1338.1356"
     cy="769.39075"
     r="52.367279" /><rect
     y="152.46431"
     x="1725.8199"
     height="811.13538"
     width="404.60889"
     id="rect871"
     style="opacity:1;vector-effect:none;fill:#4d4d4d;fill-opacity:1;stroke:none;stroke-width:2;stroke-linecap:round;stroke-linejoin:round;stroke-miterlimit:4;stroke-dasharray:none;stroke-dashoffset:0;stroke-opacity:1;paint-order:markers fill stroke" /><rect
     y="187.11864"
     x="1900.9858"
     height="543.89532"
     width="44.021851"
     id="rect873"
     style="opacity:1;vector-effect:none;fill:#4d4d4d;fill-opacity:1;stroke:#000000;stroke-width:2;stroke-linecap:round;stroke-linejoin:round;stroke-miterlimit:4;stroke-dasharray:none;stroke-dashoffset:0;stroke-opacity:1;paint-order:markers fill stroke" /><circle
     r="0"
     style="opacity:1;vector-effect:none;fill:#4d4d4d;fill-opacity:1;stroke:#000000;stroke-width:2;stroke-linecap:round;stroke-linejoin:round;stroke-miterlimit:4;stroke-dasharray:none;stroke-dashoffset:0;stroke-opacity:1;paint-order:markers fill stroke"
     id="ellipse875"
     cx="1922.9968"
     cy="655.14032" /><path
     inkscape:connector-curvature="0"
     id="path877"
     d="m 2018.7758,843.22661 c -23.656,14.6434 -51.0627,15.69916 -62.4325,2.40501 -4.8238,-5.64017 -6.0069,-10.59316 -7.1653,-29.99899 -1.1519,-19.29758 -3.4026,-33.55464 -6.7283,-42.62045 -1.3204,-3.59942 -2.1417,-6.81669 -1.8252,-7.1494 0.3166,-0.33278 2.0211,-1.10525 3.7879,-1.71662 4.8785,-1.6881 15.3764,-9.5788 18.8758,-14.18792 4.4277,-5.8318 7.4471,-11.3727 9.3591,-17.17484 l 1.663,-5.04662 8.2558,1.02061 c 9.9231,1.22674 23.0079,5.27137 31.1278,9.62172 9.3881,5.02989 21.3659,17.02709 26.6555,26.69856 9.5037,17.37639 9.7966,37.64622 0.7988,55.27273 -3.5868,7.02642 -14.0483,17.72346 -22.3724,22.87621 z m 29.0329,-157.11448 c -4.7052,2.28404 -6.3947,2.55119 -22.504,3.5585 -24.072,1.5051 -34.9051,3.1954 -45.9105,7.16324 -3.1827,1.14749 -5.9138,2.10128 -6.0691,2.11957 -0.1553,0.0182 -1.7985,-2.90935 -3.6516,-6.50586 -6.5357,-12.68453 -16.9222,-21.70037 -29.8292,-25.89248 l -5.3995,-1.75377 1.0198,-8.18807 c 1.2643,-10.1526 5.3048,-23.33436 9.5431,-31.13406 4.3339,-7.97569 16.3609,-20.62824 24.0585,-25.30979 25.0783,-15.25219 56.8038,-10.32954 74.6756,11.58715 14.0428,17.22078 21.3737,42.96 16.6946,58.61515 -1.7572,5.87898 -7.781,13.3877 -12.6277,15.74043 z m -96.9418,71.76668 c -14.0549,9.95896 -36.5703,10.81679 -52.3604,1.9949 -37.2597,-20.81694 -32.6699,-75.85939 7.5778,-90.87325 17.358,-6.47515 37.399,-2.15329 51.2904,11.06087 9.8512,9.37085 15.131,21.22589 15.5261,34.86151 0.4875,16.8221 -7.7124,32.8081 -22.0339,42.95597 z m 0.7416,-29.57054 c 2.8706,-6.84131 3.2585,-14.75943 1.0649,-21.73801 -1.6778,-5.33716 -2.4424,-6.42346 -8.7241,-12.39544 -5.7506,-5.47027 -7.644,-6.75582 -11.4973,-7.823 -20.822,-5.76655 -40.8301,9.0568 -40.6045,30.0825 0.2066,19.25927 17.7499,33.69072 36.8249,30.29288 9.8465,-1.75398 19.0419,-9.13836 22.9361,-18.41893 z m -67.6942,98.63209 c -14.9065,12.16426 -33.0646,16.60071 -51.2569,12.52334 -10.1329,-2.27111 -17.5195,-6.28189 -25.433,-13.8096 -22.5246,-21.42641 -30.4063,-58.76799 -15.6732,-74.25624 5.8069,-6.10447 11.793,-7.82685 31.1911,-8.97443 21.2556,-1.2574 32.3381,-2.97126 42.1206,-6.51371 4.1903,-1.51739 7.6983,-2.68323 7.7955,-2.59073 0.097,0.0925 1.3856,2.53379 2.863,5.42507 3.5462,6.94003 10.1918,15.56088 14.0159,18.18172 7.0819,4.85369 12.092,7.52536 16.8099,8.96416 l 5.0101,1.52785 -0.9794,8.28827 c -2.4261,20.53054 -12.3264,39.69776 -26.4636,51.2343 z M 1861.8629,703.3108 c -11.8316,-1.87224 -20.654,-4.66211 -29.1285,-9.21131 -9.5528,-5.12796 -23.7423,-19.35408 -28.3213,-28.39427 -9.747,-19.24321 -8.0148,-43.56164 4.2552,-59.73755 12.9862,-17.12014 36.3047,-28.7905 57.1692,-28.61181 14.061,0.12043 23.9302,5.96375 27.9089,16.52414 1.1547,3.06458 2.3623,12.21142 2.9438,22.29624 1.1916,20.6679 2.944,31.88041 6.5848,42.13075 2.1386,6.02156 2.387,7.87634 1.1281,8.42648 -13.4143,5.86157 -23.9133,15.82607 -29.1408,27.65734 -1.7711,4.00843 -3.5345,7.96794 -3.9186,8.79889 -0.4927,1.06594 -3.2841,1.10164 -9.4808,0.1211 z"
     style="fill:#4d4d4d;stroke:#000000;stroke-width:2;stroke-linecap:round;stroke-linejoin:round;stroke-miterlimit:4;stroke-dasharray:none;paint-order:markers fill stroke" /><path
     id="path879"
     d="m 1922.996,663.65625 a 52.367279,52.367279 0 0 0 -52.3672,52.36719 v 53.36718 h 104.7344 v -53.36718 a 52.367279,52.367279 0 0 0 -52.3672,-52.36719 z"
     style="opacity:1;vector-effect:none;fill:#4d4d4d;fill-opacity:1;stroke:#000000;stroke-width:2;stroke-linecap:round;stroke-linejoin:round;stroke-miterlimit:4;stroke-dasharray:none;stroke-dashoffset:0;stroke-opacity:1;paint-order:markers fill stroke"
     inkscape:connector-curvature="0" /><ellipse
     style="opacity:1;vector-effect:none;fill:#4d4d4d;fill-opacity:1;stroke:#000000;stroke-width:2;stroke-linecap:round;stroke-linejoin:round;stroke-miterlimit:4;stroke-dasharray:none;stroke-dashoffset:0;stroke-opacity:1;paint-order:markers fill stroke"
     id="circle881"
     cx="1922.9968"
     cy="769.39075"
     r="52.367279" /><ellipse
     cy="769.39075"
     cx="1922.9968"
     id="circle883"
     style="opacity:1;vector-effect:none;fill:#4d4d4d;fill-opacity:1;stroke:#000000;stroke-width:2;stroke-linecap:round;stroke-linejoin:round;stroke-miterlimit:4;stroke-dasharray:none;stroke-dashoffset:0;stroke-opacity:1;paint-order:markers fill stroke"
     r="52.367279" /><rect
     y="853.9436"
     x="1"
     height="155.05638"
     width="738"
     id="rect885"
     style="opacity:1;vector-effect:none;fill:#aa8800;fill-opacity:1;stroke:#000000;stroke-width:2;stroke-linecap:round;stroke-linejoin:round;stroke-miterlimit:4;stroke-dasharray:none;stroke-dashoffset:0;stroke-opacity:1;paint-order:markers fill stroke" /><rect
     style="opacity:1;vector-effect:none;fill:#aa8800;fill-opacity:1;stroke:#000000;stroke-width:2;stroke-linecap:round;stroke-linejoin:round;stroke-miterlimit:4;stroke-dasharray:none;stroke-dashoffset:0;stroke-opacity:1;paint-order:markers fill stroke"
     id="rect891"
     width="176.27119"
     height="176.27119"
     x="85.478554"
     y="440.37231" /><rect
     y="455.71295"
     x="100.81916"
     height="145.58995"
     width="145.58995"
     id="rect893"
     style="opacity:1;vector-effect:none;fill:#00ffff;fill-opacity:1;stroke:#000000;stroke-width:2;stroke-linecap:round;stroke-linejoin:round;stroke-miterlimit:4;stroke-dasharray:none;stroke-dashoffset:0;stroke-opacity:1;paint-order:markers fill stroke" /><rect
     style="opacity:1;vector-effect:none;fill:#6b5600;fill-opacity:1;stroke:#000000;stroke-width:2;stroke-linecap:round;stroke-linejoin:round;stroke-miterlimit:4;stroke-dasharray:none;stroke-dashoffset:0;stroke-opacity:1;paint-order:markers fill stroke"
     id="rect895"
     width="19.655172"
     height="157.24138"
     x="163.78656"
     y="449.88727" /><rect
     y="-252.23483"
     x="518.68036"
     height="157.24138"
     width="19.655172"
     id="rect911"
     style="opacity:1;vector-effect:none;fill:#6b5600;fill-opacity:1;stroke:#000000;stroke-width:2;stroke-linecap:round;stroke-linejoin:round;stroke-miterlimit:4;stroke-dasharray:none;stroke-dashoffset:0;stroke-opacity:1;paint-order:markers fill stroke"
     transform="rotate(90)" /><rect
     y="-690.16644"
     x="587.25458"
     height="175.93776"
     width="258.29922"
     id="rect923"
     style="opacity:1;vector-effect:none;fill:#997b00;fill-opacity:1;stroke:#000000;stroke-width:1.99999988;stroke-linecap:round;stroke-linejoin:round;stroke-miterlimit:4;stroke-dasharray:none;stroke-dashoffset:0;stroke-opacity:1;paint-order:markers fill stroke"
     transform="rotate(90)" /><rect
     transform="rotate(90)"
     style="opacity:1;vector-effect:none;fill:#6b5600;fill-opacity:1;stroke:#000000;stroke-width:1.99999988;stroke-linecap:round;stroke-linejoin:round;stroke-miterlimit:4;stroke-dasharray:none;stroke-dashoffset:0;stroke-opacity:1;paint-order:markers fill stroke"
     id="rect913"
     width="258.29922"
     height="175.93776"
     x="619.85339"
     y="-690.16644" /><g
     id="g921"
     transform="translate(-79.381045,14.381833)"
     style="fill:#68591d;fill-opacity:1"><rect
       transform="rotate(90)"
       style="opacity:1;vector-effect:none;fill:#68591d;fill-opacity:1;stroke:#000000;stroke-width:1.99999976;stroke-linecap:round;stroke-linejoin:round;stroke-miterlimit:4;stroke-dasharray:none;stroke-dashoffset:0;stroke-opacity:1;paint-order:markers fill stroke"
       id="rect915"
       width="239.43454"
       height="73.245155"
       x="614.90387"
       y="-676.74347" /><rect
       y="-759.65894"
       x="614.90387"
       height="73.245155"
       width="239.43454"
       id="rect917"
       style="opacity:1;vector-effect:none;fill:#68591d;fill-opacity:1;stroke:#000000;stroke-width:1.99999976;stroke-linecap:round;stroke-linejoin:round;stroke-miterlimit:4;stroke-dasharray:none;stroke-dashoffset:0;stroke-opacity:1;paint-order:markers fill stroke"
       transform="rotate(90)" /></g><g
     id="g937"
     transform="translate(-38.992483,25.887299)"><rect
       y="760.81586"
       x="597.80487"
       height="6.7115221"
       width="27.804876"
       id="rect931"
       style="opacity:1;vector-effect:none;fill:#999999;fill-opacity:1;stroke:#000000;stroke-width:2;stroke-linecap:round;stroke-linejoin:round;stroke-miterlimit:4;stroke-dasharray:none;stroke-dashoffset:0;stroke-opacity:1;paint-order:markers fill stroke" /><rect
       style="opacity:1;vector-effect:none;fill:#999999;fill-opacity:1;stroke:#000000;stroke-width:2;stroke-linecap:round;stroke-linejoin:round;stroke-miterlimit:4;stroke-dasharray:none;stroke-dashoffset:0;stroke-opacity:1;paint-order:markers fill stroke"
       id="rect933"
       width="27.804876"
       height="6.7115221"
       x="656.77039"
       y="760.81586" /></g><path
     style="color:#000000;font-style:normal;font-variant:normal;font-weight:normal;font-stretch:normal;font-size:medium;line-height:normal;font-family:sans-serif;font-variant-ligatures:normal;font-variant-position:normal;font-variant-caps:normal;font-variant-numeric:normal;font-variant-alternates:normal;font-feature-settings:normal;text-indent:0;text-align:start;text-decoration:none;text-decoration-line:none;text-decoration-style:solid;text-decoration-color:#000000;letter-spacing:normal;word-spacing:normal;text-transform:none;writing-mode:lr-tb;direction:ltr;text-orientation:mixed;dominant-baseline:auto;baseline-shift:baseline;text-anchor:start;white-space:normal;shape-padding:0;clip-rule:nonzero;display:inline;overflow:visible;visibility:visible;opacity:1;isolation:auto;mix-blend-mode:normal;color-interpolation:sRGB;color-interpolation-filters:linearRGB;solid-color:#000000;solid-opacity:1;vector-effect:none;fill:#008080;fill-opacity:1;fill-rule:nonzero;stroke:#000000;stroke-width:4;stroke-linecap:butt;stroke-linejoin:miter;stroke-miterlimit:4;stroke-dasharray:none;stroke-dashoffset:0;stroke-opacity:1;paint-order:markers stroke fill;color-rendering:auto;image-rendering:auto;shape-rendering:auto;text-rendering:auto;enable-background:accumulate"
     d="m 359.08779,272.11789 c 0.32796,2.23811 0.98294,3.58621 2.08776,5.79586 6.52642,13.05282 18.43937,18.45069 25.80664,24.94727 3.68363,3.24829 6.3425,6.54396 7.77148,11.25391 1.42898,4.70994 1.64982,11.14486 -0.73633,20.68945 -1.64678,6.58711 -10.99175,13.47971 -19.76758,21.70703 -4.38791,4.11366 -8.58977,8.72791 -10.79296,14.69531 -2.20319,5.9674 -1.93022,13.17083 1.78711,20.60547 2.70909,5.41818 7.23264,8.92709 11.96093,11.19141 4.7283,2.26432 9.75591,3.51041 14.51563,4.79101 9.51943,2.5612 17.18835,4.90797 20.98047,12.49219 1.85367,3.70735 1.96166,6.74242 1.09961,9.75781 -0.86206,3.0154 -2.89423,6.03971 -5.76953,8.71289 -5.75062,5.34636 -14.914,8.86914 -20.68946,8.86914 v 10 c 9.25572,0 19.73089,-4.32377 27.49805,-11.54492 3.88358,-3.61057 7.07874,-8.04921 8.57617,-13.28711 1.49743,-5.23789 1.09547,-11.24655 -1.77148,-16.98047 -5.84713,-11.69425 -17.65364,-15.07534 -27.32618,-17.67773 -4.83626,-1.3012 -9.3334,-2.49466 -12.79492,-4.15234 -3.46152,-1.65768 -5.79095,-3.55456 -7.33594,-6.64454 -2.75471,-5.50943 -2.66255,-9.11376 -1.3496,-12.66992 1.31294,-3.55615 4.32288,-7.17979 8.25195,-10.86328 7.85813,-7.36697 19.56235,-14.30997 22.62891,-26.57617 2.68064,-10.72259 2.69194,-19.14249 0.60546,-26.01953 -2.08647,-6.87704 -6.24908,-11.90129 -10.72656,-15.84961 -8.95497,-7.89665 -18.71959,-12.40012 -23.47851,-21.91797 -0.36246,-0.72491 -0.63439,-0.60793 -0.8268,-1.42692 z"
     id="path1009"
     inkscape:connector-curvature="0"
     sodipodi:nodetypes="csssssscsscccccssccsscsccsccc" /><rect
     style="opacity:1;vector-effect:none;fill:#004e4e;fill-opacity:1;stroke:#000000;stroke-width:2;stroke-linecap:round;stroke-linejoin:round;stroke-miterlimit:4;stroke-dasharray:none;stroke-dashoffset:0;stroke-opacity:1;paint-order:markers stroke fill"
     id="rect1013"
     width="2.7118645"
     height="5.5932202"
     x="388.27438"
     y="449.66125" /><rect
     style="opacity:1;vector-effect:none;fill:#d45500;fill-opacity:1;stroke:#000000;stroke-width:2;stroke-linecap:round;stroke-linejoin:round;stroke-miterlimit:4;stroke-dasharray:none;stroke-dashoffset:0;stroke-opacity:1;paint-order:markers stroke fill"
     id="rect1015"
     width="21.565807"
     height="3.1160638"
     x="446.87958"
     y="368.9856"
     ry="1.5580319"
     rx="1.5580319"
     inkscape:transform-center-x="9.2556422"
     inkscape:transform-center-y="-1.7891328"
     transform="rotate(10.940539)" /><path
     sodipodi:type="star"
     style="opacity:1;vector-effect:none;fill:#ffff00;fill-opacity:1;stroke:#000000;stroke-width:2;stroke-linecap:round;stroke-linejoin:round;stroke-miterlimit:4;stroke-dasharray:none;stroke-dashoffset:0;stroke-opacity:1;paint-order:markers stroke fill"
     id="path1017"
     sodipodi:sides="5"
     sodipodi:cx="368.35913"
     sodipodi:cy="435.50874"
     sodipodi:r1="6.840826"
     sodipodi:r2="2.0475967"
     sodipodi:arg1="0.78539816"
     sodipodi:arg2="1.4429209"
     inkscape:flatsided="false"
     inkscape:rounded="0"
     inkscape:randomized="0"
     d="m 373.19633,440.34592 -4.57607,-2.80631 -3.3668,4.06434 1.25488,-5.2193 -4.90581,-1.94606 5.35163,-0.41939 0.33483,-5.26708 2.05261,4.96011 5.11275,-1.30917 -4.08305,3.4849 z"
     inkscape:transform-center-x="-0.037423402"
     inkscape:transform-center-y="0.037423402" /><path
     inkscape:transform-center-y="0.037423402"
     inkscape:transform-center-x="-0.037423402"
     d="m 379.0438,467.57035 -4.57607,-2.80632 -3.3668,4.06434 1.25489,-5.2193 -4.90582,-1.94606 5.35163,-0.41939 0.33483,-5.26707 2.05261,4.9601 5.11275,-1.30917 -4.08304,3.48491 z"
     inkscape:randomized="0"
     inkscape:rounded="0"
     inkscape:flatsided="false"
     sodipodi:arg2="1.4429209"
     sodipodi:arg1="0.78539816"
     sodipodi:r2="2.0475967"
     sodipodi:r1="6.840826"
     sodipodi:cy="462.73316"
     sodipodi:cx="374.2066"
     sodipodi:sides="5"
     id="path1019"
     style="opacity:1;vector-effect:none;fill:#ffff00;fill-opacity:1;stroke:#000000;stroke-width:2;stroke-linecap:round;stroke-linejoin:round;stroke-miterlimit:4;stroke-dasharray:none;stroke-dashoffset:0;stroke-opacity:1;paint-order:markers stroke fill"
     sodipodi:type="star" /><path
     sodipodi:type="star"
     style="opacity:1;vector-effect:none;fill:#ffff00;fill-opacity:1;stroke:#000000;stroke-width:2;stroke-linecap:round;stroke-linejoin:round;stroke-miterlimit:4;stroke-dasharray:none;stroke-dashoffset:0;stroke-opacity:1;paint-order:markers stroke fill"
     id="path1021"
     sodipodi:sides="5"
     sodipodi:cx="348.27441"
     sodipodi:cy="445.1908"
     sodipodi:r1="6.840826"
     sodipodi:r2="2.0475967"
     sodipodi:arg1="0.78539816"
     sodipodi:arg2="1.4429209"
     inkscape:flatsided="false"
     inkscape:rounded="0"
     inkscape:randomized="0"
     d="m 353.11161,450.02799 -4.57607,-2.80632 -3.3668,4.06435 1.25489,-5.2193 -4.90582,-1.94607 5.35163,-0.41938 0.33483,-5.26708 2.05261,4.96011 5.11275,-1.30917 -4.08304,3.4849 z"
     inkscape:transform-center-x="-0.037423402"
     inkscape:transform-center-y="0.037423402" /><path
     inkscape:transform-center-y="0.037423402"
     inkscape:transform-center-x="-0.037423402"
     d="m 346.41666,471.55341 -4.57607,-2.80631 -3.36679,4.06434 1.25488,-5.2193 -4.90582,-1.94606 5.35163,-0.41939 0.33484,-5.26708 2.0526,4.96011 5.11276,-1.30917 -4.08305,3.4849 z"
     inkscape:randomized="0"
     inkscape:rounded="0"
     inkscape:flatsided="false"
     sodipodi:arg2="1.4429209"
     sodipodi:arg1="0.78539816"
     sodipodi:r2="2.0475967"
     sodipodi:r1="6.840826"
     sodipodi:cy="466.71623"
     sodipodi:cx="341.57947"
     sodipodi:sides="5"
     id="path1023"
     style="opacity:1;vector-effect:none;fill:#ffff00;fill-opacity:1;stroke:#000000;stroke-width:2;stroke-linecap:round;stroke-linejoin:round;stroke-miterlimit:4;stroke-dasharray:none;stroke-dashoffset:0;stroke-opacity:1;paint-order:markers stroke fill"
     sodipodi:type="star" /><path
     sodipodi:type="star"
     style="opacity:1;vector-effect:none;fill:#ffff00;fill-opacity:1;stroke:#000000;stroke-width:2;stroke-linecap:round;stroke-linejoin:round;stroke-miterlimit:4;stroke-dasharray:none;stroke-dashoffset:0;stroke-opacity:1;paint-order:markers stroke fill"
     id="path1025"
     sodipodi:sides="5"
     sodipodi:cx="348.78287"
     sodipodi:cy="421.5467"
     sodipodi:r1="6.840826"
     sodipodi:r2="2.0475967"
     sodipodi:arg1="0.78539816"
     sodipodi:arg2="1.4429209"
     inkscape:flatsided="false"
     inkscape:rounded="0"
     inkscape:randomized="0"
     d="m 353.62006,426.38389 -4.57607,-2.80632 -3.36679,4.06434 1.25488,-5.2193 -4.90582,-1.94606 5.35163,-0.41939 0.33484,-5.26707 2.0526,4.9601 5.11276,-1.30917 -4.08305,3.4849 z"
     inkscape:transform-center-x="-0.037423402"
     inkscape:transform-center-y="0.037423402" /><path
     inkscape:transform-center-y="0.037423402"
     inkscape:transform-center-x="-0.037423402"
     d="m 388.04752,428.2483 -4.57607,-2.80632 -3.36679,4.06434 1.25488,-5.2193 -4.90582,-1.94606 5.35163,-0.41939 0.33484,-5.26707 2.0526,4.9601 5.11276,-1.30917 -4.08305,3.4849 z"
     inkscape:randomized="0"
     inkscape:rounded="0"
     inkscape:flatsided="false"
     sodipodi:arg2="1.4429209"
     sodipodi:arg1="0.78539816"
     sodipodi:r2="2.0475967"
     sodipodi:r1="6.840826"
     sodipodi:cy="423.41111"
     sodipodi:cx="383.21033"
     sodipodi:sides="5"
     id="path1027"
     style="opacity:1;vector-effect:none;fill:#ffff00;fill-opacity:1;stroke:#000000;stroke-width:2;stroke-linecap:round;stroke-linejoin:round;stroke-miterlimit:4;stroke-dasharray:none;stroke-dashoffset:0;stroke-opacity:1;paint-order:markers stroke fill"
     sodipodi:type="star" /><path
     sodipodi:type="star"
     style="opacity:1;vector-effect:none;fill:#ffff00;fill-opacity:1;stroke:#000000;stroke-width:2;stroke-linecap:round;stroke-linejoin:round;stroke-miterlimit:4;stroke-dasharray:none;stroke-dashoffset:0;stroke-opacity:1;paint-order:markers stroke fill"
     id="path1029"
     sodipodi:sides="5"
     sodipodi:cx="374.2066"
     sodipodi:cy="462.73316"
     sodipodi:r1="6.840826"
     sodipodi:r2="2.0475967"
     sodipodi:arg1="0.78539816"
     sodipodi:arg2="1.4429209"
     inkscape:flatsided="false"
     inkscape:rounded="0"
     inkscape:randomized="0"
     d="m 379.0438,467.57035 -4.57607,-2.80632 -3.3668,4.06434 1.25489,-5.2193 -4.90582,-1.94606 5.35163,-0.41939 0.33483,-5.26707 2.05261,4.9601 5.11275,-1.30917 -4.08304,3.48491 z"
     inkscape:transform-center-x="-0.037423402"
     inkscape:transform-center-y="0.037423402" /><g
     id="g7655"
     transform="translate(-790.27972,120.72561)"
     style="display:inline"><rect
       style="opacity:1;fill:#333333;fill-opacity:1;stroke:#000000;stroke-width:2.16911006;stroke-linecap:round;stroke-linejoin:round;stroke-miterlimit:4;stroke-dasharray:none;stroke-dashoffset:0;stroke-opacity:1;paint-order:markers fill stroke"
       id="rect3767"
       width="67.695778"
       height="112.28677"
       x="572.63531"
       y="619.5069"
       ry="11.138605"
       rx="11.138605" /><rect
       style="opacity:1;fill:#999999;fill-opacity:1;stroke:#000000;stroke-width:2.16911006;stroke-linecap:round;stroke-linejoin:round;stroke-miterlimit:4;stroke-dasharray:none;stroke-dashoffset:0;stroke-opacity:1;paint-order:markers fill stroke"
       id="rect3765"
       width="67.695778"
       height="112.28677"
       x="582.89227"
       y="619.5069"
       ry="11.138605"
       rx="11.138605" /><circle
       style="opacity:0.47808802;fill:#0000ff;fill-opacity:1;stroke:#000000;stroke-width:1;stroke-linecap:round;stroke-linejoin:round;stroke-miterlimit:4;stroke-dasharray:none;stroke-dashoffset:0;stroke-opacity:1;paint-order:markers fill stroke"
       id="path3821"
       cx="616.74017"
       cy="700.92413"
       r="21.563168" /><circle
       style="opacity:0.47808802;fill:#000080;fill-opacity:1;stroke:#000000;stroke-width:1;stroke-linecap:round;stroke-linejoin:round;stroke-miterlimit:4;stroke-dasharray:none;stroke-dashoffset:0;stroke-opacity:1;paint-order:markers fill stroke"
       id="circle3842"
       cx="616.74017"
       cy="659.25153"
       r="10.928577" /><circle
       style="opacity:0.47808802;fill:#000080;fill-opacity:1;stroke:#000000;stroke-width:1;stroke-linecap:round;stroke-linejoin:round;stroke-miterlimit:4;stroke-dasharray:none;stroke-dashoffset:0;stroke-opacity:1;paint-order:markers fill stroke"
       id="circle3844"
       cx="616.74017"
       cy="700.92413"
       r="7.9508924" /><rect
       style="opacity:1;fill:#4d4d4d;fill-opacity:1;stroke:none;stroke-width:2;stroke-linecap:round;stroke-linejoin:round;stroke-miterlimit:4;stroke-dasharray:none;stroke-dashoffset:0;stroke-opacity:1;paint-order:markers fill stroke"
       id="rect6921"
       width="44.822315"
       height="7.7530489"
       x="594.32898"
       y="629.20837"
       ry="3.8765244"
       rx="3.8765244" /></g><rect
     style="opacity:1;vector-effect:none;fill:#806600;fill-opacity:1;stroke:#000000;stroke-width:2;stroke-linecap:round;stroke-linejoin:round;stroke-miterlimit:4;stroke-dasharray:none;stroke-dashoffset:0;stroke-opacity:1;paint-order:markers fill stroke"
     id="rect4752"
     width="738"
     height="22.743519"
     x="1"
     y="986.25647" /><g
     id="g927"
     transform="matrix(0.83020627,0,0,0.83020627,11.492952,74.06531)"><circle
       transform="scale(-1,1)"
       style="display:inline;fill:#ffffff;fill-opacity:1;stroke:#000000;stroke-width:5.6497612;stroke-linecap:round;stroke-linejoin:round;stroke-miterlimit:4;stroke-dasharray:none;stroke-dashoffset:0;stroke-opacity:1;paint-order:markers fill stroke"
       id="circle906-4-1-0-3"
       cx="-744.71442"
       cy="372.05243"
       r="45.955704" /><path
       style="display:inline;fill:#000000;stroke:#000000;stroke-width:0.94162685px;stroke-linecap:butt;stroke-linejoin:miter;stroke-opacity:1"
       d="m 790.96408,372.0972 -91.62938,-3.2264 -0.64527,9.0339 3.87166,12.9056 80.33703,3.8716 c 0,0 5.80749,-6.2914 5.80749,-8.2273 0,-1.9358 2.25847,-14.3574 2.25847,-14.3574 z"
       id="path13849-7-5-7"
       sodipodi:nodetypes="cccccsc"
       inkscape:connector-curvature="0" /><path
       style="display:inline;fill:none;stroke:#000000;stroke-width:5.6497612;stroke-linecap:round;stroke-linejoin:round;stroke-dasharray:none;stroke-opacity:1;paint-order:markers fill stroke"
       d="m 748.32082,419.9181 6.40751,103.90579 -57.60942,37.5625 -66.56549,56.6447"
       id="path13052-4-0-9"
       inkscape:connector-curvature="0"
       sodipodi:nodetypes="cccc" /><path
       style="display:inline;fill:none;stroke:#000000;stroke-width:5.6497612;stroke-linecap:round;stroke-linejoin:round;stroke-dasharray:none;stroke-opacity:1;paint-order:markers fill stroke"
       d="m 754.72833,523.82389 -11.86394,71.2624 49.42638,47.1996"
       id="path13054-4-4-0"
       inkscape:connector-curvature="0"
       sodipodi:nodetypes="ccc" /><path
       style="display:inline;opacity:1;fill:none;fill-opacity:1;stroke:#000000;stroke-width:5.6497612;stroke-linecap:round;stroke-linejoin:round;stroke-miterlimit:4;stroke-dasharray:none;stroke-dashoffset:0;stroke-opacity:1;paint-order:markers fill stroke"
       d="M 746.87523,420.4646 681.68994,459.73439 640.24319,407.9473"
       id="path13851-1-5-9"
       inkscape:connector-curvature="0"
       sodipodi:nodetypes="ccc" /><circle
       style="display:inline;fill:#ffffff;fill-opacity:1;stroke:#000000;stroke-width:1.13621819;stroke-linecap:round;stroke-linejoin:round;stroke-miterlimit:4;stroke-dasharray:none;stroke-dashoffset:0;stroke-opacity:1;paint-order:markers fill stroke"
       id="circle1043-52-8-0-1"
       cx="100.98608"
       cy="-806.45105"
       transform="matrix(0.57379544,-0.81899865,-0.81899865,-0.57379544,0,0)"
       r="11.080264" /><circle
       transform="matrix(0.03521667,-0.9993797,-0.9993797,-0.03521667,0,0)"
       style="display:inline;fill:#000000;fill-opacity:1;stroke:none;stroke-width:0.94162685;stroke-linecap:round;stroke-linejoin:round;stroke-miterlimit:4;stroke-dasharray:none;stroke-dashoffset:0;stroke-opacity:1;paint-order:markers fill stroke"
       id="circle1045-0-9-6-5"
       cx="-358.61182"
       cy="-725.27295"
       r="2.0532598" /><circle
       r="9.1826334"
       transform="matrix(0.57379544,-0.81899865,-0.81899865,-0.57379544,0,0)"
       cy="-828.35516"
       cx="113.64978"
       id="circle1532-3-9-7"
       style="display:inline;fill:#ffffff;fill-opacity:1;stroke:#000000;stroke-width:0.94162685;stroke-linecap:round;stroke-linejoin:round;stroke-miterlimit:4;stroke-dasharray:none;stroke-dashoffset:0;stroke-opacity:1;paint-order:markers fill stroke" /><circle
       transform="matrix(0.03521667,-0.9993797,-0.9993797,-0.03521667,0,0)"
       r="2.0532598"
       cy="-752.07611"
       cx="-358.92651"
       id="circle1534-7-9-7"
       style="display:inline;fill:#000000;fill-opacity:1;stroke:none;stroke-width:0.94162685;stroke-linecap:round;stroke-linejoin:round;stroke-miterlimit:4;stroke-dasharray:none;stroke-dashoffset:0;stroke-opacity:1;paint-order:markers fill stroke" /><circle
       transform="scale(-1,1)"
       r="9.5488949"
       cy="412.54584"
       cx="-728.92981"
       id="path915-0-9"
       style="display:inline;opacity:1;vector-effect:none;fill:#ff2a2a;fill-opacity:1;stroke:#000000;stroke-width:2.24679875;stroke-linecap:round;stroke-linejoin:round;stroke-miterlimit:4;stroke-dasharray:none;stroke-dashoffset:0;stroke-opacity:1;paint-order:markers stroke fill" /><path
       sodipodi:nodetypes="ccc"
       inkscape:connector-curvature="0"
       id="path883-8-7"
       d="m 660.68906,512.67569 72.28502,1.6162 13.90115,-93.82729"
       style="display:inline;opacity:1;fill:none;fill-opacity:1;stroke:#000000;stroke-width:5.6497612;stroke-linecap:round;stroke-linejoin:round;stroke-miterlimit:4;stroke-dasharray:none;stroke-dashoffset:0;stroke-opacity:1;paint-order:markers fill stroke" /></g><g
     style="display:inline"
     id="g14000"
     transform="matrix(0.78296236,0,0,0.78296236,-906.20495,327.31713)"><g
       id="g13980"
       transform="matrix(-1,0,0,1,1936.3255,0.96913113)"
       style="display:inline"><circle
         style="fill:#ffffff;fill-opacity:1;stroke:#000000;stroke-width:6;stroke-linecap:round;stroke-linejoin:round;stroke-miterlimit:4;stroke-dasharray:none;stroke-dashoffset:0;stroke-opacity:1;paint-order:markers fill stroke"
         id="circle13968"
         cx="473.73413"
         cy="440.12616"
         r="48.804577" /><path
         style="fill:#000000;stroke:#000000;stroke-width:1.26861px;stroke-linecap:butt;stroke-linejoin:miter;stroke-opacity:1"
         d="m 412.51064,432.75614 c 1.52137,-0.43468 102.58348,0 102.58348,0 l 3.41346,12.73919 h -6.45619 l -2.72595,-4.72148 H 475.9733 l -5.24261,19.56567 h -27.79275 l -3.73713,-9.35423 -3.73715,8.60453 h -17.51957 z"
         id="path13970"
         sodipodi:nodetypes="cccccccccccc"
         inkscape:connector-curvature="0" /><path
         id="path13972"
         style="fill:#333333;stroke:#000000;stroke-width:1px;stroke-linecap:butt;stroke-linejoin:miter;stroke-opacity:1"
         sodipodi:type="inkscape:offset"
         inkscape:radius="-0.68472075"
         inkscape:original="M 589.10547 232.69531 C 569.03964 232.65248 548.82228 232.6529 548.22266 232.82422 L 552.50586 253.97656 L 566.31641 253.97656 L 569.26172 247.19336 L 572.20898 254.56641 L 594.11523 254.56641 L 598.24805 239.14453 L 624.53906 239.14453 L 626.6875 242.86523 L 631.77734 242.86523 L 629.08594 232.82422 C 629.08594 232.82422 609.1713 232.73814 589.10547 232.69531 z "
         d="m 561.36523,233.36328 c -3.8178,0.008 -7.02677,0.0234 -9.3164,0.0469 -1.14482,0.0117 -2.06016,0.0268 -2.70313,0.043 -0.12641,0.003 -0.19005,0.006 -0.29492,0.01 l 4.01563,19.82813 h 12.80078 l 2.76562,-6.3711 a 0.68478923,0.68478923 0 0 1 1.26563,0.0195 l 2.77344,6.94141 h 20.91796 l 3.9961,-14.91406 a 0.68478923,0.68478923 0 0 1 0.66211,-0.50782 h 26.29101 a 0.68478923,0.68478923 0 0 1 0.59375,0.34375 l 1.94922,3.37696 h 3.80274 l -2.32618,-8.67188 c -0.5113,-0.002 -19.65294,-0.0847 -39.45507,-0.12695 -10.03242,-0.0214 -20.10267,-0.0337 -27.73829,-0.0176 z"
         transform="matrix(1.2686092,0,0,1.2686092,-282.97053,137.39397)" /><path
         style="opacity:1;fill:none;fill-opacity:1;stroke:#000000;stroke-width:6;stroke-linecap:round;stroke-linejoin:round;stroke-miterlimit:4;stroke-dasharray:none;stroke-dashoffset:0;stroke-opacity:1;paint-order:markers fill stroke"
         d="m 475.84338,491.83405 v 109.51182 l 14.39086,71.39741 61.95307,34.57879"
         id="path13974"
         sodipodi:nodetypes="cccc"
         inkscape:connector-curvature="0" /><path
         style="opacity:1;fill:none;fill-opacity:1;stroke:#000000;stroke-width:6;stroke-linecap:round;stroke-linejoin:round;stroke-miterlimit:4;stroke-dasharray:none;stroke-dashoffset:0;stroke-opacity:1;paint-order:markers fill stroke"
         d="m 475.84338,601.34587 -52.56824,54.63243 -24.96225,85.40702"
         id="path13976"
         sodipodi:nodetypes="ccc"
         inkscape:connector-curvature="0" /><path
         style="opacity:1;fill:none;fill-opacity:1;stroke:#000000;stroke-width:6;stroke-linecap:round;stroke-linejoin:round;stroke-miterlimit:4;stroke-dasharray:none;stroke-dashoffset:0;stroke-opacity:1;paint-order:markers fill stroke"
         d="m 402.18941,537.86778 87.70637,29.55849 -14.0524,-75.59222 -51.84851,24.22827 -71.23114,-45.54916"
         id="path13978"
         sodipodi:nodetypes="ccccc"
         inkscape:connector-curvature="0" /></g><path
       style="fill:none;stroke:#000000;stroke-width:1px;stroke-linecap:butt;stroke-linejoin:miter;stroke-opacity:1"
       d="m 1452.4492,475.9264 c 17.3525,-15.32411 22.5821,-10.73214 27.4112,-5.48223 -7.5128,-2.46542 -18.2407,1.01409 -27.4112,5.48223 z"
       id="path13984"
       sodipodi:nodetypes="ccc"
       inkscape:connector-curvature="0" /><path
       style="fill:none;stroke:#000000;stroke-width:1px;stroke-linecap:butt;stroke-linejoin:miter;stroke-opacity:1"
       d="m 1497.6777,430.01269 4.7969,-8.56599"
       id="path13986"
       sodipodi:nodetypes="cc"
       inkscape:connector-curvature="0" /><path
       style="fill:none;stroke:#000000;stroke-width:1px;stroke-linecap:butt;stroke-linejoin:miter;stroke-opacity:1"
       d="m 1479.5178,420.59011 8.7373,9.76522"
       id="path13988"
       sodipodi:nodetypes="cc"
       inkscape:connector-curvature="0" /></g></svg>