<?xml version="1.0" encoding="UTF-8" standalone="no"?>
<!-- Created with Inkscape (http://www.inkscape.org/) -->

<svg
   xmlns:dc="http://purl.org/dc/elements/1.1/"
   xmlns:cc="http://creativecommons.org/ns#"
   xmlns:rdf="http://www.w3.org/1999/02/22-rdf-syntax-ns#"
   xmlns:svg="http://www.w3.org/2000/svg"
   xmlns="http://www.w3.org/2000/svg"
   xmlns:sodipodi="http://sodipodi.sourceforge.net/DTD/sodipodi-0.dtd"
   xmlns:inkscape="http://www.inkscape.org/namespaces/inkscape"
   width="740"
   height="1280"
   version="1.1"
   viewBox="0 0 740 1280"
   xml:space="preserve"
   id="svg18"
   sodipodi:docname="level27.svg"
   inkscape:version="0.92.5 (2060ec1f9f, 2020-04-08)"><defs
     id="defs22" /><sodipodi:namedview
     pagecolor="#ffffff"
     bordercolor="#666666"
     borderopacity="1"
     objecttolerance="10"
     gridtolerance="10"
     guidetolerance="10"
     inkscape:pageopacity="0"
     inkscape:pageshadow="2"
     inkscape:window-width="1920"
     inkscape:window-height="986"
     id="namedview20"
     showgrid="false"
     inkscape:zoom="1"
     inkscape:cx="529.90518"
     inkscape:cy="769.99071"
     inkscape:window-x="1909"
     inkscape:window-y="49"
     inkscape:window-maximized="1"
     inkscape:current-layer="svg18"
     inkscape:snap-bbox="true"
     inkscape:bbox-paths="true"
     inkscape:snap-bbox-edge-midpoints="true"
     inkscape:bbox-nodes="true"
     inkscape:snap-bbox-midpoints="true"
     inkscape:object-paths="true"
     inkscape:snap-intersection-paths="true"
     inkscape:snap-smooth-nodes="true"
     inkscape:snap-midpoints="true"
     inkscape:snap-object-midpoints="true"
     inkscape:snap-center="true"
     inkscape:snap-text-baseline="true"
     inkscape:snap-page="true"
     inkscape:snap-global="false" /><metadata
     id="metadata2"><rdf:RDF><cc:Work
         rdf:about=""><dc:format>image/svg+xml</dc:format><dc:type
           rdf:resource="http://purl.org/dc/dcmitype/StillImage" /><dc:title /></cc:Work></rdf:RDF></metadata><rect
     style="opacity:1;vector-effect:none;fill:#3ed8d8;fill-opacity:1;stroke:#000000;stroke-width:0.99999994;stroke-linecap:round;stroke-linejoin:miter;stroke-miterlimit:4;stroke-dasharray:none;stroke-dashoffset:0;stroke-opacity:1;paint-order:normal"
     id="rect821"
     width="739"
     height="739"
     x="0.49998033"
     y="270.49994" /><path
     style="opacity:1;vector-effect:none;fill:#8d5a00;fill-opacity:1;stroke:#000000;stroke-width:1px;stroke-linecap:butt;stroke-linejoin:miter;stroke-miterlimit:4;stroke-dasharray:none;stroke-dashoffset:0;stroke-opacity:1"
     d="m 249.95332,536.39993 c 49.91818,16.22623 84.42263,-3.9805 126,2 16.08932,2.31429 30.7837,11.8803 47,13 37.90682,2.61739 75.64215,-21.9404 113,-15 8.21278,1.52578 13.99128,9.6255 22,12 35.25888,10.45389 78.32328,-10.18308 110,8.5 13.57735,8.00798 20.46665,24.74011 26,39.5 8.68028,23.15413 26.85718,55.41477 10,73.5061 -38.71111,41.54522 -113.67096,-18.18299 -170,-11 -20.43838,2.60627 -38.11089,18.78105 -58.70711,19.34314 -17.7033,0.48315 -33.60231,-14.67616 -51.29289,-13.84924 -23.81141,1.11303 -43.16333,24.81195 -67,25 -53.76738,0.42418 -113.80962,-16.15022 -152,-54 -13.10737,-12.99047 -24.33936,-34.33515 -19,-52 7.65802,-25.33595 38.82844,-55.18218 64,-47 z"
     id="path857"
     inkscape:connector-curvature="0"
     sodipodi:nodetypes="saaaaaaaaaaaaas" /><path
     style="fill:#000000;fill-opacity:0.27096775;stroke:none;stroke-width:1px;stroke-linecap:butt;stroke-linejoin:miter;stroke-opacity:1"
     d="m 229.07684,583.72588 c 2.82254,-13.53363 62.15272,-8.05278 93.42359,-8.93842 14.96833,-0.42393 29.919,1.39112 44.88925,1.74069 8.34604,0.19489 16.69658,0.0888 25.04417,0.19874 26.0623,0.34325 52.18001,3.26623 78.18043,1.43898 14.04548,-0.98709 27.63663,-6.22115 41.70939,-6.67663 11.44923,-0.37056 22.77428,2.62834 34.2139,3.22629 32.01872,1.67364 66.06561,-9.99702 96.18209,1.00285 7.64541,2.79244 21.05678,7.71248 18.83317,15.54226 -5.39203,18.98636 -39.00838,9.89042 -58.66043,8.05943 -4.99225,-0.46513 -9.26739,-4.38594 -14.26691,-4.765 -15.39836,-1.16749 -30.22442,7.20383 -45.65201,7.88315 -13.61073,0.59931 -27.16549,-4.64686 -40.73111,-3.38782 -6.96609,0.64654 -13.24327,5.44917 -20.23843,5.55929 -11.12541,0.17514 -21.33323,-7.363 -32.45047,-7.82415 -16.40404,-0.68045 -32.30778,6.23426 -48.67394,7.53973 -14.30339,1.14093 -28.84764,-1.83637 -43.04583,0.23738 -6.44021,0.94064 -12.25547,4.92813 -18.74046,5.48133 -21.40329,1.8258 -43.2235,-1.98202 -64.02219,-7.35316 -16.05681,-4.14658 -49.84638,-0.4944 -45.99421,-18.96494 z"
     id="path873"
     inkscape:connector-curvature="0"
     sodipodi:nodetypes="saaaaaaaaaaaaaaaaaas" /><path
     sodipodi:nodetypes="saaaaaaaaaaaaas"
     inkscape:connector-curvature="0"
     id="path875"
     d="m 140.7254,803.37302 c 49.91818,16.22623 84.42263,-3.9805 126,2 16.08932,2.31429 30.7837,11.8803 47,13 37.90682,2.61739 75.64215,-21.9404 113,-15 8.21278,1.52578 13.99128,9.6255 22,12 35.25888,10.45389 78.32328,-10.18308 110,8.5 13.57735,8.00798 20.46665,24.74011 26,39.5 8.68028,23.15413 26.85718,55.41477 10,73.5061 -38.71111,41.54522 -113.67096,-18.18299 -170,-11 -20.43838,2.60627 -38.11089,18.78105 -58.70711,19.34314 -17.7033,0.48315 -33.60231,-14.67616 -51.29289,-13.84924 -23.81141,1.11303 -43.16333,24.81195 -67,25 -53.76738,0.42418 -113.80962,-16.15022 -152.000002,-54 -13.10737,-12.99047 -24.33936,-34.33515 -19,-52 7.65802,-25.33595 38.828442,-55.18218 64.000002,-47 z"
     style="opacity:1;vector-effect:none;fill:#8d5a00;fill-opacity:1;stroke:#000000;stroke-width:1px;stroke-linecap:butt;stroke-linejoin:miter;stroke-miterlimit:4;stroke-dasharray:none;stroke-dashoffset:0;stroke-opacity:1" /><path
     sodipodi:nodetypes="saaaaaaaaaaaaaaaaaas"
     inkscape:connector-curvature="0"
     id="path877"
     d="m 119.84892,850.69897 c 2.82254,-13.53363 62.15272,-8.05278 93.42359,-8.93842 14.96833,-0.42393 29.919,1.39112 44.88925,1.74069 8.34604,0.19489 16.69658,0.0888 25.04417,0.19874 26.0623,0.34325 52.18001,3.26623 78.18043,1.43898 14.04548,-0.98709 27.63663,-6.22115 41.70939,-6.67663 11.44923,-0.37056 22.77428,2.62834 34.2139,3.22629 32.01872,1.67364 66.06561,-9.99702 96.18209,1.00285 7.64541,2.79244 21.05678,7.71248 18.83317,15.54226 -5.39203,18.98636 -39.00838,9.89042 -58.66043,8.05943 -4.99225,-0.46513 -9.26739,-4.38594 -14.26691,-4.765 -15.39836,-1.16749 -30.22442,7.20383 -45.65201,7.88315 -13.61073,0.59931 -27.16549,-4.64686 -40.73111,-3.38782 -6.96609,0.64654 -13.24327,5.44917 -20.23843,5.55929 -11.12541,0.17514 -21.33323,-7.363 -32.45047,-7.82415 -16.40404,-0.68045 -32.30778,6.23426 -48.67394,7.53973 -14.30339,1.14093 -28.84764,-1.83637 -43.04583,0.23738 -6.44021,0.94064 -12.25547,4.92813 -18.74046,5.48133 -21.40329,1.8258 -43.2235,-1.98202 -64.02219,-7.35316 -16.05681,-4.14658 -49.84638,-0.4944 -45.99421,-18.96494 z"
     style="fill:#000000;fill-opacity:0.27096779;stroke:none;stroke-width:1px;stroke-linecap:butt;stroke-linejoin:miter;stroke-opacity:1" /><g
     id="g1093"
     transform="translate(-30.405592)"><rect
       rx="5.9520946"
       ry="5.9520946"
       y="349.63837"
       x="-442.29575"
       height="59.902382"
       width="30.64094"
       id="rect930"
       style="opacity:1;vector-effect:none;fill:#c87137;fill-opacity:1;stroke:#000000;stroke-width:2.14502144;stroke-linecap:butt;stroke-linejoin:miter;stroke-miterlimit:4;stroke-dasharray:none;stroke-dashoffset:0;stroke-opacity:1;paint-order:normal"
       transform="matrix(-0.9986197,0.05252327,0.05252327,0.9986197,0,0)" /><circle
       style="display:inline;fill:#ffffff;fill-opacity:1;stroke:#000000;stroke-width:5.02916527;stroke-linecap:round;stroke-linejoin:round;stroke-miterlimit:4;stroke-dasharray:none;stroke-dashoffset:0;stroke-opacity:1;paint-order:markers fill stroke"
       id="circle906-4-1"
       cx="418.54626"
       cy="342.80869"
       r="40.907715" /><path
       style="fill:#000000;stroke:#000000;stroke-width:0.83819419px;stroke-linecap:butt;stroke-linejoin:miter;stroke-opacity:1"
       d="m 377.37688,342.84854 81.56439,-2.87199 0.57439,8.04156 -3.44638,11.48795 -71.51244,3.44637 c 0,0 -5.16957,-5.60036 -5.16957,-7.32356 0,-1.72319 -2.01039,-12.78033 -2.01039,-12.78033 z"
       id="path13849-7"
       sodipodi:nodetypes="cccccsc"
       inkscape:connector-curvature="0" /><path
       style="fill:none;stroke:#000000;stroke-width:5.02916527;stroke-linecap:round;stroke-linejoin:round;stroke-dasharray:none;stroke-opacity:1;paint-order:markers fill stroke"
       d="m 416.62281,385.90306 -28.20368,75.74238 37.1392,57.47811 -16.2464,67.42257"
       id="path13052-4"
       inkscape:connector-curvature="0"
       sodipodi:nodetypes="cccc" /><path
       style="fill:none;stroke:#000000;stroke-width:5.02916527;stroke-linecap:round;stroke-linejoin:round;stroke-dasharray:none;stroke-opacity:1;paint-order:markers fill stroke"
       d="m 388.41913,461.64544 -30.22605,52.19803 10.50284,73.51497"
       id="path13054-4"
       inkscape:connector-curvature="0"
       sodipodi:nodetypes="ccc" /><path
       style="opacity:1;fill:none;fill-opacity:1;stroke:#000000;stroke-width:5.02916527;stroke-linecap:round;stroke-linejoin:round;stroke-miterlimit:4;stroke-dasharray:none;stroke-dashoffset:0;stroke-opacity:1;paint-order:markers fill stroke"
       d="m 363.84189,474.98522 -10.3449,-60.06128 63.12582,-29.02088 28.02504,56.45624"
       id="path13851-1"
       inkscape:connector-curvature="0"
       sodipodi:nodetypes="cccc" /><circle
       style="fill:#ffffff;fill-opacity:1;stroke:#000000;stroke-width:0.83819419;stroke-linecap:round;stroke-linejoin:round;stroke-miterlimit:4;stroke-dasharray:none;stroke-dashoffset:0;stroke-opacity:1;paint-order:markers fill stroke"
       id="circle1043-52-8"
       cx="-540.79108"
       cy="161.57693"
       transform="rotate(-125.01532)"
       r="8.1739702" /><circle
       transform="rotate(-92.018184)"
       style="fill:#000000;fill-opacity:1;stroke:none;stroke-width:0.83819419;stroke-linecap:round;stroke-linejoin:round;stroke-miterlimit:4;stroke-dasharray:none;stroke-dashoffset:0;stroke-opacity:1;paint-order:markers fill stroke"
       id="circle1045-0-9"
       cx="-369.97592"
       cy="430.01877"
       r="1.8277203" /><circle
       r="8.1739702"
       transform="rotate(-125.01532)"
       cy="141.6778"
       cx="-528.88989"
       id="circle1532-3"
       style="fill:#ffffff;fill-opacity:1;stroke:#000000;stroke-width:0.83819419;stroke-linecap:round;stroke-linejoin:round;stroke-miterlimit:4;stroke-dasharray:none;stroke-dashoffset:0;stroke-opacity:1;paint-order:markers fill stroke" /><circle
       transform="rotate(-92.018184)"
       r="1.8277203"
       cy="406.84805"
       cx="-370.83142"
       id="circle1534-7"
       style="fill:#000000;fill-opacity:1;stroke:none;stroke-width:0.83819419;stroke-linecap:round;stroke-linejoin:round;stroke-miterlimit:4;stroke-dasharray:none;stroke-dashoffset:0;stroke-opacity:1;paint-order:markers fill stroke" /><path
       style="opacity:1;vector-effect:none;fill:#c87137;fill-opacity:1;stroke:#000000;stroke-width:2.74343038;stroke-linecap:butt;stroke-linejoin:miter;stroke-miterlimit:4;stroke-dasharray:none;stroke-dashoffset:0;stroke-opacity:1;paint-order:normal"
       d="m 413.99244,281.46825 a 43.708891,43.708891 0 0 1 45.94357,41.35217 43.708891,43.708891 0 0 1 0.033,1.97924 l -87.12728,4.58253 a 43.708891,43.708891 0 0 1 -0.20176,-1.97036 43.708891,43.708891 0 0 1 41.35207,-45.94356 z"
       id="path932"
       inkscape:connector-curvature="0" /><rect
       rx="5.9520946"
       style="opacity:1;vector-effect:none;fill:#c87137;fill-opacity:1;stroke:#000000;stroke-width:2.14502144;stroke-linecap:butt;stroke-linejoin:miter;stroke-miterlimit:4;stroke-dasharray:none;stroke-dashoffset:0;stroke-opacity:1;paint-order:normal"
       id="rect934"
       width="30.64094"
       height="59.902382"
       x="-387.48557"
       y="354.13019"
       ry="5.9520946"
       transform="matrix(-0.9986197,0.05252327,0.05252327,0.9986197,0,0)" /><rect
       rx="5.9333339"
       style="opacity:1;vector-effect:none;fill:#000000;fill-opacity:1;stroke:none;stroke-width:2.483495;stroke-linecap:butt;stroke-linejoin:miter;stroke-miterlimit:4;stroke-dasharray:none;stroke-dashoffset:0;stroke-opacity:1;paint-order:normal"
       id="rect936"
       width="98.097786"
       height="18.986668"
       x="-447.68588"
       y="341.38959"
       ry="5.9333339"
       transform="matrix(-0.9986197,0.05252327,0.05252327,0.9986197,0,0)" /></g><g
     id="g999"
     transform="matrix(-1,0,0,1,522.96034,0)"><rect
       rx="5.9520946"
       transform="scale(-1,1)"
       style="opacity:1;vector-effect:none;fill:#c87137;fill-opacity:1;stroke:#000000;stroke-width:2.14502144;stroke-linecap:butt;stroke-linejoin:miter;stroke-miterlimit:4;stroke-dasharray:none;stroke-dashoffset:0;stroke-opacity:1;paint-order:normal"
       id="rect1221"
       width="30.64094"
       height="59.902382"
       x="-298.0235"
       y="600.39813"
       ry="5.9520946" /><circle
       r="40.907715"
       cy="617.50073"
       cx="256.48608"
       id="circle1034"
       style="display:inline;fill:#ffffff;fill-opacity:1;stroke:#000000;stroke-width:5.02916527;stroke-linecap:round;stroke-linejoin:round;stroke-miterlimit:4;stroke-dasharray:none;stroke-dashoffset:0;stroke-opacity:1;paint-order:markers fill stroke" /><path
       sodipodi:nodetypes="cccc"
       inkscape:connector-curvature="0"
       id="path1038"
       d="m 254.5626,660.59511 -12.64733,75.03527 36.43209,58.18522 -12.71086,67.42257"
       style="fill:none;stroke:#000000;stroke-width:5.02916527;stroke-linecap:round;stroke-linejoin:round;stroke-dasharray:none;stroke-opacity:1;paint-order:markers fill stroke" /><path
       sodipodi:nodetypes="ccc"
       inkscape:connector-curvature="0"
       id="path1040"
       d="m 241.91527,735.63038 -1.94178,66.34017 -46.77281,48.05912"
       style="fill:none;stroke:#000000;stroke-width:5.02916527;stroke-linecap:round;stroke-linejoin:round;stroke-dasharray:none;stroke-opacity:1;paint-order:markers fill stroke" /><path
       sodipodi:nodetypes="ccccc"
       inkscape:connector-curvature="0"
       id="path1042"
       d="m 207.63143,769.60002 -0.61881,-71.1174 47.54998,-37.88751 42.87428,55.04203 51.46076,-22.19753"
       style="opacity:1;fill:none;fill-opacity:1;stroke:#000000;stroke-width:5.02916527;stroke-linecap:round;stroke-linejoin:round;stroke-miterlimit:4;stroke-dasharray:none;stroke-dashoffset:0;stroke-opacity:1;paint-order:markers fill stroke" /><circle
       r="8.1739702"
       transform="rotate(-125.01532)"
       cy="-128.7672"
       cx="-672.77405"
       id="circle1044"
       style="fill:#ffffff;fill-opacity:1;stroke:#000000;stroke-width:0.83819419;stroke-linecap:round;stroke-linejoin:round;stroke-miterlimit:4;stroke-dasharray:none;stroke-dashoffset:0;stroke-opacity:1;paint-order:markers fill stroke" /><circle
       transform="rotate(-92.018184)"
       r="1.8277203"
       cy="262.99658"
       cx="-636.49945"
       id="circle1046"
       style="fill:#000000;fill-opacity:1;stroke:none;stroke-width:0.83819419;stroke-linecap:round;stroke-linejoin:round;stroke-miterlimit:4;stroke-dasharray:none;stroke-dashoffset:0;stroke-opacity:1;paint-order:markers fill stroke" /><circle
       style="fill:#ffffff;fill-opacity:1;stroke:#000000;stroke-width:0.83819419;stroke-linecap:round;stroke-linejoin:round;stroke-miterlimit:4;stroke-dasharray:none;stroke-dashoffset:0;stroke-opacity:1;paint-order:markers fill stroke"
       id="circle1052"
       cx="-660.87286"
       cy="-148.66634"
       transform="rotate(-125.01532)"
       r="8.1739702" /><circle
       transform="rotate(-92.018184)"
       style="fill:#000000;fill-opacity:1;stroke:none;stroke-width:0.83819419;stroke-linecap:round;stroke-linejoin:round;stroke-miterlimit:4;stroke-dasharray:none;stroke-dashoffset:0;stroke-opacity:1;paint-order:markers fill stroke"
       id="circle1054"
       cx="-637.35498"
       cy="239.82587"
       r="1.8277203" /><path
       inkscape:connector-curvature="0"
       id="path1181"
       d="m 254.36509,553.58377 a 43.708891,43.708891 0 0 1 43.7082,43.7082 43.708891,43.708891 0 0 1 -0.071,1.97824 h -87.2477 a 43.708891,43.708891 0 0 1 -0.098,-1.97824 43.708891,43.708891 0 0 1 43.7081,-43.7082 z"
       style="opacity:1;vector-effect:none;fill:#c87137;fill-opacity:1;stroke:#000000;stroke-width:2.74343038;stroke-linecap:butt;stroke-linejoin:miter;stroke-miterlimit:4;stroke-dasharray:none;stroke-dashoffset:0;stroke-opacity:1;paint-order:normal" /><rect
       rx="5.9520946"
       transform="scale(-1,1)"
       ry="5.9520946"
       y="604.88995"
       x="-243.2133"
       height="59.902382"
       width="30.64094"
       id="rect1186"
       style="opacity:1;vector-effect:none;fill:#c87137;fill-opacity:1;stroke:#000000;stroke-width:2.14502144;stroke-linecap:butt;stroke-linejoin:miter;stroke-miterlimit:4;stroke-dasharray:none;stroke-dashoffset:0;stroke-opacity:1;paint-order:normal" /><rect
       rx="5.9333339"
       transform="scale(-1,1)"
       ry="5.9333339"
       y="592.14935"
       x="-303.41364"
       height="18.986668"
       width="98.097786"
       id="rect1179"
       style="opacity:1;vector-effect:none;fill:#000000;fill-opacity:1;stroke:none;stroke-width:2.483495;stroke-linecap:butt;stroke-linejoin:miter;stroke-miterlimit:4;stroke-dasharray:none;stroke-dashoffset:0;stroke-opacity:1;paint-order:normal" /><g
       transform="matrix(1.0431181,0.52300542,-0.52300542,1.0431181,213.30463,-386.84698)"
       id="g1228"><rect
         rx="5.0847502"
         style="opacity:1;vector-effect:none;fill:#e3dedb;fill-opacity:1;stroke:#000000;stroke-width:2;stroke-linecap:butt;stroke-linejoin:miter;stroke-miterlimit:4;stroke-dasharray:none;stroke-dashoffset:0;stroke-opacity:1;paint-order:normal"
         id="rect1188"
         width="44.237289"
         height="58.305084"
         x="498.30508"
         y="746.10168"
         ry="5.0847502" /><path
         style="fill:none;stroke:#000000;stroke-width:2;stroke-linecap:butt;stroke-linejoin:miter;stroke-miterlimit:4;stroke-dasharray:2, 2;stroke-dashoffset:0;stroke-opacity:1"
         d="m 510.67492,762.49371 c -10.08604,26.89337 18.25299,8.42541 24.32926,14.50168 12.44833,12.44833 -10.21723,19.50681 -18.69638,16.53911"
         id="path1190"
         inkscape:connector-curvature="0" /><circle
         style="opacity:1;vector-effect:none;fill:none;fill-opacity:1;stroke:#ff0000;stroke-width:2;stroke-linecap:butt;stroke-linejoin:miter;stroke-miterlimit:4;stroke-dasharray:none;stroke-dashoffset:0;stroke-opacity:1;paint-order:normal"
         id="path1192"
         cx="512.71234"
         cy="757.93945"
         r="3.2359123" /><path
         style="opacity:1;vector-effect:none;fill:none;fill-opacity:1;stroke:#ff0000;stroke-width:2;stroke-linecap:butt;stroke-linejoin:miter;stroke-miterlimit:4;stroke-dasharray:none;stroke-dashoffset:0;stroke-opacity:1"
         d="m 508.3978,791.1018 7.25084,7.25084"
         id="path1194"
         inkscape:connector-curvature="0" /><path
         inkscape:connector-curvature="0"
         id="path1196"
         d="m 515.64864,791.1018 -7.25084,7.25084"
         style="fill:none;stroke:#ff0000;stroke-width:2;stroke-linecap:butt;stroke-linejoin:miter;stroke-miterlimit:4;stroke-dasharray:none;stroke-opacity:1" /></g></g><g
     id="g1078"
     transform="translate(188.90185,-232.59378)"><path
       d="m -412.75781,589.05078 a 57.909454,18.542391 0 0 0 -57.91016,18.54297 57.909454,18.542391 0 0 0 0.0996,0.89844 90.126152,90.126152 0 0 0 -15.53711,50.21289 90.126152,90.126152 0 0 0 15.27539,49.93164 57.909454,18.542391 0 0 0 -0.37109,2.02539 57.909454,18.542391 0 0 0 57.91015,18.54297 57.909454,18.542391 0 0 0 57.90821,-18.54297 57.909454,18.542391 0 0 0 -0.10157,-0.92383 90.126152,90.126152 0 0 0 16.07227,-51.0332 90.126152,90.126152 0 0 0 -15.55469,-50.36133 57.909454,18.542391 0 0 0 0.11719,-0.75 57.909454,18.542391 0 0 0 -57.9082,-18.54297 z"
       id="path1054"
       style="opacity:1;vector-effect:none;fill:#d45500;fill-opacity:1;stroke:#000000;stroke-width:4;stroke-linecap:round;stroke-linejoin:round;stroke-miterlimit:4;stroke-dasharray:none;stroke-dashoffset:0;stroke-opacity:1;paint-order:markers fill stroke"
       inkscape:original="M -412.75781 589.05078 A 57.909454 18.542391 0 0 0 -470.66797 607.59375 A 57.909454 18.542391 0 0 0 -470.56836 608.49219 A 90.126152 90.126152 0 0 0 -486.10547 658.70508 A 90.126152 90.126152 0 0 0 -470.83008 708.63672 A 57.909454 18.542391 0 0 0 -471.20117 710.66211 A 57.909454 18.542391 0 0 0 -413.29102 729.20508 A 57.909454 18.542391 0 0 0 -355.38281 710.66211 A 57.909454 18.542391 0 0 0 -355.48438 709.73828 A 90.126152 90.126152 0 0 0 -339.41211 658.70508 A 90.126152 90.126152 0 0 0 -354.9668 608.34375 A 57.909454 18.542391 0 0 0 -354.84961 607.59375 A 57.909454 18.542391 0 0 0 -412.75781 589.05078 z "
       inkscape:radius="0"
       sodipodi:type="inkscape:offset"
       transform="translate(810.85694,87.46585)" /><path
       id="path1056"
       d="m 451.91749,690.35452 -108.16797,0.66406 a 90.126152,90.126152 0 0 0 -18.99805,55.15235 90.126152,90.126152 0 0 0 15.27539,49.93164 57.909454,18.542391 0 0 0 -0.37109,2.02539 57.909454,18.542391 0 0 0 57.91015,18.54297 57.909454,18.542391 0 0 0 57.90821,-18.54297 57.909454,18.542391 0 0 0 -0.10157,-0.92383 90.126152,90.126152 0 0 0 16.07227,-51.0332 90.126152,90.126152 0 0 0 -19.52734,-55.81641 z"
       style="opacity:1;vector-effect:none;fill:#784421;fill-opacity:1;stroke:none;stroke-width:2;stroke-linecap:round;stroke-linejoin:round;stroke-miterlimit:4;stroke-dasharray:none;stroke-dashoffset:0;stroke-opacity:1;paint-order:markers fill stroke"
       inkscape:connector-curvature="0" /><ellipse
       ry="18.542391"
       rx="57.909454"
       cy="695.0589"
       cx="398.09814"
       id="ellipse1058"
       style="opacity:1;vector-effect:none;fill:#4d4d4d;fill-opacity:1;stroke:none;stroke-width:1.99999964;stroke-linecap:round;stroke-linejoin:round;stroke-miterlimit:4;stroke-dasharray:none;stroke-dashoffset:0;stroke-opacity:1;paint-order:markers fill stroke" /><ellipse
       style="opacity:1;vector-effect:none;fill:#b3b3b3;fill-opacity:1;stroke:none;stroke-width:1.99999976;stroke-linecap:round;stroke-linejoin:round;stroke-miterlimit:4;stroke-dasharray:none;stroke-dashoffset:0;stroke-opacity:1;paint-order:markers fill stroke"
       id="ellipse1060"
       cx="398.09814"
       cy="695.0589"
       rx="48.926319"
       ry="15.666024" /><path
       sodipodi:type="star"
       style="opacity:1;vector-effect:none;fill:#ffff00;fill-opacity:1;stroke:#000000;stroke-width:2.2074554;stroke-linecap:round;stroke-linejoin:round;stroke-miterlimit:4;stroke-dasharray:none;stroke-dashoffset:0;stroke-opacity:1;paint-order:markers fill stroke"
       id="path1062"
       sodipodi:sides="10"
       sodipodi:cx="285.67407"
       sodipodi:cy="720.06854"
       sodipodi:r1="45.987404"
       sodipodi:r2="33.824558"
       sodipodi:arg1="0.52359878"
       sodipodi:arg2="0.8652625"
       inkscape:flatsided="false"
       inkscape:rounded="0"
       inkscape:randomized="0"
       d="m 325.50033,743.06224 -17.89305,2.75577 -3.22845,16.26212 -16.09558,-8.28781 -12.1705,11.25869 -8.15014,-16.16572 -16.46384,1.95483 2.90837,-17.86888 -14.46855,-8.09571 12.85599,-12.74673 -6.94677,-15.05396 17.89306,-2.75577 3.22844,-16.26211 16.09558,8.28781 12.1705,-11.2587 8.15015,16.16573 16.46383,-1.95484 -2.90836,17.86889 14.46854,8.0957 -12.85598,12.74674 z"
       inkscape:transform-center-x="-2.9349771"
       inkscape:transform-center-y="-1.8473433"
       transform="matrix(0.96304879,0.23525264,-0.28988253,0.78155718,331.71537,129.01095)" /><text
       id="text1066"
       y="772.15906"
       x="370.39218"
       style="font-style:normal;font-variant:normal;font-weight:normal;font-stretch:normal;font-size:35.78207397px;line-height:1.25;font-family:'Another Typewriter';-inkscape-font-specification:'Another Typewriter, Normal';font-variant-ligatures:normal;font-variant-caps:normal;font-variant-numeric:normal;font-feature-settings:normal;text-align:start;letter-spacing:0px;word-spacing:0px;writing-mode:lr-tb;text-anchor:start;fill:#ff0000;fill-opacity:1;stroke:#000000;stroke-width:1;stroke-linecap:round;stroke-linejoin:round;stroke-miterlimit:4;stroke-dasharray:none;paint-order:markers fill stroke"
       xml:space="preserve"><tspan
         style="fill:#ff0000;stroke:#000000;stroke-width:1;stroke-linecap:round;stroke-linejoin:round;stroke-miterlimit:4;stroke-dasharray:none;paint-order:markers fill stroke"
         y="772.15906"
         x="370.39218"
         id="tspan1064"
         sodipodi:role="line">tnt</tspan></text>
<ellipse
       ry="6.6571126"
       rx="20.790726"
       cy="694.38098"
       cx="419.79306"
       id="ellipse1068"
       style="opacity:1;vector-effect:none;fill:#000000;fill-opacity:1;stroke:none;stroke-width:1.99999964;stroke-linecap:round;stroke-linejoin:round;stroke-miterlimit:4;stroke-dasharray:none;stroke-dashoffset:0;stroke-opacity:1;paint-order:markers fill stroke" /></g><circle
     style="opacity:1;vector-effect:none;fill:#ffffff;fill-opacity:1;stroke:none;stroke-width:0.91752577px;stroke-linecap:butt;stroke-linejoin:miter;stroke-miterlimit:4;stroke-dasharray:none;stroke-dashoffset:0;stroke-opacity:1;paint-order:markers stroke fill"
     id="path1095"
     cx="222.08914"
     cy="394.54547"
     r="62.932503" /><circle
     r="19.334522"
     cy="336.76248"
     cx="288.99957"
     id="circle1097"
     style="opacity:1;vector-effect:none;fill:#ffffff;fill-opacity:1;stroke:none;stroke-width:0.2818881px;stroke-linecap:butt;stroke-linejoin:miter;stroke-miterlimit:4;stroke-dasharray:none;stroke-dashoffset:0;stroke-opacity:1;paint-order:markers stroke fill" /><circle
     style="opacity:1;vector-effect:none;fill:#ffffff;fill-opacity:1;stroke:none;stroke-width:0.16160704px;stroke-linecap:butt;stroke-linejoin:miter;stroke-miterlimit:4;stroke-dasharray:none;stroke-dashoffset:0;stroke-opacity:1;paint-order:markers stroke fill"
     id="circle1099"
     cx="324.24957"
     cy="331.51248"
     r="11.084522" /><g
     inkscape:export-ydpi="96"
     inkscape:export-xdpi="96"
     transform="matrix(0.77199708,0,0,0.77199708,-244.4668,-120.9864)"
     id="g1111"
     style="display:inline"><path
       style="fill:#c8b7b7;stroke:#000000;stroke-width:4;stroke-linecap:butt;stroke-linejoin:miter;stroke-miterlimit:4;stroke-dasharray:none;stroke-opacity:1;paint-order:markers fill stroke"
       d="m 607.75828,636.42229 c -190.21131,102.2993 176.59158,121.78656 0,0 z"
       id="path1101"
       inkscape:connector-curvature="0"
       sodipodi:nodetypes="cc" /><path
       style="opacity:1;vector-effect:none;fill:none;fill-opacity:1;stroke:#000000;stroke-width:4;stroke-linecap:round;stroke-linejoin:miter;stroke-miterlimit:4;stroke-dasharray:none;stroke-dashoffset:0;stroke-opacity:1;paint-order:markers fill stroke"
       d="m 571.69583,644.15521 c 17.51295,-19.4424 21.09413,-13.94344 36.06245,-8.7283 20.02954,-7.80058 21.9506,10.35543 39.95153,15.44581"
       id="path1103"
       inkscape:connector-curvature="0"
       sodipodi:nodetypes="ccc" /><path
       style="opacity:1;vector-effect:none;fill:#c8b7b7;fill-opacity:1;stroke:#000000;stroke-width:4;stroke-linecap:butt;stroke-linejoin:round;stroke-miterlimit:4;stroke-dasharray:none;stroke-dashoffset:0;stroke-opacity:1;paint-order:markers fill stroke"
       d="m 607.75828,636.42229 -7.6014,-21.45622 h 21.74353 z"
       id="path1105"
       inkscape:connector-curvature="0" /><text
       xml:space="preserve"
       style="font-style:normal;font-variant:normal;font-weight:normal;font-stretch:normal;font-size:40px;line-height:1.25;font-family:'Another Typewriter';-inkscape-font-specification:'Another Typewriter, Normal';font-variant-ligatures:normal;font-variant-caps:normal;font-variant-numeric:normal;font-feature-settings:normal;text-align:start;letter-spacing:0px;word-spacing:0px;writing-mode:lr-tb;text-anchor:start;fill:#ffff00;fill-opacity:1;stroke:#000000;stroke-width:4;stroke-linejoin:round;stroke-miterlimit:4;stroke-dasharray:none;paint-order:markers stroke fill"
       x="593.45386"
       y="692.21753"
       id="text1109"><tspan
         sodipodi:role="line"
         id="tspan1107"
         x="593.45386"
         y="692.21753">$</tspan></text>
</g></svg>