<?xml version="1.0" encoding="UTF-8" standalone="no"?>
<!-- Created with Inkscape (http://www.inkscape.org/) -->

<svg
   xmlns:dc="http://purl.org/dc/elements/1.1/"
   xmlns:cc="http://creativecommons.org/ns#"
   xmlns:rdf="http://www.w3.org/1999/02/22-rdf-syntax-ns#"
   xmlns:svg="http://www.w3.org/2000/svg"
   xmlns="http://www.w3.org/2000/svg"
   xmlns:sodipodi="http://sodipodi.sourceforge.net/DTD/sodipodi-0.dtd"
   xmlns:inkscape="http://www.inkscape.org/namespaces/inkscape"
   width="740"
   height="1280"
   version="1.1"
   viewBox="0 0 740 1280"
   xml:space="preserve"
   id="svg18"
   sodipodi:docname="level17win.svg"
   inkscape:version="0.92.5 (2060ec1f9f, 2020-04-08)"><defs
     id="defs22" /><sodipodi:namedview
     pagecolor="#ffffff"
     bordercolor="#666666"
     borderopacity="1"
     objecttolerance="10"
     gridtolerance="10"
     guidetolerance="10"
     inkscape:pageopacity="0"
     inkscape:pageshadow="2"
     inkscape:window-width="1920"
     inkscape:window-height="986"
     id="namedview20"
     showgrid="false"
     inkscape:zoom="1"
     inkscape:cx="451.08336"
     inkscape:cy="859.82124"
     inkscape:window-x="1909"
     inkscape:window-y="49"
     inkscape:window-maximized="1"
     inkscape:current-layer="svg18"
     inkscape:snap-bbox="true"
     inkscape:bbox-paths="true"
     inkscape:snap-bbox-edge-midpoints="true"
     inkscape:bbox-nodes="true"
     inkscape:snap-bbox-midpoints="true"
     inkscape:object-paths="true"
     inkscape:snap-intersection-paths="true"
     inkscape:snap-smooth-nodes="true"
     inkscape:snap-midpoints="true"
     inkscape:snap-object-midpoints="true"
     inkscape:snap-center="true"
     inkscape:snap-text-baseline="true"
     inkscape:snap-page="true"
     inkscape:snap-global="false" /><metadata
     id="metadata2"><rdf:RDF><cc:Work
         rdf:about=""><dc:format>image/svg+xml</dc:format><dc:type
           rdf:resource="http://purl.org/dc/dcmitype/StillImage" /><dc:title></dc:title></cc:Work></rdf:RDF></metadata><rect
     style="opacity:1;vector-effect:none;fill:#00ffff;fill-opacity:1;stroke:#000000;stroke-width:0.99999994;stroke-linecap:round;stroke-linejoin:miter;stroke-miterlimit:4;stroke-dasharray:none;stroke-dashoffset:0;stroke-opacity:1;paint-order:normal"
     id="rect821"
     width="739"
     height="739"
     x="0.49998033"
     y="270.49994" /><path
     inkscape:connector-curvature="0"
     id="path834"
     d="m -21.345784,745.68326 c 60.544782,5.95435 125.280604,2.92799 187.275474,2.92799 38.32201,0 107.33922,54.72484 126.80109,83.93575 24.06542,36.12047 169.84054,-26.35246 121.92415,101.50371 -28.40668,75.79809 -271.05612,12.44685 -329.682859,21.47193 -41.75644,6.42804 -211.010951,129.69256 -226.291221,17.56796"
     style="opacity:1;vector-effect:none;fill:#b1e2e2;fill-opacity:1;stroke:#000000;stroke-width:2;stroke-linecap:butt;stroke-linejoin:miter;stroke-miterlimit:4;stroke-dasharray:none;stroke-dashoffset:0;stroke-opacity:1" /><path
     style="fill:#f2f2f2;stroke:#000000;stroke-width:2;stroke-linecap:butt;stroke-linejoin:miter;stroke-opacity:1;stroke-miterlimit:4;stroke-dasharray:none"
     d="m -21.345784,726.16331 c 60.544782,5.95435 125.280604,2.92799 187.275474,2.92799 38.32201,0 107.33922,54.72484 126.80109,83.93575 24.06542,36.12047 169.84054,-26.35245 121.92415,101.50371 -28.40668,75.79803 -271.05612,12.44685 -329.682859,21.47193 -41.75644,6.42804 -211.010951,129.69261 -226.291221,17.56796"
     id="path836"
     inkscape:connector-curvature="0" /><path
     inkscape:connector-curvature="0"
     id="path976"
     d="M 746,635 C 676.93304,608.67677 651.04233,667.31922 598,685 370.62637,760.79121 293.74533,479.50187 485,403 c 48.98599,-19.5944 105.74117,30 156,30 64.00928,0 174.49582,-31.56251 225,13"
     style="opacity:1;vector-effect:none;fill:#b1e2e2;fill-opacity:1;stroke:#000000;stroke-width:2;stroke-linecap:butt;stroke-linejoin:miter;stroke-miterlimit:4;stroke-dasharray:none;stroke-dashoffset:0;stroke-opacity:1" /><path
     style="fill:#f2f2f2;stroke:#000000;stroke-width:2;stroke-linecap:butt;stroke-linejoin:miter;stroke-opacity:1;font-variant-east_asian:normal;opacity:1;vector-effect:none;fill-opacity:1;stroke-miterlimit:4;stroke-dasharray:none;stroke-dashoffset:0"
     d="M 746,609 C 676.93304,582.67677 651.04233,641.31922 598,659 370.62637,734.79121 293.74533,453.50187 485,377 c 48.98599,-19.5944 105.74117,30 156,30 64.00928,0 174.49582,-31.56251 225,13"
     id="path960"
     inkscape:connector-curvature="0" /><g
     id="g1078"
     transform="translate(119.90185,-169.59378)"><path
   d="m -412.75781,589.05078 a 57.909454,18.542391 0 0 0 -57.91016,18.54297 57.909454,18.542391 0 0 0 0.0996,0.89844 90.126152,90.126152 0 0 0 -15.53711,50.21289 90.126152,90.126152 0 0 0 15.27539,49.93164 57.909454,18.542391 0 0 0 -0.37109,2.02539 57.909454,18.542391 0 0 0 57.91015,18.54297 57.909454,18.542391 0 0 0 57.90821,-18.54297 57.909454,18.542391 0 0 0 -0.10157,-0.92383 90.126152,90.126152 0 0 0 16.07227,-51.0332 90.126152,90.126152 0 0 0 -15.55469,-50.36133 57.909454,18.542391 0 0 0 0.11719,-0.75 57.909454,18.542391 0 0 0 -57.9082,-18.54297 z"
   id="path1054"
   style="opacity:1;vector-effect:none;fill:#d45500;fill-opacity:1;stroke:#000000;stroke-width:4;stroke-linecap:round;stroke-linejoin:round;stroke-miterlimit:4;stroke-dasharray:none;stroke-dashoffset:0;stroke-opacity:1;paint-order:markers fill stroke"
   inkscape:original="M -412.75781 589.05078 A 57.909454 18.542391 0 0 0 -470.66797 607.59375 A 57.909454 18.542391 0 0 0 -470.56836 608.49219 A 90.126152 90.126152 0 0 0 -486.10547 658.70508 A 90.126152 90.126152 0 0 0 -470.83008 708.63672 A 57.909454 18.542391 0 0 0 -471.20117 710.66211 A 57.909454 18.542391 0 0 0 -413.29102 729.20508 A 57.909454 18.542391 0 0 0 -355.38281 710.66211 A 57.909454 18.542391 0 0 0 -355.48438 709.73828 A 90.126152 90.126152 0 0 0 -339.41211 658.70508 A 90.126152 90.126152 0 0 0 -354.9668 608.34375 A 57.909454 18.542391 0 0 0 -354.84961 607.59375 A 57.909454 18.542391 0 0 0 -412.75781 589.05078 z "
   inkscape:radius="0"
   sodipodi:type="inkscape:offset"
   transform="translate(810.85694,87.46585)" /><path
   id="path1056"
   d="m 451.91749,690.35452 -108.16797,0.66406 a 90.126152,90.126152 0 0 0 -18.99805,55.15235 90.126152,90.126152 0 0 0 15.27539,49.93164 57.909454,18.542391 0 0 0 -0.37109,2.02539 57.909454,18.542391 0 0 0 57.91015,18.54297 57.909454,18.542391 0 0 0 57.90821,-18.54297 57.909454,18.542391 0 0 0 -0.10157,-0.92383 90.126152,90.126152 0 0 0 16.07227,-51.0332 90.126152,90.126152 0 0 0 -19.52734,-55.81641 z"
   style="opacity:1;vector-effect:none;fill:#784421;fill-opacity:1;stroke:none;stroke-width:2;stroke-linecap:round;stroke-linejoin:round;stroke-miterlimit:4;stroke-dasharray:none;stroke-dashoffset:0;stroke-opacity:1;paint-order:markers fill stroke"
   inkscape:connector-curvature="0" /><ellipse
   ry="18.542391"
   rx="57.909454"
   cy="695.0589"
   cx="398.09814"
   id="ellipse1058"
   style="opacity:1;vector-effect:none;fill:#4d4d4d;fill-opacity:1;stroke:none;stroke-width:1.99999964;stroke-linecap:round;stroke-linejoin:round;stroke-miterlimit:4;stroke-dasharray:none;stroke-dashoffset:0;stroke-opacity:1;paint-order:markers fill stroke" /><ellipse
   style="opacity:1;vector-effect:none;fill:#b3b3b3;fill-opacity:1;stroke:none;stroke-width:1.99999976;stroke-linecap:round;stroke-linejoin:round;stroke-miterlimit:4;stroke-dasharray:none;stroke-dashoffset:0;stroke-opacity:1;paint-order:markers fill stroke"
   id="ellipse1060"
   cx="398.09814"
   cy="695.0589"
   rx="48.926319"
   ry="15.666024" /><path
   sodipodi:type="star"
   style="opacity:1;vector-effect:none;fill:#ffff00;fill-opacity:1;stroke:#000000;stroke-width:2.2074554;stroke-linecap:round;stroke-linejoin:round;stroke-miterlimit:4;stroke-dasharray:none;stroke-dashoffset:0;stroke-opacity:1;paint-order:markers fill stroke"
   id="path1062"
   sodipodi:sides="10"
   sodipodi:cx="285.67407"
   sodipodi:cy="720.06854"
   sodipodi:r1="45.987404"
   sodipodi:r2="33.824558"
   sodipodi:arg1="0.52359878"
   sodipodi:arg2="0.8652625"
   inkscape:flatsided="false"
   inkscape:rounded="0"
   inkscape:randomized="0"
   d="m 325.50033,743.06224 -17.89305,2.75577 -3.22845,16.26212 -16.09558,-8.28781 -12.1705,11.25869 -8.15014,-16.16572 -16.46384,1.95483 2.90837,-17.86888 -14.46855,-8.09571 12.85599,-12.74673 -6.94677,-15.05396 17.89306,-2.75577 3.22844,-16.26211 16.09558,8.28781 12.1705,-11.2587 8.15015,16.16573 16.46383,-1.95484 -2.90836,17.86889 14.46854,8.0957 -12.85598,12.74674 z"
   inkscape:transform-center-x="-2.9349771"
   inkscape:transform-center-y="-1.8473433"
   transform="matrix(0.96304879,0.23525264,-0.28988253,0.78155718,331.71537,129.01095)" /><text
   id="text1066"
   y="772.15906"
   x="370.39218"
   style="font-style:normal;font-variant:normal;font-weight:normal;font-stretch:normal;font-size:35.78207397px;line-height:1.25;font-family:'Another Typewriter';-inkscape-font-specification:'Another Typewriter, Normal';font-variant-ligatures:normal;font-variant-caps:normal;font-variant-numeric:normal;font-feature-settings:normal;text-align:start;letter-spacing:0px;word-spacing:0px;writing-mode:lr-tb;text-anchor:start;fill:#ff0000;fill-opacity:1;stroke:#000000;stroke-width:1;stroke-linecap:round;stroke-linejoin:round;stroke-miterlimit:4;stroke-dasharray:none;paint-order:markers fill stroke"
   xml:space="preserve"><tspan
     style="fill:#ff0000;stroke:#000000;stroke-width:1;stroke-linecap:round;stroke-linejoin:round;stroke-miterlimit:4;stroke-dasharray:none;paint-order:markers fill stroke"
     y="772.15906"
     x="370.39218"
     id="tspan1064"
     sodipodi:role="line">tnt</tspan></text>

<ellipse
   ry="6.6571126"
   rx="20.790726"
   cy="694.38098"
   cx="419.79306"
   id="ellipse1068"
   style="opacity:1;vector-effect:none;fill:#000000;fill-opacity:1;stroke:none;stroke-width:1.99999964;stroke-linecap:round;stroke-linejoin:round;stroke-miterlimit:4;stroke-dasharray:none;stroke-dashoffset:0;stroke-opacity:1;paint-order:markers fill stroke" /></g><path
     inkscape:transform-center-y="-0.19780552"
     inkscape:transform-center-x="0.29495861"
     d="m 240.38466,391.82798 c -5.4789,9.44723 -5.02897,7.52644 -15.05916,11.74388 -10.03018,4.21743 -12.65152,7.51347 -23.18014,4.66391 -10.52862,-2.84956 -10.14086,-5.03614 -16.91396,-13.36753 -6.77311,-8.33139 -9.85112,-4.94399 -10.33065,-15.79916 -0.47953,-10.85517 -0.99053,-13.27463 4.44778,-22.70982 5.43831,-9.4352 6.18866,-12.61456 16.60435,-16.33246 10.41569,-3.71791 9.66097,-0.57976 19.99959,1.48611 10.33861,2.06586 13.16771,0.83928 20.97982,8.42328 7.8121,7.584 6.98185,9.58084 7.46382,20.40912 0.48196,10.82828 1.46745,12.03545 -4.01145,21.48267 z"
     inkscape:randomized="0.049"
     inkscape:rounded="0.5"
     inkscape:flatsided="false"
     sodipodi:arg2="1.1519173"
     sodipodi:arg1="0.52359878"
     sodipodi:r2="33.402042"
     sodipodi:r1="36.055511"
     sodipodi:cy="374"
     sodipodi:cx="210"
     sodipodi:sides="5"
     id="path1033"
     style="opacity:1;vector-effect:none;fill:#b1e2e2;fill-opacity:1;stroke:#000000;stroke-width:2;stroke-linecap:butt;stroke-linejoin:miter;stroke-miterlimit:4;stroke-dasharray:none;stroke-dashoffset:0;stroke-opacity:1;paint-order:markers stroke fill"
     sodipodi:type="star"
     transform="translate(-23.48023,-16.556349)" /><path
     sodipodi:type="star"
     style="opacity:1;vector-effect:none;fill:#f2f2f2;fill-opacity:1;stroke:#000000;stroke-width:2;stroke-linecap:butt;stroke-linejoin:miter;stroke-miterlimit:4;stroke-dasharray:none;stroke-dashoffset:0;stroke-opacity:1;paint-order:markers stroke fill"
     id="path1017"
     sodipodi:sides="5"
     sodipodi:cx="210"
     sodipodi:cy="374"
     sodipodi:r1="36.055511"
     sodipodi:r2="33.402042"
     sodipodi:arg1="0.52359878"
     sodipodi:arg2="1.1519173"
     inkscape:flatsided="false"
     inkscape:rounded="0.5"
     inkscape:randomized="0.049"
     d="m 240.38466,391.82798 c -5.4789,9.44723 -5.02897,7.52644 -15.05916,11.74388 -10.03018,4.21743 -12.65152,7.51347 -23.18014,4.66391 -10.52862,-2.84956 -10.14086,-5.03614 -16.91396,-13.36753 -6.77311,-8.33139 -9.85112,-4.94399 -10.33065,-15.79916 -0.47953,-10.85517 -0.99053,-13.27463 4.44778,-22.70982 5.43831,-9.4352 6.18866,-12.61456 16.60435,-16.33246 10.41569,-3.71791 9.66097,-0.57976 19.99959,1.48611 10.33861,2.06586 13.16771,0.83928 20.97982,8.42328 7.8121,7.584 6.98185,9.58084 7.46382,20.40912 0.48196,10.82828 1.46745,12.03545 -4.01145,21.48267 z"
     inkscape:transform-center-x="0.29495861"
     inkscape:transform-center-y="-0.19780552"
     transform="translate(-23.48023,-30.870058)" /><path
     transform="matrix(3.4132268,0,0,1,-538.08469,151.23759)"
     sodipodi:type="star"
     style="opacity:1;vector-effect:none;fill:#b1e2e2;fill-opacity:1;stroke:#000000;stroke-width:1.08254862;stroke-linecap:butt;stroke-linejoin:miter;stroke-miterlimit:4;stroke-dasharray:none;stroke-dashoffset:0;stroke-opacity:1;paint-order:markers stroke fill"
     id="path1049"
     sodipodi:sides="5"
     sodipodi:cx="210"
     sodipodi:cy="374"
     sodipodi:r1="36.055511"
     sodipodi:r2="33.402042"
     sodipodi:arg1="0.52359878"
     sodipodi:arg2="1.1519173"
     inkscape:flatsided="false"
     inkscape:rounded="0.5"
     inkscape:randomized="0.049"
     d="m 240.38466,391.82798 c -5.4789,9.44723 -5.02897,7.52644 -15.05916,11.74388 -10.03018,4.21743 -12.65152,7.51347 -23.18014,4.66391 -10.52862,-2.84956 -10.14086,-5.03614 -16.91396,-13.36753 -6.77311,-8.33139 -9.85112,-4.94399 -10.33065,-15.79916 -0.47953,-10.85517 -0.99053,-13.27463 4.44778,-22.70982 5.43831,-9.4352 6.18866,-12.61456 16.60435,-16.33246 10.41569,-3.71791 9.66097,-0.57976 19.99959,1.48611 10.33861,2.06586 13.16771,0.83928 20.97982,8.42328 7.8121,7.584 6.98185,9.58084 7.46382,20.40912 0.48196,10.82828 1.46745,12.03545 -4.01145,21.48267 z"
     inkscape:transform-center-x="1.0067612"
     inkscape:transform-center-y="-0.19780552" /><path
     transform="matrix(3.4132268,0,0,1,-538.08469,136.92388)"
     inkscape:transform-center-y="-0.19780552"
     inkscape:transform-center-x="1.0067612"
     d="m 240.38466,391.82798 c -5.4789,9.44723 -5.02897,7.52644 -15.05916,11.74388 -10.03018,4.21743 -12.65152,7.51347 -23.18014,4.66391 -10.52862,-2.84956 -10.14086,-5.03614 -16.91396,-13.36753 -6.77311,-8.33139 -9.85112,-4.94399 -10.33065,-15.79916 -0.47953,-10.85517 -0.99053,-13.27463 4.44778,-22.70982 5.43831,-9.4352 6.18866,-12.61456 16.60435,-16.33246 10.41569,-3.71791 9.66097,-0.57976 19.99959,1.48611 10.33861,2.06586 13.16771,0.83928 20.97982,8.42328 7.8121,7.584 6.98185,9.58084 7.46382,20.40912 0.48196,10.82828 1.46745,12.03545 -4.01145,21.48267 z"
     inkscape:randomized="0.049"
     inkscape:rounded="0.5"
     inkscape:flatsided="false"
     sodipodi:arg2="1.1519173"
     sodipodi:arg1="0.52359878"
     sodipodi:r2="33.402042"
     sodipodi:r1="36.055511"
     sodipodi:cy="374"
     sodipodi:cx="210"
     sodipodi:sides="5"
     id="path1051"
     style="opacity:1;vector-effect:none;fill:#f2f2f2;fill-opacity:1;stroke:#000000;stroke-width:1.08254862;stroke-linecap:butt;stroke-linejoin:miter;stroke-miterlimit:4;stroke-dasharray:none;stroke-dashoffset:0;stroke-opacity:1;paint-order:markers stroke fill"
     sodipodi:type="star" /><circle
     style="display:inline;fill:#ffffff;fill-opacity:1;stroke:#000000;stroke-width:5.68840599;stroke-linecap:round;stroke-linejoin:round;stroke-miterlimit:4;stroke-dasharray:none;stroke-dashoffset:0;stroke-opacity:1;paint-order:markers fill stroke"
     id="circle844-1"
     cx="123.85249"
     cy="722.93762"
     r="46.270042" /><path
     style="fill:none;stroke:#000000;stroke-width:5.68840599;stroke-linecap:round;stroke-linejoin:round;stroke-dasharray:none;stroke-opacity:1;paint-order:markers fill stroke"
     d="m 121.67692,771.68092 -22.90072,86.92099 75.50754,-21.23739 46.559,40.0889"
     id="path848-8"
     inkscape:connector-curvature="0"
     sodipodi:nodetypes="cccc" /><path
     style="fill:none;stroke:#000000;stroke-width:5.68840599;stroke-linecap:round;stroke-linejoin:round;stroke-dasharray:none;stroke-opacity:1;paint-order:markers fill stroke"
     d="m 98.7762,858.60191 86.06182,-42.20965 47.54864,23.52849"
     id="path850-7"
     inkscape:connector-curvature="0"
     sodipodi:nodetypes="ccc" /><path
     style="opacity:1;fill:none;fill-opacity:1;stroke:#000000;stroke-width:5.68840599;stroke-linecap:round;stroke-linejoin:round;stroke-miterlimit:4;stroke-dasharray:none;stroke-dashoffset:0;stroke-opacity:1;paint-order:markers fill stroke"
     d="m 44.73735,707.86949 20.92949,66.50075 56.01008,-2.68932 56.82303,31.64665 34.55874,-48.71954"
     id="path852-3"
     inkscape:connector-curvature="0"
     sodipodi:nodetypes="ccccc" /><circle
     style="fill:#ffffff;fill-opacity:1;stroke:#000000;stroke-width:0.94806767;stroke-linecap:round;stroke-linejoin:round;stroke-miterlimit:4;stroke-dasharray:none;stroke-dashoffset:0;stroke-opacity:1;paint-order:markers fill stroke"
     id="circle854-5"
     cx="-677.21149"
     cy="-296.03564"
     transform="rotate(-125.01532)"
     r="9.2454433" /><circle
     style="fill:#000000;fill-opacity:1;stroke:none;stroke-width:0.94806767;stroke-linecap:round;stroke-linejoin:round;stroke-miterlimit:4;stroke-dasharray:none;stroke-dashoffset:0;stroke-opacity:1;paint-order:markers fill stroke"
     id="circle856-8"
     cx="-734.37555"
     cy="123.10503"
     r="2.0673044"
     transform="rotate(-92.018184)" /><circle
     r="12.780977"
     transform="rotate(-125.01532)"
     cy="-316.62878"
     cx="-664.93896"
     id="circle862-4"
     style="fill:#ffffff;fill-opacity:1;stroke:#000000;stroke-width:0.94806767;stroke-linecap:round;stroke-linejoin:round;stroke-miterlimit:4;stroke-dasharray:none;stroke-dashoffset:0;stroke-opacity:1;paint-order:markers fill stroke" /><circle
     r="2.0673044"
     cy="100.36806"
     cx="-737.23444"
     id="circle864-0"
     style="fill:#000000;fill-opacity:1;stroke:none;stroke-width:0.94806767;stroke-linecap:round;stroke-linejoin:round;stroke-miterlimit:4;stroke-dasharray:none;stroke-dashoffset:0;stroke-opacity:1;paint-order:markers fill stroke"
     transform="rotate(-92.018184)" /><path
     style="fill:#c87137;stroke:#000000;stroke-width:1px;stroke-linecap:butt;stroke-linejoin:miter;stroke-opacity:1"
     d="m 229.55162,755.15518 c -7.29544,-1.62435 -9.2464,13.12539 -1.03292,12.63163 46.19496,0.4779 111.95428,27.51702 176.12204,91.0448 C 368.19208,809.76202 295.31261,768.55083 229.55162,755.15518 Z"
     id="path887-2"
     inkscape:connector-curvature="0"
     sodipodi:nodetypes="cccc" /><path
     style="fill:none;stroke:#000000;stroke-width:2;stroke-linecap:round;stroke-linejoin:miter;stroke-miterlimit:4;stroke-dasharray:none;stroke-opacity:1"
     d="m 404.64074,858.83161 69.08235,141.37599"
     id="path889-6"
     inkscape:connector-curvature="0"
     sodipodi:nodetypes="cc" /><circle
     style="opacity:1;vector-effect:none;fill:#ff0000;fill-opacity:1;stroke:#000000;stroke-width:2;stroke-linecap:round;stroke-linejoin:round;stroke-miterlimit:4;stroke-dasharray:none;stroke-dashoffset:0;stroke-opacity:1;paint-order:markers stroke fill"
     id="path856"
     cx="130.08112"
     cy="751.73975"
     r="8.3942909" /><g
     style="display:inline"
     id="g4981"
     transform="matrix(-0.80660146,0,0,0.80660146,-326.55495,95.309974)"><g
       id="g4766"><circle
         r="48.804577"
         cy="269.35016"
         cx="-1095.7184"
         id="circle2342"
         style="fill:#ffffff;fill-opacity:1;stroke:#000000;stroke-width:6;stroke-linecap:round;stroke-linejoin:round;stroke-miterlimit:4;stroke-dasharray:none;stroke-dashoffset:0;stroke-opacity:1;paint-order:markers fill stroke" /><path
         inkscape:connector-curvature="0"
         id="path2345"
         d="m -1219.3636,560.93963 -23.2994,-75.38071 86.3451,-60.30457 32.2082,71.26904 74.6954,4.11167"
         style="opacity:1;fill:none;fill-opacity:1;stroke:#000000;stroke-width:6;stroke-linecap:round;stroke-linejoin:round;stroke-miterlimit:4;stroke-dasharray:none;stroke-dashoffset:0;stroke-opacity:1;paint-order:markers fill stroke" /><path
         inkscape:connector-curvature="0"
         sodipodi:nodetypes="cc"
         id="path2347"
         d="m -1156.3179,425.25435 34.264,-111.01523"
         style="opacity:1;fill:none;fill-opacity:1;stroke:#000000;stroke-width:6;stroke-linecap:round;stroke-linejoin:round;stroke-miterlimit:4;stroke-dasharray:none;stroke-dashoffset:0;stroke-opacity:1;paint-order:markers fill stroke" /><path
         inkscape:connector-curvature="0"
         id="path2349"
         d="m -1263.2214,293.68075 65.1015,32.8934 75.3807,-12.33503 -75.3807,43.17259 -106.9036,-21.24365"
         style="opacity:1;fill:none;fill-opacity:1;stroke:#000000;stroke-width:6;stroke-linecap:round;stroke-linejoin:round;stroke-miterlimit:4;stroke-dasharray:none;stroke-dashoffset:0;stroke-opacity:1;paint-order:markers fill stroke" /><path
         inkscape:connector-curvature="0"
         sodipodi:nodetypes="ccc"
         id="path2422"
         d="m -1131.4561,276.68694 c -4.3101,21.96715 8.2939,17.15347 18.8981,15.5061 z"
         style="fill:none;stroke:#000000;stroke-width:1px;stroke-linecap:round;stroke-linejoin:round;stroke-opacity:1" /><path
         inkscape:connector-curvature="0"
         id="path3895"
         d="m -1139.4514,256.0929 63.4781,56.45189 10.9027,-4.60337 8.4799,-7.51077 -74.3808,-63.96265 -7.0262,6.54163 -5.5725,10.17588 z"
         style="fill:#000000;stroke:#000000;stroke-width:1px;stroke-linecap:butt;stroke-linejoin:miter;stroke-opacity:1" /><g
         id="g4746"
         transform="rotate(80.393351,-970.95921,91.807499)"><circle
           r="9.7518816"
           transform="rotate(-32.997134)"
           cy="-227.9151"
           cx="-848.2196"
           id="circle4742"
           style="fill:#ffffff;fill-opacity:1;stroke:#000000;stroke-width:1;stroke-linecap:round;stroke-linejoin:round;stroke-miterlimit:4;stroke-dasharray:none;stroke-dashoffset:0;stroke-opacity:1;paint-order:markers fill stroke" /><circle
           r="2.1805451"
           cy="277.5069"
           cx="-836.08844"
           id="circle4744"
           style="fill:#000000;fill-opacity:1;stroke:none;stroke-width:1;stroke-linecap:round;stroke-linejoin:round;stroke-miterlimit:4;stroke-dasharray:none;stroke-dashoffset:0;stroke-opacity:1;paint-order:markers fill stroke" /></g><g
         transform="rotate(80.393351,-971.334,109.19628)"
         id="g4752"><circle
           style="fill:#ffffff;fill-opacity:1;stroke:#000000;stroke-width:1;stroke-linecap:round;stroke-linejoin:round;stroke-miterlimit:4;stroke-dasharray:none;stroke-dashoffset:0;stroke-opacity:1;paint-order:markers fill stroke"
           id="circle4748"
           cx="-848.2196"
           cy="-227.9151"
           transform="rotate(-32.997134)"
           r="9.7518816" /><circle
           style="fill:#000000;fill-opacity:1;stroke:none;stroke-width:1;stroke-linecap:round;stroke-linejoin:round;stroke-miterlimit:4;stroke-dasharray:none;stroke-dashoffset:0;stroke-opacity:1;paint-order:markers fill stroke"
           id="circle4750"
           cx="-836.08844"
           cy="277.5069"
           r="2.1805451" /></g></g></g><g
     style="display:inline"
     id="g924"
     transform="rotate(68.836279,721.98328,985.98279)"
     inkscape:export-xdpi="96"
     inkscape:export-ydpi="96"><path
       inkscape:connector-curvature="0"
       id="path920"
       d="m 116.49584,750.20024 18.47317,2.03294 3.8007,7.513 c 0,0 -2.2981,11.31371 -2.82843,11.57888 -0.53033,0.26516 -6.27557,8.83883 -6.8059,8.92722 -0.53033,0.0884 -16.35185,-2.74004 -16.35185,-2.74004 0,0 -3.88909,-4.94974 -4.24264,-6.36396 -0.35355,-1.41421 -1.14905,-9.36916 -1.14905,-10.16466 0,-0.79549 3.00521,-7.95495 3.00521,-7.95495 z"
       style="fill:#000000;stroke:#000000;stroke-width:1px;stroke-linecap:butt;stroke-linejoin:miter;stroke-opacity:1" /><path
       inkscape:connector-curvature="0"
       id="path918"
       d="m 111.48277,794.78552 c -3.74866,0.80228 -5.381,1.03584 -5.24607,0.75056 0.0266,-0.0557 0.6087,-1.20375 1.29387,-2.55073 0.68519,-1.34692 1.19071,-2.58226 1.12341,-2.74512 -0.081,-0.19585 -0.98588,-0.24454 -2.67364,-0.14381 -6.692531,0.3994 -12.706427,-0.13494 -18.813895,-1.67159 -1.642278,-0.41318 -3.062552,-0.71987 -3.156169,-0.68149 -0.09363,0.0384 -1.508284,1.60779 -3.143717,3.48755 -4.421604,5.08221 -11.562836,11.82661 -13.568323,12.81441 -0.995727,0.49044 -1.313268,0.55004 -1.430116,0.26726 -0.197065,-0.47692 0.424277,-3.19887 1.466596,-6.42479 1.181311,-3.65617 1.438297,-5.94202 0.878739,-7.81686 -0.615549,-2.06247 -1.560928,-3.03522 -5.695175,-5.86007 -3.908065,-2.67031 -6.598608,-4.86453 -7.303665,-5.95634 -1.49183,-2.31015 0.358714,-2.79763 6.153696,-1.62098 6.846337,1.39013 15.889257,2.52042 17.222316,2.15272 0.690521,-0.1905 0.974497,-0.54013 2.927318,-3.60447 4.247596,-6.66525 8.000565,-11.50241 11.398003,-14.69073 0.800336,-0.75107 1.502199,-1.47095 1.559698,-1.5997 0.05746,-0.12874 -0.635515,-0.3824 -1.540024,-0.56368 -2.66256,-0.53367 -4.162418,-0.95909 -4.266135,-1.21009 -0.143381,-0.34698 2.426078,-2.28566 5.116714,-3.86067 2.148728,-1.25772 6.412019,-2.9431 8.385779,-3.31506 0.94492,-0.17811 3.0807,-0.35914 4.74627,-0.4023 2.58778,-0.0671 3.37611,-0.18447 5.41975,-0.80704 6.13549,-1.86909 12.10831,-2.26571 18.42193,-1.22327 6.20007,1.02361 12.21613,3.61494 15.78357,6.79839 1.43247,1.27831 1.59168,1.49704 2.25091,3.09241 0.59376,1.43693 0.69846,1.93972 0.64235,3.08471 -0.14213,2.90117 -1.90319,5.89985 -6.46445,11.0076 -4.46587,5.00093 -8.90402,8.96061 -12.50215,11.15434 -1.10063,0.671 -1.94108,1.40766 -3.05318,2.67612 -3.41256,3.89229 -5.99232,5.93989 -9.48495,7.52846 -1.99425,0.90699 -2.85317,1.16482 -6.44926,1.93426 z m 15.60729,-18.83689 c -2.8959,-2.48815 -6.00956,-6.40108 -7.63138,-9.59033 -1.46598,-2.88282 -2.17626,-6.54892 -2.22139,-11.46563 -0.0117,-1.28118 -0.0612,-2.34585 -0.10978,-2.366 -0.0487,-0.0202 -0.3989,0.8838 -0.77833,2.0087 -0.91908,2.72458 -1.35555,5.50934 -1.22063,7.78764 0.0996,1.68252 0.22263,2.13922 1.23733,4.59489 1.02677,2.48485 1.23506,2.84513 2.34882,4.06257 1.3966,1.52653 3.14246,2.94417 4.90034,3.97899 1.5296,0.90045 4.53736,2.28965 4.60555,2.12714 0.0282,-0.0674 -0.48044,-0.57946 -1.13051,-1.13797 z m 6.88521,-18.23537 c 0.35867,-0.85445 0.35548,-1.09517 -0.0268,-2.0203 -0.38228,-0.92512 -0.55013,-1.09831 -1.4087,-1.45365 -2.30538,-0.95411 -4.12333,1.45153 -2.81123,3.71993 0.61977,1.07146 1.91042,1.51507 3.0494,1.04804 0.62758,-0.25733 0.87385,-0.52349 1.19731,-1.29402 z"
       style="fill:#7137c8;stroke:#000000;stroke-width:1" /></g></svg>