<?xml version="1.0" encoding="UTF-8" standalone="no"?>
<!-- Created with Inkscape (http://www.inkscape.org/) -->

<svg
   xmlns:dc="http://purl.org/dc/elements/1.1/"
   xmlns:cc="http://creativecommons.org/ns#"
   xmlns:rdf="http://www.w3.org/1999/02/22-rdf-syntax-ns#"
   xmlns:svg="http://www.w3.org/2000/svg"
   xmlns="http://www.w3.org/2000/svg"
   xmlns:sodipodi="http://sodipodi.sourceforge.net/DTD/sodipodi-0.dtd"
   xmlns:inkscape="http://www.inkscape.org/namespaces/inkscape"
   width="740"
   height="1280"
   version="1.1"
   viewBox="0 0 739.99999 1280"
   xml:space="preserve"
   id="svg18"
   sodipodi:docname="level10lose.svg"
   inkscape:version="0.92.5 (2060ec1f9f, 2020-04-08)"
   inkscape:export-filename="H:\games\works\dom\thief puzzle\images\level1dfdsf0.png"
   inkscape:export-xdpi="96"
   inkscape:export-ydpi="96"><defs
     id="defs22" /><sodipodi:namedview
     pagecolor="#ffffff"
     bordercolor="#666666"
     borderopacity="1"
     objecttolerance="10"
     gridtolerance="10"
     guidetolerance="10"
     inkscape:pageopacity="0"
     inkscape:pageshadow="2"
     inkscape:window-width="1920"
     inkscape:window-height="986"
     id="namedview20"
     showgrid="false"
     inkscape:zoom="8.34386"
     inkscape:cx="325.997"
     inkscape:cy="701.20256"
     inkscape:window-x="1909"
     inkscape:window-y="49"
     inkscape:window-maximized="1"
     inkscape:current-layer="svg18"
     inkscape:snap-bbox="true"
     inkscape:bbox-nodes="true"
     inkscape:snap-bbox-edge-midpoints="true"
     inkscape:bbox-paths="true"
     inkscape:snap-bbox-midpoints="true"
     inkscape:object-paths="true"
     inkscape:snap-intersection-paths="true"
     inkscape:snap-smooth-nodes="true"
     inkscape:snap-midpoints="true"
     inkscape:snap-object-midpoints="true"
     inkscape:snap-center="true"
     inkscape:snap-text-baseline="true"
     inkscape:snap-page="true"
     inkscape:snap-global="false" /><metadata
     id="metadata2"><rdf:RDF><cc:Work
         rdf:about=""><dc:format>image/svg+xml</dc:format><dc:type
           rdf:resource="http://purl.org/dc/dcmitype/StillImage" /><dc:title></dc:title></cc:Work></rdf:RDF></metadata><rect
     style="opacity:1;vector-effect:none;fill:#8080ff;fill-opacity:1;stroke:#000000;stroke-width:1;stroke-linecap:round;stroke-linejoin:round;stroke-miterlimit:4;stroke-dasharray:none;stroke-dashoffset:0;stroke-opacity:1;paint-order:markers fill stroke"
     id="rect819"
     width="739"
     height="739"
     x="0.5"
     y="270.5" /><rect
     y="852.19489"
     x="0.5"
     height="157.30507"
     width="739"
     id="rect821"
     style="opacity:1;vector-effect:none;fill:#5555ff;fill-opacity:1;stroke:#000000;stroke-width:1;stroke-linecap:round;stroke-linejoin:round;stroke-miterlimit:4;stroke-dasharray:none;stroke-dashoffset:0;stroke-opacity:1;paint-order:markers fill stroke" /><g
     id="g950"
     transform="translate(1.0595703e-5,-8.1210937e-6)"><rect
       style="opacity:1;vector-effect:none;fill:#555531;fill-opacity:1;stroke:#000000;stroke-width:1;stroke-linecap:round;stroke-linejoin:round;stroke-miterlimit:4;stroke-dasharray:none;stroke-dashoffset:0;stroke-opacity:1;paint-order:markers fill stroke"
       id="rect895"
       width="11.896774"
       height="103.23375"
       x="326.61047"
       y="789.26337" /><rect
       style="opacity:1;vector-effect:none;fill:#555531;fill-opacity:1;stroke:#000000;stroke-width:1;stroke-linecap:round;stroke-linejoin:round;stroke-miterlimit:4;stroke-dasharray:none;stroke-dashoffset:0;stroke-opacity:1;paint-order:markers fill stroke"
       id="rect901"
       width="11.897038"
       height="108.59002"
       x="519.03986"
       y="-892.49731"
       transform="scale(1,-1)" /><rect
       transform="matrix(0,-1,-1,0,0,0)"
       y="-543.54114"
       x="-798.51508"
       height="237.67064"
       width="21.164421"
       id="rect899"
       style="opacity:1;vector-effect:none;fill:#555531;fill-opacity:1;stroke:#000000;stroke-width:1;stroke-linecap:round;stroke-linejoin:round;stroke-miterlimit:4;stroke-dasharray:none;stroke-dashoffset:0;stroke-opacity:1;paint-order:markers fill stroke" /></g><rect
     y="463.31812"
     x="292.87338"
     height="129.86626"
     width="13.820002"
     id="rect976"
     style="opacity:1;vector-effect:none;fill:#999999;fill-opacity:1;stroke:#000000;stroke-width:2;stroke-linecap:round;stroke-linejoin:round;stroke-miterlimit:4;stroke-dasharray:none;stroke-dashoffset:0;stroke-opacity:1;paint-order:markers fill stroke" /><rect
     style="opacity:1;vector-effect:none;fill:#5555ff;fill-opacity:1;stroke:#000000;stroke-width:1;stroke-linecap:round;stroke-linejoin:round;stroke-miterlimit:4;stroke-dasharray:none;stroke-dashoffset:0;stroke-opacity:1;paint-order:markers fill stroke"
     id="rect891"
     width="345.62277"
     height="202.19978"
     x="0.5"
     y="270.5" /><g
     id="g989"
     transform="translate(1.0595703e-5,-8.1210937e-6)"><rect
       y="271"
       x="618.30505"
       height="214.92372"
       width="12.20339"
       id="rect998"
       style="opacity:1;vector-effect:none;fill:#999999;fill-opacity:1;stroke:#000000;stroke-width:2;stroke-linecap:round;stroke-linejoin:round;stroke-miterlimit:4;stroke-dasharray:none;stroke-dashoffset:0;stroke-opacity:1;paint-order:markers fill stroke" /><circle
       r="36.433975"
       cy="522.35767"
       cx="624.40674"
       id="path914"
       style="opacity:1;vector-effect:none;fill:#ffff00;fill-opacity:1;stroke:#000000;stroke-width:1;stroke-linecap:round;stroke-linejoin:round;stroke-miterlimit:4;stroke-dasharray:none;stroke-dashoffset:0;stroke-opacity:1;paint-order:markers fill stroke" /><path
       id="circle1011"
       d="m 624.40625,485.92383 a 48.658531,48.658531 0 0 0 -48.6582,48.6582 48.658531,48.658531 0 0 0 0.0351,1 h 97.23047 a 48.658531,48.658531 0 0 0 0.0508,-1 48.658531,48.658531 0 0 0 -48.6582,-48.6582 z"
       style="opacity:1;vector-effect:none;fill:#333333;fill-opacity:1;stroke:#000000;stroke-width:0.99999994;stroke-linecap:round;stroke-linejoin:round;stroke-miterlimit:4;stroke-dasharray:none;stroke-dashoffset:0;stroke-opacity:1;paint-order:markers fill stroke"
       inkscape:connector-curvature="0" /></g><g
     id="g966"
     transform="translate(1.0595703e-5,-8.1210937e-6)"><rect
       y="614.57623"
       x="62.203388"
       height="72.881355"
       width="72.881355"
       id="rect1016"
       style="opacity:1;vector-effect:none;fill:#ffffff;fill-opacity:1;stroke:#000000;stroke-width:2;stroke-linecap:round;stroke-linejoin:round;stroke-miterlimit:4;stroke-dasharray:none;stroke-dashoffset:0;stroke-opacity:1;paint-order:markers fill stroke" /><path
       sodipodi:nodetypes="cscc"
       inkscape:connector-curvature="0"
       id="path1018"
       d="m 81.271187,614.57623 c 0,0 17.203391,-25.2542 17.203391,-24.91522 0,0.33899 17.203392,24.91522 17.203392,24.91522 z"
       style="fill:none;stroke:#000000;stroke-width:1px;stroke-linecap:butt;stroke-linejoin:miter;stroke-opacity:1" /><circle
       r="3.6440678"
       cy="592.11865"
       cx="98.135597"
       id="path1020"
       style="opacity:1;vector-effect:none;fill:#808080;fill-opacity:1;stroke:#000000;stroke-width:1px;stroke-linecap:butt;stroke-linejoin:miter;stroke-miterlimit:4;stroke-dasharray:none;stroke-dashoffset:0;stroke-opacity:1;paint-order:markers fill stroke" /><circle
       r="13.423044"
       cy="651.7536"
       cx="89.167366"
       id="path1060"
       style="opacity:1;vector-effect:none;fill:#00ffff;fill-opacity:1;stroke:none;stroke-width:1px;stroke-linecap:butt;stroke-linejoin:miter;stroke-miterlimit:4;stroke-dasharray:none;stroke-dashoffset:0;stroke-opacity:1;paint-order:markers fill stroke" /><circle
       style="opacity:1;vector-effect:none;fill:#00ff00;fill-opacity:1;stroke:none;stroke-width:1px;stroke-linecap:butt;stroke-linejoin:miter;stroke-miterlimit:4;stroke-dasharray:none;stroke-dashoffset:0;stroke-opacity:1;paint-order:markers fill stroke"
       id="circle1062"
       cx="98.644066"
       cy="637.59387"
       r="13.423044" /><circle
       r="13.423044"
       cy="657.48877"
       cx="106.79377"
       id="circle1064"
       style="opacity:1;vector-effect:none;fill:#ff0000;fill-opacity:1;stroke:none;stroke-width:1px;stroke-linecap:butt;stroke-linejoin:miter;stroke-miterlimit:4;stroke-dasharray:none;stroke-dashoffset:0;stroke-opacity:1;paint-order:markers fill stroke" /></g><g
     id="g958"
     transform="translate(1.0595703e-5,-8.1210937e-6)"><rect
       style="opacity:1;vector-effect:none;fill:#ffffff;fill-opacity:1;stroke:#000000;stroke-width:2;stroke-linecap:round;stroke-linejoin:round;stroke-miterlimit:4;stroke-dasharray:none;stroke-dashoffset:0;stroke-opacity:1;paint-order:markers fill stroke"
       id="rect1054"
       width="72.881355"
       height="72.881355"
       x="562.54236"
       y="687.79657" /><path
       style="fill:none;stroke:#000000;stroke-width:1px;stroke-linecap:butt;stroke-linejoin:miter;stroke-opacity:1"
       d="m 581.61017,687.79657 c 0,0 17.20339,-25.2542 17.20339,-24.91522 0,0.33899 17.20339,24.91522 17.20339,24.91522 z"
       id="path1056"
       inkscape:connector-curvature="0"
       sodipodi:nodetypes="cscc" /><circle
       style="opacity:1;vector-effect:none;fill:#808080;fill-opacity:1;stroke:#000000;stroke-width:1px;stroke-linecap:butt;stroke-linejoin:miter;stroke-miterlimit:4;stroke-dasharray:none;stroke-dashoffset:0;stroke-opacity:1;paint-order:markers fill stroke"
       id="circle1058"
       cx="598.47461"
       cy="665.33899"
       r="3.6440678" /><circle
       style="opacity:1;vector-effect:none;fill:#00ffff;fill-opacity:1;stroke:none;stroke-width:1px;stroke-linecap:butt;stroke-linejoin:miter;stroke-miterlimit:4;stroke-dasharray:none;stroke-dashoffset:0;stroke-opacity:1;paint-order:markers fill stroke"
       id="circle1066"
       cx="585.56"
       cy="724.23724"
       r="13.423044" /><circle
       r="13.423044"
       cy="710.07751"
       cx="595.03656"
       id="circle1068"
       style="opacity:1;vector-effect:none;fill:#00ff00;fill-opacity:1;stroke:none;stroke-width:1px;stroke-linecap:butt;stroke-linejoin:miter;stroke-miterlimit:4;stroke-dasharray:none;stroke-dashoffset:0;stroke-opacity:1;paint-order:markers fill stroke" /><circle
       style="opacity:1;vector-effect:none;fill:#ff0000;fill-opacity:1;stroke:none;stroke-width:1px;stroke-linecap:butt;stroke-linejoin:miter;stroke-miterlimit:4;stroke-dasharray:none;stroke-dashoffset:0;stroke-opacity:1;paint-order:markers fill stroke"
       id="circle1070"
       cx="603.18646"
       cy="729.97241"
       r="13.423044" /></g><circle
     style="fill:#ffffff;fill-opacity:1;stroke:#000000;stroke-width:4.49762154;stroke-linecap:round;stroke-linejoin:round;stroke-miterlimit:4;stroke-dasharray:none;stroke-dashoffset:0;stroke-opacity:1;paint-order:markers fill stroke"
     id="circle13968"
     cx="315.59109"
     cy="733.62341"
     r="36.584084"
     transform="matrix(-0.78990506,0.61322915,0.61322915,0.78990506,0,0)" /><path
     style="fill:#000000;stroke:#000000;stroke-width:0.95095456px;stroke-linecap:butt;stroke-linejoin:miter;stroke-opacity:1"
     d="m 233.45579,740.51546 c -1.10064,0.44196 -60.74128,47.15544 -60.74128,47.15544 l 3.83477,9.11217 3.82281,-2.96777 -0.55629,-4.04873 19.74833,-15.33127 12.09815,9.17523 16.45653,-12.77574 -2.08714,-7.25666 6.16816,3.37698 10.37361,-8.05337 z"
     id="path13970"
     sodipodi:nodetypes="cccccccccccc"
     inkscape:connector-curvature="0" /><path
     id="path13972"
     style="fill:#333333;stroke:#000000;stroke-width:1px;stroke-linecap:butt;stroke-linejoin:miter;stroke-opacity:1"
     sodipodi:type="inkscape:offset"
     inkscape:radius="-0.68472075"
     inkscape:original="M 589.10547 232.69531 C 569.03964 232.65248 548.82228 232.6529 548.22266 232.82422 L 552.50586 253.97656 L 566.31641 253.97656 L 569.26172 247.19336 L 572.20898 254.56641 L 594.11523 254.56641 L 598.24805 239.14453 L 624.53906 239.14453 L 626.6875 242.86523 L 631.77734 242.86523 L 629.08594 232.82422 C 629.08594 232.82422 609.1713 232.73814 589.10547 232.69531 z "
     d="m 561.36523,233.36328 c -3.8178,0.008 -7.02677,0.0234 -9.3164,0.0469 -1.14482,0.0117 -2.06016,0.0268 -2.70313,0.043 -0.12641,0.003 -0.19005,0.006 -0.29492,0.01 l 4.01563,19.82813 h 12.80078 l 2.76562,-6.3711 a 0.68478923,0.68478923 0 0 1 1.26563,0.0195 l 2.77344,6.94141 h 20.91796 l 3.9961,-14.91406 a 0.68478923,0.68478923 0 0 1 0.66211,-0.50782 h 26.29101 a 0.68478923,0.68478923 0 0 1 0.59375,0.34375 l 1.94922,3.37696 h 3.80274 l -2.32618,-8.67188 c -0.5113,-0.002 -19.65294,-0.0847 -39.45507,-0.12695 -10.03242,-0.0214 -20.10267,-0.0337 -27.73829,-0.0176 z"
     transform="matrix(-0.75116337,0.58315271,0.58315271,0.75116337,509.48936,245.92897)" /><path
     style="opacity:1;fill:none;fill-opacity:1;stroke:#000000;stroke-width:4.49762154;stroke-linecap:round;stroke-linejoin:round;stroke-miterlimit:4;stroke-dasharray:none;stroke-dashoffset:0;stroke-opacity:1;paint-order:markers fill stroke"
     d="m 198.21136,809.44844 v 82.09045 l -10.78744,53.51975 -46.44024,25.92039"
     id="path13974"
     sodipodi:nodetypes="cccc"
     inkscape:connector-curvature="0" /><path
     style="opacity:1;fill:none;fill-opacity:1;stroke:#000000;stroke-width:4.49762154;stroke-linecap:round;stroke-linejoin:round;stroke-miterlimit:4;stroke-dasharray:none;stroke-dashoffset:0;stroke-opacity:1;paint-order:markers fill stroke"
     d="m 198.21136,891.53889 39.40534,40.95267 18.7118,64.0214"
     id="path13976"
     sodipodi:nodetypes="ccc"
     inkscape:connector-curvature="0" /><path
     style="opacity:1;fill:none;fill-opacity:1;stroke:#000000;stroke-width:4.49762154;stroke-linecap:round;stroke-linejoin:round;stroke-miterlimit:4;stroke-dasharray:none;stroke-dashoffset:0;stroke-opacity:1;paint-order:markers fill stroke"
     d="m 229.01586,837.17583 -65.74501,22.15715 34.94051,-49.88454 41.57769,-0.14348 42.54766,-57.19467"
     id="path13978"
     sodipodi:nodetypes="ccccc"
     inkscape:connector-curvature="0" /><path
     inkscape:connector-curvature="0"
     sodipodi:nodetypes="ccc"
     id="path13984"
     d="m 210.59804,798.30869 c 3.23051,-17.05022 8.43787,-16.73518 13.71053,-15.84646 -5.58175,1.99366 -10.33445,8.98531 -13.71053,15.84646 z"
     style="fill:none;stroke:#000000;stroke-width:0.74960357px;stroke-linecap:butt;stroke-linejoin:miter;stroke-opacity:1" /><path
     inkscape:connector-curvature="0"
     sodipodi:nodetypes="cc"
     id="path13986"
     d="m 216.27298,750.33188 -1.09729,-7.27709"
     style="fill:none;stroke:#000000;stroke-width:0.74960357px;stroke-linecap:butt;stroke-linejoin:miter;stroke-opacity:1" /><path
     inkscape:connector-curvature="0"
     sodipodi:nodetypes="cc"
     id="path13988"
     d="m 201.18885,753.10035 9.66236,1.76578"
     style="fill:none;stroke:#000000;stroke-width:0.74960357px;stroke-linecap:butt;stroke-linejoin:miter;stroke-opacity:1" /><g
     id="g927"><circle
       r="35.630714"
       cy="328.5036"
       cx="288.48575"
       id="circle859"
       style="display:inline;fill:#ffffff;fill-opacity:1;stroke:#000000;stroke-width:4.38041449;stroke-linecap:round;stroke-linejoin:round;stroke-miterlimit:4;stroke-dasharray:none;stroke-dashoffset:0;stroke-opacity:1;paint-order:markers fill stroke" /><path
       inkscape:connector-curvature="0"
       sodipodi:nodetypes="cccccsc"
       id="path861"
       d="m 252.62714,328.5383 71.04277,-2.50151 0.50031,7.00421 -3.00181,10.00603 -62.2875,3.00181 c 0,0 -4.50271,-4.87794 -4.50271,-6.37884 0,-1.50091 -1.75106,-11.1317 -1.75106,-11.1317 z"
       style="fill:#000000;stroke:#000000;stroke-width:0.7300691px;stroke-linecap:butt;stroke-linejoin:miter;stroke-opacity:1" /><path
       sodipodi:nodetypes="cccc"
       inkscape:connector-curvature="0"
       id="path863"
       d="m 286.81044,366.03888 -77.44683,13.09044 57.43308,13.45341 -52.02281,41.46701"
       style="fill:none;stroke:#000000;stroke-width:4.38041449;stroke-linecap:round;stroke-linejoin:round;stroke-dasharray:none;stroke-opacity:1;paint-order:markers fill stroke" /><path
       sodipodi:nodetypes="ccc"
       inkscape:connector-curvature="0"
       id="path865"
       d="m 209.36361,379.12932 -15.35734,46.72418 -62.08534,7.79936"
       style="fill:none;stroke:#000000;stroke-width:4.38041449;stroke-linecap:round;stroke-linejoin:round;stroke-dasharray:none;stroke-opacity:1;paint-order:markers fill stroke" /><path
       inkscape:connector-curvature="0"
       id="path867"
       d="m 349.67666,421.49356 -67.05951,3.8842 4.19329,-59.33888 71.18954,12.56335 -22.97903,-54.3546"
       style="opacity:1;fill:none;fill-opacity:1;stroke:#000000;stroke-width:4.38041449;stroke-linecap:round;stroke-linejoin:round;stroke-miterlimit:4;stroke-dasharray:none;stroke-dashoffset:0;stroke-opacity:1;paint-order:markers fill stroke"
       sodipodi:nodetypes="ccccc" /><circle
       r="7.1195478"
       transform="rotate(-125.01532)"
       cy="61.267582"
       cx="-451.88373"
       id="circle869"
       style="fill:#ffffff;fill-opacity:1;stroke:#000000;stroke-width:0.7300691;stroke-linecap:round;stroke-linejoin:round;stroke-miterlimit:4;stroke-dasharray:none;stroke-dashoffset:0;stroke-opacity:1;paint-order:markers fill stroke" /><circle
       transform="rotate(-92.018184)"
       r="1.5919486"
       cy="297.75723"
       cx="-349.86386"
       id="circle871"
       style="fill:#000000;fill-opacity:1;stroke:none;stroke-width:0.7300691;stroke-linecap:round;stroke-linejoin:round;stroke-miterlimit:4;stroke-dasharray:none;stroke-dashoffset:0;stroke-opacity:1;paint-order:markers fill stroke" /><circle
       style="fill:#ffffff;fill-opacity:1;stroke:#000000;stroke-width:1.02771449;stroke-linecap:round;stroke-linejoin:round;stroke-miterlimit:4;stroke-dasharray:none;stroke-dashoffset:0;stroke-opacity:1;paint-order:markers fill stroke"
       id="circle877"
       cx="-441.18448"
       cy="43.755001"
       transform="rotate(-125.01532)"
       r="10.02215" /><circle
       transform="rotate(-92.018184)"
       style="fill:#000000;fill-opacity:1;stroke:none;stroke-width:0.7300691;stroke-linecap:round;stroke-linejoin:round;stroke-miterlimit:4;stroke-dasharray:none;stroke-dashoffset:0;stroke-opacity:1;paint-order:markers fill stroke"
       id="circle879"
       cx="-350.60901"
       cy="277.5755"
       r="1.5919486" /><circle
       r="5.762712"
       cy="355.59323"
       cx="295.93219"
       id="path915"
       style="opacity:1;vector-effect:none;fill:#ff0000;fill-opacity:1;stroke:#000000;stroke-width:2;stroke-linecap:round;stroke-linejoin:round;stroke-miterlimit:4;stroke-dasharray:none;stroke-dashoffset:0;stroke-opacity:1;paint-order:markers stroke fill" /></g><g
     id="g1088"
     transform="matrix(0.55374052,0,0,0.55374052,133.50069,270.32104)"
     style="display:inline;opacity:1"><path
       inkscape:connector-curvature="0"
       id="path978"
       d="m 273.6404,593.07861 c -26.9141,-1.6827 -46.5684,-6.25035 -44.7725,-10.40512 0.7619,-1.7627 3.5352,-2.78247 16.7973,-6.17641 13.1881,-3.37502 21.9668,-6.11063 26.2433,-8.1779 1.6979,-0.82077 3.4629,-1.49231 3.9221,-1.49231 0.4593,0 2.1938,0.16777 3.8545,0.37281 4.5855,0.56619 17.5381,1.0838 23.2895,0.93069 7.2771,-0.19372 13.3728,-0.58321 18.8945,-1.20727 l 4.8027,-0.54281 4.9506,1.59622 c 5.9504,1.91859 12.0382,4.84788 14.4826,6.96856 2.8261,2.4519 2.3889,6.49841 -0.9728,9.00512 -6.0399,4.50371 -20.5245,7.89012 -39.4973,9.23421 -7.5631,0.53579 -22.5239,0.48632 -31.9945,-0.10579 z m 133.8473,-20.83303 c -4.8978,-0.43812 -6.2558,-0.68644 -18.0886,-3.30761 -17.6815,-3.91679 -26.3726,-5.51276 -36.8327,-6.76374 -3.025,-0.36177 -5.5984,-0.67729 -5.7187,-0.70115 -0.1202,-0.0238 0.8684,-0.78992 2.1971,-1.70236 4.686,-3.21813 4.0598,-6.49871 -1.7986,-9.42152 l -2.4508,-1.22273 6.6355,-1.17107 c 8.2275,-1.45203 20.5631,-2.9223 29.1355,-3.47264 8.7658,-0.56276 26.2225,-0.56425 34.9199,-0.003 28.3355,1.82857 46.6347,8.12721 43.0727,14.82581 -2.7987,5.26338 -16.3954,10.76744 -30.9633,12.53425 -5.4707,0.66349 -15.0629,0.85704 -20.108,0.40574 z m -118.813,-4.96065 c -16.9027,-0.7926 -33.0424,-4.54663 -37.5334,-8.73012 -10.5974,-9.87174 32.447,-18.13582 71.0649,-13.64371 16.6551,1.93736 27.3364,6.1157 27.3364,10.69355 0,3.24638 -4.9506,6.11073 -14.5579,8.42306 -11.8525,2.85268 -29.0867,4.06485 -46.31,3.25722 z m 21.9364,-4.73803 c 6.9354,-0.62922 12.9398,-1.86517 16.4842,-3.39311 2.7107,-1.16857 2.9708,-1.47962 2.9683,-3.54914 0,-1.89509 -0.3735,-2.43421 -2.2561,-3.27646 -10.1728,-4.5512 -34.7031,-5.5732 -49.7818,-2.07406 -13.8119,3.20517 -12.1769,8.61512 3.4319,11.35594 8.0573,1.41481 19.7453,1.7904 29.1535,0.93683 z m -118.1202,4.52035 c -19.08751,-0.57701 -34.81691,-2.98829 -44.40121,-6.80658 -5.3383,-2.12675 -7.5233,-4.06468 -7.5233,-6.67253 0,-7.42285 21.6236,-14.93155 43,-14.93155 8.4252,0 13.79891,0.75216 28.00001,3.9192 15.5609,3.47031 24.441,5.10556 33.75,6.21497 3.9875,0.47522 7.25,0.89025 7.25,0.92229 0,0.0321 -0.8809,0.65668 -1.9575,1.38809 -2.5843,1.75558 -4.2502,4.32399 -3.5135,5.41685 1.3643,2.02394 2.8816,3.33036 5.0908,4.38333 l 2.3461,1.1182 -6.6803,1.19453 c -16.5475,2.95891 -37.2586,4.40043 -55.3611,3.8532 z m 74.3774,-24.16016 c -6.7981,-2.355 -10.8573,-4.3404 -13.402,-6.55514 -2.8686,-2.49655 -2.3408,-7.29248 1.0533,-9.57237 7.2248,-4.85302 26.0386,-8.55533 46.2156,-9.09462 21.3548,-0.57077 45.8822,1.54281 60.133,5.18179 9.6039,2.45239 12.1722,5.12138 7.2629,7.54759 -1.4246,0.70408 -7.2196,2.41827 -14.1258,4.17848 -14.1536,3.6074 -21.0698,5.75577 -25.9874,8.07248 -2.8889,1.36094 -4.0616,1.70914 -5.3279,1.58188 -13.4924,-1.35607 -27.9483,-1.53258 -40.1236,-0.48993 -4.125,0.35325 -8.2092,0.69979 -9.076,0.77009 -1.1119,0.0902 -3.0617,-0.38687 -6.6221,-1.62025 z"
       style="fill:#4d4d4d;stroke:#000000;stroke-width:2;stroke-linecap:round;stroke-linejoin:round;stroke-miterlimit:4;stroke-dasharray:none;paint-order:markers fill stroke" /><path
       style="fill:#b3b3b3;stroke:#000000;stroke-width:2;stroke-linecap:round;stroke-linejoin:round;stroke-miterlimit:4;stroke-dasharray:none;paint-order:markers fill stroke"
       d="m 273.6404,596.40208 c -26.9141,-1.6827 -46.5684,-6.25036 -44.7725,-10.40512 0.7619,-1.76271 3.5352,-2.78247 16.7973,-6.17641 13.1881,-3.37502 21.9668,-6.11063 26.2433,-8.1779 1.6979,-0.82077 3.4629,-1.49232 3.9221,-1.49232 0.4593,0 2.1938,0.16777 3.8545,0.37282 4.5855,0.56619 17.5381,1.08379 23.2895,0.93069 7.2771,-0.19373 13.3728,-0.58321 18.8945,-1.20728 l 4.8027,-0.5428 4.9506,1.59622 c 5.9504,1.91859 12.0382,4.84788 14.4826,6.96856 2.8261,2.4519 2.3889,6.4984 -0.9728,9.00512 -6.0399,4.50371 -20.5245,7.89011 -39.4973,9.23421 -7.5631,0.53579 -22.5239,0.48632 -31.9945,-0.10579 z m 133.8473,-20.83303 c -4.8978,-0.43812 -6.2558,-0.68644 -18.0886,-3.30761 -17.6815,-3.9168 -26.3726,-5.51276 -36.8327,-6.76374 -3.025,-0.36177 -5.5984,-0.67729 -5.7187,-0.70115 -0.1202,-0.0239 0.8684,-0.78992 2.1971,-1.70237 4.686,-3.21813 4.0598,-6.49871 -1.7986,-9.42151 l -2.4508,-1.22274 6.6355,-1.17106 c 8.2275,-1.45203 20.5631,-2.92231 29.1355,-3.47264 8.7658,-0.56276 26.2225,-0.56426 34.9199,-0.003 28.3355,1.82858 46.6347,8.12722 43.0727,14.82582 -2.7987,5.26337 -16.3954,10.76744 -30.9633,12.53425 -5.4707,0.66349 -15.0629,0.85704 -20.108,0.40574 z m -118.813,-4.96066 c -16.9027,-0.7926 -33.0424,-4.54662 -37.5334,-8.73011 -10.5974,-9.87175 32.447,-18.13583 71.0649,-13.64371 16.6551,1.93736 27.3364,6.1157 27.3364,10.69354 0,3.24639 -4.9506,6.11074 -14.5579,8.42307 -11.8525,2.85267 -29.0867,4.06484 -46.31,3.25721 z m 21.9364,-4.73802 c 6.9354,-0.62922 12.9398,-1.86517 16.4842,-3.39312 2.7107,-1.16857 2.9708,-1.47961 2.9683,-3.54914 0,-1.89509 -0.3735,-2.4342 -2.2561,-3.27646 -10.1728,-4.55119 -34.7031,-5.57319 -49.7818,-2.07405 -13.8119,3.20516 -12.1769,8.61512 3.4319,11.35594 8.0573,1.41481 19.7453,1.7904 29.1535,0.93683 z m -118.1202,4.52034 c -19.08751,-0.577 -34.81691,-2.98829 -44.40121,-6.80657 -5.3383,-2.12675 -7.5233,-4.06468 -7.5233,-6.67254 0,-7.42284 21.6236,-14.93154 43,-14.93154 8.4252,0 13.79891,0.75215 28.00001,3.91919 15.5609,3.47032 24.441,5.10556 33.75,6.21498 3.9875,0.47522 7.25,0.89025 7.25,0.92229 0,0.032 -0.8809,0.65668 -1.9575,1.38808 -2.5843,1.75559 -4.2502,4.32399 -3.5135,5.41686 1.3643,2.02394 2.8816,3.33035 5.0908,4.38333 l 2.3461,1.11819 -6.6803,1.19453 c -16.5475,2.95892 -37.2586,4.40044 -55.3611,3.8532 z m 74.3774,-24.16016 c -6.7981,-2.35499 -10.8573,-4.34039 -13.402,-6.55513 -2.8686,-2.49655 -2.3408,-7.29249 1.0533,-9.57237 7.2248,-4.85302 26.0386,-8.55534 46.2156,-9.09463 21.3548,-0.57076 45.8822,1.54282 60.133,5.1818 9.6039,2.45238 12.1722,5.12138 7.2629,7.54758 -1.4246,0.70409 -7.2196,2.41828 -14.1258,4.17849 -14.1536,3.60739 -21.0698,5.75577 -25.9874,8.07248 -2.8889,1.36094 -4.0616,1.70914 -5.3279,1.58187 -13.4924,-1.35606 -27.9483,-1.53257 -40.1236,-0.48992 -4.125,0.35325 -8.2092,0.69979 -9.076,0.77009 -1.1119,0.0902 -3.0617,-0.38687 -6.6221,-1.62026 z"
       id="path980"
       inkscape:connector-curvature="0" /><path
       inkscape:connector-curvature="0"
       style="opacity:1;vector-effect:none;fill:#4d4d4d;fill-opacity:1;stroke:#000000;stroke-width:2;stroke-linecap:round;stroke-linejoin:round;stroke-miterlimit:4;stroke-dasharray:none;stroke-dashoffset:0;stroke-opacity:1;paint-order:markers fill stroke"
       d="m 299.7827,546.3942 a 52.367279,12.503771 0 0 0 -52.3672,12.50375 v 12.74252 H 352.1499 V 558.89795 A 52.367279,12.503771 0 0 0 299.7827,546.3942 Z"
       id="path982" /><ellipse
       style="opacity:1;vector-effect:none;fill:#999999;fill-opacity:1;stroke:#000000;stroke-width:2;stroke-linecap:round;stroke-linejoin:round;stroke-miterlimit:4;stroke-dasharray:none;stroke-dashoffset:0;stroke-opacity:1;paint-order:markers fill stroke"
       id="ellipse994"
       cx="299.78271"
       cy="571.64056"
       rx="53.460278"
       ry="12.764747" /></g></svg>