<?xml version="1.0" encoding="UTF-8" standalone="no"?>
<!-- Created with Inkscape (http://www.inkscape.org/) -->

<svg
   xmlns:dc="http://purl.org/dc/elements/1.1/"
   xmlns:cc="http://creativecommons.org/ns#"
   xmlns:rdf="http://www.w3.org/1999/02/22-rdf-syntax-ns#"
   xmlns:svg="http://www.w3.org/2000/svg"
   xmlns="http://www.w3.org/2000/svg"
   xmlns:sodipodi="http://sodipodi.sourceforge.net/DTD/sodipodi-0.dtd"
   xmlns:inkscape="http://www.inkscape.org/namespaces/inkscape"
   width="740"
   height="1280"
   version="1.1"
   viewBox="0 0 740 1280"
   xml:space="preserve"
   id="svg18"
   sodipodi:docname="level20win.svg"
   inkscape:version="0.92.5 (2060ec1f9f, 2020-04-08)"><defs
     id="defs22" /><sodipodi:namedview
     pagecolor="#ffffff"
     bordercolor="#666666"
     borderopacity="1"
     objecttolerance="10"
     gridtolerance="10"
     guidetolerance="10"
     inkscape:pageopacity="0"
     inkscape:pageshadow="2"
     inkscape:window-width="1920"
     inkscape:window-height="986"
     id="namedview20"
     showgrid="false"
     inkscape:zoom="5.6568544"
     inkscape:cx="181.59167"
     inkscape:cy="899.32958"
     inkscape:window-x="1909"
     inkscape:window-y="49"
     inkscape:window-maximized="1"
     inkscape:current-layer="svg18"
     inkscape:snap-bbox="true"
     inkscape:bbox-paths="true"
     inkscape:snap-bbox-edge-midpoints="true"
     inkscape:bbox-nodes="true"
     inkscape:snap-bbox-midpoints="true"
     inkscape:object-paths="true"
     inkscape:snap-intersection-paths="true"
     inkscape:snap-smooth-nodes="true"
     inkscape:snap-midpoints="true"
     inkscape:snap-object-midpoints="true"
     inkscape:snap-center="true"
     inkscape:snap-text-baseline="true"
     inkscape:snap-page="true"
     inkscape:snap-global="false"
     showguides="false" /><metadata
     id="metadata2"><rdf:RDF><cc:Work
         rdf:about=""><dc:format>image/svg+xml</dc:format><dc:type
           rdf:resource="http://purl.org/dc/dcmitype/StillImage" /><dc:title /></cc:Work></rdf:RDF></metadata><rect
     style="opacity:1;vector-effect:none;fill:#93ac9d;fill-opacity:1;stroke:#000000;stroke-width:0.99999994;stroke-linecap:round;stroke-linejoin:miter;stroke-miterlimit:4;stroke-dasharray:none;stroke-dashoffset:0;stroke-opacity:1;paint-order:normal"
     id="rect821"
     width="739"
     height="739"
     x="0.5"
     y="270.5" /><rect
     y="270.5"
     x="0.5"
     height="159.17244"
     width="739"
     id="rect932"
     style="opacity:1;vector-effect:none;fill:#7d9b89;fill-opacity:1;stroke:#000000;stroke-width:0.99999994;stroke-linecap:round;stroke-linejoin:miter;stroke-miterlimit:4;stroke-dasharray:none;stroke-dashoffset:0;stroke-opacity:1;paint-order:normal" /><circle
     transform="scale(-1,1)"
     r="33.225914"
     cy="332.54764"
     cx="-110.57281"
     id="circle1410-1"
     style="fill:#ffffff;fill-opacity:1;stroke:#000000;stroke-width:4.0847702;stroke-linecap:round;stroke-linejoin:round;stroke-miterlimit:4;stroke-dasharray:none;stroke-dashoffset:0;stroke-opacity:1;paint-order:markers fill stroke" /><circle
     r="8.8994846"
     transform="matrix(-0.82352811,0.56727546,0.56727546,0.82352811,0,0)"
     cy="352.25726"
     cx="83.906693"
     id="circle1414-7"
     style="fill:#ffffff;fill-opacity:1;stroke:#000000;stroke-width:0.68079501;stroke-linecap:round;stroke-linejoin:round;stroke-miterlimit:4;stroke-dasharray:none;stroke-dashoffset:0;stroke-opacity:1;paint-order:markers fill stroke" /><circle
     r="1.989947"
     cy="255.1189"
     cx="264.49243"
     id="circle1416-5"
     style="fill:#000000;fill-opacity:1;stroke:none;stroke-width:0.68079501;stroke-linecap:round;stroke-linejoin:round;stroke-miterlimit:4;stroke-dasharray:none;stroke-dashoffset:0;stroke-opacity:1;paint-order:markers fill stroke"
     transform="matrix(-0.38175467,0.92426369,0.92426369,0.38175467,0,0)" /><circle
     style="fill:#ffffff;fill-opacity:1;stroke:#000000;stroke-width:0.68079501;stroke-linecap:round;stroke-linejoin:round;stroke-miterlimit:4;stroke-dasharray:none;stroke-dashoffset:0;stroke-opacity:1;paint-order:markers fill stroke"
     id="circle1421-8"
     cx="99.837906"
     cy="338.63971"
     transform="matrix(-0.82352811,0.56727546,0.56727546,0.82352811,0,0)"
     r="7.8357425" /><circle
     style="fill:#000000;fill-opacity:1;stroke:none;stroke-width:0.68079501;stroke-linecap:round;stroke-linejoin:round;stroke-miterlimit:4;stroke-dasharray:none;stroke-dashoffset:0;stroke-opacity:1;paint-order:markers fill stroke"
     id="circle1423-5"
     cx="270.49966"
     cy="234.28868"
     r="1.7520915"
     transform="matrix(-0.38175467,0.92426369,0.92426369,0.38175467,0,0)" /><path
     sodipodi:nodetypes="cccc"
     inkscape:connector-curvature="0"
     id="path1427-5"
     d="m 107.87015,368.44114 -19.663569,63.96924 50.431909,35.65561 44.68556,53.83697"
     style="opacity:1;vector-effect:none;fill:none;fill-opacity:1;stroke:#000000;stroke-width:4.0847702;stroke-linecap:round;stroke-linejoin:round;stroke-miterlimit:4;stroke-dasharray:none;stroke-dashoffset:0;stroke-opacity:1;paint-order:markers fill stroke" /><path
     inkscape:connector-curvature="0"
     id="path1429-5"
     d="m 88.206581,432.41038 34.224169,50.72592 -1.58914,63.36826"
     style="opacity:1;vector-effect:none;fill:none;fill-opacity:1;stroke:#000000;stroke-width:4.0847702;stroke-linecap:round;stroke-linejoin:round;stroke-miterlimit:4;stroke-dasharray:none;stroke-dashoffset:0;stroke-opacity:1;paint-order:markers fill stroke"
     sodipodi:nodetypes="ccc" /><path
     sodipodi:nodetypes="ccccc"
     inkscape:connector-curvature="0"
     id="path1432-3"
     d="m 49.896204,312.0628 -1.595614,55.3146 59.56956,1.06374 41.48595,15.42426 48.40027,-72.86634"
     style="opacity:1;vector-effect:none;fill:none;fill-opacity:1;stroke:#000000;stroke-width:4.0847702;stroke-linecap:round;stroke-linejoin:round;stroke-miterlimit:4;stroke-dasharray:none;stroke-dashoffset:0;stroke-opacity:1;paint-order:markers fill stroke" /><path
     sodipodi:nodetypes="ccccc"
     inkscape:connector-curvature="0"
     id="path1412-4"
     d="m 73.432718,311.17511 c -7.289502,-6.55984 -7.886236,-9.35025 -17.86186,-5.20712 5.633384,-26.15417 7.961472,-57.6316 20.931882,-66.10902 12.935378,14.37879 23.145652,18.81908 32.71976,20.9393 -12.843851,5.81064 -24.616318,24.49496 -35.789782,50.37684 z"
     style="fill:#0000ff;stroke:#000000;stroke-width:0.68079501px;stroke-linecap:butt;stroke-linejoin:miter;stroke-opacity:1" /><path
     sodipodi:nodetypes="ccc"
     inkscape:connector-curvature="0"
     id="path1434-4"
     d="M 73.432718,311.17511 C 71.843726,285.23364 116.39759,203.42719 109.22472,260.79882 94.268593,269.11349 85.163901,293.82404 73.432718,311.17511 Z"
     style="fill:#000080;stroke:#000000;stroke-width:0.68079501px;stroke-linecap:butt;stroke-linejoin:miter;stroke-opacity:1" /><circle
     r="5.8505821"
     cy="263.00162"
     cx="-72.600166"
     id="circle1436-7"
     style="opacity:1;vector-effect:none;fill:#ffff00;fill-opacity:1;stroke:none;stroke-width:4.0847702;stroke-linecap:round;stroke-linejoin:round;stroke-miterlimit:4;stroke-dasharray:none;stroke-dashoffset:0;stroke-opacity:1;paint-order:markers fill stroke"
     transform="rotate(-33.033193)" /><circle
     style="opacity:1;vector-effect:none;fill:#ff0000;fill-opacity:1;stroke:#000000;stroke-width:0.68079501;stroke-linecap:round;stroke-linejoin:round;stroke-miterlimit:4;stroke-dasharray:none;stroke-dashoffset:0;stroke-opacity:1;paint-order:markers fill stroke"
     id="path1459-7"
     cx="100.72803"
     cy="355.04944"
     r="6.0174346" /><rect
     ry="26.870058"
     y="636.53284"
     x="405.17218"
     height="192.33304"
     width="192.33304"
     id="rect846"
     style="opacity:1;vector-effect:none;fill:#786721;fill-opacity:1;stroke:#000000;stroke-width:2;stroke-linecap:round;stroke-linejoin:round;stroke-miterlimit:4;stroke-dasharray:none;stroke-dashoffset:0;stroke-opacity:1;paint-order:fill markers stroke"
     rx="26.870058" /><rect
     style="opacity:1;vector-effect:none;fill:#d3bc5f;fill-opacity:1;stroke:#000000;stroke-width:2;stroke-linecap:round;stroke-linejoin:round;stroke-miterlimit:4;stroke-dasharray:none;stroke-dashoffset:0;stroke-opacity:1;paint-order:fill markers stroke"
     id="rect844"
     width="192.33304"
     height="214.33304"
     x="405.17218"
     y="584.2572"
     ry="26.870056"
     rx="26.870058" /><g
     id="g1078"
     transform="translate(-223.44278,-152.48736)"><path
   d="m -412.75781,589.05078 a 57.909454,18.542391 0 0 0 -57.91016,18.54297 57.909454,18.542391 0 0 0 0.0996,0.89844 90.126152,90.126152 0 0 0 -15.53711,50.21289 90.126152,90.126152 0 0 0 15.27539,49.93164 57.909454,18.542391 0 0 0 -0.37109,2.02539 57.909454,18.542391 0 0 0 57.91015,18.54297 57.909454,18.542391 0 0 0 57.90821,-18.54297 57.909454,18.542391 0 0 0 -0.10157,-0.92383 90.126152,90.126152 0 0 0 16.07227,-51.0332 90.126152,90.126152 0 0 0 -15.55469,-50.36133 57.909454,18.542391 0 0 0 0.11719,-0.75 57.909454,18.542391 0 0 0 -57.9082,-18.54297 z"
   id="path1054"
   style="opacity:1;vector-effect:none;fill:#d45500;fill-opacity:1;stroke:#000000;stroke-width:4;stroke-linecap:round;stroke-linejoin:round;stroke-miterlimit:4;stroke-dasharray:none;stroke-dashoffset:0;stroke-opacity:1;paint-order:markers fill stroke"
   inkscape:original="M -412.75781 589.05078 A 57.909454 18.542391 0 0 0 -470.66797 607.59375 A 57.909454 18.542391 0 0 0 -470.56836 608.49219 A 90.126152 90.126152 0 0 0 -486.10547 658.70508 A 90.126152 90.126152 0 0 0 -470.83008 708.63672 A 57.909454 18.542391 0 0 0 -471.20117 710.66211 A 57.909454 18.542391 0 0 0 -413.29102 729.20508 A 57.909454 18.542391 0 0 0 -355.38281 710.66211 A 57.909454 18.542391 0 0 0 -355.48438 709.73828 A 90.126152 90.126152 0 0 0 -339.41211 658.70508 A 90.126152 90.126152 0 0 0 -354.9668 608.34375 A 57.909454 18.542391 0 0 0 -354.84961 607.59375 A 57.909454 18.542391 0 0 0 -412.75781 589.05078 z "
   inkscape:radius="0"
   sodipodi:type="inkscape:offset"
   transform="translate(810.85694,87.46585)" /><path
   id="path1056"
   d="m 451.91749,690.35452 -108.16797,0.66406 a 90.126152,90.126152 0 0 0 -18.99805,55.15235 90.126152,90.126152 0 0 0 15.27539,49.93164 57.909454,18.542391 0 0 0 -0.37109,2.02539 57.909454,18.542391 0 0 0 57.91015,18.54297 57.909454,18.542391 0 0 0 57.90821,-18.54297 57.909454,18.542391 0 0 0 -0.10157,-0.92383 90.126152,90.126152 0 0 0 16.07227,-51.0332 90.126152,90.126152 0 0 0 -19.52734,-55.81641 z"
   style="opacity:1;vector-effect:none;fill:#784421;fill-opacity:1;stroke:none;stroke-width:2;stroke-linecap:round;stroke-linejoin:round;stroke-miterlimit:4;stroke-dasharray:none;stroke-dashoffset:0;stroke-opacity:1;paint-order:markers fill stroke"
   inkscape:connector-curvature="0" /><ellipse
   ry="18.542391"
   rx="57.909454"
   cy="695.0589"
   cx="398.09814"
   id="ellipse1058"
   style="opacity:1;vector-effect:none;fill:#4d4d4d;fill-opacity:1;stroke:none;stroke-width:1.99999964;stroke-linecap:round;stroke-linejoin:round;stroke-miterlimit:4;stroke-dasharray:none;stroke-dashoffset:0;stroke-opacity:1;paint-order:markers fill stroke" /><ellipse
   style="opacity:1;vector-effect:none;fill:#b3b3b3;fill-opacity:1;stroke:none;stroke-width:1.99999976;stroke-linecap:round;stroke-linejoin:round;stroke-miterlimit:4;stroke-dasharray:none;stroke-dashoffset:0;stroke-opacity:1;paint-order:markers fill stroke"
   id="ellipse1060"
   cx="398.09814"
   cy="695.0589"
   rx="48.926319"
   ry="15.666024" /><path
   sodipodi:type="star"
   style="opacity:1;vector-effect:none;fill:#ffff00;fill-opacity:1;stroke:#000000;stroke-width:2.2074554;stroke-linecap:round;stroke-linejoin:round;stroke-miterlimit:4;stroke-dasharray:none;stroke-dashoffset:0;stroke-opacity:1;paint-order:markers fill stroke"
   id="path1062"
   sodipodi:sides="10"
   sodipodi:cx="285.67407"
   sodipodi:cy="720.06854"
   sodipodi:r1="45.987404"
   sodipodi:r2="33.824558"
   sodipodi:arg1="0.52359878"
   sodipodi:arg2="0.8652625"
   inkscape:flatsided="false"
   inkscape:rounded="0"
   inkscape:randomized="0"
   d="m 325.50033,743.06224 -17.89305,2.75577 -3.22845,16.26212 -16.09558,-8.28781 -12.1705,11.25869 -8.15014,-16.16572 -16.46384,1.95483 2.90837,-17.86888 -14.46855,-8.09571 12.85599,-12.74673 -6.94677,-15.05396 17.89306,-2.75577 3.22844,-16.26211 16.09558,8.28781 12.1705,-11.2587 8.15015,16.16573 16.46383,-1.95484 -2.90836,17.86889 14.46854,8.0957 -12.85598,12.74674 z"
   inkscape:transform-center-x="-2.9349771"
   inkscape:transform-center-y="-1.8473433"
   transform="matrix(0.96304879,0.23525264,-0.28988253,0.78155718,331.71537,129.01095)" /><text
   id="text1066"
   y="772.15906"
   x="370.39218"
   style="font-style:normal;font-variant:normal;font-weight:normal;font-stretch:normal;font-size:35.78207397px;line-height:1.25;font-family:'Another Typewriter';-inkscape-font-specification:'Another Typewriter, Normal';font-variant-ligatures:normal;font-variant-caps:normal;font-variant-numeric:normal;font-feature-settings:normal;text-align:start;letter-spacing:0px;word-spacing:0px;writing-mode:lr-tb;text-anchor:start;fill:#ff0000;fill-opacity:1;stroke:#000000;stroke-width:1;stroke-linecap:round;stroke-linejoin:round;stroke-miterlimit:4;stroke-dasharray:none;paint-order:markers fill stroke"
   xml:space="preserve"><tspan
     style="fill:#ff0000;stroke:#000000;stroke-width:1;stroke-linecap:round;stroke-linejoin:round;stroke-miterlimit:4;stroke-dasharray:none;paint-order:markers fill stroke"
     y="772.15906"
     x="370.39218"
     id="tspan1064"
     sodipodi:role="line">tnt</tspan></text>


<ellipse
   ry="6.6571126"
   rx="20.790726"
   cy="694.38098"
   cx="419.79306"
   id="ellipse1068"
   style="opacity:1;vector-effect:none;fill:#000000;fill-opacity:1;stroke:none;stroke-width:1.99999964;stroke-linecap:round;stroke-linejoin:round;stroke-miterlimit:4;stroke-dasharray:none;stroke-dashoffset:0;stroke-opacity:1;paint-order:markers fill stroke" /></g><g
     transform="translate(-24.038665,-308.75796)"
     id="g886"><path
   transform="translate(810.85694,87.46585)"
   sodipodi:type="inkscape:offset"
   inkscape:radius="0"
   inkscape:original="M -412.75781 589.05078 A 57.909454 18.542391 0 0 0 -470.66797 607.59375 A 57.909454 18.542391 0 0 0 -470.56836 608.49219 A 90.126152 90.126152 0 0 0 -486.10547 658.70508 A 90.126152 90.126152 0 0 0 -470.83008 708.63672 A 57.909454 18.542391 0 0 0 -471.20117 710.66211 A 57.909454 18.542391 0 0 0 -413.29102 729.20508 A 57.909454 18.542391 0 0 0 -355.38281 710.66211 A 57.909454 18.542391 0 0 0 -355.48438 709.73828 A 90.126152 90.126152 0 0 0 -339.41211 658.70508 A 90.126152 90.126152 0 0 0 -354.9668 608.34375 A 57.909454 18.542391 0 0 0 -354.84961 607.59375 A 57.909454 18.542391 0 0 0 -412.75781 589.05078 z "
   style="opacity:1;vector-effect:none;fill:#d45500;fill-opacity:1;stroke:#000000;stroke-width:4;stroke-linecap:round;stroke-linejoin:round;stroke-miterlimit:4;stroke-dasharray:none;stroke-dashoffset:0;stroke-opacity:1;paint-order:markers fill stroke"
   id="path870"
   d="m -412.75781,589.05078 a 57.909454,18.542391 0 0 0 -57.91016,18.54297 57.909454,18.542391 0 0 0 0.0996,0.89844 90.126152,90.126152 0 0 0 -15.53711,50.21289 90.126152,90.126152 0 0 0 15.27539,49.93164 57.909454,18.542391 0 0 0 -0.37109,2.02539 57.909454,18.542391 0 0 0 57.91015,18.54297 57.909454,18.542391 0 0 0 57.90821,-18.54297 57.909454,18.542391 0 0 0 -0.10157,-0.92383 90.126152,90.126152 0 0 0 16.07227,-51.0332 90.126152,90.126152 0 0 0 -15.55469,-50.36133 57.909454,18.542391 0 0 0 0.11719,-0.75 57.909454,18.542391 0 0 0 -57.9082,-18.54297 z" /><path
   inkscape:connector-curvature="0"
   style="opacity:1;vector-effect:none;fill:#784421;fill-opacity:1;stroke:none;stroke-width:2;stroke-linecap:round;stroke-linejoin:round;stroke-miterlimit:4;stroke-dasharray:none;stroke-dashoffset:0;stroke-opacity:1;paint-order:markers fill stroke"
   d="m 451.91749,690.35452 -108.16797,0.66406 a 90.126152,90.126152 0 0 0 -18.99805,55.15235 90.126152,90.126152 0 0 0 15.27539,49.93164 57.909454,18.542391 0 0 0 -0.37109,2.02539 57.909454,18.542391 0 0 0 57.91015,18.54297 57.909454,18.542391 0 0 0 57.90821,-18.54297 57.909454,18.542391 0 0 0 -0.10157,-0.92383 90.126152,90.126152 0 0 0 16.07227,-51.0332 90.126152,90.126152 0 0 0 -19.52734,-55.81641 z"
   id="path872" /><ellipse
   style="opacity:1;vector-effect:none;fill:#4d4d4d;fill-opacity:1;stroke:none;stroke-width:1.99999964;stroke-linecap:round;stroke-linejoin:round;stroke-miterlimit:4;stroke-dasharray:none;stroke-dashoffset:0;stroke-opacity:1;paint-order:markers fill stroke"
   id="ellipse874"
   cx="398.09814"
   cy="695.0589"
   rx="57.909454"
   ry="18.542391" /><ellipse
   ry="15.666024"
   rx="48.926319"
   cy="695.0589"
   cx="398.09814"
   id="ellipse876"
   style="opacity:1;vector-effect:none;fill:#b3b3b3;fill-opacity:1;stroke:none;stroke-width:1.99999976;stroke-linecap:round;stroke-linejoin:round;stroke-miterlimit:4;stroke-dasharray:none;stroke-dashoffset:0;stroke-opacity:1;paint-order:markers fill stroke" /><path
   transform="matrix(0.96304879,0.23525264,-0.28988253,0.78155718,331.71537,129.01095)"
   inkscape:transform-center-y="-1.8473433"
   inkscape:transform-center-x="-2.9349771"
   d="m 325.50033,743.06224 -17.89305,2.75577 -3.22845,16.26212 -16.09558,-8.28781 -12.1705,11.25869 -8.15014,-16.16572 -16.46384,1.95483 2.90837,-17.86888 -14.46855,-8.09571 12.85599,-12.74673 -6.94677,-15.05396 17.89306,-2.75577 3.22844,-16.26211 16.09558,8.28781 12.1705,-11.2587 8.15015,16.16573 16.46383,-1.95484 -2.90836,17.86889 14.46854,8.0957 -12.85598,12.74674 z"
   inkscape:randomized="0"
   inkscape:rounded="0"
   inkscape:flatsided="false"
   sodipodi:arg2="0.8652625"
   sodipodi:arg1="0.52359878"
   sodipodi:r2="33.824558"
   sodipodi:r1="45.987404"
   sodipodi:cy="720.06854"
   sodipodi:cx="285.67407"
   sodipodi:sides="10"
   id="path878"
   style="opacity:1;vector-effect:none;fill:#ffff00;fill-opacity:1;stroke:#000000;stroke-width:2.2074554;stroke-linecap:round;stroke-linejoin:round;stroke-miterlimit:4;stroke-dasharray:none;stroke-dashoffset:0;stroke-opacity:1;paint-order:markers fill stroke"
   sodipodi:type="star" /><text
   xml:space="preserve"
   style="font-style:normal;font-variant:normal;font-weight:normal;font-stretch:normal;font-size:35.78207397px;line-height:1.25;font-family:'Another Typewriter';-inkscape-font-specification:'Another Typewriter, Normal';font-variant-ligatures:normal;font-variant-caps:normal;font-variant-numeric:normal;font-feature-settings:normal;text-align:start;letter-spacing:0px;word-spacing:0px;writing-mode:lr-tb;text-anchor:start;fill:#ff0000;fill-opacity:1;stroke:#000000;stroke-width:1;stroke-linecap:round;stroke-linejoin:round;stroke-miterlimit:4;stroke-dasharray:none;paint-order:markers fill stroke"
   x="370.39218"
   y="772.15906"
   id="text882"><tspan
     sodipodi:role="line"
     id="tspan880"
     x="370.39218"
     y="772.15906"
     style="fill:#ff0000;stroke:#000000;stroke-width:1;stroke-linecap:round;stroke-linejoin:round;stroke-miterlimit:4;stroke-dasharray:none;paint-order:markers fill stroke">tnt</tspan></text>


<ellipse
   style="opacity:1;vector-effect:none;fill:#000000;fill-opacity:1;stroke:none;stroke-width:1.99999964;stroke-linecap:round;stroke-linejoin:round;stroke-miterlimit:4;stroke-dasharray:none;stroke-dashoffset:0;stroke-opacity:1;paint-order:markers fill stroke"
   id="ellipse884"
   cx="419.79306"
   cy="694.38098"
   rx="20.790726"
   ry="6.6571126" /></g><circle
     id="path942"
     style="fill:#000000;stroke:none"
     cx="421.43564"
     cy="688.8587"
     r="1.5" /><g
     style="display:inline"
     id="g4981"
     transform="matrix(0.77343837,0,0,0.77343837,1038.2488,541.83757)"><g
       id="g4766"><circle
         r="48.804577"
         cy="269.35016"
         cx="-1095.7184"
         id="circle2342"
         style="fill:#ffffff;fill-opacity:1;stroke:#000000;stroke-width:6;stroke-linecap:round;stroke-linejoin:round;stroke-miterlimit:4;stroke-dasharray:none;stroke-dashoffset:0;stroke-opacity:1;paint-order:markers fill stroke" /><path
         inkscape:connector-curvature="0"
         id="path2345"
         d="m -1219.3636,560.93963 -23.2994,-75.38071 86.3451,-60.30457 32.2082,71.26904 74.6954,4.11167"
         style="opacity:1;fill:none;fill-opacity:1;stroke:#000000;stroke-width:6;stroke-linecap:round;stroke-linejoin:round;stroke-miterlimit:4;stroke-dasharray:none;stroke-dashoffset:0;stroke-opacity:1;paint-order:markers fill stroke" /><path
         inkscape:connector-curvature="0"
         sodipodi:nodetypes="cc"
         id="path2347"
         d="m -1156.3179,425.25435 34.264,-111.01523"
         style="opacity:1;fill:none;fill-opacity:1;stroke:#000000;stroke-width:6;stroke-linecap:round;stroke-linejoin:round;stroke-miterlimit:4;stroke-dasharray:none;stroke-dashoffset:0;stroke-opacity:1;paint-order:markers fill stroke" /><path
         inkscape:connector-curvature="0"
         id="path2349"
         d="m -1263.2214,293.68075 65.1015,32.8934 75.3807,-12.33503 -75.3807,43.17259 -106.9036,-21.24365"
         style="opacity:1;fill:none;fill-opacity:1;stroke:#000000;stroke-width:6;stroke-linecap:round;stroke-linejoin:round;stroke-miterlimit:4;stroke-dasharray:none;stroke-dashoffset:0;stroke-opacity:1;paint-order:markers fill stroke" /><path
         inkscape:connector-curvature="0"
         sodipodi:nodetypes="ccc"
         id="path2422"
         d="m -1131.4561,276.68694 c -4.3101,21.96715 8.2939,17.15347 18.8981,15.5061 z"
         style="fill:none;stroke:#000000;stroke-width:1px;stroke-linecap:round;stroke-linejoin:round;stroke-opacity:1" /><path
         inkscape:connector-curvature="0"
         id="path3895"
         d="m -1139.4514,256.0929 63.4781,56.45189 10.9027,-4.60337 8.4799,-7.51077 -74.3808,-63.96265 -7.0262,6.54163 -5.5725,10.17588 z"
         style="fill:#000000;stroke:#000000;stroke-width:1px;stroke-linecap:butt;stroke-linejoin:miter;stroke-opacity:1" /><g
         id="g4746"
         transform="rotate(80.393351,-970.95921,91.807499)"><circle
           r="9.7518816"
           transform="rotate(-32.997134)"
           cy="-227.9151"
           cx="-848.2196"
           id="circle4742"
           style="fill:#ffffff;fill-opacity:1;stroke:#000000;stroke-width:1;stroke-linecap:round;stroke-linejoin:round;stroke-miterlimit:4;stroke-dasharray:none;stroke-dashoffset:0;stroke-opacity:1;paint-order:markers fill stroke" /><circle
           r="2.1805451"
           cy="277.5069"
           cx="-836.08844"
           id="circle4744"
           style="fill:#000000;fill-opacity:1;stroke:none;stroke-width:1;stroke-linecap:round;stroke-linejoin:round;stroke-miterlimit:4;stroke-dasharray:none;stroke-dashoffset:0;stroke-opacity:1;paint-order:markers fill stroke" /></g><g
         transform="rotate(80.393351,-971.334,109.19628)"
         id="g4752"><circle
           style="fill:#ffffff;fill-opacity:1;stroke:#000000;stroke-width:1;stroke-linecap:round;stroke-linejoin:round;stroke-miterlimit:4;stroke-dasharray:none;stroke-dashoffset:0;stroke-opacity:1;paint-order:markers fill stroke"
           id="circle4748"
           cx="-848.2196"
           cy="-227.9151"
           transform="rotate(-32.997134)"
           r="9.7518816" /><circle
           style="fill:#000000;fill-opacity:1;stroke:none;stroke-width:1;stroke-linecap:round;stroke-linejoin:round;stroke-miterlimit:4;stroke-dasharray:none;stroke-dashoffset:0;stroke-opacity:1;paint-order:markers fill stroke"
           id="circle4750"
           cx="-836.08844"
           cy="277.5069"
           r="2.1805451" /></g></g></g><path
     inkscape:export-ydpi="96"
     inkscape:export-xdpi="96"
     style="color:#000000;font-style:normal;font-variant:normal;font-weight:normal;font-stretch:normal;font-size:medium;line-height:normal;font-family:sans-serif;font-variant-ligatures:normal;font-variant-position:normal;font-variant-caps:normal;font-variant-numeric:normal;font-variant-alternates:normal;font-feature-settings:normal;text-indent:0;text-align:start;text-decoration:none;text-decoration-line:none;text-decoration-style:solid;text-decoration-color:#000000;letter-spacing:normal;word-spacing:normal;text-transform:none;writing-mode:lr-tb;direction:ltr;text-orientation:mixed;dominant-baseline:auto;baseline-shift:baseline;text-anchor:start;white-space:normal;shape-padding:0;clip-rule:nonzero;display:inline;overflow:visible;visibility:visible;opacity:1;isolation:auto;mix-blend-mode:normal;color-interpolation:sRGB;color-interpolation-filters:linearRGB;solid-color:#000000;solid-opacity:1;vector-effect:none;fill:#cece00;fill-opacity:1;fill-rule:nonzero;stroke:#000000;stroke-width:5.40947342;stroke-linecap:butt;stroke-linejoin:round;stroke-miterlimit:4;stroke-dasharray:none;stroke-dashoffset:0;stroke-opacity:1;paint-order:markers stroke fill;color-rendering:auto;image-rendering:auto;shape-rendering:auto;text-rendering:auto;enable-background:accumulate"
     d="m 28.748423,806.86043 c 5.430101,5.36959 14.287824,5.31999 19.657421,-0.11011 4.550375,-4.60163 5.206652,-11.66388 1.996754,-16.97959 l 9.125444,-9.22826 c 1.172701,1.17895 2.593115,2.56897 4.061341,3.98262 3.272069,3.15098 6.575838,6.24812 6.575838,6.24812 a 3.381259,3.381259 0 1 0 4.62587,-4.93157 c 0,0 -1.853312,-1.74899 -4.012713,-3.80452 l 1.997487,-2.0199 c 2.225593,2.11895 4.142215,3.92702 4.142215,3.92702 a 3.381259,3.381259 0 1 0 4.625864,-4.93148 c 0,0 -1.853359,-1.74904 -4.012663,-3.80456 l 1.997442,-2.01995 c 2.225343,2.11927 4.14131,3.92803 4.14131,3.92803 a 3.3814405,3.3814405 0 1 0 4.626768,-4.93249 c 0,0 -3.281984,-3.07814 -6.511045,-6.18774 -1.467209,-1.41294 -2.88387,-2.79887 -3.997434,-3.91949 l 2.808107,-2.83974 a 3.381259,3.381259 0 1 0 -4.808096,-4.7545 l -4.989406,5.04565 a 3.381259,3.381259 0 0 0 -0.05074,0.0558 l -6.69997,6.7754 a 3.381259,3.381259 0 0 0 -0.05536,0.0509 l -6.699921,6.77536 a 3.381259,3.381259 0 0 0 -0.05077,0.0559 l -11.645734,11.77691 c -5.351346,-3.15016 -12.405709,-2.41485 -16.956133,2.18684 -5.36964,5.43005 -5.320047,14.28777 0.110057,19.65737 z m 4.754516,-4.808 c -2.831652,-2.80012 -2.856633,-7.26326 -0.05652,-10.0949 2.70439,-2.73486 6.954763,-2.84283 9.793558,-0.32472 a 3.381259,3.381259 0 0 0 0.302103,0.33867 3.381259,3.381259 0 0 0 0.276981,0.2364 c 2.542648,2.81034 2.480321,7.05588 -0.221571,9.78826 -2.800116,2.83164 -7.263252,2.85662 -10.094854,0.0566 z"
     id="path930"
     inkscape:connector-curvature="0" /></svg>