<?xml version="1.0" encoding="UTF-8" standalone="no"?>
<!-- Created with Inkscape (http://www.inkscape.org/) -->

<svg
   xmlns:dc="http://purl.org/dc/elements/1.1/"
   xmlns:cc="http://creativecommons.org/ns#"
   xmlns:rdf="http://www.w3.org/1999/02/22-rdf-syntax-ns#"
   xmlns:svg="http://www.w3.org/2000/svg"
   xmlns="http://www.w3.org/2000/svg"
   xmlns:sodipodi="http://sodipodi.sourceforge.net/DTD/sodipodi-0.dtd"
   xmlns:inkscape="http://www.inkscape.org/namespaces/inkscape"
   width="740"
   height="1280"
   version="1.1"
   viewBox="0 0 740 1280"
   xml:space="preserve"
   id="svg18"
   sodipodi:docname="level17lose2.svg"
   inkscape:version="0.92.5 (2060ec1f9f, 2020-04-08)"><defs
     id="defs22" /><sodipodi:namedview
     pagecolor="#ffffff"
     bordercolor="#666666"
     borderopacity="1"
     objecttolerance="10"
     gridtolerance="10"
     guidetolerance="10"
     inkscape:pageopacity="0"
     inkscape:pageshadow="2"
     inkscape:window-width="1920"
     inkscape:window-height="986"
     id="namedview20"
     showgrid="false"
     inkscape:zoom="0.70710678"
     inkscape:cx="342.48103"
     inkscape:cy="693.27136"
     inkscape:window-x="1909"
     inkscape:window-y="49"
     inkscape:window-maximized="1"
     inkscape:current-layer="svg18"
     inkscape:snap-bbox="true"
     inkscape:bbox-paths="true"
     inkscape:snap-bbox-edge-midpoints="true"
     inkscape:bbox-nodes="true"
     inkscape:snap-bbox-midpoints="true"
     inkscape:object-paths="true"
     inkscape:snap-intersection-paths="true"
     inkscape:snap-smooth-nodes="true"
     inkscape:snap-midpoints="true"
     inkscape:snap-object-midpoints="true"
     inkscape:snap-center="true"
     inkscape:snap-text-baseline="true"
     inkscape:snap-page="true"
     inkscape:snap-global="false" /><metadata
     id="metadata2"><rdf:RDF><cc:Work
         rdf:about=""><dc:format>image/svg+xml</dc:format><dc:type
           rdf:resource="http://purl.org/dc/dcmitype/StillImage" /><dc:title></dc:title></cc:Work></rdf:RDF></metadata><rect
     style="opacity:1;vector-effect:none;fill:#00ffff;fill-opacity:1;stroke:#000000;stroke-width:0.99999994;stroke-linecap:round;stroke-linejoin:miter;stroke-miterlimit:4;stroke-dasharray:none;stroke-dashoffset:0;stroke-opacity:1;paint-order:normal"
     id="rect821"
     width="739"
     height="739"
     x="0.49998033"
     y="270.49994" /><path
     inkscape:connector-curvature="0"
     id="path834"
     d="m -21.345784,745.68326 c 60.544782,5.95435 125.280604,2.92799 187.275474,2.92799 38.32201,0 107.33922,54.72484 126.80109,83.93575 24.06542,36.12047 169.84054,-26.35246 121.92415,101.50371 -28.40668,75.79809 -271.05612,12.44685 -329.682859,21.47193 -41.75644,6.42804 -211.010951,129.69256 -226.291221,17.56796"
     style="opacity:1;vector-effect:none;fill:#b1e2e2;fill-opacity:1;stroke:#000000;stroke-width:2;stroke-linecap:butt;stroke-linejoin:miter;stroke-miterlimit:4;stroke-dasharray:none;stroke-dashoffset:0;stroke-opacity:1" /><path
     style="fill:#f2f2f2;stroke:#000000;stroke-width:2;stroke-linecap:butt;stroke-linejoin:miter;stroke-opacity:1;stroke-miterlimit:4;stroke-dasharray:none"
     d="m -21.345784,726.16331 c 60.544782,5.95435 125.280604,2.92799 187.275474,2.92799 38.32201,0 107.33922,54.72484 126.80109,83.93575 24.06542,36.12047 169.84054,-26.35245 121.92415,101.50371 -28.40668,75.79803 -271.05612,12.44685 -329.682859,21.47193 -41.75644,6.42804 -211.010951,129.69261 -226.291221,17.56796"
     id="path836"
     inkscape:connector-curvature="0" /><path
     inkscape:connector-curvature="0"
     id="path976"
     d="M 746,635 C 676.93304,608.67677 651.04233,667.31922 598,685 370.62637,760.79121 293.74533,479.50187 485,403 c 48.98599,-19.5944 105.74117,30 156,30 64.00928,0 174.49582,-31.56251 225,13"
     style="opacity:1;vector-effect:none;fill:#b1e2e2;fill-opacity:1;stroke:#000000;stroke-width:2;stroke-linecap:butt;stroke-linejoin:miter;stroke-miterlimit:4;stroke-dasharray:none;stroke-dashoffset:0;stroke-opacity:1" /><g
     transform="translate(-114.70654,72.041193)"
     id="g879"><circle
       r="46.270042"
       cy="647.1142"
       cx="238.54276"
       id="circle844"
       style="display:inline;fill:#ffffff;fill-opacity:1;stroke:#000000;stroke-width:5.68840599;stroke-linecap:round;stroke-linejoin:round;stroke-miterlimit:4;stroke-dasharray:none;stroke-dashoffset:0;stroke-opacity:1;paint-order:markers fill stroke" /><path
       sodipodi:nodetypes="cccc"
       inkscape:connector-curvature="0"
       id="path848"
       d="m 236.36718,695.85752 -22.90072,86.92099 75.50754,-21.23739 33.12397,37.26047"
       style="fill:none;stroke:#000000;stroke-width:5.68840599;stroke-linecap:round;stroke-linejoin:round;stroke-dasharray:none;stroke-opacity:1;paint-order:markers fill stroke" /><path
       sodipodi:nodetypes="ccc"
       inkscape:connector-curvature="0"
       id="path850"
       d="m 213.46646,782.77851 86.06182,-42.20965 0.87959,60.6516"
       style="fill:none;stroke:#000000;stroke-width:5.68840599;stroke-linecap:round;stroke-linejoin:round;stroke-dasharray:none;stroke-opacity:1;paint-order:markers fill stroke" /><path
       sodipodi:nodetypes="ccccc"
       inkscape:connector-curvature="0"
       id="path852"
       d="m 180.64081,787.60958 1.83761,-68.9102 53.88876,-22.84186 44.44866,42.60681 54.00418,-33.1632"
       style="opacity:1;fill:none;fill-opacity:1;stroke:#000000;stroke-width:5.68840599;stroke-linecap:round;stroke-linejoin:round;stroke-miterlimit:4;stroke-dasharray:none;stroke-dashoffset:0;stroke-opacity:1;paint-order:markers fill stroke" /><circle
       r="9.2454433"
       transform="rotate(-125.01532)"
       cy="-158.42429"
       cx="-689.33649"
       id="circle854"
       style="fill:#ffffff;fill-opacity:1;stroke:#000000;stroke-width:0.94806767;stroke-linecap:round;stroke-linejoin:round;stroke-miterlimit:4;stroke-dasharray:none;stroke-dashoffset:0;stroke-opacity:1;paint-order:markers fill stroke" /><circle
       transform="rotate(-92.018184)"
       r="2.0673044"
       cy="247.15936"
       cx="-667.02045"
       id="circle856"
       style="fill:#000000;fill-opacity:1;stroke:none;stroke-width:0.94806767;stroke-linecap:round;stroke-linejoin:round;stroke-miterlimit:4;stroke-dasharray:none;stroke-dashoffset:0;stroke-opacity:1;paint-order:markers fill stroke" /><circle
       style="fill:#ffffff;fill-opacity:1;stroke:#000000;stroke-width:0.94806767;stroke-linecap:round;stroke-linejoin:round;stroke-miterlimit:4;stroke-dasharray:none;stroke-dashoffset:0;stroke-opacity:1;paint-order:markers fill stroke"
       id="circle862"
       cx="-675.87531"
       cy="-180.93192"
       transform="rotate(-125.01532)"
       r="9.2454433" /><circle
       transform="rotate(-92.018184)"
       style="fill:#000000;fill-opacity:1;stroke:none;stroke-width:0.94806767;stroke-linecap:round;stroke-linejoin:round;stroke-miterlimit:4;stroke-dasharray:none;stroke-dashoffset:0;stroke-opacity:1;paint-order:markers fill stroke"
       id="circle864"
       cx="-667.98816"
       cy="220.95131"
       r="2.0673044" /><path
       sodipodi:nodetypes="cccc"
       inkscape:connector-curvature="0"
       id="path887"
       d="m 336.81506,700.06331 c -6.91688,2.83173 -0.0973,16.05498 6.36396,10.96016 38.19836,-25.98245 107.62383,-41.32865 196.57569,-25.8094 -57.93997,-19.47534 -141.30248,-11.69903 -202.93965,14.84924 z"
       style="fill:#c87137;stroke:#000000;stroke-width:1px;stroke-linecap:butt;stroke-linejoin:miter;stroke-opacity:1" /><path
       sodipodi:nodetypes="cc"
       inkscape:connector-curvature="0"
       id="path889"
       d="m 539.75471,685.21407 48.65864,239.8772"
       style="fill:none;stroke:#000000;stroke-width:2;stroke-linecap:round;stroke-linejoin:miter;stroke-miterlimit:4;stroke-dasharray:none;stroke-opacity:1" /></g><path
     style="fill:#f2f2f2;stroke:#000000;stroke-width:2;stroke-linecap:butt;stroke-linejoin:miter;stroke-opacity:1;font-variant-east_asian:normal;opacity:1;vector-effect:none;fill-opacity:1;stroke-miterlimit:4;stroke-dasharray:none;stroke-dashoffset:0"
     d="M 746,609 C 676.93304,582.67677 651.04233,641.31922 598,659 370.62637,734.79121 293.74533,453.50187 485,377 c 48.98599,-19.5944 105.74117,30 156,30 64.00928,0 174.49582,-31.56251 225,13"
     id="path960"
     inkscape:connector-curvature="0" /><path
     inkscape:transform-center-y="-0.19780552"
     inkscape:transform-center-x="0.29495861"
     d="m 240.38466,391.82798 c -5.4789,9.44723 -5.02897,7.52644 -15.05916,11.74388 -10.03018,4.21743 -12.65152,7.51347 -23.18014,4.66391 -10.52862,-2.84956 -10.14086,-5.03614 -16.91396,-13.36753 -6.77311,-8.33139 -9.85112,-4.94399 -10.33065,-15.79916 -0.47953,-10.85517 -0.99053,-13.27463 4.44778,-22.70982 5.43831,-9.4352 6.18866,-12.61456 16.60435,-16.33246 10.41569,-3.71791 9.66097,-0.57976 19.99959,1.48611 10.33861,2.06586 13.16771,0.83928 20.97982,8.42328 7.8121,7.584 6.98185,9.58084 7.46382,20.40912 0.48196,10.82828 1.46745,12.03545 -4.01145,21.48267 z"
     inkscape:randomized="0.049"
     inkscape:rounded="0.5"
     inkscape:flatsided="false"
     sodipodi:arg2="1.1519173"
     sodipodi:arg1="0.52359878"
     sodipodi:r2="33.402042"
     sodipodi:r1="36.055511"
     sodipodi:cy="374"
     sodipodi:cx="210"
     sodipodi:sides="5"
     id="path1033"
     style="opacity:1;vector-effect:none;fill:#b1e2e2;fill-opacity:1;stroke:#000000;stroke-width:2;stroke-linecap:butt;stroke-linejoin:miter;stroke-miterlimit:4;stroke-dasharray:none;stroke-dashoffset:0;stroke-opacity:1;paint-order:markers stroke fill"
     sodipodi:type="star"
     transform="translate(-23.48023,-16.556349)" /><path
     sodipodi:type="star"
     style="opacity:1;vector-effect:none;fill:#f2f2f2;fill-opacity:1;stroke:#000000;stroke-width:2;stroke-linecap:butt;stroke-linejoin:miter;stroke-miterlimit:4;stroke-dasharray:none;stroke-dashoffset:0;stroke-opacity:1;paint-order:markers stroke fill"
     id="path1017"
     sodipodi:sides="5"
     sodipodi:cx="210"
     sodipodi:cy="374"
     sodipodi:r1="36.055511"
     sodipodi:r2="33.402042"
     sodipodi:arg1="0.52359878"
     sodipodi:arg2="1.1519173"
     inkscape:flatsided="false"
     inkscape:rounded="0.5"
     inkscape:randomized="0.049"
     d="m 240.38466,391.82798 c -5.4789,9.44723 -5.02897,7.52644 -15.05916,11.74388 -10.03018,4.21743 -12.65152,7.51347 -23.18014,4.66391 -10.52862,-2.84956 -10.14086,-5.03614 -16.91396,-13.36753 -6.77311,-8.33139 -9.85112,-4.94399 -10.33065,-15.79916 -0.47953,-10.85517 -0.99053,-13.27463 4.44778,-22.70982 5.43831,-9.4352 6.18866,-12.61456 16.60435,-16.33246 10.41569,-3.71791 9.66097,-0.57976 19.99959,1.48611 10.33861,2.06586 13.16771,0.83928 20.97982,8.42328 7.8121,7.584 6.98185,9.58084 7.46382,20.40912 0.48196,10.82828 1.46745,12.03545 -4.01145,21.48267 z"
     inkscape:transform-center-x="0.29495861"
     inkscape:transform-center-y="-0.19780552"
     transform="translate(-23.48023,-30.870058)" /><path
     transform="matrix(3.4132268,0,0,1,-538.08469,151.23759)"
     sodipodi:type="star"
     style="opacity:1;vector-effect:none;fill:#b1e2e2;fill-opacity:1;stroke:#000000;stroke-width:1.08254862;stroke-linecap:butt;stroke-linejoin:miter;stroke-miterlimit:4;stroke-dasharray:none;stroke-dashoffset:0;stroke-opacity:1;paint-order:markers stroke fill"
     id="path1049"
     sodipodi:sides="5"
     sodipodi:cx="210"
     sodipodi:cy="374"
     sodipodi:r1="36.055511"
     sodipodi:r2="33.402042"
     sodipodi:arg1="0.52359878"
     sodipodi:arg2="1.1519173"
     inkscape:flatsided="false"
     inkscape:rounded="0.5"
     inkscape:randomized="0.049"
     d="m 240.38466,391.82798 c -5.4789,9.44723 -5.02897,7.52644 -15.05916,11.74388 -10.03018,4.21743 -12.65152,7.51347 -23.18014,4.66391 -10.52862,-2.84956 -10.14086,-5.03614 -16.91396,-13.36753 -6.77311,-8.33139 -9.85112,-4.94399 -10.33065,-15.79916 -0.47953,-10.85517 -0.99053,-13.27463 4.44778,-22.70982 5.43831,-9.4352 6.18866,-12.61456 16.60435,-16.33246 10.41569,-3.71791 9.66097,-0.57976 19.99959,1.48611 10.33861,2.06586 13.16771,0.83928 20.97982,8.42328 7.8121,7.584 6.98185,9.58084 7.46382,20.40912 0.48196,10.82828 1.46745,12.03545 -4.01145,21.48267 z"
     inkscape:transform-center-x="1.0067612"
     inkscape:transform-center-y="-0.19780552" /><path
     transform="matrix(3.4132268,0,0,1,-538.08469,136.92388)"
     inkscape:transform-center-y="-0.19780552"
     inkscape:transform-center-x="1.0067612"
     d="m 240.38466,391.82798 c -5.4789,9.44723 -5.02897,7.52644 -15.05916,11.74388 -10.03018,4.21743 -12.65152,7.51347 -23.18014,4.66391 -10.52862,-2.84956 -10.14086,-5.03614 -16.91396,-13.36753 -6.77311,-8.33139 -9.85112,-4.94399 -10.33065,-15.79916 -0.47953,-10.85517 -0.99053,-13.27463 4.44778,-22.70982 5.43831,-9.4352 6.18866,-12.61456 16.60435,-16.33246 10.41569,-3.71791 9.66097,-0.57976 19.99959,1.48611 10.33861,2.06586 13.16771,0.83928 20.97982,8.42328 7.8121,7.584 6.98185,9.58084 7.46382,20.40912 0.48196,10.82828 1.46745,12.03545 -4.01145,21.48267 z"
     inkscape:randomized="0.049"
     inkscape:rounded="0.5"
     inkscape:flatsided="false"
     sodipodi:arg2="1.1519173"
     sodipodi:arg1="0.52359878"
     sodipodi:r2="33.402042"
     sodipodi:r1="36.055511"
     sodipodi:cy="374"
     sodipodi:cx="210"
     sodipodi:sides="5"
     id="path1051"
     style="opacity:1;vector-effect:none;fill:#f2f2f2;fill-opacity:1;stroke:#000000;stroke-width:1.08254862;stroke-linecap:butt;stroke-linejoin:miter;stroke-miterlimit:4;stroke-dasharray:none;stroke-dashoffset:0;stroke-opacity:1;paint-order:markers stroke fill"
     sodipodi:type="star" /><g
     transform="translate(250.13315,-55.025786)"
     id="g867"><path
       inkscape:transform-center-y="-3.5375556"
       inkscape:transform-center-x="-1.4881166"
       d="m 589.90493,1298.5902 -51.00353,-45.7195 -39.49824,46.4745 5.17817,-56.1404 -53.9651,-5.2069 43.0722,-36.4787 -47.75437,-44.6278 54.72863,13.1926 22.54457,-51.0039 34.87779,41.0813 38.45913,-4.1167 -9.94966,43.4273 40.92584,33.8021 -60.18814,13.6074 z"
       inkscape:randomized="0.1"
       inkscape:rounded="0"
       inkscape:flatsided="false"
       sodipodi:arg2="1.4959966"
       sodipodi:arg1="1.0471976"
       sodipodi:r2="47.720406"
       sodipodi:r1="95.440811"
       sodipodi:cy="1212.7349"
       sodipodi:cx="534.02429"
       sodipodi:sides="7"
       id="path986"
       style="opacity:1;vector-effect:none;fill:#ff0000;fill-opacity:1;stroke:none;stroke-width:15.52090263;stroke-linecap:round;stroke-linejoin:round;stroke-miterlimit:4;stroke-dasharray:none;stroke-dashoffset:0;stroke-opacity:1;paint-order:markers stroke fill"
       sodipodi:type="star"
       transform="translate(-259.3587,-587.65759)" /><path
       transform="translate(-148.5428,-336.56979)"
       sodipodi:type="star"
       style="opacity:1;vector-effect:none;fill:#ffd42a;fill-opacity:1;stroke:none;stroke-width:12.30745506;stroke-linecap:round;stroke-linejoin:round;stroke-miterlimit:4;stroke-dasharray:none;stroke-dashoffset:0;stroke-opacity:1;paint-order:markers stroke fill"
       id="path984"
       sodipodi:sides="7"
       sodipodi:cx="423.4599"
       sodipodi:cy="961.65027"
       sodipodi:r1="75.680748"
       sodipodi:r2="37.840374"
       sodipodi:arg1="1.0471976"
       sodipodi:arg2="1.4959966"
       inkscape:flatsided="false"
       inkscape:rounded="0"
       inkscape:randomized="0.1"
       d="m 463.26093,1025.0833 -36.53994,-23.923 -37.67889,31.6862 3.30059,-39.21332 -47.11693,-14.01807 38.37678,-16.12224 -18.81733,-42.24989 44.15965,14.58907 3.89249,-49.44866 18.75347,32.61083 48.1444,-13.08834 -25.63957,49.80957 42.15308,15.55169 -45.50179,11.62543 z"
       inkscape:transform-center-x="3.6859447"
       inkscape:transform-center-y="-2.0474644" /><path
       inkscape:transform-center-y="-0.59770977"
       inkscape:transform-center-x="-2.2092331"
       d="m 304.56113,668.20811 -30.92695,-17.63473 -19.68762,17.84145 -0.19056,-24.79235 -21.96414,-2.99491 22.32662,-21.4021 -23.53618,-22.08045 37.02412,11.11385 3.99901,-27.68392 9.01998,21.81915 29.78855,-5.98785 -11.34739,19.75388 26.53038,18.86941 -26.45584,-0.57993 z"
       inkscape:randomized="0.1"
       inkscape:rounded="0"
       inkscape:flatsided="false"
       sodipodi:arg2="1.4959966"
       sodipodi:arg1="1.0471976"
       sodipodi:r2="24.596718"
       sodipodi:r1="49.193436"
       sodipodi:cy="625.08472"
       sodipodi:cx="275.25424"
       sodipodi:sides="7"
       id="path982"
       style="opacity:1;vector-effect:none;fill:#ffffff;fill-opacity:1;stroke:none;stroke-width:8;stroke-linecap:round;stroke-linejoin:round;stroke-miterlimit:4;stroke-dasharray:none;stroke-dashoffset:0;stroke-opacity:1;paint-order:markers stroke fill"
       sodipodi:type="star" /></g><g
     style="display:inline"
     id="g3030"
     transform="matrix(0.81268867,0,0,0.81268867,321.67249,94.451921)"><path
       style="fill:none;fill-opacity:1;stroke:#000000;stroke-width:6;stroke-linecap:round;stroke-linejoin:round;stroke-miterlimit:4;stroke-dasharray:none;stroke-dashoffset:0;stroke-opacity:1;paint-order:markers fill stroke"
       d="m 371.42132,321.39594 19.18782,99.36548 -76.06599,4.79696 19.18782,76.75127"
       id="path5538"
       sodipodi:nodetypes="cccc"
       inkscape:connector-curvature="0" /><path
       style="fill:none;fill-opacity:1;stroke:#000000;stroke-width:6;stroke-linecap:round;stroke-linejoin:round;stroke-miterlimit:4;stroke-dasharray:none;stroke-dashoffset:0;stroke-opacity:1;paint-order:markers fill stroke"
       d="m 390.60914,420.76142 40.43147,-30.15228 35.63452,89.77157"
       id="path5559"
       inkscape:connector-curvature="0" /><path
       style="fill:none;fill-opacity:1;stroke:#000000;stroke-width:6;stroke-linecap:round;stroke-linejoin:round;stroke-miterlimit:4;stroke-dasharray:none;stroke-dashoffset:0;stroke-opacity:1;paint-order:markers fill stroke"
       d="m 491.34518,257.66498 -54.13706,71.95431 c -2.74111,0 -63.12353,-8.23705 -63.12353,-8.23705 l -49.26225,52.09492 -91.82741,-60.98985"
       id="path5561"
       inkscape:connector-curvature="0" /><circle
       style="fill:#ffffff;fill-opacity:1;stroke:#000000;stroke-width:6;stroke-linecap:round;stroke-linejoin:round;stroke-miterlimit:4;stroke-dasharray:none;stroke-dashoffset:0;stroke-opacity:1;paint-order:markers fill stroke"
       id="circle4637"
       cx="373.35397"
       cy="268.8656"
       r="48.804577" /><path
       style="fill:#000000;stroke:#000000;stroke-width:1px;stroke-linecap:butt;stroke-linejoin:miter;stroke-opacity:1"
       d="m 325.38578,276.20237 90.61376,14.29468 3.14967,-6.05707 1.4537,-4.60337 1.21141,-4.60337 0.72685,-6.29936 -95.7017,-15.99066 -2.66511,12.5987 z"
       id="path5536"
       inkscape:connector-curvature="0" /><circle
       style="display:inline;fill:#ffffff;fill-opacity:1;stroke:#000000;stroke-width:1.63505995;stroke-linecap:round;stroke-linejoin:round;stroke-miterlimit:4;stroke-dasharray:none;stroke-dashoffset:0;stroke-opacity:1;paint-order:markers fill stroke"
       id="circle4649"
       cx="-182.88834"
       cy="400.32629"
       r="12.2805"
       transform="rotate(-77.01314)" /><circle
       style="display:inline;fill:#000000;fill-opacity:1;stroke:none;stroke-width:1;stroke-linecap:round;stroke-linejoin:round;stroke-miterlimit:4;stroke-dasharray:none;stroke-dashoffset:0;stroke-opacity:1;paint-order:markers fill stroke"
       id="circle4651"
       cx="60.698212"
       cy="437.242"
       r="2.1805451"
       transform="rotate(-44.016007)" /><circle
       style="display:inline;fill:#ffffff;fill-opacity:1;stroke:#000000;stroke-width:1.27216995;stroke-linecap:round;stroke-linejoin:round;stroke-miterlimit:4;stroke-dasharray:none;stroke-dashoffset:0;stroke-opacity:1;paint-order:markers fill stroke"
       id="circle4675"
       cx="-179.18764"
       cy="429.30994"
       r="9.5549383"
       transform="rotate(-77.01314)" /><circle
       style="display:inline;fill:#000000;fill-opacity:1;stroke:none;stroke-width:1;stroke-linecap:round;stroke-linejoin:round;stroke-miterlimit:4;stroke-dasharray:none;stroke-dashoffset:0;stroke-opacity:1;paint-order:markers fill stroke"
       id="circle4677"
       cx="79.58638"
       cy="459.53516"
       r="2.1805451"
       transform="rotate(-44.016007)" /><circle
       style="fill:#ff5555;fill-opacity:1;stroke:#000000;stroke-width:2.25395989;stroke-linecap:round;stroke-linejoin:round;stroke-miterlimit:4;stroke-dasharray:none;stroke-dashoffset:0;stroke-opacity:1;paint-order:markers fill stroke"
       id="path4756"
       cx="371.17722"
       cy="306.97226"
       r="13.925422" /></g></svg>