<?xml version="1.0" encoding="UTF-8" standalone="no"?>
<!-- Created with Inkscape (http://www.inkscape.org/) -->

<svg
   xmlns:dc="http://purl.org/dc/elements/1.1/"
   xmlns:cc="http://creativecommons.org/ns#"
   xmlns:rdf="http://www.w3.org/1999/02/22-rdf-syntax-ns#"
   xmlns:svg="http://www.w3.org/2000/svg"
   xmlns="http://www.w3.org/2000/svg"
   xmlns:sodipodi="http://sodipodi.sourceforge.net/DTD/sodipodi-0.dtd"
   xmlns:inkscape="http://www.inkscape.org/namespaces/inkscape"
   width="740"
   height="1280"
   version="1.1"
   viewBox="0 0 740 1280"
   xml:space="preserve"
   id="svg18"
   sodipodi:docname="level6.svg"
   inkscape:version="0.92.5 (2060ec1f9f, 2020-04-08)"><defs
     id="defs22" /><sodipodi:namedview
     pagecolor="#ffffff"
     bordercolor="#666666"
     borderopacity="1"
     objecttolerance="10"
     gridtolerance="10"
     guidetolerance="10"
     inkscape:pageopacity="0"
     inkscape:pageshadow="2"
     inkscape:window-width="1920"
     inkscape:window-height="986"
     id="namedview20"
     showgrid="false"
     inkscape:zoom="1.0429825"
     inkscape:cx="581.8826"
     inkscape:cy="705.40746"
     inkscape:window-x="1909"
     inkscape:window-y="49"
     inkscape:window-maximized="1"
     inkscape:current-layer="svg18"
     inkscape:snap-bbox="true"
     inkscape:bbox-paths="true"
     inkscape:snap-bbox-edge-midpoints="true"
     inkscape:bbox-nodes="true"
     inkscape:snap-bbox-midpoints="true"
     inkscape:object-paths="true"
     inkscape:snap-intersection-paths="true"
     inkscape:snap-smooth-nodes="true"
     inkscape:snap-object-midpoints="true"
     inkscape:snap-center="true"
     inkscape:snap-text-baseline="true"
     inkscape:snap-page="true"
     inkscape:snap-global="false" /><metadata
     id="metadata2"><rdf:RDF><cc:Work
         rdf:about=""><dc:format>image/svg+xml</dc:format><dc:type
           rdf:resource="http://purl.org/dc/dcmitype/StillImage" /><dc:title /></cc:Work></rdf:RDF></metadata><rect
     x="1"
     y="271"
     width="738"
     height="738"
     ry="0"
     style="fill:#00ffff;stroke:#000000;stroke-width:2;stroke-linecap:round;stroke-linejoin:round;stroke-miterlimit:4;stroke-dasharray:none;paint-order:markers fill stroke"
     id="rect10" /><rect
     id="rect819"
     style="fill:#de8787;stroke:#000000;stroke-width:2;stroke-linecap:round;stroke-linejoin:round;stroke-miterlimit:4;stroke-dasharray:none;paint-order:markers fill stroke"
     ry="0"
     height="214.61014"
     width="738"
     y="794.38983"
     x="1" /><rect
     x="1"
     y="976.7627"
     width="738"
     height="32.237286"
     ry="0"
     style="fill:#c83737;stroke:#000000;stroke-width:2;stroke-linecap:round;stroke-linejoin:round;stroke-miterlimit:4;stroke-dasharray:none;paint-order:markers fill stroke"
     id="rect821" /><path
     style="fill:#784421;stroke:#000000;stroke-width:2;stroke-linecap:butt;stroke-linejoin:miter;stroke-miterlimit:4;stroke-dasharray:none;stroke-opacity:1"
     d="M 1.3446809,532.81469 104.43047,549.48375 209.88908,533.10348 332.09227,560.8183 488.58997,551.28635 330.09592,575.46075 217.27583,550.81797 108.94086,569.05806 0,567.76428 1.3446809,531.46315 Z"
     id="path952"
     inkscape:connector-curvature="0"
     sodipodi:nodetypes="ccccccccccc" /><path
     style="opacity:1;vector-effect:none;fill:#00ff00;fill-opacity:1;stroke:#000000;stroke-width:2;stroke-linecap:round;stroke-linejoin:round;stroke-miterlimit:4;stroke-dasharray:none;stroke-dashoffset:0;stroke-opacity:1;paint-order:markers fill stroke"
     d="m 464.90296,511.4726 a 27.963203,27.963203 0 0 0 -19.85166,34.20201 27.963203,27.963203 0 0 0 3.32423,7.61001 27.963203,27.963203 0 0 0 -4.20986,23.29449 27.963203,27.963203 0 0 0 34.20447,19.85102 27.963203,27.963203 0 0 0 16.70269,-12.49041 27.963203,27.963203 0 0 0 18.38249,1.43823 27.963203,27.963203 0 0 0 19.85167,-34.20201 27.963203,27.963203 0 0 0 -34.20201,-19.85167 27.963203,27.963203 0 0 0 -34.20202,-19.85167 z"
     id="path954"
     inkscape:connector-curvature="0" /><circle
     style="display:inline;fill:#ffffff;fill-opacity:1;stroke:#000000;stroke-width:3.89923358;stroke-linecap:round;stroke-linejoin:round;stroke-miterlimit:4;stroke-dasharray:none;stroke-dashoffset:0;stroke-opacity:1;paint-order:markers fill stroke"
     id="circle975"
     cx="122.51452"
     cy="357.41479"
     r="31.716742" /><path
     style="fill:#000000;stroke:#000000;stroke-width:0.64987224px;stroke-linecap:butt;stroke-linejoin:miter;stroke-opacity:1"
     d="m 90.594902,357.4457 63.238838,-2.22672 0.44535,6.23482 -2.67207,8.90688 -55.445319,2.67206 c 0,0 -4.008094,-4.3421 -4.008094,-5.67813 0,-1.33604 -1.558705,-9.90891 -1.558705,-9.90891 z"
     id="path977"
     sodipodi:nodetypes="cccccsc"
     inkscape:connector-curvature="0" /><path
     style="fill:none;stroke:#000000;stroke-width:3.89923358;stroke-linecap:round;stroke-linejoin:round;stroke-dasharray:none;stroke-opacity:1;paint-order:markers fill stroke"
     d="m 121.02322,390.82691 -21.866999,58.72491 28.794929,44.56417 -12.59623,52.27435"
     id="path979"
     inkscape:connector-curvature="0"
     sodipodi:nodetypes="cccc" /><path
     style="fill:none;stroke:#000000;stroke-width:3.89923358;stroke-linecap:round;stroke-linejoin:round;stroke-dasharray:none;stroke-opacity:1;paint-order:markers fill stroke"
     d="m 99.156221,449.55182 -23.434985,40.47039 8.143108,56.99794"
     id="path981"
     inkscape:connector-curvature="0"
     sodipodi:nodetypes="ccc" /><path
     style="opacity:1;fill:none;fill-opacity:1;stroke:#000000;stroke-width:3.89923358;stroke-linecap:round;stroke-linejoin:round;stroke-miterlimit:4;stroke-dasharray:none;stroke-dashoffset:0;stroke-opacity:1;paint-order:markers fill stroke"
     d="m 66.544526,452.86334 1.259628,-47.23586 53.219066,-14.80057 21.72849,43.7719"
     id="path983"
     inkscape:connector-curvature="0"
     sodipodi:nodetypes="cccc" /><circle
     style="fill:#ffffff;fill-opacity:1;stroke:#000000;stroke-width:0.64987224;stroke-linecap:round;stroke-linejoin:round;stroke-miterlimit:4;stroke-dasharray:none;stroke-dashoffset:0;stroke-opacity:1;paint-order:markers fill stroke"
     id="circle985"
     cx="-378.42722"
     cy="-92.733849"
     transform="rotate(-125.01532)"
     r="6.3374772" /><circle
     style="fill:#000000;fill-opacity:1;stroke:none;stroke-width:0.64987224;stroke-linecap:round;stroke-linejoin:round;stroke-miterlimit:4;stroke-dasharray:none;stroke-dashoffset:0;stroke-opacity:1;paint-order:markers fill stroke"
     id="circle987"
     cx="-371.88791"
     cy="129.8409"
     r="1.4170758"
     transform="rotate(-92.018184)" /><circle
     r="6.3374772"
     transform="rotate(-125.01532)"
     cy="-108.16214"
     cx="-369.19992"
     id="circle993"
     style="fill:#ffffff;fill-opacity:1;stroke:#000000;stroke-width:0.64987224;stroke-linecap:round;stroke-linejoin:round;stroke-miterlimit:4;stroke-dasharray:none;stroke-dashoffset:0;stroke-opacity:1;paint-order:markers fill stroke" /><circle
     r="1.4170758"
     cy="111.87606"
     cx="-372.55121"
     id="circle995"
     style="fill:#000000;fill-opacity:1;stroke:none;stroke-width:0.64987224;stroke-linecap:round;stroke-linejoin:round;stroke-miterlimit:4;stroke-dasharray:none;stroke-dashoffset:0;stroke-opacity:1;paint-order:markers fill stroke"
     transform="rotate(-92.018184)" /><g
     style="display:inline"
     id="g1283"
     transform="matrix(0.09308768,0,0,0.09308768,295.94707,1040.0903)"
     inkscape:export-xdpi="96"
     inkscape:export-ydpi="96"><g
       id="g1269"><circle
         style="opacity:1;vector-effect:none;fill:#ffffff;fill-opacity:1;stroke:#000000;stroke-width:50;stroke-linecap:butt;stroke-linejoin:miter;stroke-miterlimit:4;stroke-dasharray:none;stroke-dashoffset:0;stroke-opacity:1;paint-order:markers stroke fill"
         id="path451"
         cx="370"
         cy="-1271.0009"
         r="448.39206" /><g
         id="g449"
         transform="translate(-624.67086)"><path
           id="path296"
           d="m 982.46851,-822.31129 c -1.925,-0.7551 -9.125,-4.1921 -16,-7.6377 -68.7289,-34.4454 -135.4516,-91.1453 -194.17577,-165.0075 -39.6713,-49.89791 -72.7148,-106.21821 -83.1773,-141.76991 l -1.5509,-5.2698 3.202,-3.6527 c 10.2246,-11.6637 38.4251,-34.4209 56.8316,-45.8619 10.9182,-6.7864 38.9449,-21.4457 41.0015,-21.4457 0.80297,0 3.90527,5.0544 7.21187,11.75 46.2924,93.7367 123.6921,188.0933 204.157,248.88421 53.58689,40.4847 109.12279,67.7089 167.89199,82.3022 17.8092,4.4224 18.9893,5.5688 9.9278,9.6451 -41.8799,18.8394 -90.9959,31.9846 -137.9203,36.9123 -21.5428,2.2623 -52.96069,2.8925 -57.39949,1.1514 z"
           style="opacity:1;vector-effect:none;fill:#3771c8;fill-opacity:1;stroke-width:1;stroke-linecap:butt;stroke-linejoin:miter;stroke-miterlimit:4;stroke-dasharray:none;stroke-dashoffset:0;stroke-opacity:1"
           inkscape:connector-curvature="0" /><path
           id="path294"
           d="m 873.08321,-837.97089 c -100.48847,-29.5825 -184.48637,-87.9938 -242.74467,-168.80211 l -8.1585,-11.3164 1.2716,-5.6819 c 1.7818,-7.9623 9.3354,-29.7098 14.6522,-42.1852 7.6058,-17.8465 22.2374,-43.5577 24.3681,-42.8204 0.5093,0.1762 6.6795,11.8001 13.7114,25.8308 21.6861,43.2703 48.2384,82.9054 84.6695,126.38771 33.41987,39.8884 78.28377,82.3297 117.91937,111.552 13.7698,10.1521 12.0639,12.2617 -5.689,7.0355 z"
           style="opacity:1;vector-effect:none;fill:#ff5555;fill-opacity:1;stroke-width:1;stroke-linecap:butt;stroke-linejoin:miter;stroke-miterlimit:4;stroke-dasharray:none;stroke-dashoffset:0;stroke-opacity:1"
           inkscape:connector-curvature="0" /><path
           id="path292"
           d="m 1218.9431,-894.49309 c -23.833,-2.6043 -53.2591,-9.5575 -80.3102,-18.9769 -106.7702,-37.178 -213.10749,-132.66321 -290.64819,-260.98651 -8.704,-14.4043 -26.5162,-48.4071 -26.5162,-50.6184 0,-1.557 4.1852,-3.2032 21.1979,-8.338 38.9532,-11.7569 80.3505,-18.4471 130.0521,-21.0175 l 11.75,-0.6076 2.75,4.6545 c 22.72269,38.459 61.10689,86.2617 93.26689,116.1523 48.408,44.9921 93.8825,72.6727 147.9831,90.0784 33.7931,10.8722 72.4103,15.5864 108.3564,13.2276 9.8838,-0.6486 22.2208,-1.8173 27.4157,-2.5971 9.1994,-1.381 11.2279,-1.2744 11.2279,0.59 0,3.0443 -28.7059,42.57261 -41.0133,56.47581 -25.3954,28.6883 -57.5963,57.3768 -86.2655,76.8559 -11.0326,7.496 -9.6301,7.2511 -29.2466,5.1075 z"
           style="opacity:1;vector-effect:none;fill:#ffdd55;fill-opacity:1;stroke-width:1;stroke-linecap:butt;stroke-linejoin:miter;stroke-miterlimit:4;stroke-dasharray:none;stroke-dashoffset:0;stroke-opacity:1"
           inkscape:connector-curvature="0" /><path
           id="path290"
           d="m 596.73274,-1061.1732 c -1.9154,-2.3726 -10.1132,-19.4252 -16.3029,-33.9126 -18.7475,-43.8795 -31.6413,-96.9865 -34.7823,-143.2618 l -0.7393,-10.891 4.7536,-6.9004 c 28.3302,-41.1245 68.7185,-78.5936 114.9798,-106.6693 77.4656,-47.0135 175.52977,-75.045 287.63427,-82.2198 19.5209,-1.2494 84.27619,-0.82 87.56229,0.5806 2.4967,1.0641 1.8876,6.0648 -3.2878,26.991 -9.606,38.8409 -26.0322,81.4704 -46.23879,120 l -4.72,9 -21.3116,1.1743 c -95.5375,5.2642 -181.52067,31.5922 -245.31147,75.1143 -51.2653,34.9764 -89.2071,80.6241 -111.5549,134.2114 -3.3259,7.975 -6.3937,15.1482 -6.8175,15.9405 -1.0771,2.0136 -2.6425,2.3551 -3.8634,0.8428 z"
           style="fill:#3771c8"
           inkscape:connector-curvature="0" /><path
           id="path288"
           d="m 1304.9685,-1063.8484 c -2.7811,-0.4228 -3.9669,-1.086 -3.8914,-2.1766 0.06,-0.8627 2.6395,-4.9907 5.7327,-9.1733 36.2076,-48.96 72.2669,-127.2442 93.1329,-202.1904 10.1226,-36.3583 17.5656,-73.4588 20.9581,-104.4669 2.3236,-21.2387 4.4585,-20.44 10.4221,3.8991 13.5254,55.2012 16.5947,110.9814 9.1665,166.5886 -5.0621,37.8945 -16.7197,80.1758 -31.8459,115.5027 -4.216,9.8464 -8.829,19.7216 -9.6668,20.6943 -0.7473,0.8675 -25.7394,6.5726 -36.0082,8.2199 -20.4634,3.2826 -47.3538,4.7211 -58,3.1026 z"
           style="opacity:1;vector-effect:none;fill:#3771c8;fill-opacity:1;stroke-width:1;stroke-linecap:butt;stroke-linejoin:miter;stroke-miterlimit:4;stroke-dasharray:none;stroke-dashoffset:0;stroke-opacity:1"
           inkscape:connector-curvature="0" /><path
           id="path286"
           d="m 1245.9685,-1073.4252 c -30.146,-8.4207 -61.4885,-23.2252 -90.7172,-42.8498 -4.2445,-2.8498 -7.732,-5.7394 -7.75,-6.4214 -0.018,-0.682 3.0569,-5.857 6.8331,-11.5 24.7938,-37.0508 51.3478,-88.8342 70.6418,-137.7601 22.9588,-58.219 36.9161,-113.3581 44.171,-174.5 1.4154,-11.9277 1.7805,-22.8855 1.7826,-53.5 0,-34.3702 -0.2386,-40.2699 -2.246,-55 -3.8186,-28.0194 -9.6678,-55.4481 -15.8286,-74.2257 -4.1021,-12.5028 -2.8635,-12.6305 12.2681,-1.2648 45.1809,33.9363 83.8633,76.6559 113.4831,125.3272 4.9041,8.0584 9.3279,16.2293 9.8308,18.1575 1.8401,7.056 3.2903,39.4465 2.6194,58.5058 -2.067,58.7221 -13.8758,118.629 -36.2069,183.6803 -20.2932,59.1147 -49.3467,116.8256 -77.6165,154.1752 -6.1522,8.1282 -17.5528,20.6967 -18.6732,20.5861 -0.3253,-0.032 -5.9915,-1.5667 -12.5915,-3.4103 z"
           style="opacity:1;vector-effect:none;fill:#ffdd55;fill-opacity:1;stroke-width:1;stroke-linecap:butt;stroke-linejoin:miter;stroke-miterlimit:4;stroke-dasharray:none;stroke-dashoffset:0;stroke-opacity:1"
           inkscape:connector-curvature="0" /><path
           id="path284"
           d="m 1105.8635,-1155.8208 c -23.4055,-21.3839 -49.9738,-52.1103 -72.058,-83.3356 -8.061,-11.3977 -19.337,-29.9671 -19.337,-31.8444 0,-0.9342 2.3326,-5.9189 5.1835,-11.0771 11.6568,-21.0905 26.5932,-55.6456 36.4286,-84.2765 11.6515,-33.9179 19.7982,-70.3142 23.973,-107.1021 2.0754,-18.2881 2.3489,-55.8096 0.5321,-73 -6.7146,-63.5353 -28.4396,-117.2647 -67.2116,-166.2257 -4.5613,-5.7598 -4.6182,-8.2773 -0.187,-8.2693 7.5844,0.014 38.5476,3.2875 52.2007,5.5192 44.1719,7.2205 89.2749,21.5386 126.2973,40.0937 l 8.7166,4.3686 3.6133,7.7568 c 16.8215,36.111 26.9018,72.1378 31.969,114.2567 2.2508,18.7084 3.036,59.4962 1.5499,80.5 -3.7465,52.9478 -13.9418,101.1251 -33.4459,158.0468 -13.0432,38.0661 -36.0719,88.6468 -56.8895,124.9532 -10.6757,18.6187 -25.6417,41.5 -27.1439,41.5 -0.6629,0 -7.0489,-5.3389 -14.1911,-11.8643 z"
           style="opacity:1;vector-effect:none;fill:#ff5555;fill-opacity:1;stroke-width:1;stroke-linecap:butt;stroke-linejoin:miter;stroke-miterlimit:4;stroke-dasharray:none;stroke-dashoffset:0;stroke-opacity:1"
           inkscape:connector-curvature="0" /><path
           id="path282"
           d="m 546.77694,-1311.5952 c -0.978,-2.5487 2.4045,-28.0565 6.2277,-46.9631 9.6811,-47.8756 28.1866,-97.2397 50.957,-135.93 6.0807,-10.332 7.3874,-11.5243 26.0069,-23.7318 66.4977,-43.5976 163.88667,-75.8163 261.99997,-86.6761 49.2979,-5.4567 94.1681,-5.4479 126.49999,0.025 17.2763,2.9242 17.6219,3.0887 19.3796,9.2249 4.3605,15.2222 7.9576,34.8985 9.7159,53.146 1.216,12.6198 0.8672,62.9148 -0.4455,64.2274 -0.4052,0.4052 -4.2047,0.5297 -8.4433,0.2767 -4.2387,-0.253 -26.6067,-0.4322 -49.70669,-0.3981 -43.7071,0.064 -58.6929,0.9505 -93.5,5.5291 -78.5385,10.331 -144.44347,29.2087 -205.49997,58.863 -51.3759,24.9526 -90.0543,52.4203 -127.3493,90.438 -7.3422,7.4844 -13.7688,13.608 -14.2814,13.608 -0.5126,0 -1.215,-0.7374 -1.5609,-1.6387 z"
           style="fill:#ff5555"
           inkscape:connector-curvature="0" /><path
           id="path278"
           d="m 670.46854,-1581.8509 c 0,-1.1044 4.4831,-6.1805 10.75,-12.172 42.145,-40.2927 86.0738,-69.3269 138.93777,-91.8294 40.2115,-17.1167 90.5995,-29.7261 134.3944,-33.6316 l 7.5822,-0.6761 9.6195,10.3517 c 5.2907,5.6935 12.871,14.4018 16.8451,19.3518 12.64179,15.7463 30.87099,45.1331 30.87099,49.7663 0,1.8935 -0.432,1.9823 -6.75,1.3881 -27.03169,-2.5424 -36.00969,-2.8678 -64.24999,-2.3285 -88.6946,1.6939 -180.29217,21.1539 -260.39427,55.321 -8.1918,3.4942 -15.5043,6.3531 -16.25,6.3531 -0.7456,0 -1.3557,-0.8525 -1.3557,-1.8944 z"
           style="fill:#ffdd55"
           inkscape:connector-curvature="0" /></g></g></g><circle
     style="opacity:1;vector-effect:none;fill:#ffffff;fill-opacity:1;stroke:none;stroke-width:0.09308768;stroke-linecap:butt;stroke-linejoin:miter;stroke-miterlimit:4;stroke-dasharray:none;stroke-dashoffset:0;stroke-opacity:1;paint-order:markers fill stroke"
     id="path1072"
     cx="284.5206"
     cy="357.64511"
     r="53.692177" /><circle
     r="16.059713"
     cy="353.80997"
     cx="210.93355"
     id="circle1074"
     style="opacity:1;vector-effect:none;fill:#ffffff;fill-opacity:1;stroke:none;stroke-width:0.09308768;stroke-linecap:butt;stroke-linejoin:miter;stroke-miterlimit:4;stroke-dasharray:none;stroke-dashoffset:0;stroke-opacity:1;paint-order:markers fill stroke" /><circle
     style="opacity:1;vector-effect:none;fill:#ffffff;fill-opacity:1;stroke:none;stroke-width:0.09308768;stroke-linecap:butt;stroke-linejoin:miter;stroke-miterlimit:4;stroke-dasharray:none;stroke-dashoffset:0;stroke-opacity:1;paint-order:markers fill stroke"
     id="circle1076"
     cx="179.05382"
     cy="354.28937"
     r="10.30698" /><g
     transform="matrix(0.52914964,0,0,0.52914964,117.34972,-241.3731)"
     id="g1090"
     style="display:inline"><rect
       rx="9.4489717"
       ry="9.4489717"
       y="1103.376"
       x="261.8595"
       height="59.116997"
       width="104.18159"
       id="rect1078"
       style="fill:#aa4400;fill-opacity:1;stroke:#000000;stroke-width:1;stroke-linecap:round;stroke-linejoin:round;stroke-miterlimit:4;stroke-dasharray:none;stroke-dashoffset:0;stroke-opacity:1;paint-order:markers fill stroke" /><rect
       rx="9.4489717"
       ry="9.4489717"
       y="1108.4639"
       x="256.77155"
       height="59.116997"
       width="104.18159"
       id="rect1080"
       style="fill:#d45500;fill-opacity:1;stroke:#000000;stroke-width:1;stroke-linecap:round;stroke-linejoin:round;stroke-miterlimit:4;stroke-dasharray:none;stroke-dashoffset:0;stroke-opacity:1;paint-order:markers fill stroke" /><path
       inkscape:connector-curvature="0"
       sodipodi:nodetypes="cccc"
       id="path1082"
       d="m 291.41799,1103.6165 v -10.5999 h 39.97665 v 10.5999"
       style="fill:none;stroke:#000000;stroke-width:6;stroke-linecap:round;stroke-linejoin:round;stroke-dasharray:none;stroke-opacity:1" /><circle
       transform="rotate(-12.313883)"
       r="6.5958123"
       cy="1196.4325"
       cx="84.393723"
       id="circle1084"
       style="opacity:0.72908403;fill:#ffcc00;fill-opacity:1;stroke:none;stroke-width:9.82979012;stroke-linecap:round;stroke-linejoin:round;stroke-miterlimit:4;stroke-dasharray:none;stroke-dashoffset:0;stroke-opacity:1;paint-order:markers fill stroke" /><circle
       transform="rotate(-12.313883)"
       r="6.5958123"
       cy="1192.2351"
       cx="92.531418"
       id="circle1086"
       style="opacity:0.72908403;fill:#00ff00;fill-opacity:1;stroke:none;stroke-width:9.82979012;stroke-linecap:round;stroke-linejoin:round;stroke-miterlimit:4;stroke-dasharray:none;stroke-dashoffset:0;stroke-opacity:1;paint-order:markers fill stroke" /><circle
       transform="rotate(-12.313883)"
       r="4.7112947"
       cy="1201.4865"
       cx="90.646896"
       id="circle1088"
       style="opacity:0.72908403;fill:#ff0000;fill-opacity:1;stroke:none;stroke-width:7.02127981;stroke-linecap:round;stroke-linejoin:round;stroke-miterlimit:4;stroke-dasharray:none;stroke-dashoffset:0;stroke-opacity:1;paint-order:markers fill stroke" /></g><g
     style="display:inline"
     id="g4900"
     transform="matrix(-0.62889153,0,0,0.62889153,1177.6413,168.68957)"><path
       id="path815"
       d="m 1338.6742,790.70595 8.8392,125.66704 -47.0246,73.3896 33.2355,79.92431"
       style="fill:none;stroke:#000000;stroke-width:6;stroke-linecap:round;stroke-linejoin:round;stroke-dasharray:none;stroke-opacity:1"
       inkscape:connector-curvature="0" /><path
       id="path838"
       d="m 1347.5134,916.37299 9.1928,79.1703 61.8747,67.10621"
       style="fill:none;stroke:#000000;stroke-width:6;stroke-linecap:round;stroke-linejoin:round;stroke-dasharray:none;stroke-opacity:1"
       inkscape:connector-curvature="0" /><path
       id="path840"
       d="m 1412.9238,916.34209 -6.0107,-75.74631 -68.2389,-49.88983 -45.964,84.95094 -50.2068,-70.87623"
       style="fill:none;stroke:#000000;stroke-width:6;stroke-linecap:round;stroke-linejoin:round;stroke-dasharray:none;stroke-opacity:1"
       inkscape:connector-curvature="0" /><circle
       r="48.804577"
       cy="746.36932"
       cx="1314.3251"
       id="path4799"
       style="fill:#ffffff;fill-opacity:1;stroke:#000000;stroke-width:6;stroke-linecap:round;stroke-linejoin:round;stroke-miterlimit:4;stroke-dasharray:none;stroke-dashoffset:0;stroke-opacity:1;paint-order:markers fill stroke" /><path
       sodipodi:nodetypes="cc"
       id="path23730"
       d="m 1298.0619,776.09296 c 4.3853,10.44433 15.4799,1.14079 17.1319,-1.37056"
       style="fill:none;stroke:#000000;stroke-width:1px;stroke-linecap:butt;stroke-linejoin:miter;stroke-opacity:1"
       inkscape:connector-curvature="0" /><g
       transform="rotate(47.718703,-322.97016,2913.8052)"
       style="display:inline"
       id="g1072-3-3"><circle
         r="9.7518816"
         transform="rotate(-32.997134)"
         cy="-227.9151"
         cx="-848.2196"
         id="circle1043-5-8"
         style="fill:#ffffff;fill-opacity:1;stroke:#000000;stroke-width:1;stroke-linecap:round;stroke-linejoin:round;stroke-miterlimit:4;stroke-dasharray:none;stroke-dashoffset:0;stroke-opacity:1;paint-order:markers fill stroke" /><circle
         r="2.1805451"
         cy="277.5069"
         cx="-836.08844"
         id="circle1045-9-0"
         style="fill:#000000;fill-opacity:1;stroke:none;stroke-width:1;stroke-linecap:round;stroke-linejoin:round;stroke-miterlimit:4;stroke-dasharray:none;stroke-dashoffset:0;stroke-opacity:1;paint-order:markers fill stroke" /></g><g
       id="g4829"
       style="display:inline"
       transform="rotate(47.718703,-307.61826,2938.0443)"><circle
         style="fill:#ffffff;fill-opacity:1;stroke:#000000;stroke-width:1;stroke-linecap:round;stroke-linejoin:round;stroke-miterlimit:4;stroke-dasharray:none;stroke-dashoffset:0;stroke-opacity:1;paint-order:markers fill stroke"
         id="circle4825"
         cx="-848.2196"
         cy="-227.9151"
         transform="rotate(-32.997134)"
         r="9.7518816" /><circle
         style="fill:#000000;fill-opacity:1;stroke:none;stroke-width:1;stroke-linecap:round;stroke-linejoin:round;stroke-miterlimit:4;stroke-dasharray:none;stroke-dashoffset:0;stroke-opacity:1;paint-order:markers fill stroke"
         id="circle4827"
         cx="-836.08844"
         cy="277.5069"
         r="2.1805451" /></g><g
       style="paint-order:markers stroke fill"
       transform="rotate(168.76403,833.9271,869.46745)"
       id="g4879"><rect
         rx="5.4822536"
         ry="5.4822536"
         y="855.86505"
         x="414.13013"
         height="38.204315"
         width="26.040609"
         id="rect4864"
         style="opacity:1;fill:#e6e6e6;fill-opacity:1;stroke:#000000;stroke-width:2;stroke-linecap:round;stroke-linejoin:round;stroke-miterlimit:4;stroke-dasharray:none;stroke-dashoffset:0;stroke-opacity:1;paint-order:markers stroke fill" /><rect
         rx="1.6959795"
         ry="1.6959795"
         y="867.06952"
         x="416.96866"
         height="3.391959"
         width="8.7827511"
         id="rect4866"
         style="opacity:1;fill:#00ff00;fill-opacity:1;stroke:none;stroke-width:2;stroke-linecap:round;stroke-linejoin:round;stroke-miterlimit:4;stroke-dasharray:none;stroke-dashoffset:0;stroke-opacity:1;paint-order:markers stroke fill" /><rect
         rx="1.6959795"
         ry="1.6959795"
         y="871.37006"
         x="416.96866"
         height="3.391959"
         width="12.416993"
         id="rect4868"
         style="opacity:1;fill:#00ff00;fill-opacity:1;stroke:none;stroke-width:2.3780601;stroke-linecap:round;stroke-linejoin:round;stroke-miterlimit:4;stroke-dasharray:none;stroke-dashoffset:0;stroke-opacity:1;paint-order:markers stroke fill" /><rect
         rx="1.6959795"
         ry="1.6959795"
         y="876.09454"
         x="416.96866"
         height="3.391959"
         width="9.9335947"
         id="rect4870"
         style="opacity:1;fill:#00ff00;fill-opacity:1;stroke:none;stroke-width:2.12700009;stroke-linecap:round;stroke-linejoin:round;stroke-miterlimit:4;stroke-dasharray:none;stroke-dashoffset:0;stroke-opacity:1;paint-order:markers stroke fill" /><rect
         rx="1.6959795"
         ry="1.6959795"
         y="882.09106"
         x="427.32623"
         height="3.391959"
         width="9.9335947"
         id="rect4873"
         style="opacity:1;fill:#ffe680;fill-opacity:1;stroke:none;stroke-width:2.12700009;stroke-linecap:round;stroke-linejoin:round;stroke-miterlimit:4;stroke-dasharray:none;stroke-dashoffset:0;stroke-opacity:1;paint-order:markers stroke fill" /><rect
         rx="1.6959795"
         ry="1.6959795"
         y="862.58728"
         x="427.32623"
         height="3.391959"
         width="9.9335947"
         id="rect4875"
         style="opacity:1;fill:#ffe680;fill-opacity:1;stroke:none;stroke-width:2.12700009;stroke-linecap:round;stroke-linejoin:round;stroke-miterlimit:4;stroke-dasharray:none;stroke-dashoffset:0;stroke-opacity:1;paint-order:markers stroke fill" /><rect
         rx="1.6959795"
         ry="1.6959795"
         y="887.17169"
         x="417.90366"
         height="3.391959"
         width="18.328264"
         id="rect4877"
         style="opacity:1;fill:#4d4d4d;fill-opacity:1;stroke:none;stroke-width:2.88917994;stroke-linecap:round;stroke-linejoin:round;stroke-miterlimit:4;stroke-dasharray:none;stroke-dashoffset:0;stroke-opacity:1;paint-order:markers stroke fill" /></g></g></svg>