<?xml version="1.0" encoding="UTF-8" standalone="no"?>
<!-- Created with Inkscape (http://www.inkscape.org/) -->

<svg
   xmlns:dc="http://purl.org/dc/elements/1.1/"
   xmlns:cc="http://creativecommons.org/ns#"
   xmlns:rdf="http://www.w3.org/1999/02/22-rdf-syntax-ns#"
   xmlns:svg="http://www.w3.org/2000/svg"
   xmlns="http://www.w3.org/2000/svg"
   xmlns:sodipodi="http://sodipodi.sourceforge.net/DTD/sodipodi-0.dtd"
   xmlns:inkscape="http://www.inkscape.org/namespaces/inkscape"
   width="740"
   height="1280"
   version="1.1"
   viewBox="0 0 740 1280"
   xml:space="preserve"
   id="svg18"
   sodipodi:docname="level12win.svg"
   inkscape:version="0.92.5 (2060ec1f9f, 2020-04-08)"><defs
     id="defs22" /><sodipodi:namedview
     pagecolor="#ffffff"
     bordercolor="#666666"
     borderopacity="1"
     objecttolerance="10"
     gridtolerance="10"
     guidetolerance="10"
     inkscape:pageopacity="0"
     inkscape:pageshadow="2"
     inkscape:window-width="1920"
     inkscape:window-height="986"
     id="namedview20"
     showgrid="false"
     inkscape:zoom="0.5"
     inkscape:cx="233.11211"
     inkscape:cy="379.93501"
     inkscape:window-x="1909"
     inkscape:window-y="49"
     inkscape:window-maximized="1"
     inkscape:current-layer="svg18"
     inkscape:snap-bbox="true"
     inkscape:bbox-paths="true"
     inkscape:snap-bbox-edge-midpoints="true"
     inkscape:bbox-nodes="true"
     inkscape:snap-bbox-midpoints="true"
     inkscape:object-paths="true"
     inkscape:snap-intersection-paths="true"
     inkscape:snap-smooth-nodes="true"
     inkscape:snap-midpoints="true"
     inkscape:snap-object-midpoints="true"
     inkscape:snap-center="true"
     inkscape:snap-text-baseline="true"
     inkscape:snap-page="true"
     inkscape:snap-global="false" /><metadata
     id="metadata2"><rdf:RDF><cc:Work
         rdf:about=""><dc:format>image/svg+xml</dc:format><dc:type
           rdf:resource="http://purl.org/dc/dcmitype/StillImage" /><dc:title /></cc:Work></rdf:RDF></metadata><rect
     style="opacity:1;vector-effect:none;fill:#5598ff;fill-opacity:1;stroke:#000000;stroke-width:1;stroke-linecap:round;stroke-linejoin:miter;stroke-miterlimit:4;stroke-dasharray:none;stroke-dashoffset:0;stroke-opacity:1;paint-order:normal"
     id="rect821"
     width="739"
     height="739"
     x="0.49998033"
     y="270.49994" /><rect
     y="733.10211"
     x="0.54661953"
     height="276.35117"
     width="738.90674"
     id="rect848"
     style="opacity:1;vector-effect:none;fill:#ddff55;fill-opacity:1;stroke:#000000;stroke-width:0.61147821;stroke-linecap:round;stroke-linejoin:miter;stroke-miterlimit:4;stroke-dasharray:none;stroke-dashoffset:0;stroke-opacity:1;paint-order:normal" /><rect
     ry="0"
     y="670.02924"
     x="237.72832"
     height="179.97076"
     width="30"
     id="rect854"
     style="opacity:1;vector-effect:none;fill:#784421;fill-opacity:1;stroke:#28170b;stroke-width:1.0289079;stroke-linecap:butt;stroke-linejoin:round;stroke-miterlimit:4;stroke-dasharray:none;stroke-dashoffset:0;stroke-opacity:1;paint-order:markers fill stroke" /><rect
     style="opacity:1;vector-effect:none;fill:#784421;fill-opacity:1;stroke:#28170b;stroke-width:1.0289079;stroke-linecap:butt;stroke-linejoin:round;stroke-miterlimit:4;stroke-dasharray:none;stroke-dashoffset:0;stroke-opacity:1;paint-order:markers fill stroke"
     id="rect856"
     width="30"
     height="179.97076"
     x="456.75723"
     y="670.02924"
     ry="0" /><rect
     style="opacity:1;vector-effect:none;fill:#d38d5f;fill-opacity:1;stroke:#502d16;stroke-width:1.0289079;stroke-linecap:butt;stroke-linejoin:round;stroke-miterlimit:4;stroke-dasharray:none;stroke-dashoffset:0;stroke-opacity:1;paint-order:markers fill stroke"
     id="rect850"
     width="30"
     height="179.97076"
     x="253.24277"
     y="670.02924"
     ry="0" /><rect
     ry="0"
     y="670.02924"
     x="472.2717"
     height="179.97076"
     width="30"
     id="rect852"
     style="opacity:1;vector-effect:none;fill:#d38d5f;fill-opacity:1;stroke:#502d16;stroke-width:1.0289079;stroke-linecap:butt;stroke-linejoin:round;stroke-miterlimit:4;stroke-dasharray:none;stroke-dashoffset:0;stroke-opacity:1;paint-order:markers fill stroke;font-variant-east_asian:normal" /><path
     style="fill:#d38d5f;stroke:#502d16;stroke-width:1.0289079;stroke-linecap:butt;stroke-linejoin:round;stroke-opacity:1;font-variant-east_asian:normal;opacity:1;vector-effect:none;fill-opacity:1;stroke-miterlimit:4;stroke-dasharray:none;stroke-dashoffset:0;paint-order:markers fill stroke"
     d="M 214.6269,670.02924 H 524.89859 L 369.76274,471 Z"
     id="path864"
     inkscape:connector-curvature="0"
     sodipodi:nodetypes="cccc" /><path
     sodipodi:nodetypes="cccc"
     inkscape:connector-curvature="0"
     id="path888"
     d="M 151.72204,669.93409 H 587.80345 L 369.76274,471.09515 Z"
     style="opacity:1;vector-effect:none;fill:#784421;fill-opacity:1;stroke:#28170b;stroke-width:1.21921837;stroke-linecap:butt;stroke-linejoin:round;stroke-miterlimit:4;stroke-dasharray:none;stroke-dashoffset:0;stroke-opacity:1;paint-order:markers fill stroke" /><path
     style="opacity:1;vector-effect:none;fill:#d38d5f;fill-opacity:1;stroke:#502d16;stroke-width:1.0289079;stroke-linecap:butt;stroke-linejoin:round;stroke-miterlimit:4;stroke-dasharray:none;stroke-dashoffset:0;stroke-opacity:1;paint-order:markers fill stroke;font-variant-east_asian:normal"
     d="M 204.72204,669.93409 H 587.80345 L 369.76274,471.09515 Z"
     id="path908"
     inkscape:connector-curvature="0"
     sodipodi:nodetypes="cccc" /><path
     style="opacity:1;vector-effect:none;fill:#ffffff;fill-opacity:1;stroke:none;stroke-width:1.0289079;stroke-linecap:butt;stroke-linejoin:round;stroke-miterlimit:4;stroke-dasharray:none;stroke-dashoffset:0;stroke-opacity:1;paint-order:markers fill stroke"
     d="m 163.99805,317.59375 a 23.499989,23.499989 0 0 0 -22.75391,17.74414 16.946735,16.946735 0 0 0 -3.59766,-0.39648 16.946735,16.946735 0 0 0 -10.1289,3.38086 23.499989,23.499989 0 0 0 -10.89649,-2.69727 23.499989,23.499989 0 0 0 -23.5,23.5 23.499989,23.499989 0 0 0 6.22071,15.89062 16.946735,16.946735 0 0 0 -0.28907,3.03711 A 16.946735,16.946735 0 0 0 116,395 h 83 a 23.499989,23.499989 0 0 0 23.5,-23.5 23.499989,23.499989 0 0 0 -11.55859,-20.20898 16.946735,16.946735 0 0 0 0.2207,-2.58399 16.946735,16.946735 0 0 0 -16.94727,-16.94726 16.946735,16.946735 0 0 0 -7.92773,1.98242 23.499989,23.499989 0 0 0 -22.28906,-16.14844 z"
     id="rect924"
     inkscape:connector-curvature="0" /><rect
     style="opacity:1;vector-effect:none;fill:#000000;fill-opacity:0.27188942;stroke:none;stroke-width:1.0289079;stroke-linecap:butt;stroke-linejoin:round;stroke-miterlimit:4;stroke-dasharray:none;stroke-dashoffset:0;stroke-opacity:1;paint-order:markers fill stroke"
     id="rect939"
     width="134"
     height="22"
     x="379.74265"
     y="632"
     ry="11"
     rx="11" /><rect
     ry="9.2811251"
     y="597.5"
     x="348.74265"
     height="22"
     width="103.94796"
     id="rect941"
     style="opacity:1;vector-effect:none;fill:#000000;fill-opacity:0.27188942;stroke:none;stroke-width:1.0289079;stroke-linecap:butt;stroke-linejoin:round;stroke-miterlimit:4;stroke-dasharray:none;stroke-dashoffset:0;stroke-opacity:1;paint-order:markers fill stroke"
     rx="9.2811251" /><rect
     style="opacity:1;vector-effect:none;fill:#000000;fill-opacity:0.27188942;stroke:none;stroke-width:1.0289079;stroke-linecap:butt;stroke-linejoin:round;stroke-miterlimit:4;stroke-dasharray:none;stroke-dashoffset:0;stroke-opacity:1;paint-order:markers fill stroke"
     id="rect943"
     width="119.07297"
     height="22"
     x="334.24695"
     y="563"
     ry="9.2811251"
     rx="9.2811251" /><rect
     style="opacity:1;vector-effect:none;fill:#000000;fill-opacity:0.27188942;stroke:none;stroke-width:1.0289079;stroke-linecap:butt;stroke-linejoin:round;stroke-miterlimit:4;stroke-dasharray:none;stroke-dashoffset:0;stroke-opacity:1;paint-order:markers fill stroke"
     id="rect945"
     width="74.572968"
     height="22"
     x="337.61765"
     y="528.5"
     ry="9.2811251"
     rx="9.2811251" /><g
     id="g1181"><g
       transform="matrix(-0.86862745,0,0,0.86862745,957.5623,271.5566)"
       id="g1402"
       style="display:inline"><path
         id="path1279"
         d="M 428.63616,766.51727 456.39595,646.75816 447.83602,749.5574"
         style="fill:none;stroke:#000000;stroke-width:7.75994253px;stroke-linecap:round;stroke-linejoin:round;stroke-miterlimit:4;stroke-dasharray:none;stroke-opacity:1"
         inkscape:connector-curvature="0" /><path
         id="path1281"
         d="m 456.39595,646.75816 27.7598,119.75911"
         style="fill:none;stroke:#000000;stroke-width:7.75994253px;stroke-linecap:round;stroke-linejoin:round;stroke-miterlimit:4;stroke-dasharray:none;stroke-opacity:1"
         inkscape:connector-curvature="0" /><path
         id="path1283"
         d="m 456.39595,588.1986 c -1.19999,0 -2.31998,0 -3.51997,0.08 v 0 c -30.87977,0.88 -55.03959,13.6799 -55.03959,29.19979 0,12.7199 16.47987,23.99982 40.6397,27.83979 -0.08,0.48 -0.24,0.95999 -0.24,1.43999 0,5.03996 8.15994,9.03993 18.15986,9.03993 9.99993,0 18.15987,-3.99997 18.15987,-9.03993 0,-0.48 -0.08,-0.95999 -0.24,-1.43999 24.15982,-3.83997 40.6397,-15.11989 40.6397,-27.83979 0,-15.19989 -23.27983,-27.8398 -53.5996,-29.11979 v 0 c -1.67999,-0.08 -3.27998,-0.15999 -4.95997,-0.15999 z"
         style="fill:#000000;fill-opacity:1;fill-rule:nonzero;stroke:#000000;stroke-width:3.99997044px;stroke-linecap:round;stroke-linejoin:round;stroke-miterlimit:4;stroke-dasharray:none;stroke-opacity:1"
         inkscape:connector-curvature="0" /><path
         id="path1285"
         d="m 474.55582,646.75816 c 0,5.03996 -8.15994,9.03993 -18.15987,9.03993 -9.99992,0 -18.15986,-3.99997 -18.15986,-9.03993 0,-5.03996 8.15994,-9.03993 18.15986,-9.03993 9.99993,0 18.15987,3.99997 18.15987,9.03993 z"
         style="fill:#a05a2c;fill-opacity:1;fill-rule:nonzero;stroke:none"
         inkscape:connector-curvature="0" /><path
         id="path1287"
         d="m 514.95552,617.47838 c 0,16.15988 -26.23981,29.27978 -58.55957,29.27978 -32.31976,0 -58.55956,-13.1199 -58.55956,-29.27978 0,-16.15988 26.2398,-29.27978 58.55956,-29.27978 32.31976,0 58.55957,13.1199 58.55957,29.27978 z"
         style="fill:#916f6f;fill-opacity:1;fill-rule:nonzero;stroke:none"
         inkscape:connector-curvature="0" /><path
         id="path1289"
         d="m 505.91558,609.95843 c 0,10.87992 -22.15983,19.75986 -49.51963,19.75986 -27.35979,0 -49.51963,-8.87994 -49.51963,-19.75986 0,-10.95992 22.15984,-19.83985 49.51963,-19.83985 27.3598,0 49.51963,8.87993 49.51963,19.83985 z"
         style="fill:#ff0000;fill-opacity:1;fill-rule:nonzero;stroke:none"
         inkscape:connector-curvature="0" /><path
         id="path1291"
         d="m 447.99602,596.99853 h 16.79987"
         style="fill:none;stroke:#000000;stroke-width:0.8799935px;stroke-linecap:butt;stroke-linejoin:miter;stroke-miterlimit:4;stroke-dasharray:none;stroke-opacity:1"
         inkscape:connector-curvature="0" /><path
         id="path1293"
         d="m 456.39595,597.39853 c -23.83982,0 -44.23967,6.79995 -48.63964,16.15988 4.39997,9.35993 24.79982,16.15988 48.63964,16.15988 23.83983,0 44.23967,-6.79995 48.63964,-16.15988 -4.39997,-9.35993 -24.79981,-16.15988 -48.63964,-16.15988 z"
         style="fill:#d40000;fill-opacity:1;fill-rule:nonzero;stroke:none"
         inkscape:connector-curvature="0" /><path
         id="path1295"
         d="m 421.43621,609.07844 h 69.91948"
         style="fill:none;stroke:#000000;stroke-width:0.8799935px;stroke-linecap:butt;stroke-linejoin:miter;stroke-miterlimit:4;stroke-dasharray:none;stroke-opacity:1"
         inkscape:connector-curvature="0" /><path
         id="path1297"
         d="m 430.39615,603.07848 h 52.07961"
         style="fill:none;stroke:#000000;stroke-width:1.03999233px;stroke-linecap:butt;stroke-linejoin:miter;stroke-miterlimit:4;stroke-dasharray:none;stroke-opacity:1"
         inkscape:connector-curvature="0" /><path
         id="path1299"
         d="m 447.99602,621.15835 h 16.79987"
         style="fill:none;stroke:#000000;stroke-width:0.8799935px;stroke-linecap:butt;stroke-linejoin:miter;stroke-miterlimit:4;stroke-dasharray:none;stroke-opacity:1"
         inkscape:connector-curvature="0" /><path
         id="path1301"
         d="m 430.39615,615.15839 h 52.07961"
         style="fill:none;stroke:#000000;stroke-width:1.03999233px;stroke-linecap:butt;stroke-linejoin:miter;stroke-miterlimit:4;stroke-dasharray:none;stroke-opacity:1"
         inkscape:connector-curvature="0" /></g></g><path
     style="display:inline;fill:none;stroke:#000000;stroke-width:4.36483908;stroke-linecap:round;stroke-linejoin:round;stroke-dasharray:none;stroke-opacity:1;paint-order:markers fill stroke"
     d="m 418.61051,763.41104 -0.073,72.88024 28.66175,39.76626 -14.10035,58.5164"
     id="path1362"
     inkscape:connector-curvature="0"
     sodipodi:nodetypes="cccc" /><g
     style="display:inline"
     id="g4981"
     transform="matrix(0.73465755,0,0,0.73465755,1073.2532,526.23252)"><g
       id="g4766"><circle
         r="48.804577"
         cy="269.35016"
         cx="-1095.7184"
         id="circle2342"
         style="fill:#ffffff;fill-opacity:1;stroke:#000000;stroke-width:6;stroke-linecap:round;stroke-linejoin:round;stroke-miterlimit:4;stroke-dasharray:none;stroke-dashoffset:0;stroke-opacity:1;paint-order:markers fill stroke" /><path
         inkscape:connector-curvature="0"
         id="path2345"
         d="m -1219.3636,560.93963 -23.2994,-75.38071 86.3451,-60.30457 32.2082,71.26904 74.6954,4.11167"
         style="opacity:1;fill:none;fill-opacity:1;stroke:#000000;stroke-width:6;stroke-linecap:round;stroke-linejoin:round;stroke-miterlimit:4;stroke-dasharray:none;stroke-dashoffset:0;stroke-opacity:1;paint-order:markers fill stroke" /><path
         inkscape:connector-curvature="0"
         sodipodi:nodetypes="cc"
         id="path2347"
         d="m -1156.3179,425.25435 34.264,-111.01523"
         style="opacity:1;fill:none;fill-opacity:1;stroke:#000000;stroke-width:6;stroke-linecap:round;stroke-linejoin:round;stroke-miterlimit:4;stroke-dasharray:none;stroke-dashoffset:0;stroke-opacity:1;paint-order:markers fill stroke" /><path
         inkscape:connector-curvature="0"
         id="path2349"
         d="m -1263.2214,293.68075 65.1015,32.8934 75.3807,-12.33503 -75.3807,43.17259 -106.9036,-21.24365"
         style="opacity:1;fill:none;fill-opacity:1;stroke:#000000;stroke-width:6;stroke-linecap:round;stroke-linejoin:round;stroke-miterlimit:4;stroke-dasharray:none;stroke-dashoffset:0;stroke-opacity:1;paint-order:markers fill stroke" /><path
         inkscape:connector-curvature="0"
         sodipodi:nodetypes="ccc"
         id="path2422"
         d="m -1131.4561,276.68694 c -4.3101,21.96715 8.2939,17.15347 18.8981,15.5061 z"
         style="fill:none;stroke:#000000;stroke-width:1px;stroke-linecap:round;stroke-linejoin:round;stroke-opacity:1" /><path
         inkscape:connector-curvature="0"
         id="path3895"
         d="m -1139.4514,256.0929 63.4781,56.45189 10.9027,-4.60337 8.4799,-7.51077 -74.3808,-63.96265 -7.0262,6.54163 -5.5725,10.17588 z"
         style="fill:#000000;stroke:#000000;stroke-width:1px;stroke-linecap:butt;stroke-linejoin:miter;stroke-opacity:1" /><g
         id="g4746"
         transform="rotate(80.393351,-970.95921,91.807499)"><circle
           r="9.7518816"
           transform="rotate(-32.997134)"
           cy="-227.9151"
           cx="-848.2196"
           id="circle4742"
           style="fill:#ffffff;fill-opacity:1;stroke:#000000;stroke-width:1;stroke-linecap:round;stroke-linejoin:round;stroke-miterlimit:4;stroke-dasharray:none;stroke-dashoffset:0;stroke-opacity:1;paint-order:markers fill stroke" /><circle
           r="2.1805451"
           cy="277.5069"
           cx="-836.08844"
           id="circle4744"
           style="fill:#000000;fill-opacity:1;stroke:none;stroke-width:1;stroke-linecap:round;stroke-linejoin:round;stroke-miterlimit:4;stroke-dasharray:none;stroke-dashoffset:0;stroke-opacity:1;paint-order:markers fill stroke" /></g><g
         transform="rotate(80.393351,-971.334,109.19628)"
         id="g4752"><circle
           style="fill:#ffffff;fill-opacity:1;stroke:#000000;stroke-width:1;stroke-linecap:round;stroke-linejoin:round;stroke-miterlimit:4;stroke-dasharray:none;stroke-dashoffset:0;stroke-opacity:1;paint-order:markers fill stroke"
           id="circle4748"
           cx="-848.2196"
           cy="-227.9151"
           transform="rotate(-32.997134)"
           r="9.7518816" /><circle
           style="fill:#000000;fill-opacity:1;stroke:none;stroke-width:1;stroke-linecap:round;stroke-linejoin:round;stroke-miterlimit:4;stroke-dasharray:none;stroke-dashoffset:0;stroke-opacity:1;paint-order:markers fill stroke"
           id="circle4750"
           cx="-836.08844"
           cy="277.5069"
           r="2.1805451" /></g></g></g><g
     style="display:inline"
     id="g1424"
     inkscape:export-xdpi="96"
     inkscape:export-ydpi="96"
     transform="rotate(9.4812126,-2662.7444,-833.59794)"><path
       sodipodi:nodetypes="sssss"
       inkscape:connector-curvature="0"
       id="path1419"
       d="m 349.26393,245.78457 c -9.71121,-6.57667 -12.98303,7.51681 -3.77278,14.0802 9.03262,6.43681 43.99838,8.2228 55.83243,1.91673 9.18128,-4.89248 9.55494,-20.98899 0.0623,-15.51863 -12.48336,7.19382 -39.6434,7.97248 -52.12195,-0.4783 z"
       style="fill:#c87137;stroke:#000000;stroke-width:1;stroke-linecap:butt;stroke-linejoin:miter;stroke-miterlimit:4;stroke-dasharray:none;stroke-opacity:1;paint-order:markers fill stroke" /><path
       style="fill:#d40000;stroke:#000000;stroke-width:1;stroke-linecap:butt;stroke-linejoin:miter;stroke-miterlimit:4;stroke-dasharray:none;stroke-opacity:1;paint-order:markers fill stroke"
       d="m 348.56648,253.99365 c -9.27921,-8.73047 -16.27733,5.90564 -5.46876,9.23454 10.80857,3.3289 52.46064,5.41495 63.10091,1.91673 10.64026,-3.49822 4.34317,-18.23941 -3.57195,-12.12667 -9.04307,6.98384 -44.19465,10.25753 -54.0602,0.9754 z"
       id="path1405"
       inkscape:connector-curvature="0"
       sodipodi:nodetypes="sssss" /><path
       style="fill:#c87137;stroke:#000000;stroke-width:1;stroke-linecap:butt;stroke-linejoin:miter;stroke-miterlimit:4;stroke-dasharray:none;stroke-opacity:1;paint-order:markers fill stroke"
       d="m 349.43525,260.34675 c -9.71121,-6.57667 -12.98303,7.51681 -3.77278,14.0802 9.03262,6.43681 43.99838,8.2228 55.83243,1.91673 9.18128,-4.89248 9.55494,-20.98899 0.0623,-15.51863 -12.48336,7.19382 -39.6434,7.97248 -52.12195,-0.4783 z"
       id="path1407"
       inkscape:connector-curvature="0"
       sodipodi:nodetypes="sssss" /></g><g
     transform="matrix(-0.91257168,0,0,0.91257168,1002.2755,231.93407)"
     style="display:inline"
     id="g970"><circle
       style="fill:#ffffff;fill-opacity:1;stroke:#000000;stroke-width:5.1338048;stroke-linecap:round;stroke-linejoin:round;stroke-miterlimit:4;stroke-dasharray:none;stroke-dashoffset:0;stroke-opacity:1;paint-order:markers fill stroke"
       id="circle5704"
       cx="621.78125"
       cy="541.02448"
       r="41.758862" /><circle
       style="fill:#ffffff;fill-opacity:1;stroke:#000000;stroke-width:0.85563415;stroke-linecap:round;stroke-linejoin:round;stroke-miterlimit:4;stroke-dasharray:none;stroke-dashoffset:0;stroke-opacity:1;paint-order:markers fill stroke"
       id="circle5706"
       cx="201.75954"
       cy="788.40778"
       r="9.731411"
       transform="rotate(-32.997133)" /><circle
       style="fill:#ffffff;fill-opacity:1;stroke:#000000;stroke-width:0.85563415;stroke-linecap:round;stroke-linejoin:round;stroke-miterlimit:4;stroke-dasharray:none;stroke-dashoffset:0;stroke-opacity:1;paint-order:markers fill stroke"
       id="circle5712"
       cx="218.87222"
       cy="794.12372"
       r="12.064311"
       transform="rotate(-32.997133)" /><circle
       style="fill:#000000;fill-opacity:1;stroke:none;stroke-width:0.85563415;stroke-linecap:round;stroke-linejoin:round;stroke-miterlimit:4;stroke-dasharray:none;stroke-dashoffset:0;stroke-opacity:1;paint-order:markers fill stroke"
       id="circle5714"
       cx="592.96246"
       cy="553.68555"
       r="1.8657489" /><circle
       style="fill:#000000;fill-opacity:1;stroke:none;stroke-width:0.85563415;stroke-linecap:round;stroke-linejoin:round;stroke-miterlimit:4;stroke-dasharray:none;stroke-dashoffset:0;stroke-opacity:1;paint-order:markers fill stroke"
       id="circle5716"
       cx="610.42767"
       cy="549.15979"
       r="1.8657489" /><circle
       style="opacity:1;fill:#ff0000;fill-opacity:1;stroke:#000000;stroke-width:0.85563415;stroke-linecap:round;stroke-linejoin:round;stroke-miterlimit:4;stroke-dasharray:none;stroke-dashoffset:0;stroke-opacity:1;paint-order:markers fill stroke"
       id="path5720"
       cx="617.25983"
       cy="573.66034"
       r="10.365272" /><path
       style="fill:none;stroke:#000000;stroke-width:5.1338048;stroke-linecap:round;stroke-linejoin:round;stroke-dasharray:none;stroke-opacity:1"
       d="m 638.19767,582.36717 24.04742,64.67929 -33.99811,61.77702 6.63382,59.28935"
       id="path9352"
       sodipodi:nodetypes="cccc"
       inkscape:connector-curvature="0" /><path
       style="fill:none;stroke:#000000;stroke-width:5.1338048;stroke-linecap:round;stroke-linejoin:round;stroke-dasharray:none;stroke-opacity:1"
       d="m 662.24509,647.04646 8.29221,70.06923 20.31592,60.05608"
       id="path9354"
       sodipodi:nodetypes="ccc"
       inkscape:connector-curvature="0" /><path
       style="opacity:1;fill:none;fill-opacity:1;stroke:#000000;stroke-width:5.1338048;stroke-linecap:round;stroke-linejoin:round;stroke-miterlimit:4;stroke-dasharray:none;stroke-dashoffset:0;stroke-opacity:1;paint-order:markers fill stroke"
       d="m 557.34854,625.4867 45.19263,12.85294 35.24186,-55.97247 48.92413,5.80455 -45.60718,-63.02084"
       id="path10808"
       inkscape:connector-curvature="0" /></g><g
     id="g1143"
     transform="translate(-499.21739,-62.932504)"><path
       style="display:inline;fill:none;stroke:#666666;stroke-width:3.47450972;stroke-linecap:butt;stroke-linejoin:miter;stroke-miterlimit:4;stroke-dasharray:none;stroke-opacity:1"
       d="m 965.14577,941.0141 25.14938,13.39318"
       id="path1112"
       inkscape:connector-curvature="0" /><path
       style="display:inline;opacity:1;vector-effect:none;fill:none;fill-opacity:1;stroke:#666666;stroke-width:3.47450972;stroke-linecap:butt;stroke-linejoin:miter;stroke-miterlimit:4;stroke-dasharray:none;stroke-dashoffset:0;stroke-opacity:1"
       d="m 993.4778,947.96625 c -11.79363,-1.69912 -17.48192,0.78494 -7.91998,13.71785"
       id="path1114"
       inkscape:connector-curvature="0"
       sodipodi:nodetypes="cc" /></g></svg>